<svg width="271" height="140" viewBox="0 0 271 140" fill="none" xmlns="http://www.w3.org/2000/svg">
<path d="M196.204 114.648C196.708 114.648 197.14 114.724 197.5 114.876C197.868 115.02 198.224 115.248 198.568 115.56L198.148 116.016C197.836 115.752 197.532 115.56 197.236 115.44C196.94 115.32 196.604 115.26 196.228 115.26C195.716 115.26 195.304 115.388 194.992 115.644C194.68 115.892 194.524 116.228 194.524 116.652C194.524 116.94 194.58 117.18 194.692 117.372C194.812 117.556 195.008 117.724 195.28 117.876C195.552 118.02 195.94 118.168 196.444 118.32C196.988 118.488 197.428 118.668 197.764 118.86C198.1 119.052 198.36 119.3 198.544 119.604C198.728 119.908 198.82 120.292 198.82 120.756C198.82 121.22 198.708 121.632 198.484 121.992C198.26 122.352 197.94 122.632 197.524 122.832C197.116 123.032 196.64 123.132 196.096 123.132C195.072 123.132 194.196 122.788 193.468 122.1L193.876 121.644C194.212 121.932 194.552 122.152 194.896 122.304C195.24 122.448 195.636 122.52 196.084 122.52C196.676 122.52 197.156 122.364 197.524 122.052C197.9 121.74 198.088 121.316 198.088 120.78C198.088 120.444 198.024 120.168 197.896 119.952C197.776 119.736 197.576 119.552 197.296 119.4C197.024 119.24 196.636 119.08 196.132 118.92C195.292 118.664 194.692 118.368 194.332 118.032C193.972 117.696 193.792 117.24 193.792 116.664C193.792 116.28 193.892 115.936 194.092 115.632C194.3 115.32 194.584 115.08 194.944 114.912C195.312 114.736 195.732 114.648 196.204 114.648ZM206.861 116.592C207.365 116.592 207.761 116.764 208.049 117.108C208.345 117.452 208.493 117.92 208.493 118.512V123H207.797V118.608C207.797 118.112 207.701 117.748 207.509 117.516C207.325 117.276 207.065 117.156 206.729 117.156C206.377 117.156 206.061 117.268 205.781 117.492C205.501 117.716 205.229 118.036 204.965 118.452V123H204.269V118.608C204.269 118.112 204.173 117.748 203.981 117.516C203.797 117.276 203.537 117.156 203.201 117.156C202.841 117.156 202.521 117.268 202.241 117.492C201.961 117.716 201.693 118.036 201.437 118.452V123H200.741V116.724H201.341L201.401 117.792C201.641 117.416 201.925 117.124 202.253 116.916C202.581 116.7 202.941 116.592 203.333 116.592C203.733 116.592 204.069 116.704 204.341 116.928C204.613 117.144 204.797 117.448 204.893 117.84C205.141 117.448 205.429 117.144 205.757 116.928C206.093 116.704 206.461 116.592 206.861 116.592ZM213.131 116.592C213.963 116.592 214.611 116.88 215.075 117.456C215.547 118.024 215.783 118.82 215.783 119.844C215.783 120.86 215.543 121.664 215.063 122.256C214.591 122.84 213.943 123.132 213.119 123.132C212.287 123.132 211.635 122.844 211.163 122.268C210.699 121.684 210.467 120.884 210.467 119.868C210.467 119.204 210.575 118.624 210.791 118.128C211.007 117.632 211.315 117.252 211.715 116.988C212.115 116.724 212.587 116.592 213.131 116.592ZM213.131 117.18C212.523 117.18 212.051 117.408 211.715 117.864C211.379 118.32 211.211 118.988 211.211 119.868C211.211 120.74 211.375 121.404 211.703 121.86C212.039 122.316 212.511 122.544 213.119 122.544C213.727 122.544 214.199 122.316 214.535 121.86C214.879 121.404 215.051 120.732 215.051 119.844C215.051 118.972 214.883 118.312 214.547 117.864C214.219 117.408 213.747 117.18 213.131 117.18ZM218.523 114.084V123H217.827V114.168L218.523 114.084ZM222.039 116.724L219.399 119.532L222.315 123H221.475L218.595 119.568L221.235 116.724H222.039ZM228.056 119.628C228.056 119.804 228.048 119.972 228.032 120.132H223.844C223.884 120.948 224.076 121.556 224.42 121.956C224.772 122.348 225.232 122.544 225.8 122.544C226.128 122.544 226.416 122.496 226.664 122.4C226.92 122.296 227.196 122.136 227.492 121.92L227.816 122.364C227.504 122.62 227.184 122.812 226.856 122.94C226.528 123.068 226.164 123.132 225.764 123.132C224.932 123.132 224.28 122.848 223.808 122.28C223.336 121.712 223.1 120.924 223.1 119.916C223.1 119.252 223.2 118.672 223.4 118.176C223.608 117.672 223.9 117.284 224.276 117.012C224.66 116.732 225.104 116.592 225.608 116.592C226.408 116.592 227.016 116.864 227.432 117.408C227.848 117.944 228.056 118.684 228.056 119.628ZM227.372 119.412C227.372 118.708 227.224 118.16 226.928 117.768C226.64 117.368 226.208 117.168 225.632 117.168C225.112 117.168 224.692 117.368 224.372 117.768C224.052 118.168 223.876 118.776 223.844 119.592H227.372V119.412ZM232.018 123.024C231.85 123.512 231.666 123.912 231.466 124.224C231.266 124.536 231.006 124.792 230.686 124.992C230.366 125.2 229.954 125.352 229.45 125.448L229.378 124.908C229.794 124.804 230.118 124.676 230.35 124.524C230.59 124.372 230.778 124.18 230.914 123.948C231.058 123.724 231.202 123.408 231.346 123H231.106L228.922 116.724H229.678L231.574 122.484L233.434 116.724H234.166L232.018 123.024ZM242.339 118.644C242.899 118.708 243.355 118.908 243.707 119.244C244.059 119.572 244.235 120.064 244.235 120.72C244.235 121.488 243.975 122.06 243.455 122.436C242.935 122.812 242.211 123 241.283 123H239.039V114.78H240.875C241.827 114.78 242.559 114.952 243.071 115.296C243.591 115.64 243.851 116.152 243.851 116.832C243.851 117.336 243.711 117.744 243.431 118.056C243.159 118.368 242.795 118.564 242.339 118.644ZM239.759 115.38V118.392H241.415C241.927 118.392 242.339 118.26 242.651 117.996C242.963 117.724 243.119 117.352 243.119 116.88C243.119 116.344 242.935 115.96 242.567 115.728C242.207 115.496 241.667 115.38 240.947 115.38H239.759ZM241.283 122.4C242.755 122.4 243.491 121.84 243.491 120.72C243.491 120.128 243.307 119.688 242.939 119.4C242.579 119.112 242.099 118.968 241.499 118.968H239.759V122.4H241.283ZM247.195 123.132C246.851 123.132 246.579 123.032 246.379 122.832C246.187 122.632 246.091 122.336 246.091 121.944V114.168L246.787 114.084V121.92C246.787 122.328 246.955 122.532 247.291 122.532C247.459 122.532 247.603 122.504 247.723 122.448L247.915 122.964C247.691 123.076 247.451 123.132 247.195 123.132ZM253.402 121.608C253.402 121.936 253.442 122.172 253.522 122.316C253.61 122.46 253.746 122.568 253.93 122.64L253.774 123.132C253.486 123.076 253.262 122.968 253.102 122.808C252.95 122.648 252.85 122.404 252.802 122.076C252.37 122.78 251.718 123.132 250.846 123.132C250.246 123.132 249.77 122.964 249.418 122.628C249.074 122.284 248.902 121.828 248.902 121.26C248.902 120.612 249.13 120.112 249.586 119.76C250.05 119.408 250.69 119.232 251.506 119.232H252.706V118.62C252.706 118.116 252.594 117.752 252.37 117.528C252.146 117.296 251.774 117.18 251.254 117.18C250.774 117.18 250.206 117.3 249.55 117.54L249.37 117.012C250.074 116.732 250.734 116.592 251.35 116.592C252.718 116.592 253.402 117.256 253.402 118.584V121.608ZM250.966 122.568C251.718 122.568 252.298 122.2 252.706 121.464V119.736H251.614C250.974 119.736 250.486 119.86 250.15 120.108C249.814 120.356 249.646 120.728 249.646 121.224C249.646 121.656 249.762 121.988 249.994 122.22C250.226 122.452 250.55 122.568 250.966 122.568ZM258.084 116.592C258.444 116.592 258.764 116.644 259.044 116.748C259.324 116.844 259.596 117.004 259.86 117.228L259.512 117.684C259.304 117.516 259.088 117.392 258.864 117.312C258.648 117.232 258.4 117.192 258.12 117.192C257.528 117.192 257.056 117.424 256.704 117.888C256.352 118.344 256.176 119.012 256.176 119.892C256.176 120.764 256.348 121.42 256.692 121.86C257.044 122.3 257.516 122.52 258.108 122.52C258.388 122.52 258.64 122.476 258.864 122.388C259.096 122.3 259.328 122.168 259.56 121.992L259.896 122.46C259.368 122.908 258.768 123.132 258.096 123.132C257.56 123.132 257.092 123.004 256.692 122.748C256.292 122.492 255.98 122.124 255.756 121.644C255.54 121.156 255.432 120.576 255.432 119.904C255.432 119.24 255.54 118.66 255.756 118.164C255.98 117.66 256.292 117.272 256.692 117C257.092 116.728 257.556 116.592 258.084 116.592ZM262.257 114.084V123H261.561V114.168L262.257 114.084ZM265.773 116.724L263.133 119.532L266.049 123H265.209L262.329 119.568L264.969 116.724H265.773ZM198.856 131.576H197.92L197.56 134.288H198.412V134.84H197.488L197.2 137H196.576L196.864 134.84H194.668L194.38 137H193.756L194.044 134.84H193.18V134.288H194.116L194.476 131.576H193.624V131.012H194.548L194.812 129.02H195.436L195.172 131.012H197.368L197.632 129.02H198.256L197.992 131.012H198.856V131.576ZM196.936 134.288L197.296 131.576H195.1L194.74 134.288H196.936ZM202.335 128.888C203.159 128.888 203.783 129.24 204.207 129.944C204.631 130.64 204.843 131.664 204.843 133.016C204.843 134.36 204.627 135.384 204.195 136.088C203.771 136.784 203.151 137.132 202.335 137.132C201.511 137.132 200.887 136.784 200.463 136.088C200.039 135.384 199.827 134.356 199.827 133.004C199.827 131.652 200.039 130.628 200.463 129.932C200.887 129.236 201.511 128.888 202.335 128.888ZM202.335 129.464C201.143 129.464 200.547 130.644 200.547 133.004C200.547 135.372 201.143 136.556 202.335 136.556C202.919 136.556 203.359 136.268 203.655 135.692C203.959 135.116 204.111 134.224 204.111 133.016C204.111 131.808 203.959 130.916 203.655 130.34C203.359 129.756 202.919 129.464 202.335 129.464ZM209.677 132.776C210.293 133.024 210.741 133.316 211.021 133.652C211.309 133.98 211.453 134.404 211.453 134.924C211.453 135.364 211.341 135.752 211.117 136.088C210.901 136.416 210.593 136.672 210.193 136.856C209.801 137.04 209.349 137.132 208.837 137.132C208.325 137.132 207.873 137.04 207.481 136.856C207.097 136.672 206.797 136.416 206.581 136.088C206.373 135.752 206.269 135.368 206.269 134.936C206.269 133.912 206.841 133.172 207.985 132.716C207.513 132.5 207.165 132.252 206.941 131.972C206.725 131.684 206.617 131.32 206.617 130.88C206.617 130.472 206.721 130.116 206.929 129.812C207.137 129.508 207.413 129.28 207.757 129.128C208.101 128.968 208.469 128.888 208.861 128.888C209.253 128.888 209.621 128.964 209.965 129.116C210.309 129.268 210.585 129.492 210.793 129.788C211.009 130.084 211.117 130.444 211.117 130.868C211.117 131.284 211.001 131.644 210.769 131.948C210.537 132.244 210.173 132.52 209.677 132.776ZM207.313 130.892C207.313 131.276 207.421 131.58 207.637 131.804C207.861 132.028 208.245 132.24 208.789 132.44L209.161 132.572C209.609 132.332 209.929 132.084 210.121 131.828C210.321 131.572 210.421 131.26 210.421 130.892C210.421 130.436 210.277 130.08 209.989 129.824C209.709 129.568 209.333 129.44 208.861 129.44C208.405 129.44 208.033 129.568 207.745 129.824C207.457 130.08 207.313 130.436 207.313 130.892ZM208.849 136.544C209.417 136.544 209.869 136.404 210.205 136.124C210.549 135.836 210.721 135.436 210.721 134.924C210.721 134.604 210.661 134.34 210.541 134.132C210.421 133.916 210.237 133.732 209.989 133.58C209.741 133.42 209.393 133.256 208.945 133.088L208.537 132.932C208.001 133.14 207.609 133.408 207.361 133.736C207.121 134.056 207.001 134.456 207.001 134.936C207.001 135.448 207.169 135.844 207.505 136.124C207.841 136.404 208.289 136.544 208.849 136.544ZM215.39 128.888C216.214 128.888 216.838 129.24 217.262 129.944C217.686 130.64 217.898 131.664 217.898 133.016C217.898 134.36 217.682 135.384 217.25 136.088C216.826 136.784 216.206 137.132 215.39 137.132C214.566 137.132 213.942 136.784 213.518 136.088C213.094 135.384 212.882 134.356 212.882 133.004C212.882 131.652 213.094 130.628 213.518 129.932C213.942 129.236 214.566 128.888 215.39 128.888ZM215.39 129.464C214.198 129.464 213.602 130.644 213.602 133.004C213.602 135.372 214.198 136.556 215.39 136.556C215.974 136.556 216.414 136.268 216.71 135.692C217.014 135.116 217.166 134.224 217.166 133.016C217.166 131.808 217.014 130.916 216.71 130.34C216.414 129.756 215.974 129.464 215.39 129.464ZM221.63 128.888C222.438 128.888 223.042 129.172 223.442 129.74C223.85 130.3 224.054 131.088 224.054 132.104C224.054 133.136 223.906 133.98 223.61 134.636C223.314 135.292 222.878 135.816 222.302 136.208C221.734 136.6 220.982 136.94 220.046 137.228L219.866 136.688C220.97 136.352 221.81 135.892 222.386 135.308C222.97 134.724 223.29 133.924 223.346 132.908C223.106 133.26 222.818 133.536 222.482 133.736C222.146 133.928 221.778 134.024 221.378 134.024C220.962 134.024 220.59 133.924 220.262 133.724C219.934 133.516 219.674 133.224 219.482 132.848C219.298 132.464 219.206 132.016 219.206 131.504C219.206 130.976 219.31 130.516 219.518 130.124C219.734 129.724 220.026 129.42 220.394 129.212C220.762 128.996 221.174 128.888 221.63 128.888ZM221.498 133.448C221.874 133.448 222.21 133.348 222.506 133.148C222.81 132.94 223.09 132.64 223.346 132.248C223.354 131.296 223.222 130.596 222.95 130.148C222.678 129.692 222.246 129.464 221.654 129.464C221.118 129.464 220.694 129.644 220.382 130.004C220.078 130.356 219.926 130.86 219.926 131.516C219.926 132.132 220.066 132.608 220.346 132.944C220.634 133.28 221.018 133.448 221.498 133.448ZM228.081 128.888C228.905 128.888 229.529 129.24 229.953 129.944C230.377 130.64 230.589 131.664 230.589 133.016C230.589 134.36 230.373 135.384 229.941 136.088C229.517 136.784 228.897 137.132 228.081 137.132C227.257 137.132 226.633 136.784 226.209 136.088C225.785 135.384 225.573 134.356 225.573 133.004C225.573 131.652 225.785 130.628 226.209 129.932C226.633 129.236 227.257 128.888 228.081 128.888ZM228.081 129.464C226.889 129.464 226.293 130.644 226.293 133.004C226.293 135.372 226.889 136.556 228.081 136.556C228.665 136.556 229.105 136.268 229.401 135.692C229.705 135.116 229.857 134.224 229.857 133.016C229.857 131.808 229.705 130.916 229.401 130.34C229.105 129.756 228.665 129.464 228.081 129.464ZM237.199 137L236.479 134.756H233.023L232.303 137H231.571L234.319 128.78H235.219L237.955 137H237.199ZM233.227 134.144H236.287L234.763 129.368L233.227 134.144Z" fill="#08090A"/>
<path d="M41.264 59.78C42.24 59.78 42.988 59.984 43.508 60.392C44.036 60.792 44.3 61.408 44.3 62.24C44.3 63.12 44.024 63.768 43.472 64.184C42.928 64.592 42.18 64.796 41.228 64.796H40.052V68H39.332V59.78H41.264ZM41.228 64.208C41.972 64.208 42.544 64.06 42.944 63.764C43.344 63.468 43.544 62.964 43.544 62.252C43.544 61.58 43.348 61.1 42.956 60.812C42.572 60.516 42.004 60.368 41.252 60.368H40.052V64.208H41.228ZM49.3243 66.608C49.3243 66.936 49.3643 67.172 49.4443 67.316C49.5323 67.46 49.6683 67.568 49.8523 67.64L49.6963 68.132C49.4083 68.076 49.1843 67.968 49.0243 67.808C48.8723 67.648 48.7723 67.404 48.7243 67.076C48.2923 67.78 47.6403 68.132 46.7683 68.132C46.1683 68.132 45.6923 67.964 45.3403 67.628C44.9963 67.284 44.8243 66.828 44.8243 66.26C44.8243 65.612 45.0523 65.112 45.5083 64.76C45.9723 64.408 46.6123 64.232 47.4283 64.232H48.6283V63.62C48.6283 63.116 48.5163 62.752 48.2923 62.528C48.0683 62.296 47.6963 62.18 47.1763 62.18C46.6963 62.18 46.1283 62.3 45.4723 62.54L45.2923 62.012C45.9963 61.732 46.6563 61.592 47.2723 61.592C48.6403 61.592 49.3243 62.256 49.3243 63.584V66.608ZM46.8883 67.568C47.6403 67.568 48.2203 67.2 48.6283 66.464V64.736H47.5363C46.8963 64.736 46.4083 64.86 46.0723 65.108C45.7363 65.356 45.5683 65.728 45.5683 66.224C45.5683 66.656 45.6843 66.988 45.9163 67.22C46.1483 67.452 46.4723 67.568 46.8883 67.568ZM54.6299 61.592C55.1979 61.592 55.6299 61.76 55.9259 62.096C56.2299 62.432 56.3819 62.904 56.3819 63.512V68H55.6859V63.608C55.6859 63.104 55.5859 62.736 55.3859 62.504C55.1859 62.272 54.8899 62.156 54.4979 62.156C54.0979 62.156 53.7419 62.268 53.4299 62.492C53.1259 62.708 52.8339 63.028 52.5539 63.452V68H51.8579V61.724H52.4579L52.5299 62.792C52.7859 62.416 53.0899 62.124 53.4419 61.916C53.7939 61.7 54.1899 61.592 54.6299 61.592ZM61.7218 67.736C61.3218 68 60.8818 68.132 60.4018 68.132C59.9218 68.132 59.5458 67.992 59.2738 67.712C59.0018 67.424 58.8658 67.012 58.8658 66.476V62.288H57.8098V61.724H58.8658V60.224L59.5618 60.14V61.724H61.1818L61.0978 62.288H59.5618V66.44C59.5618 66.808 59.6378 67.084 59.7898 67.268C59.9418 67.444 60.1738 67.532 60.4858 67.532C60.8058 67.532 61.1258 67.44 61.4458 67.256L61.7218 67.736ZM64.975 61.592C65.807 61.592 66.455 61.88 66.919 62.456C67.391 63.024 67.627 63.82 67.627 64.844C67.627 65.86 67.387 66.664 66.907 67.256C66.435 67.84 65.787 68.132 64.963 68.132C64.131 68.132 63.479 67.844 63.007 67.268C62.543 66.684 62.311 65.884 62.311 64.868C62.311 64.204 62.419 63.624 62.635 63.128C62.851 62.632 63.159 62.252 63.559 61.988C63.959 61.724 64.431 61.592 64.975 61.592ZM64.975 62.18C64.367 62.18 63.895 62.408 63.559 62.864C63.223 63.32 63.055 63.988 63.055 64.868C63.055 65.74 63.219 66.404 63.547 66.86C63.883 67.316 64.355 67.544 64.963 67.544C65.571 67.544 66.043 67.316 66.379 66.86C66.723 66.404 66.895 65.732 66.895 64.844C66.895 63.972 66.727 63.312 66.391 62.864C66.063 62.408 65.591 62.18 64.975 62.18ZM72.4424 61.592C73.0104 61.592 73.4424 61.76 73.7384 62.096C74.0424 62.432 74.1944 62.904 74.1944 63.512V68H73.4984V63.608C73.4984 63.104 73.3984 62.736 73.1984 62.504C72.9984 62.272 72.7024 62.156 72.3104 62.156C71.9104 62.156 71.5544 62.268 71.2424 62.492C70.9384 62.708 70.6464 63.028 70.3664 63.452V68H69.6704V61.724H70.2704L70.3424 62.792C70.5984 62.416 70.9024 62.124 71.2544 61.916C71.6064 61.7 72.0024 61.592 72.4424 61.592ZM81.1303 64.628C81.1303 64.804 81.1223 64.972 81.1063 65.132H76.9183C76.9583 65.948 77.1503 66.556 77.4943 66.956C77.8463 67.348 78.3063 67.544 78.8743 67.544C79.2023 67.544 79.4903 67.496 79.7383 67.4C79.9943 67.296 80.2703 67.136 80.5663 66.92L80.8903 67.364C80.5783 67.62 80.2583 67.812 79.9303 67.94C79.6023 68.068 79.2383 68.132 78.8383 68.132C78.0063 68.132 77.3543 67.848 76.8823 67.28C76.4103 66.712 76.1743 65.924 76.1743 64.916C76.1743 64.252 76.2743 63.672 76.4743 63.176C76.6823 62.672 76.9743 62.284 77.3503 62.012C77.7343 61.732 78.1783 61.592 78.6823 61.592C79.4823 61.592 80.0903 61.864 80.5063 62.408C80.9223 62.944 81.1303 63.684 81.1303 64.628ZM80.4463 64.412C80.4463 63.708 80.2983 63.16 80.0023 62.768C79.7143 62.368 79.2823 62.168 78.7063 62.168C78.1863 62.168 77.7663 62.368 77.4463 62.768C77.1263 63.168 76.9503 63.776 76.9183 64.592H80.4463V64.412ZM88.8874 64.316H87.2434V68H86.5234V59.78H88.5154C90.4674 59.78 91.4434 60.524 91.4434 62.012C91.4434 62.604 91.2874 63.076 90.9754 63.428C90.6634 63.78 90.2074 64.032 89.6074 64.184L91.8634 68H91.0114L88.8874 64.316ZM88.6114 63.728C89.9874 63.728 90.6754 63.156 90.6754 62.012C90.6754 61.452 90.5034 61.04 90.1594 60.776C89.8154 60.504 89.2594 60.368 88.4914 60.368H87.2434V63.728H88.6114ZM97.8178 64.628C97.8178 64.804 97.8098 64.972 97.7938 65.132H93.6058C93.6458 65.948 93.8378 66.556 94.1818 66.956C94.5338 67.348 94.9938 67.544 95.5618 67.544C95.8898 67.544 96.1778 67.496 96.4258 67.4C96.6818 67.296 96.9578 67.136 97.2538 66.92L97.5778 67.364C97.2658 67.62 96.9458 67.812 96.6178 67.94C96.2898 68.068 95.9258 68.132 95.5258 68.132C94.6938 68.132 94.0418 67.848 93.5698 67.28C93.0978 66.712 92.8618 65.924 92.8618 64.916C92.8618 64.252 92.9618 63.672 93.1618 63.176C93.3698 62.672 93.6618 62.284 94.0378 62.012C94.4218 61.732 94.8658 61.592 95.3698 61.592C96.1698 61.592 96.7778 61.864 97.1938 62.408C97.6098 62.944 97.8178 63.684 97.8178 64.628ZM97.1338 64.412C97.1338 63.708 96.9858 63.16 96.6898 62.768C96.4018 62.368 95.9698 62.168 95.3938 62.168C94.8738 62.168 94.4538 62.368 94.1338 62.768C93.8138 63.168 93.6378 63.776 93.6058 64.592H97.1338V64.412ZM104.275 59.168V68H103.675L103.591 67.04C103.159 67.768 102.531 68.132 101.707 68.132C100.979 68.132 100.403 67.844 99.9793 67.268C99.5633 66.684 99.3553 65.892 99.3553 64.892C99.3553 64.244 99.4513 63.672 99.6433 63.176C99.8433 62.68 100.127 62.292 100.495 62.012C100.871 61.732 101.311 61.592 101.815 61.592C102.527 61.592 103.115 61.876 103.579 62.444V59.084L104.275 59.168ZM101.815 67.556C102.215 67.556 102.551 67.46 102.823 67.268C103.103 67.076 103.355 66.784 103.579 66.392V63.116C103.131 62.484 102.583 62.168 101.935 62.168C101.367 62.168 100.915 62.404 100.579 62.876C100.251 63.348 100.091 64.016 100.099 64.88C100.099 65.744 100.251 66.408 100.555 66.872C100.859 67.328 101.279 67.556 101.815 67.556ZM43.856 76.576H42.92L42.56 79.288H43.412V79.84H42.488L42.2 82H41.576L41.864 79.84H39.668L39.38 82H38.756L39.044 79.84H38.18V79.288H39.116L39.476 76.576H38.624V76.012H39.548L39.812 74.02H40.436L40.172 76.012H42.368L42.632 74.02H43.256L42.992 76.012H43.856V76.576ZM41.936 79.288L42.296 76.576H40.1L39.74 79.288H41.936ZM49.5432 73.78L49.4592 74.38H46.0872V77.44H49.0032V78.04H46.0872V81.4H49.6272V82H45.3672V73.78H49.5432ZM51.5078 82V73.78H55.6118L55.5278 74.38H52.2278V77.584H55.0718V78.184H52.2278V82H51.5078ZM58.5359 73.888C59.2079 73.888 59.7399 74.084 60.1319 74.476C60.5319 74.868 60.7319 75.372 60.7319 75.988C60.7319 76.508 60.6239 76.996 60.4079 77.452C60.1919 77.908 59.8519 78.408 59.3879 78.952C58.9319 79.496 58.1919 80.308 57.1679 81.388H60.9479L60.8519 82H56.3519V81.412C57.4479 80.244 58.2319 79.38 58.7039 78.82C59.1839 78.252 59.5199 77.764 59.7119 77.356C59.9119 76.94 60.0119 76.496 60.0119 76.024C60.0119 75.552 59.8719 75.176 59.5919 74.896C59.3199 74.616 58.9559 74.476 58.4999 74.476C58.1319 74.476 57.8039 74.552 57.5159 74.704C57.2359 74.856 56.9679 75.084 56.7119 75.388L56.2319 75.028C56.5519 74.636 56.8959 74.348 57.2639 74.164C57.6399 73.98 58.0639 73.888 58.5359 73.888ZM64.1715 73.888C64.6195 73.888 65.0075 73.976 65.3355 74.152C65.6715 74.328 65.9275 74.568 66.1035 74.872C66.2795 75.168 66.3675 75.504 66.3675 75.88C66.3675 76.4 66.2195 76.824 65.9235 77.152C65.6355 77.472 65.2595 77.672 64.7955 77.752C65.3155 77.776 65.7435 77.964 66.0795 78.316C66.4235 78.66 66.5955 79.136 66.5955 79.744C66.5955 80.208 66.4915 80.62 66.2835 80.98C66.0755 81.34 65.7755 81.624 65.3835 81.832C64.9995 82.032 64.5555 82.132 64.0515 82.132C63.1235 82.132 62.3595 81.788 61.7595 81.1L62.2035 80.704C62.4755 81 62.7555 81.216 63.0435 81.352C63.3395 81.48 63.6675 81.544 64.0275 81.544C64.6035 81.544 65.0555 81.38 65.3835 81.052C65.7115 80.724 65.8755 80.292 65.8755 79.756C65.8755 78.636 65.2755 78.076 64.0755 78.076H63.5475L63.6435 77.512H64.0275C64.4835 77.512 64.8715 77.376 65.1915 77.104C65.5115 76.824 65.6715 76.428 65.6715 75.916C65.6715 75.476 65.5315 75.128 65.2515 74.872C64.9715 74.608 64.5995 74.476 64.1355 74.476C63.7995 74.476 63.4915 74.536 63.2115 74.656C62.9315 74.768 62.6475 74.956 62.3595 75.22L61.9875 74.788C62.3075 74.484 62.6435 74.26 62.9955 74.116C63.3475 73.964 63.7395 73.888 64.1715 73.888ZM70.0075 73.888C70.4555 73.888 70.8435 73.976 71.1715 74.152C71.5075 74.328 71.7635 74.568 71.9395 74.872C72.1155 75.168 72.2035 75.504 72.2035 75.88C72.2035 76.4 72.0555 76.824 71.7595 77.152C71.4715 77.472 71.0955 77.672 70.6315 77.752C71.1515 77.776 71.5795 77.964 71.9155 78.316C72.2595 78.66 72.4315 79.136 72.4315 79.744C72.4315 80.208 72.3275 80.62 72.1195 80.98C71.9115 81.34 71.6115 81.624 71.2195 81.832C70.8355 82.032 70.3915 82.132 69.8875 82.132C68.9595 82.132 68.1955 81.788 67.5955 81.1L68.0395 80.704C68.3115 81 68.5915 81.216 68.8795 81.352C69.1755 81.48 69.5035 81.544 69.8635 81.544C70.4395 81.544 70.8915 81.38 71.2195 81.052C71.5475 80.724 71.7115 80.292 71.7115 79.756C71.7115 78.636 71.1115 78.076 69.9115 78.076H69.3835L69.4795 77.512H69.8635C70.3195 77.512 70.7075 77.376 71.0275 77.104C71.3475 76.824 71.5075 76.428 71.5075 75.916C71.5075 75.476 71.3675 75.128 71.0875 74.872C70.8075 74.608 70.4355 74.476 69.9715 74.476C69.6355 74.476 69.3275 74.536 69.0475 74.656C68.7675 74.768 68.4835 74.956 68.1955 75.22L67.8235 74.788C68.1435 74.484 68.4795 74.26 68.8315 74.116C69.1835 73.964 69.5755 73.888 70.0075 73.888ZM77.3074 73.648C77.7634 73.648 78.1474 73.712 78.4594 73.84C78.7794 73.96 79.0994 74.148 79.4194 74.404L79.0354 74.884C78.7554 74.66 78.4874 74.5 78.2314 74.404C77.9754 74.308 77.6834 74.26 77.3554 74.26C76.5794 74.26 75.9474 74.556 75.4594 75.148C74.9794 75.74 74.7394 76.652 74.7394 77.884C74.7394 78.684 74.8514 79.356 75.0754 79.9C75.2994 80.444 75.6034 80.848 75.9874 81.112C76.3794 81.368 76.8234 81.496 77.3194 81.496C77.7114 81.496 78.0434 81.44 78.3154 81.328C78.5874 81.208 78.8634 81.036 79.1434 80.812L79.5154 81.28C78.9154 81.848 78.1754 82.132 77.2954 82.132C76.6554 82.132 76.0834 81.968 75.5794 81.64C75.0834 81.312 74.6914 80.832 74.4034 80.2C74.1234 79.56 73.9834 78.788 73.9834 77.884C73.9834 76.98 74.1314 76.212 74.4274 75.58C74.7234 74.94 75.1194 74.46 75.6154 74.14C76.1194 73.812 76.6834 73.648 77.3074 73.648Z" fill="#08090A"/>
<path d="M45.82 13L45.1 10.756H41.644L40.924 13H40.192L42.94 4.78H43.84L46.576 13H45.82ZM41.848 10.144H44.908L43.384 5.368L41.848 10.144ZM50.8292 6.592C51.3972 6.592 51.8292 6.76 52.1252 7.096C52.4292 7.432 52.5812 7.904 52.5812 8.512V13H51.8852V8.608C51.8852 8.104 51.7852 7.736 51.5852 7.504C51.3852 7.272 51.0892 7.156 50.6972 7.156C50.2972 7.156 49.9412 7.268 49.6292 7.492C49.3252 7.708 49.0332 8.028 48.7532 8.452V13H48.0572V6.724H48.6572L48.7292 7.792C48.9852 7.416 49.2892 7.124 49.6412 6.916C49.9932 6.7 50.3892 6.592 50.8292 6.592ZM57.921 12.736C57.521 13 57.081 13.132 56.601 13.132C56.121 13.132 55.745 12.992 55.473 12.712C55.201 12.424 55.065 12.012 55.065 11.476V7.288H54.009V6.724H55.065V5.224L55.761 5.14V6.724H57.381L57.297 7.288H55.761V11.44C55.761 11.808 55.837 12.084 55.989 12.268C56.141 12.444 56.373 12.532 56.685 12.532C57.005 12.532 57.325 12.44 57.645 12.256L57.921 12.736ZM59.8508 6.724V13H59.1548V6.724H59.8508ZM59.4908 3.964C59.6508 3.964 59.7788 4.012 59.8748 4.108C59.9708 4.204 60.0188 4.324 60.0188 4.468C60.0188 4.612 59.9708 4.732 59.8748 4.828C59.7788 4.924 59.6508 4.972 59.4908 4.972C59.3388 4.972 59.2148 4.924 59.1188 4.828C59.0228 4.732 58.9748 4.612 58.9748 4.468C58.9748 4.324 59.0228 4.204 59.1188 4.108C59.2148 4.012 59.3388 3.964 59.4908 3.964ZM65.8008 13V4.78H69.9048L69.8208 5.38H66.5208V8.584H69.3648V9.184H66.5208V13H65.8008ZM72.4449 13.132C72.1009 13.132 71.8289 13.032 71.6289 12.832C71.4369 12.632 71.3409 12.336 71.3409 11.944V4.168L72.0369 4.084V11.92C72.0369 12.328 72.2049 12.532 72.5409 12.532C72.7089 12.532 72.8529 12.504 72.9729 12.448L73.1649 12.964C72.9409 13.076 72.7009 13.132 72.4449 13.132ZM78.6525 11.608C78.6525 11.936 78.6925 12.172 78.7725 12.316C78.8605 12.46 78.9965 12.568 79.1805 12.64L79.0245 13.132C78.7365 13.076 78.5125 12.968 78.3525 12.808C78.2005 12.648 78.1005 12.404 78.0525 12.076C77.6205 12.78 76.9685 13.132 76.0965 13.132C75.4965 13.132 75.0205 12.964 74.6685 12.628C74.3245 12.284 74.1525 11.828 74.1525 11.26C74.1525 10.612 74.3805 10.112 74.8365 9.76C75.3005 9.408 75.9405 9.232 76.7565 9.232H77.9565V8.62C77.9565 8.116 77.8445 7.752 77.6205 7.528C77.3965 7.296 77.0245 7.18 76.5045 7.18C76.0245 7.18 75.4565 7.3 74.8005 7.54L74.6205 7.012C75.3245 6.732 75.9845 6.592 76.6005 6.592C77.9685 6.592 78.6525 7.256 78.6525 8.584V11.608ZM76.2165 12.568C76.9685 12.568 77.5485 12.2 77.9565 11.464V9.736H76.8645C76.2245 9.736 75.7365 9.86 75.4005 10.108C75.0645 10.356 74.8965 10.728 74.8965 11.224C74.8965 11.656 75.0125 11.988 75.2445 12.22C75.4765 12.452 75.8005 12.568 76.2165 12.568ZM82.6049 6.592C82.9969 6.592 83.3529 6.652 83.6729 6.772C83.9929 6.884 84.3049 7.056 84.6089 7.288L84.2849 7.744C83.9969 7.544 83.7249 7.4 83.4689 7.312C83.2129 7.216 82.9329 7.168 82.6289 7.168C82.2129 7.168 81.8769 7.264 81.6209 7.456C81.3649 7.648 81.2369 7.904 81.2369 8.224C81.2369 8.528 81.3449 8.764 81.5609 8.932C81.7849 9.1 82.1849 9.26 82.7609 9.412C83.4729 9.596 83.9849 9.828 84.2969 10.108C84.6169 10.388 84.7769 10.788 84.7769 11.308C84.7769 11.868 84.5609 12.312 84.1289 12.64C83.6969 12.968 83.1569 13.132 82.5089 13.132C82.0289 13.132 81.6089 13.064 81.2489 12.928C80.8889 12.784 80.5609 12.584 80.2649 12.328L80.6489 11.884C80.9289 12.108 81.2129 12.276 81.5009 12.388C81.7969 12.492 82.1289 12.544 82.4969 12.544C82.9609 12.544 83.3329 12.44 83.6129 12.232C83.9009 12.016 84.0449 11.72 84.0449 11.344C84.0449 11.088 83.9969 10.88 83.9009 10.72C83.8049 10.56 83.6409 10.424 83.4089 10.312C83.1769 10.192 82.8369 10.072 82.3889 9.952C81.7249 9.776 81.2449 9.556 80.9489 9.292C80.6609 9.028 80.5169 8.676 80.5169 8.236C80.5169 7.924 80.6089 7.644 80.7929 7.396C80.9769 7.14 81.2249 6.944 81.5369 6.808C81.8569 6.664 82.2129 6.592 82.6049 6.592ZM89.4073 6.592C89.9673 6.592 90.3993 6.764 90.7033 7.108C91.0073 7.444 91.1593 7.912 91.1593 8.512V13H90.4633V8.608C90.4633 7.64 90.0673 7.156 89.2753 7.156C88.8753 7.156 88.5193 7.268 88.2073 7.492C87.9033 7.708 87.6113 8.028 87.3313 8.452V13H86.6353V4.168L87.3313 4.084V7.768C87.8913 6.984 88.5833 6.592 89.4073 6.592ZM105.071 4.78L103.271 13H102.371L100.571 5.584L98.7707 13H97.8947L96.0827 4.78H96.8147L98.3747 12.328L100.175 4.78H100.979L102.815 12.328L104.387 4.78H105.071ZM109.482 6.592C110.042 6.592 110.474 6.764 110.778 7.108C111.082 7.444 111.234 7.912 111.234 8.512V13H110.538V8.608C110.538 7.64 110.142 7.156 109.35 7.156C108.95 7.156 108.594 7.268 108.282 7.492C107.978 7.708 107.686 8.028 107.406 8.452V13H106.71V4.168L107.406 4.084V7.768C107.966 6.984 108.658 6.592 109.482 6.592ZM114.413 6.724V13H113.717V6.724H114.413ZM114.053 3.964C114.213 3.964 114.341 4.012 114.437 4.108C114.533 4.204 114.581 4.324 114.581 4.468C114.581 4.612 114.533 4.732 114.437 4.828C114.341 4.924 114.213 4.972 114.053 4.972C113.901 4.972 113.777 4.924 113.681 4.828C113.585 4.732 113.537 4.612 113.537 4.468C113.537 4.324 113.585 4.204 113.681 4.108C113.777 4.012 113.901 3.964 114.053 3.964ZM119.808 12.736C119.408 13 118.968 13.132 118.488 13.132C118.008 13.132 117.632 12.992 117.36 12.712C117.088 12.424 116.952 12.012 116.952 11.476V7.288H115.896V6.724H116.952V5.224L117.648 5.14V6.724H119.268L119.184 7.288H117.648V11.44C117.648 11.808 117.724 12.084 117.876 12.268C118.028 12.444 118.26 12.532 118.572 12.532C118.892 12.532 119.212 12.44 119.532 12.256L119.808 12.736ZM125.353 9.628C125.353 9.804 125.345 9.972 125.329 10.132H121.141C121.181 10.948 121.373 11.556 121.717 11.956C122.069 12.348 122.529 12.544 123.097 12.544C123.425 12.544 123.713 12.496 123.961 12.4C124.217 12.296 124.493 12.136 124.789 11.92L125.113 12.364C124.801 12.62 124.481 12.812 124.153 12.94C123.825 13.068 123.461 13.132 123.061 13.132C122.229 13.132 121.577 12.848 121.105 12.28C120.633 11.712 120.397 10.924 120.397 9.916C120.397 9.252 120.497 8.672 120.697 8.176C120.905 7.672 121.197 7.284 121.573 7.012C121.957 6.732 122.401 6.592 122.905 6.592C123.705 6.592 124.313 6.864 124.729 7.408C125.145 7.944 125.353 8.684 125.353 9.628ZM124.669 9.412C124.669 8.708 124.521 8.16 124.225 7.768C123.937 7.368 123.505 7.168 122.929 7.168C122.409 7.168 121.989 7.368 121.669 7.768C121.349 8.168 121.173 8.776 121.141 9.592H124.669V9.412ZM45.856 21.576H44.92L44.56 24.288H45.412V24.84H44.488L44.2 27H43.576L43.864 24.84H41.668L41.38 27H40.756L41.044 24.84H40.18V24.288H41.116L41.476 21.576H40.624V21.012H41.548L41.812 19.02H42.436L42.172 21.012H44.368L44.632 19.02H45.256L44.992 21.012H45.856V21.576ZM43.936 24.288L44.296 21.576H42.1L41.74 24.288H43.936ZM51.5432 18.78L51.4592 19.38H48.0872V22.44H51.0032V23.04H48.0872V26.4H51.6272V27H47.3672V18.78H51.5432ZM55.1398 18.78C56.2758 18.78 57.1958 19.068 57.8998 19.644C58.6118 20.22 58.9678 21.28 58.9678 22.824C58.9678 24.368 58.6078 25.452 57.8878 26.076C57.1758 26.692 56.3038 27 55.2718 27H53.5078V18.78H55.1398ZM54.2278 19.38V26.4H55.3198C57.2478 26.4 58.2118 25.208 58.2118 22.824C58.2118 21.88 58.0718 21.156 57.7918 20.652C57.5118 20.148 57.1558 19.812 56.7238 19.644C56.2998 19.468 55.8038 19.38 55.2358 19.38H54.2278ZM61.0898 27V18.78H65.1938L65.1098 19.38H61.8098V22.584H64.6538V23.184H61.8098V27H61.0898ZM68.118 18.888C68.79 18.888 69.322 19.084 69.714 19.476C70.114 19.868 70.314 20.372 70.314 20.988C70.314 21.508 70.206 21.996 69.99 22.452C69.774 22.908 69.434 23.408 68.97 23.952C68.514 24.496 67.774 25.308 66.75 26.388H70.53L70.434 27H65.934V26.412C67.03 25.244 67.814 24.38 68.286 23.82C68.766 23.252 69.102 22.764 69.294 22.356C69.494 21.94 69.594 21.496 69.594 21.024C69.594 20.552 69.454 20.176 69.174 19.896C68.902 19.616 68.538 19.476 68.082 19.476C67.714 19.476 67.386 19.552 67.098 19.704C66.818 19.856 66.55 20.084 66.294 20.388L65.814 20.028C66.134 19.636 66.478 19.348 66.846 19.164C67.222 18.98 67.646 18.888 68.118 18.888ZM72.4922 27V18.78H76.5962L76.5122 19.38H73.2122V22.584H76.0562V23.184H73.2122V27H72.4922ZM82.253 24.324V24.9H81.173V27H80.489V24.9H76.997V24.384L79.433 18.888L80.021 19.128L77.741 24.324H80.489L80.573 21.984H81.173V24.324H82.253Z" fill="#08090A"/>
<path d="M196.696 64.316H195.052V68H194.332V59.78H196.324C198.276 59.78 199.252 60.524 199.252 62.012C199.252 62.604 199.096 63.076 198.784 63.428C198.472 63.78 198.016 64.032 197.416 64.184L199.672 68H198.82L196.696 64.316ZM196.42 63.728C197.796 63.728 198.484 63.156 198.484 62.012C198.484 61.452 198.312 61.04 197.968 60.776C197.624 60.504 197.068 60.368 196.3 60.368H195.052V63.728H196.42ZM203.334 61.592C204.166 61.592 204.814 61.88 205.278 62.456C205.75 63.024 205.986 63.82 205.986 64.844C205.986 65.86 205.746 66.664 205.266 67.256C204.794 67.84 204.146 68.132 203.322 68.132C202.49 68.132 201.838 67.844 201.366 67.268C200.902 66.684 200.67 65.884 200.67 64.868C200.67 64.204 200.778 63.624 200.994 63.128C201.21 62.632 201.518 62.252 201.918 61.988C202.318 61.724 202.79 61.592 203.334 61.592ZM203.334 62.18C202.726 62.18 202.254 62.408 201.918 62.864C201.582 63.32 201.414 63.988 201.414 64.868C201.414 65.74 201.578 66.404 201.906 66.86C202.242 67.316 202.714 67.544 203.322 67.544C203.93 67.544 204.402 67.316 204.738 66.86C205.082 66.404 205.254 65.732 205.254 64.844C205.254 63.972 205.086 63.312 204.75 62.864C204.422 62.408 203.95 62.18 203.334 62.18ZM214.15 61.592C214.654 61.592 215.05 61.764 215.338 62.108C215.634 62.452 215.782 62.92 215.782 63.512V68H215.086V63.608C215.086 63.112 214.99 62.748 214.798 62.516C214.614 62.276 214.354 62.156 214.018 62.156C213.666 62.156 213.35 62.268 213.07 62.492C212.79 62.716 212.518 63.036 212.254 63.452V68H211.558V63.608C211.558 63.112 211.462 62.748 211.27 62.516C211.086 62.276 210.826 62.156 210.49 62.156C210.13 62.156 209.81 62.268 209.53 62.492C209.25 62.716 208.982 63.036 208.726 63.452V68H208.03V61.724H208.63L208.69 62.792C208.93 62.416 209.214 62.124 209.542 61.916C209.87 61.7 210.23 61.592 210.622 61.592C211.022 61.592 211.358 61.704 211.63 61.928C211.902 62.144 212.086 62.448 212.182 62.84C212.43 62.448 212.718 62.144 213.046 61.928C213.382 61.704 213.75 61.592 214.15 61.592ZM222.16 66.608C222.16 66.936 222.2 67.172 222.28 67.316C222.368 67.46 222.504 67.568 222.688 67.64L222.532 68.132C222.244 68.076 222.02 67.968 221.86 67.808C221.708 67.648 221.608 67.404 221.56 67.076C221.128 67.78 220.476 68.132 219.604 68.132C219.004 68.132 218.528 67.964 218.176 67.628C217.832 67.284 217.66 66.828 217.66 66.26C217.66 65.612 217.888 65.112 218.344 64.76C218.808 64.408 219.448 64.232 220.264 64.232H221.464V63.62C221.464 63.116 221.352 62.752 221.128 62.528C220.904 62.296 220.532 62.18 220.012 62.18C219.532 62.18 218.964 62.3 218.308 62.54L218.128 62.012C218.832 61.732 219.492 61.592 220.108 61.592C221.476 61.592 222.16 62.256 222.16 63.584V66.608ZM219.724 67.568C220.476 67.568 221.056 67.2 221.464 66.464V64.736H220.372C219.732 64.736 219.244 64.86 218.908 65.108C218.572 65.356 218.404 65.728 218.404 66.224C218.404 66.656 218.52 66.988 218.752 67.22C218.984 67.452 219.308 67.568 219.724 67.568ZM227.466 61.592C228.034 61.592 228.466 61.76 228.762 62.096C229.066 62.432 229.218 62.904 229.218 63.512V68H228.522V63.608C228.522 63.104 228.422 62.736 228.222 62.504C228.022 62.272 227.726 62.156 227.334 62.156C226.934 62.156 226.578 62.268 226.266 62.492C225.962 62.708 225.67 63.028 225.39 63.452V68H224.694V61.724H225.294L225.366 62.792C225.622 62.416 225.926 62.124 226.278 61.916C226.63 61.7 227.026 61.592 227.466 61.592ZM236.985 59.648C237.489 59.648 237.921 59.724 238.281 59.876C238.649 60.02 239.005 60.248 239.349 60.56L238.929 61.016C238.617 60.752 238.313 60.56 238.017 60.44C237.721 60.32 237.385 60.26 237.009 60.26C236.497 60.26 236.085 60.388 235.773 60.644C235.461 60.892 235.305 61.228 235.305 61.652C235.305 61.94 235.361 62.18 235.473 62.372C235.593 62.556 235.789 62.724 236.061 62.876C236.333 63.02 236.721 63.168 237.225 63.32C237.769 63.488 238.209 63.668 238.545 63.86C238.881 64.052 239.141 64.3 239.325 64.604C239.509 64.908 239.601 65.292 239.601 65.756C239.601 66.22 239.489 66.632 239.265 66.992C239.041 67.352 238.721 67.632 238.305 67.832C237.897 68.032 237.421 68.132 236.877 68.132C235.853 68.132 234.977 67.788 234.249 67.1L234.657 66.644C234.993 66.932 235.333 67.152 235.677 67.304C236.021 67.448 236.417 67.52 236.865 67.52C237.457 67.52 237.937 67.364 238.305 67.052C238.681 66.74 238.869 66.316 238.869 65.78C238.869 65.444 238.805 65.168 238.677 64.952C238.557 64.736 238.357 64.552 238.077 64.4C237.805 64.24 237.417 64.08 236.913 63.92C236.073 63.664 235.473 63.368 235.113 63.032C234.753 62.696 234.573 62.24 234.573 61.664C234.573 61.28 234.673 60.936 234.873 60.632C235.081 60.32 235.365 60.08 235.725 59.912C236.093 59.736 236.513 59.648 236.985 59.648ZM242.218 61.724V68H241.522V61.724H242.218ZM241.858 58.964C242.018 58.964 242.146 59.012 242.242 59.108C242.338 59.204 242.386 59.324 242.386 59.468C242.386 59.612 242.338 59.732 242.242 59.828C242.146 59.924 242.018 59.972 241.858 59.972C241.706 59.972 241.582 59.924 241.486 59.828C241.39 59.732 241.342 59.612 241.342 59.468C241.342 59.324 241.39 59.204 241.486 59.108C241.582 59.012 241.706 58.964 241.858 58.964ZM245.8 68.132C245.456 68.132 245.184 68.032 244.984 67.832C244.792 67.632 244.696 67.336 244.696 66.944V59.168L245.392 59.084V66.92C245.392 67.328 245.56 67.532 245.896 67.532C246.064 67.532 246.208 67.504 246.328 67.448L246.52 67.964C246.296 68.076 246.056 68.132 245.8 68.132ZM252.237 61.724L250.065 68H249.201L246.957 61.724H247.725L249.633 67.388L251.493 61.724H252.237ZM258.115 64.628C258.115 64.804 258.107 64.972 258.091 65.132H253.903C253.943 65.948 254.135 66.556 254.479 66.956C254.831 67.348 255.291 67.544 255.859 67.544C256.187 67.544 256.475 67.496 256.723 67.4C256.979 67.296 257.255 67.136 257.551 66.92L257.875 67.364C257.563 67.62 257.243 67.812 256.915 67.94C256.587 68.068 256.223 68.132 255.823 68.132C254.991 68.132 254.339 67.848 253.867 67.28C253.395 66.712 253.159 65.924 253.159 64.916C253.159 64.252 253.259 63.672 253.459 63.176C253.667 62.672 253.959 62.284 254.335 62.012C254.719 61.732 255.163 61.592 255.667 61.592C256.467 61.592 257.075 61.864 257.491 62.408C257.907 62.944 258.115 63.684 258.115 64.628ZM257.431 64.412C257.431 63.708 257.283 63.16 256.987 62.768C256.699 62.368 256.267 62.168 255.691 62.168C255.171 62.168 254.751 62.368 254.431 62.768C254.111 63.168 253.935 63.776 253.903 64.592H257.431V64.412ZM262.532 61.592C262.78 61.592 262.988 61.616 263.156 61.664L263.024 62.324C262.848 62.276 262.664 62.252 262.472 62.252C262.048 62.252 261.704 62.408 261.44 62.72C261.184 63.024 260.968 63.504 260.792 64.16V68H260.096V61.724H260.696L260.756 63.128C260.924 62.608 261.152 62.224 261.44 61.976C261.736 61.72 262.1 61.592 262.532 61.592ZM198.856 76.576H197.92L197.56 79.288H198.412V79.84H197.488L197.2 82H196.576L196.864 79.84H194.668L194.38 82H193.756L194.044 79.84H193.18V79.288H194.116L194.476 76.576H193.624V76.012H194.548L194.812 74.02H195.436L195.172 76.012H197.368L197.632 74.02H198.256L197.992 76.012H198.856V76.576ZM196.936 79.288L197.296 76.576H195.1L194.74 79.288H196.936ZM203.079 77.776C203.695 78.024 204.143 78.316 204.423 78.652C204.711 78.98 204.855 79.404 204.855 79.924C204.855 80.364 204.743 80.752 204.519 81.088C204.303 81.416 203.995 81.672 203.595 81.856C203.203 82.04 202.751 82.132 202.239 82.132C201.727 82.132 201.275 82.04 200.883 81.856C200.499 81.672 200.199 81.416 199.983 81.088C199.775 80.752 199.671 80.368 199.671 79.936C199.671 78.912 200.243 78.172 201.387 77.716C200.915 77.5 200.567 77.252 200.343 76.972C200.127 76.684 200.019 76.32 200.019 75.88C200.019 75.472 200.123 75.116 200.331 74.812C200.539 74.508 200.815 74.28 201.159 74.128C201.503 73.968 201.871 73.888 202.263 73.888C202.655 73.888 203.023 73.964 203.367 74.116C203.711 74.268 203.987 74.492 204.195 74.788C204.411 75.084 204.519 75.444 204.519 75.868C204.519 76.284 204.403 76.644 204.171 76.948C203.939 77.244 203.575 77.52 203.079 77.776ZM200.715 75.892C200.715 76.276 200.823 76.58 201.039 76.804C201.263 77.028 201.647 77.24 202.191 77.44L202.563 77.572C203.011 77.332 203.331 77.084 203.523 76.828C203.723 76.572 203.823 76.26 203.823 75.892C203.823 75.436 203.679 75.08 203.391 74.824C203.111 74.568 202.735 74.44 202.263 74.44C201.807 74.44 201.435 74.568 201.147 74.824C200.859 75.08 200.715 75.436 200.715 75.892ZM202.251 81.544C202.819 81.544 203.271 81.404 203.607 81.124C203.951 80.836 204.123 80.436 204.123 79.924C204.123 79.604 204.063 79.34 203.943 79.132C203.823 78.916 203.639 78.732 203.391 78.58C203.143 78.42 202.795 78.256 202.347 78.088L201.939 77.932C201.403 78.14 201.011 78.408 200.763 78.736C200.523 79.056 200.403 79.456 200.403 79.936C200.403 80.448 200.571 80.844 200.907 81.124C201.243 81.404 201.691 81.544 202.251 81.544ZM211.288 79.324V79.9H210.208V82H209.524V79.9H206.032V79.384L208.468 73.888L209.056 74.128L206.776 79.324H209.524L209.608 76.984H210.208V79.324H211.288ZM215.747 77.776C216.363 78.024 216.811 78.316 217.091 78.652C217.379 78.98 217.523 79.404 217.523 79.924C217.523 80.364 217.411 80.752 217.187 81.088C216.971 81.416 216.663 81.672 216.263 81.856C215.871 82.04 215.419 82.132 214.907 82.132C214.395 82.132 213.943 82.04 213.551 81.856C213.167 81.672 212.867 81.416 212.651 81.088C212.443 80.752 212.339 80.368 212.339 79.936C212.339 78.912 212.911 78.172 214.055 77.716C213.583 77.5 213.235 77.252 213.011 76.972C212.795 76.684 212.687 76.32 212.687 75.88C212.687 75.472 212.791 75.116 212.999 74.812C213.207 74.508 213.483 74.28 213.827 74.128C214.171 73.968 214.539 73.888 214.931 73.888C215.323 73.888 215.691 73.964 216.035 74.116C216.379 74.268 216.655 74.492 216.863 74.788C217.079 75.084 217.187 75.444 217.187 75.868C217.187 76.284 217.071 76.644 216.839 76.948C216.607 77.244 216.243 77.52 215.747 77.776ZM213.383 75.892C213.383 76.276 213.491 76.58 213.707 76.804C213.931 77.028 214.315 77.24 214.859 77.44L215.231 77.572C215.679 77.332 215.999 77.084 216.191 76.828C216.391 76.572 216.491 76.26 216.491 75.892C216.491 75.436 216.347 75.08 216.059 74.824C215.779 74.568 215.403 74.44 214.931 74.44C214.475 74.44 214.103 74.568 213.815 74.824C213.527 75.08 213.383 75.436 213.383 75.892ZM214.919 81.544C215.487 81.544 215.939 81.404 216.275 81.124C216.619 80.836 216.791 80.436 216.791 79.924C216.791 79.604 216.731 79.34 216.611 79.132C216.491 78.916 216.307 78.732 216.059 78.58C215.811 78.42 215.463 78.256 215.015 78.088L214.607 77.932C214.071 78.14 213.679 78.408 213.431 78.736C213.191 79.056 213.071 79.456 213.071 79.936C213.071 80.448 213.239 80.844 213.575 81.124C213.911 81.404 214.359 81.544 214.919 81.544ZM220.743 73.888C221.415 73.888 221.947 74.084 222.339 74.476C222.739 74.868 222.939 75.372 222.939 75.988C222.939 76.508 222.831 76.996 222.615 77.452C222.399 77.908 222.059 78.408 221.595 78.952C221.139 79.496 220.399 80.308 219.375 81.388H223.155L223.059 82H218.559V81.412C219.655 80.244 220.439 79.38 220.911 78.82C221.391 78.252 221.727 77.764 221.919 77.356C222.119 76.94 222.219 76.496 222.219 76.024C222.219 75.552 222.079 75.176 221.799 74.896C221.527 74.616 221.163 74.476 220.707 74.476C220.339 74.476 220.011 74.552 219.723 74.704C219.443 74.856 219.175 75.084 218.919 75.388L218.439 75.028C218.759 74.636 219.103 74.348 219.471 74.164C219.847 73.98 220.271 73.888 220.743 73.888ZM227.829 77.776C228.445 78.024 228.893 78.316 229.173 78.652C229.461 78.98 229.605 79.404 229.605 79.924C229.605 80.364 229.493 80.752 229.269 81.088C229.053 81.416 228.745 81.672 228.345 81.856C227.953 82.04 227.501 82.132 226.989 82.132C226.477 82.132 226.025 82.04 225.633 81.856C225.249 81.672 224.949 81.416 224.733 81.088C224.525 80.752 224.421 80.368 224.421 79.936C224.421 78.912 224.993 78.172 226.137 77.716C225.665 77.5 225.317 77.252 225.093 76.972C224.877 76.684 224.769 76.32 224.769 75.88C224.769 75.472 224.873 75.116 225.081 74.812C225.289 74.508 225.565 74.28 225.909 74.128C226.253 73.968 226.621 73.888 227.013 73.888C227.405 73.888 227.773 73.964 228.117 74.116C228.461 74.268 228.737 74.492 228.945 74.788C229.161 75.084 229.269 75.444 229.269 75.868C229.269 76.284 229.153 76.644 228.921 76.948C228.689 77.244 228.325 77.52 227.829 77.776ZM225.465 75.892C225.465 76.276 225.573 76.58 225.789 76.804C226.013 77.028 226.397 77.24 226.941 77.44L227.313 77.572C227.761 77.332 228.081 77.084 228.273 76.828C228.473 76.572 228.573 76.26 228.573 75.892C228.573 75.436 228.429 75.08 228.141 74.824C227.861 74.568 227.485 74.44 227.013 74.44C226.557 74.44 226.185 74.568 225.897 74.824C225.609 75.08 225.465 75.436 225.465 75.892ZM227.001 81.544C227.569 81.544 228.021 81.404 228.357 81.124C228.701 80.836 228.873 80.436 228.873 79.924C228.873 79.604 228.813 79.34 228.693 79.132C228.573 78.916 228.389 78.732 228.141 78.58C227.893 78.42 227.545 78.256 227.097 78.088L226.689 77.932C226.153 78.14 225.761 78.408 225.513 78.736C225.273 79.056 225.153 79.456 225.153 79.936C225.153 80.448 225.321 80.844 225.657 81.124C225.993 81.404 226.441 81.544 227.001 81.544ZM231.574 82V73.78H235.678L235.594 74.38H232.294V77.584H235.138V78.184H232.294V82H231.574Z" fill="#08090A"/>
<path d="M195.052 3.78V11.352H198.484L198.388 12H194.332V3.78H195.052ZM200.687 5.724V12H199.991V5.724H200.687ZM200.327 2.964C200.487 2.964 200.615 3.012 200.711 3.108C200.807 3.204 200.855 3.324 200.855 3.468C200.855 3.612 200.807 3.732 200.711 3.828C200.615 3.924 200.487 3.972 200.327 3.972C200.175 3.972 200.051 3.924 199.955 3.828C199.859 3.732 199.811 3.612 199.811 3.468C199.811 3.324 199.859 3.204 199.955 3.108C200.051 3.012 200.175 2.964 200.327 2.964ZM207.893 5.856C207.509 5.96 206.929 6.02 206.153 6.036C206.865 6.372 207.221 6.94 207.221 7.74C207.221 8.356 207.017 8.856 206.609 9.24C206.201 9.616 205.649 9.804 204.953 9.804C204.641 9.804 204.369 9.764 204.137 9.684C203.985 9.772 203.865 9.88 203.777 10.008C203.697 10.128 203.657 10.26 203.657 10.404C203.657 10.836 203.989 11.052 204.653 11.052H205.673C206.289 11.052 206.777 11.204 207.137 11.508C207.505 11.804 207.689 12.188 207.689 12.66C207.689 13.236 207.461 13.68 207.005 13.992C206.549 14.304 205.869 14.46 204.965 14.46C204.029 14.46 203.357 14.316 202.949 14.028C202.549 13.748 202.349 13.292 202.349 12.66H202.997C203.005 12.964 203.069 13.204 203.189 13.38C203.309 13.556 203.509 13.684 203.789 13.764C204.069 13.844 204.461 13.884 204.965 13.884C205.669 13.884 206.181 13.78 206.501 13.572C206.821 13.372 206.981 13.08 206.981 12.696C206.981 12.36 206.857 12.104 206.609 11.928C206.361 11.744 206.013 11.652 205.565 11.652H204.545C204.049 11.652 203.665 11.548 203.393 11.34C203.129 11.132 202.997 10.868 202.997 10.548C202.997 10.34 203.057 10.144 203.177 9.96C203.297 9.776 203.465 9.616 203.681 9.48C203.321 9.296 203.053 9.06 202.877 8.772C202.709 8.484 202.625 8.132 202.625 7.716C202.625 7.084 202.837 6.572 203.261 6.18C203.685 5.788 204.241 5.592 204.929 5.592C205.689 5.6 206.241 5.572 206.585 5.508C206.937 5.444 207.301 5.336 207.677 5.184L207.893 5.856ZM204.929 6.132C204.409 6.132 204.013 6.276 203.741 6.564C203.477 6.852 203.345 7.236 203.345 7.716C203.345 8.212 203.485 8.6 203.765 8.88C204.053 9.16 204.441 9.3 204.929 9.3C205.441 9.3 205.833 9.164 206.105 8.892C206.377 8.612 206.513 8.224 206.513 7.728C206.513 7.224 206.377 6.832 206.105 6.552C205.841 6.272 205.449 6.132 204.929 6.132ZM212.032 5.592C212.592 5.592 213.024 5.764 213.328 6.108C213.632 6.444 213.784 6.912 213.784 7.512V12H213.088V7.608C213.088 6.64 212.692 6.156 211.9 6.156C211.5 6.156 211.144 6.268 210.832 6.492C210.528 6.708 210.236 7.028 209.956 7.452V12H209.26V3.168L209.956 3.084V6.768C210.516 5.984 211.208 5.592 212.032 5.592ZM219.124 11.736C218.724 12 218.284 12.132 217.804 12.132C217.324 12.132 216.948 11.992 216.676 11.712C216.404 11.424 216.268 11.012 216.268 10.476V6.288H215.212V5.724H216.268V4.224L216.964 4.14V5.724H218.584L218.5 6.288H216.964V10.44C216.964 10.808 217.04 11.084 217.192 11.268C217.344 11.444 217.576 11.532 217.888 11.532C218.208 11.532 218.528 11.44 218.848 11.256L219.124 11.736ZM226.662 3.648C227.126 3.648 227.53 3.716 227.874 3.852C228.218 3.98 228.566 4.184 228.918 4.464L228.486 4.92C228.19 4.688 227.902 4.52 227.622 4.416C227.342 4.312 227.022 4.26 226.662 4.26C226.19 4.26 225.75 4.384 225.342 4.632C224.942 4.88 224.614 5.276 224.358 5.82C224.11 6.356 223.986 7.036 223.986 7.86C223.986 9.084 224.218 10 224.682 10.608C225.146 11.216 225.794 11.52 226.626 11.52C227.266 11.52 227.842 11.376 228.354 11.088V8.172H226.746L226.662 7.572H229.062V11.46C228.278 11.908 227.466 12.132 226.626 12.132C225.578 12.132 224.75 11.768 224.142 11.04C223.534 10.312 223.229 9.252 223.229 7.86C223.229 6.956 223.386 6.188 223.698 5.556C224.018 4.916 224.438 4.44 224.958 4.128C225.486 3.808 226.054 3.648 226.662 3.648ZM233.563 5.592C233.811 5.592 234.019 5.616 234.187 5.664L234.055 6.324C233.879 6.276 233.695 6.252 233.503 6.252C233.079 6.252 232.735 6.408 232.471 6.72C232.215 7.024 231.999 7.504 231.823 8.16V12H231.127V5.724H231.727L231.787 7.128C231.955 6.608 232.183 6.224 232.471 5.976C232.767 5.72 233.131 5.592 233.563 5.592ZM239.693 8.628C239.693 8.804 239.685 8.972 239.669 9.132H235.481C235.521 9.948 235.713 10.556 236.057 10.956C236.409 11.348 236.869 11.544 237.437 11.544C237.765 11.544 238.053 11.496 238.301 11.4C238.557 11.296 238.833 11.136 239.129 10.92L239.453 11.364C239.141 11.62 238.821 11.812 238.493 11.94C238.165 12.068 237.801 12.132 237.401 12.132C236.569 12.132 235.917 11.848 235.445 11.28C234.973 10.712 234.737 9.924 234.737 8.916C234.737 8.252 234.837 7.672 235.037 7.176C235.245 6.672 235.537 6.284 235.913 6.012C236.297 5.732 236.741 5.592 237.245 5.592C238.045 5.592 238.653 5.864 239.069 6.408C239.485 6.944 239.693 7.684 239.693 8.628ZM239.009 8.412C239.009 7.708 238.861 7.16 238.565 6.768C238.277 6.368 237.845 6.168 237.269 6.168C236.749 6.168 236.329 6.368 236.009 6.768C235.689 7.168 235.513 7.776 235.481 8.592H239.009V8.412ZM243.655 12.024C243.487 12.512 243.303 12.912 243.103 13.224C242.903 13.536 242.643 13.792 242.323 13.992C242.003 14.2 241.591 14.352 241.087 14.448L241.015 13.908C241.431 13.804 241.755 13.676 241.987 13.524C242.227 13.372 242.415 13.18 242.551 12.948C242.695 12.724 242.839 12.408 242.983 12H242.743L240.559 5.724H241.315L243.211 11.484L245.071 5.724H245.803L243.655 12.024ZM198.856 20.576H197.92L197.56 23.288H198.412V23.84H197.488L197.2 26H196.576L196.864 23.84H194.668L194.38 26H193.756L194.044 23.84H193.18V23.288H194.116L194.476 20.576H193.624V20.012H194.548L194.812 18.02H195.436L195.172 20.012H197.368L197.632 18.02H198.256L197.992 20.012H198.856V20.576ZM196.936 23.288L197.296 20.576H195.1L194.74 23.288H196.936ZM202.975 17.648C203.431 17.648 203.815 17.712 204.127 17.84C204.447 17.96 204.767 18.148 205.087 18.404L204.703 18.884C204.423 18.66 204.155 18.5 203.899 18.404C203.643 18.308 203.351 18.26 203.023 18.26C202.247 18.26 201.615 18.556 201.127 19.148C200.647 19.74 200.407 20.652 200.407 21.884C200.407 22.684 200.519 23.356 200.743 23.9C200.967 24.444 201.271 24.848 201.655 25.112C202.047 25.368 202.491 25.496 202.987 25.496C203.379 25.496 203.711 25.44 203.983 25.328C204.255 25.208 204.531 25.036 204.811 24.812L205.183 25.28C204.583 25.848 203.843 26.132 202.963 26.132C202.323 26.132 201.751 25.968 201.247 25.64C200.751 25.312 200.359 24.832 200.071 24.2C199.791 23.56 199.651 22.788 199.651 21.884C199.651 20.98 199.799 20.212 200.095 19.58C200.391 18.94 200.787 18.46 201.283 18.14C201.787 17.812 202.351 17.648 202.975 17.648ZM211.277 26L210.557 23.756H207.101L206.381 26H205.649L208.397 17.78H209.297L212.033 26H211.277ZM207.305 23.144H210.365L208.841 18.368L207.305 23.144ZM216.241 17.648C216.697 17.648 217.081 17.712 217.393 17.84C217.713 17.96 218.033 18.148 218.353 18.404L217.969 18.884C217.689 18.66 217.421 18.5 217.165 18.404C216.909 18.308 216.617 18.26 216.289 18.26C215.513 18.26 214.881 18.556 214.393 19.148C213.913 19.74 213.673 20.652 213.673 21.884C213.673 22.684 213.785 23.356 214.009 23.9C214.233 24.444 214.537 24.848 214.921 25.112C215.313 25.368 215.757 25.496 216.253 25.496C216.645 25.496 216.977 25.44 217.249 25.328C217.521 25.208 217.797 25.036 218.077 24.812L218.449 25.28C217.849 25.848 217.109 26.132 216.229 26.132C215.589 26.132 215.017 25.968 214.513 25.64C214.017 25.312 213.625 24.832 213.337 24.2C213.057 23.56 212.917 22.788 212.917 21.884C212.917 20.98 213.065 20.212 213.361 19.58C213.657 18.94 214.053 18.46 214.549 18.14C215.053 17.812 215.617 17.648 216.241 17.648ZM220.055 26V17.78H224.159L224.075 18.38H220.775V21.584H223.619V22.184H220.775V26H220.055ZM227.464 17.78C228.6 17.78 229.52 18.068 230.224 18.644C230.936 19.22 231.292 20.28 231.292 21.824C231.292 23.368 230.932 24.452 230.212 25.076C229.5 25.692 228.628 26 227.596 26H225.832V17.78H227.464ZM226.552 18.38V25.4H227.644C229.572 25.4 230.536 24.208 230.536 21.824C230.536 20.88 230.396 20.156 230.116 19.652C229.836 19.148 229.48 18.812 229.048 18.644C228.624 18.468 228.128 18.38 227.56 18.38H226.552ZM235.634 20.804C236.25 20.804 236.758 21.02 237.158 21.452C237.558 21.876 237.758 22.496 237.758 23.312C237.758 23.88 237.654 24.38 237.446 24.812C237.246 25.236 236.966 25.564 236.606 25.796C236.254 26.02 235.854 26.132 235.406 26.132C234.526 26.132 233.882 25.796 233.474 25.124C233.074 24.444 232.874 23.536 232.874 22.4C232.874 21.48 232.99 20.68 233.222 20C233.454 19.32 233.786 18.8 234.218 18.44C234.65 18.072 235.162 17.888 235.754 17.888C236.29 17.888 236.786 18.044 237.242 18.356L236.942 18.836C236.558 18.588 236.158 18.464 235.742 18.464C235.094 18.464 234.578 18.788 234.194 19.436C233.81 20.084 233.606 20.932 233.582 21.98C234.118 21.196 234.802 20.804 235.634 20.804ZM235.406 25.556C235.934 25.556 236.338 25.356 236.618 24.956C236.906 24.548 237.05 24.008 237.05 23.336C237.05 22.672 236.91 22.18 236.63 21.86C236.358 21.54 235.994 21.38 235.538 21.38C235.138 21.38 234.77 21.5 234.434 21.74C234.106 21.972 233.822 22.292 233.582 22.7C233.606 23.628 233.762 24.336 234.05 24.824C234.338 25.312 234.79 25.556 235.406 25.556Z" fill="#08090A"/>
<path d="M42.632 118.644C43.192 118.708 43.648 118.908 44 119.244C44.352 119.572 44.528 120.064 44.528 120.72C44.528 121.488 44.268 122.06 43.748 122.436C43.228 122.812 42.504 123 41.576 123H39.332V114.78H41.168C42.12 114.78 42.852 114.952 43.364 115.296C43.884 115.64 44.144 116.152 44.144 116.832C44.144 117.336 44.004 117.744 43.724 118.056C43.452 118.368 43.088 118.564 42.632 118.644ZM40.052 115.38V118.392H41.708C42.22 118.392 42.632 118.26 42.944 117.996C43.256 117.724 43.412 117.352 43.412 116.88C43.412 116.344 43.228 115.96 42.86 115.728C42.5 115.496 41.96 115.38 41.24 115.38H40.052ZM41.576 122.4C43.048 122.4 43.784 121.84 43.784 120.72C43.784 120.128 43.6 119.688 43.232 119.4C42.872 119.112 42.392 118.968 41.792 118.968H40.052V122.4H41.576ZM47.4879 123.132C47.1439 123.132 46.8719 123.032 46.6719 122.832C46.4799 122.632 46.3839 122.336 46.3839 121.944V114.168L47.0799 114.084V121.92C47.0799 122.328 47.2479 122.532 47.5839 122.532C47.7519 122.532 47.8959 122.504 48.0159 122.448L48.2079 122.964C47.9839 123.076 47.7439 123.132 47.4879 123.132ZM54.258 123H53.658L53.622 121.884C53.126 122.716 52.442 123.132 51.57 123.132C51.002 123.132 50.562 122.968 50.25 122.64C49.946 122.304 49.794 121.828 49.794 121.212V116.724H50.49V121.14C50.49 121.628 50.59 121.988 50.79 122.22C50.998 122.444 51.31 122.556 51.726 122.556C52.454 122.556 53.066 122.128 53.562 121.272V116.724H54.258V123ZM61.2553 119.628C61.2553 119.804 61.2473 119.972 61.2313 120.132H57.0433C57.0833 120.948 57.2753 121.556 57.6193 121.956C57.9713 122.348 58.4313 122.544 58.9993 122.544C59.3273 122.544 59.6153 122.496 59.8633 122.4C60.1193 122.296 60.3953 122.136 60.6913 121.92L61.0153 122.364C60.7033 122.62 60.3833 122.812 60.0553 122.94C59.7273 123.068 59.3633 123.132 58.9633 123.132C58.1313 123.132 57.4793 122.848 57.0073 122.28C56.5353 121.712 56.2993 120.924 56.2993 119.916C56.2993 119.252 56.3993 118.672 56.5993 118.176C56.8073 117.672 57.0993 117.284 57.4753 117.012C57.8593 116.732 58.3033 116.592 58.8073 116.592C59.6073 116.592 60.2153 116.864 60.6313 117.408C61.0473 117.944 61.2553 118.684 61.2553 119.628ZM60.5713 119.412C60.5713 118.708 60.4233 118.16 60.1273 117.768C59.8393 117.368 59.4073 117.168 58.8313 117.168C58.3113 117.168 57.8913 117.368 57.5713 117.768C57.2513 118.168 57.0753 118.776 57.0433 119.592H60.5713V119.412ZM65.8168 116.592C66.5448 116.592 67.1088 116.872 67.5088 117.432C67.9088 117.992 68.1088 118.792 68.1088 119.832C68.1088 120.848 67.8968 121.652 67.4728 122.244C67.0568 122.836 66.4728 123.132 65.7208 123.132C65.3448 123.132 65.0008 123.048 64.6888 122.88C64.3848 122.712 64.1288 122.488 63.9208 122.208L63.8488 123H63.2368V114.168L63.9328 114.084V117.6C64.4288 116.928 65.0568 116.592 65.8168 116.592ZM65.5888 122.556C66.1568 122.556 66.5928 122.328 66.8968 121.872C67.2088 121.408 67.3648 120.728 67.3648 119.832C67.3648 118.056 66.8008 117.168 65.6728 117.168C65.2968 117.168 64.9728 117.264 64.7008 117.456C64.4288 117.64 64.1728 117.904 63.9328 118.248V121.548C64.1328 121.86 64.3728 122.108 64.6528 122.292C64.9328 122.468 65.2448 122.556 65.5888 122.556ZM74.6615 119.628C74.6615 119.804 74.6535 119.972 74.6375 120.132H70.4495C70.4895 120.948 70.6815 121.556 71.0255 121.956C71.3775 122.348 71.8375 122.544 72.4055 122.544C72.7335 122.544 73.0215 122.496 73.2695 122.4C73.5255 122.296 73.8015 122.136 74.0975 121.92L74.4215 122.364C74.1095 122.62 73.7895 122.812 73.4615 122.94C73.1335 123.068 72.7695 123.132 72.3695 123.132C71.5375 123.132 70.8855 122.848 70.4135 122.28C69.9415 121.712 69.7055 120.924 69.7055 119.916C69.7055 119.252 69.8055 118.672 70.0055 118.176C70.2135 117.672 70.5055 117.284 70.8815 117.012C71.2655 116.732 71.7095 116.592 72.2135 116.592C73.0135 116.592 73.6215 116.864 74.0375 117.408C74.4535 117.944 74.6615 118.684 74.6615 119.628ZM73.9775 119.412C73.9775 118.708 73.8295 118.16 73.5335 117.768C73.2455 117.368 72.8135 117.168 72.2375 117.168C71.7175 117.168 71.2975 117.368 70.9775 117.768C70.6575 118.168 70.4815 118.776 70.4495 119.592H73.9775V119.412ZM79.0791 116.592C79.3271 116.592 79.5351 116.616 79.7031 116.664L79.5711 117.324C79.3951 117.276 79.2111 117.252 79.0191 117.252C78.5951 117.252 78.2511 117.408 77.9871 117.72C77.7311 118.024 77.5151 118.504 77.3391 119.16V123H76.6431V116.724H77.2431L77.3031 118.128C77.4711 117.608 77.6991 117.224 77.9871 116.976C78.2831 116.72 78.6471 116.592 79.0791 116.592ZM83.5557 116.592C83.8037 116.592 84.0117 116.616 84.1797 116.664L84.0477 117.324C83.8717 117.276 83.6877 117.252 83.4957 117.252C83.0717 117.252 82.7277 117.408 82.4637 117.72C82.2077 118.024 81.9917 118.504 81.8157 119.16V123H81.1197V116.724H81.7197L81.7797 118.128C81.9477 117.608 82.1757 117.224 82.4637 116.976C82.7597 116.72 83.1237 116.592 83.5557 116.592ZM87.6002 123.024C87.4322 123.512 87.2482 123.912 87.0482 124.224C86.8482 124.536 86.5882 124.792 86.2682 124.992C85.9482 125.2 85.5362 125.352 85.0322 125.448L84.9602 124.908C85.3762 124.804 85.7002 124.676 85.9322 124.524C86.1722 124.372 86.3602 124.18 86.4962 123.948C86.6402 123.724 86.7842 123.408 86.9282 123H86.6882L84.5042 116.724H85.2602L87.1562 122.484L89.0162 116.724H89.7482L87.6002 123.024ZM43.856 131.576H42.92L42.56 134.288H43.412V134.84H42.488L42.2 137H41.576L41.864 134.84H39.668L39.38 137H38.756L39.044 134.84H38.18V134.288H39.116L39.476 131.576H38.624V131.012H39.548L39.812 129.02H40.436L40.172 131.012H42.368L42.632 129.02H43.256L42.992 131.012H43.856V131.576ZM41.936 134.288L42.296 131.576H40.1L39.74 134.288H41.936ZM49.8312 134.324V134.9H48.7512V137H48.0672V134.9H44.5752V134.384L47.0112 128.888L47.5992 129.128L45.3192 134.324H48.0672L48.1512 131.984H48.7512V134.324H49.8312ZM52.7117 128.888C53.3837 128.888 53.9157 129.084 54.3077 129.476C54.7077 129.868 54.9077 130.372 54.9077 130.988C54.9077 131.508 54.7997 131.996 54.5837 132.452C54.3677 132.908 54.0277 133.408 53.5637 133.952C53.1077 134.496 52.3677 135.308 51.3437 136.388H55.1237L55.0277 137H50.5277V136.412C51.6237 135.244 52.4077 134.38 52.8797 133.82C53.3597 133.252 53.6957 132.764 53.8877 132.356C54.0877 131.94 54.1877 131.496 54.1877 131.024C54.1877 130.552 54.0477 130.176 53.7677 129.896C53.4957 129.616 53.1317 129.476 52.6757 129.476C52.3077 129.476 51.9797 129.552 51.6917 129.704C51.4117 129.856 51.1437 130.084 50.8877 130.388L50.4077 130.028C50.7277 129.636 51.0717 129.348 51.4397 129.164C51.8157 128.98 52.2397 128.888 52.7117 128.888ZM59.7979 132.776C60.4139 133.024 60.8619 133.316 61.1419 133.652C61.4299 133.98 61.5739 134.404 61.5739 134.924C61.5739 135.364 61.4619 135.752 61.2379 136.088C61.0219 136.416 60.7139 136.672 60.3139 136.856C59.9219 137.04 59.4699 137.132 58.9579 137.132C58.4459 137.132 57.9939 137.04 57.6019 136.856C57.2179 136.672 56.9179 136.416 56.7019 136.088C56.4939 135.752 56.3899 135.368 56.3899 134.936C56.3899 133.912 56.9619 133.172 58.1059 132.716C57.6339 132.5 57.2859 132.252 57.0619 131.972C56.8459 131.684 56.7379 131.32 56.7379 130.88C56.7379 130.472 56.8419 130.116 57.0499 129.812C57.2579 129.508 57.5339 129.28 57.8779 129.128C58.2219 128.968 58.5899 128.888 58.9819 128.888C59.3739 128.888 59.7419 128.964 60.0859 129.116C60.4299 129.268 60.7059 129.492 60.9139 129.788C61.1299 130.084 61.2379 130.444 61.2379 130.868C61.2379 131.284 61.1219 131.644 60.8899 131.948C60.6579 132.244 60.2939 132.52 59.7979 132.776ZM57.4339 130.892C57.4339 131.276 57.5419 131.58 57.7579 131.804C57.9819 132.028 58.3659 132.24 58.9099 132.44L59.2819 132.572C59.7299 132.332 60.0499 132.084 60.2419 131.828C60.4419 131.572 60.5419 131.26 60.5419 130.892C60.5419 130.436 60.3979 130.08 60.1099 129.824C59.8299 129.568 59.4539 129.44 58.9819 129.44C58.5259 129.44 58.1539 129.568 57.8659 129.824C57.5779 130.08 57.4339 130.436 57.4339 130.892ZM58.9699 136.544C59.5379 136.544 59.9899 136.404 60.3259 136.124C60.6699 135.836 60.8419 135.436 60.8419 134.924C60.8419 134.604 60.7819 134.34 60.6619 134.132C60.5419 133.916 60.3579 133.732 60.1099 133.58C59.8619 133.42 59.5139 133.256 59.0659 133.088L58.6579 132.932C58.1219 133.14 57.7299 133.408 57.4819 133.736C57.2419 134.056 57.1219 134.456 57.1219 134.936C57.1219 135.448 57.2899 135.844 57.6259 136.124C57.9619 136.404 58.4099 136.544 58.9699 136.544ZM67.0709 129.596H63.8309V132.32C64.2709 132.072 64.7269 131.948 65.1989 131.948C65.8869 131.948 66.4309 132.172 66.8309 132.62C67.2389 133.06 67.4429 133.664 67.4429 134.432C67.4429 134.952 67.3349 135.42 67.1189 135.836C66.9109 136.244 66.6109 136.564 66.2189 136.796C65.8349 137.02 65.3869 137.132 64.8749 137.132C63.9869 137.132 63.2349 136.812 62.6189 136.172L63.0509 135.752C63.3069 136.024 63.5789 136.224 63.8669 136.352C64.1549 136.48 64.4909 136.544 64.8749 136.544C65.4429 136.544 65.8909 136.356 66.2189 135.98C66.5469 135.596 66.7109 135.076 66.7109 134.42C66.7109 133.78 66.5589 133.304 66.2549 132.992C65.9589 132.672 65.5549 132.512 65.0429 132.512C64.7869 132.512 64.5589 132.544 64.3589 132.608C64.1669 132.664 63.9509 132.76 63.7109 132.896H63.1589V129.02H67.1789L67.0709 129.596ZM69.3906 137V128.78H73.4946L73.4106 129.38H70.1106V132.584H72.9546V133.184H70.1106V137H69.3906ZM79.1515 134.324V134.9H78.0715V137H77.3875V134.9H73.8955V134.384L76.3315 128.888L76.9195 129.128L74.6395 134.324H77.3875L77.4715 131.984H78.0715V134.324H79.1515Z" fill="#08090A"/>
<circle cx="168" cy="125" r="15" fill="#08090A"/>
<circle cx="168" cy="70" r="15" fill="#84828F"/>
<circle cx="15" cy="70" r="15" fill="#EF233C"/>
<circle cx="15" cy="15" r="15" fill="#EDF2F4"/>
<circle cx="168" cy="15" r="15" fill="#CACFD6"/>
<circle cx="15" cy="125" r="15" fill="#4285F4"/>
</svg>
