<svg width="565" height="442" viewBox="0 0 565 442" fill="none" xmlns="http://www.w3.org/2000/svg">
<path d="M238.214 423H369.786L389 442H219L238.214 423Z" fill="#22181C"/>
<rect x="43" width="522" height="341" rx="15" fill="#22181C"/>
<path d="M249 367H359L374 442H234L249 367Z" fill="#22181C"/>
<path d="M43 327H565V360C565 368.284 558.284 375 550 375H58C49.7157 375 43 368.284 43 360V327Z" fill="#22181C"/>
<path d="M249 367H359L374 442H234L249 367Z" fill="#22181C"/>
<path d="M43 327H565V360C565 368.284 558.284 375 550 375H58C49.7157 375 43 368.284 43 360V327Z" fill="#22181C"/>
<path d="M64 22C64 20.8954 64.8954 20 66 20H542C543.105 20 544 20.8954 544 22V322C544 323.105 543.105 324 542 324H66C64.8954 324 64 323.105 64 322V22Z" fill="#C2CEDF"/>
<rect x="2.40002" y="142" width="192" height="300" rx="20" fill="#22181C"/>
<rect x="12" y="172" width="172.8" height="240" rx="2" fill="#C2CEDF"/>
<rect x="416" y="242" width="98.7465" height="200" rx="15" fill="#22181C"/>
<path fill-rule="evenodd" clip-rule="evenodd" d="M422.474 250.786V255.41H509.179V250.786H422.474Z" fill="black" fill-opacity="0.01"/>
<path fill-rule="evenodd" clip-rule="evenodd" d="M431.372 252.058C432.192 252.058 432.933 252.391 433.457 252.924L433.108 253.263C432.674 252.815 432.056 252.536 431.372 252.536C430.692 252.536 430.078 252.812 429.644 253.254L429.295 252.916C429.818 252.387 430.555 252.058 431.372 252.058ZM432.76 253.601C432.415 253.24 431.92 253.013 431.372 253.013C430.828 253.013 430.337 253.236 429.992 253.592L430.341 253.93C430.597 253.66 430.964 253.491 431.372 253.491C431.785 253.491 432.155 253.664 432.411 253.94L432.76 253.601ZM432.062 254.279C431.896 254.089 431.649 253.969 431.372 253.969C431.1 253.969 430.856 254.085 430.691 254.268L431.383 254.939L432.062 254.279Z" fill="#27282B"/>
<path fill-rule="evenodd" clip-rule="evenodd" d="M426.971 251.942C426.773 251.942 426.612 252.103 426.612 252.301V254.31C426.612 254.508 426.773 254.669 426.971 254.669C427.169 254.669 427.329 254.508 427.329 254.31V252.301C427.329 252.103 427.169 251.942 426.971 251.942ZM425.823 252.66C425.624 252.66 425.464 252.82 425.464 253.019V254.31C425.464 254.508 425.624 254.669 425.823 254.669C426.021 254.669 426.181 254.508 426.181 254.31V253.019C426.181 252.82 426.021 252.66 425.823 252.66ZM424.316 253.593C424.316 253.394 424.476 253.234 424.674 253.234C424.873 253.234 425.033 253.394 425.033 253.593V254.31C425.033 254.508 424.873 254.669 424.674 254.669C424.476 254.669 424.316 254.508 424.316 254.31V253.593ZM423.526 253.808C423.328 253.808 423.168 253.968 423.168 254.167V254.31C423.168 254.508 423.328 254.669 423.526 254.669C423.725 254.669 423.885 254.508 423.885 254.31V254.167C423.885 253.968 423.725 253.808 423.526 253.808Z" fill="black"/>
<path opacity="0.4" d="M494.018 252.442H497.274C497.819 252.442 498.26 252.884 498.26 253.429V253.915C498.26 254.191 498.037 254.415 497.761 254.415H494.018C493.473 254.415 493.032 253.973 493.032 253.429C493.032 252.884 493.473 252.442 494.018 252.442Z" stroke="#27282B"/>
<path fill-rule="evenodd" clip-rule="evenodd" d="M499.043 254.03C499.288 253.967 499.468 253.745 499.468 253.482C499.468 253.218 499.288 252.996 499.043 252.933V254.03Z" fill="black" fill-opacity="0.5"/>
<path fill-rule="evenodd" clip-rule="evenodd" d="M493.098 253.429C493.098 252.92 493.51 252.508 494.018 252.508H497.274C497.782 252.508 498.194 252.92 498.194 253.429V253.429C498.194 253.937 497.782 254.349 497.274 254.349H494.018C493.51 254.349 493.098 253.937 493.098 253.429V253.429Z" fill="#27282B"/>
<path fill-rule="evenodd" clip-rule="evenodd" d="M425.942 248.243V252.867H512.647V248.243H425.942Z" fill="black" fill-opacity="0.01"/>
<path fill-rule="evenodd" clip-rule="evenodd" d="M434.84 249.514C435.661 249.514 436.401 249.847 436.925 250.381L436.577 250.719C436.142 250.272 435.525 249.992 434.84 249.992C434.16 249.992 433.546 250.268 433.112 250.711L432.763 250.373C433.287 249.844 434.024 249.514 434.84 249.514ZM436.228 251.058C435.883 250.696 435.389 250.47 434.84 250.47C434.296 250.47 433.806 250.692 433.461 251.049L433.81 251.387C434.065 251.117 434.432 250.948 434.84 250.948C435.253 250.948 435.624 251.121 435.88 251.397L436.228 251.058ZM435.53 251.736C435.365 251.546 435.117 251.425 434.84 251.425C434.568 251.425 434.325 251.541 434.159 251.725L434.851 252.396L435.53 251.736Z" fill="#27282B"/>
<path fill-rule="evenodd" clip-rule="evenodd" d="M430.439 249.399C430.241 249.399 430.08 249.559 430.08 249.758V251.767C430.08 251.965 430.241 252.126 430.439 252.126C430.637 252.126 430.798 251.965 430.798 251.767V249.758C430.798 249.559 430.637 249.399 430.439 249.399ZM429.291 250.116C429.093 250.116 428.932 250.277 428.932 250.475V251.767C428.932 251.965 429.093 252.126 429.291 252.126C429.489 252.126 429.65 251.965 429.65 251.767V250.475C429.65 250.277 429.489 250.116 429.291 250.116ZM427.784 251.049C427.784 250.851 427.945 250.69 428.143 250.69C428.341 250.69 428.502 250.851 428.502 251.049V251.767C428.502 251.965 428.341 252.126 428.143 252.126C427.945 252.126 427.784 251.965 427.784 251.767V251.049ZM426.995 251.265C426.796 251.265 426.636 251.425 426.636 251.623V251.767C426.636 251.965 426.796 252.126 426.995 252.126C427.193 252.126 427.353 251.965 427.353 251.767V251.623C427.353 251.425 427.193 251.265 426.995 251.265Z" fill="black"/>
<path opacity="0.4" d="M497.486 249.899H500.742C501.287 249.899 501.729 250.34 501.729 250.885V251.372C501.729 251.648 501.505 251.872 501.229 251.872H497.486C496.942 251.872 496.5 251.43 496.5 250.885C496.5 250.34 496.942 249.899 497.486 249.899Z" stroke="#27282B"/>
<path fill-rule="evenodd" clip-rule="evenodd" d="M502.512 251.487C502.756 251.424 502.936 251.202 502.936 250.938C502.936 250.674 502.756 250.453 502.512 250.39V251.487Z" fill="black" fill-opacity="0.5"/>
<path fill-rule="evenodd" clip-rule="evenodd" d="M496.566 250.885C496.566 250.377 496.978 249.965 497.486 249.965H500.742C501.25 249.965 501.662 250.377 501.662 250.885V250.885C501.662 251.393 501.25 251.805 500.742 251.805H497.486C496.978 251.805 496.566 251.393 496.566 250.885V250.885Z" fill="#27282B"/>
<rect x="421.78" y="247.549" width="87.3457" height="189.133" rx="10" fill="#C2CEDF"/>
<rect x="438.89" y="242" width="53.1792" height="11.5607" rx="5.78035" fill="#22181C"/>
</svg>
