<svg width="49" height="35" viewBox="0 0 49 35" fill="none" xmlns="http://www.w3.org/2000/svg">
<path fill-rule="evenodd" clip-rule="evenodd" d="M22.5977 26.4844L24.7852 19.2578H22.5977C21.7904 20.9635 20.6836 22.2396 19.2773 23.0859C17.8841 23.9193 15.9896 24.3359 13.5938 24.3359C11.276 24.3359 10.1172 23.7109 10.1172 22.4609C10.1172 22.1484 10.2539 21.5495 10.5273 20.6641L12.6172 13.8281H13.4375C15.5859 13.8281 16.6602 14.5898 16.6602 16.1133C16.6602 16.6081 16.5104 17.3633 16.2109 18.3789H18.5156L21.7188 7.92969H19.4141C18.8411 9.54427 18.2552 10.5729 17.6562 11.0156C17.0573 11.4583 16.0286 11.6797 14.5703 11.6797H13.2617L16.2109 2.16797H18.7305C20.8919 2.16797 22.3307 2.55859 23.0469 3.33984C23.763 4.10807 24.3424 5.16276 24.7852 6.50391H26.9922L26.8164 0H7.40234L6.73828 2.16797C7.23307 2.16797 7.72135 2.31771 8.20312 2.61719C8.69792 2.91667 8.94531 3.36589 8.94531 3.96484C8.94531 4.1862 8.88021 4.51823 8.75 4.96094L3.80859 21.1133C3.35286 22.5977 2.8776 23.4961 2.38281 23.8086C1.90104 24.1081 1.32812 24.2708 0.664062 24.2969L0 26.4844H22.5977ZM32.2949 29.2031L34.4238 22.2695H35.6738C36.429 22.2695 37.0801 22.4388 37.627 22.7773C38.1738 23.1029 38.4473 23.6367 38.4473 24.3789C38.4473 25.1081 38.2845 25.9284 37.959 26.8398H40.3027L43.5059 16.3516H41.1621C40.6803 17.862 40.1204 18.8646 39.4824 19.3594C38.8444 19.8542 37.8743 20.1016 36.5723 20.1016H35.0879L37.959 10.6289H41.1621C42.5553 10.6289 43.61 10.9219 44.3262 11.5078C45.0423 12.0807 45.6999 13.2266 46.2988 14.9453H48.3887L48.2715 8.46094H28.877L28.2129 10.6289C28.916 10.6289 29.515 10.7852 30.0098 11.0977C30.5046 11.3971 30.752 11.8398 30.752 12.4258C30.752 12.6602 30.6803 12.9922 30.5371 13.4219L25.5957 29.5742C25.166 31.0065 24.7038 31.8984 24.209 32.25C23.7142 32.5885 23.0827 32.7578 22.3145 32.7578L21.6504 34.9453H34.4238L35.0879 32.7578C32.9525 32.7578 31.8848 32.1523 31.8848 30.9414C31.8848 30.668 32.0215 30.0885 32.2949 29.2031Z" fill="#22181C"/>
</svg>
