<svg width="307" height="50" viewBox="0 0 307 50" fill="none" xmlns="http://www.w3.org/2000/svg">
<path d="M0 10C0 4.47715 4.47715 0 10 0H102.083V50H10C4.47716 50 0 45.5228 0 40V10Z" fill="#EDF2F4"/>
<path d="M13.876 7.148C15.496 7.148 16.834 7.574 17.89 8.426C18.958 9.278 19.648 10.43 19.96 11.882H16.702C16.462 11.294 16.09 10.832 15.586 10.496C15.094 10.16 14.506 9.992 13.822 9.992C12.922 9.992 12.196 10.322 11.644 10.982C11.092 11.642 10.816 12.524 10.816 13.628C10.816 14.732 11.092 15.614 11.644 16.274C12.196 16.922 12.922 17.246 13.822 17.246C14.506 17.246 15.094 17.078 15.586 16.742C16.09 16.406 16.462 15.95 16.702 15.374H19.96C19.648 16.814 18.958 17.966 17.89 18.83C16.834 19.682 15.496 20.108 13.876 20.108C12.64 20.108 11.554 19.838 10.618 19.298C9.682 18.746 8.956 17.978 8.44 16.994C7.936 16.01 7.684 14.888 7.684 13.628C7.684 12.368 7.936 11.246 8.44 10.262C8.956 9.278 9.682 8.516 10.618 7.976C11.554 7.424 12.64 7.148 13.876 7.148ZM24.763 6.68V20H21.685V6.68H24.763ZM31.5862 9.83C32.5822 9.83 33.4702 10.04 34.2502 10.46C35.0422 10.868 35.6602 11.462 36.1042 12.242C36.5602 13.022 36.7882 13.934 36.7882 14.978C36.7882 16.022 36.5602 16.934 36.1042 17.714C35.6602 18.494 35.0422 19.094 34.2502 19.514C33.4702 19.922 32.5822 20.126 31.5862 20.126C30.5902 20.126 29.6962 19.922 28.9042 19.514C28.1122 19.094 27.4882 18.494 27.0322 17.714C26.5882 16.934 26.3662 16.022 26.3662 14.978C26.3662 13.934 26.5882 13.022 27.0322 12.242C27.4882 11.462 28.1122 10.868 28.9042 10.46C29.6962 10.04 30.5902 9.83 31.5862 9.83ZM31.5862 12.494C30.9982 12.494 30.5002 12.71 30.0922 13.142C29.6962 13.562 29.4982 14.174 29.4982 14.978C29.4982 15.782 29.6962 16.394 30.0922 16.814C30.5002 17.234 30.9982 17.444 31.5862 17.444C32.1742 17.444 32.6662 17.234 33.0622 16.814C33.4582 16.394 33.6562 15.782 33.6562 14.978C33.6562 14.174 33.4582 13.562 33.0622 13.142C32.6662 12.71 32.1742 12.494 31.5862 12.494ZM48.3743 9.956V20H45.2783V18.182C44.9903 18.77 44.5583 19.238 43.9823 19.586C43.4183 19.934 42.7583 20.108 42.0023 20.108C40.8503 20.108 39.9323 19.724 39.2483 18.956C38.5763 18.188 38.2403 17.132 38.2403 15.788V9.956H41.3003V15.41C41.3003 16.094 41.4743 16.628 41.8223 17.012C42.1823 17.384 42.6623 17.57 43.2623 17.57C43.8863 17.57 44.3783 17.372 44.7383 16.976C45.0983 16.58 45.2783 16.016 45.2783 15.284V9.956H48.3743ZM54.3116 9.83C55.0796 9.83 55.7396 10.004 56.2916 10.352C56.8436 10.7 57.2456 11.174 57.4976 11.774V6.68H60.5756V20H57.4976V18.182C57.2456 18.782 56.8436 19.256 56.2916 19.604C55.7396 19.952 55.0796 20.126 54.3116 20.126C53.4836 20.126 52.7396 19.922 52.0796 19.514C51.4316 19.094 50.9156 18.494 50.5316 17.714C50.1596 16.934 49.9736 16.022 49.9736 14.978C49.9736 13.922 50.1596 13.01 50.5316 12.242C50.9156 11.462 51.4316 10.868 52.0796 10.46C52.7396 10.04 53.4836 9.83 54.3116 9.83ZM55.3016 12.53C54.6416 12.53 54.1076 12.746 53.6996 13.178C53.3036 13.61 53.1056 14.21 53.1056 14.978C53.1056 15.746 53.3036 16.346 53.6996 16.778C54.1076 17.21 54.6416 17.426 55.3016 17.426C55.9496 17.426 56.4776 17.204 56.8856 16.76C57.3056 16.316 57.5156 15.722 57.5156 14.978C57.5156 14.222 57.3056 13.628 56.8856 13.196C56.4776 12.752 55.9496 12.53 55.3016 12.53ZM14.056 33.502L19.186 40H15.46L11.14 34.294V40H8.062V27.274H11.14V32.872L15.496 27.274H19.186L14.056 33.502ZM20.2017 27.13C20.2017 26.662 20.3697 26.278 20.7057 25.978C21.0417 25.666 21.4857 25.51 22.0377 25.51C22.5897 25.51 23.0337 25.666 23.3697 25.978C23.7057 26.278 23.8737 26.662 23.8737 27.13C23.8737 27.586 23.7057 27.97 23.3697 28.282C23.0337 28.582 22.5897 28.732 22.0377 28.732C21.4857 28.732 21.0417 28.582 20.7057 28.282C20.3697 27.97 20.2017 27.586 20.2017 27.13ZM23.5677 29.956V40H20.4897V29.956H23.5677ZM31.3809 37.354V40H29.9949C28.8189 40 27.9009 39.712 27.2409 39.136C26.5929 38.548 26.2689 37.582 26.2689 36.238V32.548H24.9189V29.956H26.2689V27.49H29.3469V29.956H31.3629V32.548H29.3469V36.292C29.3469 36.688 29.4249 36.964 29.5809 37.12C29.7489 37.276 30.0249 37.354 30.4089 37.354H31.3809ZM37.6468 29.83C38.9428 29.83 40.0288 30.19 40.9048 30.91C41.7808 31.618 42.3328 32.596 42.5608 33.844H39.3028C39.2068 33.412 39.0088 33.076 38.7088 32.836C38.4088 32.596 38.0308 32.476 37.5748 32.476C37.0348 32.476 36.5908 32.692 36.2428 33.124C35.8948 33.544 35.7208 34.162 35.7208 34.978C35.7208 35.794 35.8948 36.418 36.2428 36.85C36.5908 37.27 37.0348 37.48 37.5748 37.48C38.0308 37.48 38.4088 37.36 38.7088 37.12C39.0088 36.88 39.2068 36.544 39.3028 36.112H42.5608C42.3328 37.36 41.7808 38.344 40.9048 39.064C40.0288 39.772 38.9428 40.126 37.6468 40.126C36.6628 40.126 35.7868 39.922 35.0188 39.514C34.2628 39.094 33.6688 38.494 33.2368 37.714C32.8048 36.934 32.5888 36.022 32.5888 34.978C32.5888 33.922 32.7988 33.01 33.2188 32.242C33.6508 31.462 34.2508 30.868 35.0188 30.46C35.7868 30.04 36.6628 29.83 37.6468 29.83ZM50.5395 29.848C51.6915 29.848 52.6035 30.232 53.2755 31C53.9595 31.768 54.3015 32.824 54.3015 34.168V40H51.2235V34.528C51.2235 33.856 51.0435 33.334 50.6835 32.962C50.3355 32.578 49.8675 32.386 49.2795 32.386C48.6555 32.386 48.1575 32.584 47.7855 32.98C47.4255 33.376 47.2455 33.94 47.2455 34.672V40H44.1675V26.68H47.2455V31.792C47.5335 31.192 47.9595 30.718 48.5235 30.37C49.0995 30.022 49.7715 29.848 50.5395 29.848ZM65.8715 34.708C65.8715 34.96 65.8415 35.236 65.7815 35.536H58.8155C58.8515 36.292 59.0435 36.838 59.3915 37.174C59.7395 37.498 60.1835 37.66 60.7235 37.66C61.1795 37.66 61.5575 37.546 61.8575 37.318C62.1575 37.09 62.3555 36.796 62.4515 36.436H65.7095C65.5775 37.144 65.2895 37.78 64.8455 38.344C64.4015 38.896 63.8375 39.334 63.1535 39.658C62.4695 39.97 61.7075 40.126 60.8675 40.126C59.8835 40.126 59.0075 39.922 58.2395 39.514C57.4835 39.094 56.8895 38.494 56.4575 37.714C56.0255 36.934 55.8095 36.022 55.8095 34.978C55.8095 33.922 56.0195 33.01 56.4395 32.242C56.8715 31.462 57.4715 30.868 58.2395 30.46C59.0075 30.04 59.8835 29.83 60.8675 29.83C61.8635 29.83 62.7395 30.034 63.4955 30.442C64.2515 30.85 64.8335 31.426 65.2415 32.17C65.6615 32.902 65.8715 33.748 65.8715 34.708ZM62.7575 34.24C62.7695 33.58 62.5895 33.088 62.2175 32.764C61.8575 32.428 61.4075 32.26 60.8675 32.26C60.3035 32.26 59.8355 32.428 59.4635 32.764C59.0915 33.1 58.8815 33.592 58.8335 34.24H62.7575ZM73.8481 29.848C75.0001 29.848 75.9121 30.232 76.5841 31C77.2681 31.768 77.6101 32.824 77.6101 34.168V40H74.5321V34.528C74.5321 33.856 74.3521 33.334 73.9921 32.962C73.6441 32.578 73.1761 32.386 72.5881 32.386C71.9641 32.386 71.4661 32.584 71.0941 32.98C70.7341 33.376 70.5541 33.94 70.5541 34.672V40H67.4761V29.956H70.5541V31.792C70.8421 31.192 71.2681 30.718 71.8321 30.37C72.4081 30.022 73.0801 29.848 73.8481 29.848Z" fill="#EF233C"/>
<path d="M102 0H204.083V50H102V0Z" fill="#CACFD6"/>
<path d="M116.876 7.148C118.496 7.148 119.834 7.574 120.89 8.426C121.958 9.278 122.648 10.43 122.96 11.882H119.702C119.462 11.294 119.09 10.832 118.586 10.496C118.094 10.16 117.506 9.992 116.822 9.992C115.922 9.992 115.196 10.322 114.644 10.982C114.092 11.642 113.816 12.524 113.816 13.628C113.816 14.732 114.092 15.614 114.644 16.274C115.196 16.922 115.922 17.246 116.822 17.246C117.506 17.246 118.094 17.078 118.586 16.742C119.09 16.406 119.462 15.95 119.702 15.374H122.96C122.648 16.814 121.958 17.966 120.89 18.83C119.834 19.682 118.496 20.108 116.876 20.108C115.64 20.108 114.554 19.838 113.618 19.298C112.682 18.746 111.956 17.978 111.44 16.994C110.936 16.01 110.684 14.888 110.684 13.628C110.684 12.368 110.936 11.246 111.44 10.262C111.956 9.278 112.682 8.516 113.618 7.976C114.554 7.424 115.64 7.148 116.876 7.148ZM127.763 6.68V20H124.685V6.68H127.763ZM134.586 9.83C135.582 9.83 136.47 10.04 137.25 10.46C138.042 10.868 138.66 11.462 139.104 12.242C139.56 13.022 139.788 13.934 139.788 14.978C139.788 16.022 139.56 16.934 139.104 17.714C138.66 18.494 138.042 19.094 137.25 19.514C136.47 19.922 135.582 20.126 134.586 20.126C133.59 20.126 132.696 19.922 131.904 19.514C131.112 19.094 130.488 18.494 130.032 17.714C129.588 16.934 129.366 16.022 129.366 14.978C129.366 13.934 129.588 13.022 130.032 12.242C130.488 11.462 131.112 10.868 131.904 10.46C132.696 10.04 133.59 9.83 134.586 9.83ZM134.586 12.494C133.998 12.494 133.5 12.71 133.092 13.142C132.696 13.562 132.498 14.174 132.498 14.978C132.498 15.782 132.696 16.394 133.092 16.814C133.5 17.234 133.998 17.444 134.586 17.444C135.174 17.444 135.666 17.234 136.062 16.814C136.458 16.394 136.656 15.782 136.656 14.978C136.656 14.174 136.458 13.562 136.062 13.142C135.666 12.71 135.174 12.494 134.586 12.494ZM151.374 9.956V20H148.278V18.182C147.99 18.77 147.558 19.238 146.982 19.586C146.418 19.934 145.758 20.108 145.002 20.108C143.85 20.108 142.932 19.724 142.248 18.956C141.576 18.188 141.24 17.132 141.24 15.788V9.956H144.3V15.41C144.3 16.094 144.474 16.628 144.822 17.012C145.182 17.384 145.662 17.57 146.262 17.57C146.886 17.57 147.378 17.372 147.738 16.976C148.098 16.58 148.278 16.016 148.278 15.284V9.956H151.374ZM157.312 9.83C158.08 9.83 158.74 10.004 159.292 10.352C159.844 10.7 160.246 11.174 160.498 11.774V6.68H163.576V20H160.498V18.182C160.246 18.782 159.844 19.256 159.292 19.604C158.74 19.952 158.08 20.126 157.312 20.126C156.484 20.126 155.74 19.922 155.08 19.514C154.432 19.094 153.916 18.494 153.532 17.714C153.16 16.934 152.974 16.022 152.974 14.978C152.974 13.922 153.16 13.01 153.532 12.242C153.916 11.462 154.432 10.868 155.08 10.46C155.74 10.04 156.484 9.83 157.312 9.83ZM158.302 12.53C157.642 12.53 157.108 12.746 156.7 13.178C156.304 13.61 156.106 14.21 156.106 14.978C156.106 15.746 156.304 16.346 156.7 16.778C157.108 17.21 157.642 17.426 158.302 17.426C158.95 17.426 159.478 17.204 159.886 16.76C160.306 16.316 160.516 15.722 160.516 14.978C160.516 14.222 160.306 13.628 159.886 13.196C159.478 12.752 158.95 12.53 158.302 12.53ZM117.056 33.502L122.186 40H118.46L114.14 34.294V40H111.062V27.274H114.14V32.872L118.496 27.274H122.186L117.056 33.502ZM123.202 27.13C123.202 26.662 123.37 26.278 123.706 25.978C124.042 25.666 124.486 25.51 125.038 25.51C125.59 25.51 126.034 25.666 126.37 25.978C126.706 26.278 126.874 26.662 126.874 27.13C126.874 27.586 126.706 27.97 126.37 28.282C126.034 28.582 125.59 28.732 125.038 28.732C124.486 28.732 124.042 28.582 123.706 28.282C123.37 27.97 123.202 27.586 123.202 27.13ZM126.568 29.956V40H123.49V29.956H126.568ZM134.381 37.354V40H132.995C131.819 40 130.901 39.712 130.241 39.136C129.593 38.548 129.269 37.582 129.269 36.238V32.548H127.919V29.956H129.269V27.49H132.347V29.956H134.363V32.548H132.347V36.292C132.347 36.688 132.425 36.964 132.581 37.12C132.749 37.276 133.025 37.354 133.409 37.354H134.381ZM140.647 29.83C141.943 29.83 143.029 30.19 143.905 30.91C144.781 31.618 145.333 32.596 145.561 33.844H142.303C142.207 33.412 142.009 33.076 141.709 32.836C141.409 32.596 141.031 32.476 140.575 32.476C140.035 32.476 139.591 32.692 139.243 33.124C138.895 33.544 138.721 34.162 138.721 34.978C138.721 35.794 138.895 36.418 139.243 36.85C139.591 37.27 140.035 37.48 140.575 37.48C141.031 37.48 141.409 37.36 141.709 37.12C142.009 36.88 142.207 36.544 142.303 36.112H145.561C145.333 37.36 144.781 38.344 143.905 39.064C143.029 39.772 141.943 40.126 140.647 40.126C139.663 40.126 138.787 39.922 138.019 39.514C137.263 39.094 136.669 38.494 136.237 37.714C135.805 36.934 135.589 36.022 135.589 34.978C135.589 33.922 135.799 33.01 136.219 32.242C136.651 31.462 137.251 30.868 138.019 30.46C138.787 30.04 139.663 29.83 140.647 29.83ZM153.539 29.848C154.691 29.848 155.603 30.232 156.275 31C156.959 31.768 157.301 32.824 157.301 34.168V40H154.223V34.528C154.223 33.856 154.043 33.334 153.683 32.962C153.335 32.578 152.867 32.386 152.279 32.386C151.655 32.386 151.157 32.584 150.785 32.98C150.425 33.376 150.245 33.94 150.245 34.672V40H147.167V26.68H150.245V31.792C150.533 31.192 150.959 30.718 151.523 30.37C152.099 30.022 152.771 29.848 153.539 29.848ZM168.872 34.708C168.872 34.96 168.842 35.236 168.782 35.536H161.816C161.852 36.292 162.044 36.838 162.392 37.174C162.74 37.498 163.184 37.66 163.724 37.66C164.18 37.66 164.558 37.546 164.858 37.318C165.158 37.09 165.356 36.796 165.452 36.436H168.71C168.578 37.144 168.29 37.78 167.846 38.344C167.402 38.896 166.838 39.334 166.154 39.658C165.47 39.97 164.708 40.126 163.868 40.126C162.884 40.126 162.008 39.922 161.24 39.514C160.484 39.094 159.89 38.494 159.458 37.714C159.026 36.934 158.81 36.022 158.81 34.978C158.81 33.922 159.02 33.01 159.44 32.242C159.872 31.462 160.472 30.868 161.24 30.46C162.008 30.04 162.884 29.83 163.868 29.83C164.864 29.83 165.74 30.034 166.496 30.442C167.252 30.85 167.834 31.426 168.242 32.17C168.662 32.902 168.872 33.748 168.872 34.708ZM165.758 34.24C165.77 33.58 165.59 33.088 165.218 32.764C164.858 32.428 164.408 32.26 163.868 32.26C163.304 32.26 162.836 32.428 162.464 32.764C162.092 33.1 161.882 33.592 161.834 34.24H165.758ZM176.848 29.848C178 29.848 178.912 30.232 179.584 31C180.268 31.768 180.61 32.824 180.61 34.168V40H177.532V34.528C177.532 33.856 177.352 33.334 176.992 32.962C176.644 32.578 176.176 32.386 175.588 32.386C174.964 32.386 174.466 32.584 174.094 32.98C173.734 33.376 173.554 33.94 173.554 34.672V40H170.476V29.956H173.554V31.792C173.842 31.192 174.268 30.718 174.832 30.37C175.408 30.022 176.08 29.848 176.848 29.848Z" fill="#08090A"/>
<path d="M204 0H296.083C301.606 0 306.083 4.47715 306.083 10V40C306.083 45.5228 301.606 50 296.083 50H204V0Z" fill="#EF233C"/>
<path d="M218.876 7.148C220.496 7.148 221.834 7.574 222.89 8.426C223.958 9.278 224.648 10.43 224.96 11.882H221.702C221.462 11.294 221.09 10.832 220.586 10.496C220.094 10.16 219.506 9.992 218.822 9.992C217.922 9.992 217.196 10.322 216.644 10.982C216.092 11.642 215.816 12.524 215.816 13.628C215.816 14.732 216.092 15.614 216.644 16.274C217.196 16.922 217.922 17.246 218.822 17.246C219.506 17.246 220.094 17.078 220.586 16.742C221.09 16.406 221.462 15.95 221.702 15.374H224.96C224.648 16.814 223.958 17.966 222.89 18.83C221.834 19.682 220.496 20.108 218.876 20.108C217.64 20.108 216.554 19.838 215.618 19.298C214.682 18.746 213.956 17.978 213.44 16.994C212.936 16.01 212.684 14.888 212.684 13.628C212.684 12.368 212.936 11.246 213.44 10.262C213.956 9.278 214.682 8.516 215.618 7.976C216.554 7.424 217.64 7.148 218.876 7.148ZM229.763 6.68V20H226.685V6.68H229.763ZM236.586 9.83C237.582 9.83 238.47 10.04 239.25 10.46C240.042 10.868 240.66 11.462 241.104 12.242C241.56 13.022 241.788 13.934 241.788 14.978C241.788 16.022 241.56 16.934 241.104 17.714C240.66 18.494 240.042 19.094 239.25 19.514C238.47 19.922 237.582 20.126 236.586 20.126C235.59 20.126 234.696 19.922 233.904 19.514C233.112 19.094 232.488 18.494 232.032 17.714C231.588 16.934 231.366 16.022 231.366 14.978C231.366 13.934 231.588 13.022 232.032 12.242C232.488 11.462 233.112 10.868 233.904 10.46C234.696 10.04 235.59 9.83 236.586 9.83ZM236.586 12.494C235.998 12.494 235.5 12.71 235.092 13.142C234.696 13.562 234.498 14.174 234.498 14.978C234.498 15.782 234.696 16.394 235.092 16.814C235.5 17.234 235.998 17.444 236.586 17.444C237.174 17.444 237.666 17.234 238.062 16.814C238.458 16.394 238.656 15.782 238.656 14.978C238.656 14.174 238.458 13.562 238.062 13.142C237.666 12.71 237.174 12.494 236.586 12.494ZM253.374 9.956V20H250.278V18.182C249.99 18.77 249.558 19.238 248.982 19.586C248.418 19.934 247.758 20.108 247.002 20.108C245.85 20.108 244.932 19.724 244.248 18.956C243.576 18.188 243.24 17.132 243.24 15.788V9.956H246.3V15.41C246.3 16.094 246.474 16.628 246.822 17.012C247.182 17.384 247.662 17.57 248.262 17.57C248.886 17.57 249.378 17.372 249.738 16.976C250.098 16.58 250.278 16.016 250.278 15.284V9.956H253.374ZM259.312 9.83C260.08 9.83 260.74 10.004 261.292 10.352C261.844 10.7 262.246 11.174 262.498 11.774V6.68H265.576V20H262.498V18.182C262.246 18.782 261.844 19.256 261.292 19.604C260.74 19.952 260.08 20.126 259.312 20.126C258.484 20.126 257.74 19.922 257.08 19.514C256.432 19.094 255.916 18.494 255.532 17.714C255.16 16.934 254.974 16.022 254.974 14.978C254.974 13.922 255.16 13.01 255.532 12.242C255.916 11.462 256.432 10.868 257.08 10.46C257.74 10.04 258.484 9.83 259.312 9.83ZM260.302 12.53C259.642 12.53 259.108 12.746 258.7 13.178C258.304 13.61 258.106 14.21 258.106 14.978C258.106 15.746 258.304 16.346 258.7 16.778C259.108 17.21 259.642 17.426 260.302 17.426C260.95 17.426 261.478 17.204 261.886 16.76C262.306 16.316 262.516 15.722 262.516 14.978C262.516 14.222 262.306 13.628 261.886 13.196C261.478 12.752 260.95 12.53 260.302 12.53ZM219.056 33.502L224.186 40H220.46L216.14 34.294V40H213.062V27.274H216.14V32.872L220.496 27.274H224.186L219.056 33.502ZM225.202 27.13C225.202 26.662 225.37 26.278 225.706 25.978C226.042 25.666 226.486 25.51 227.038 25.51C227.59 25.51 228.034 25.666 228.37 25.978C228.706 26.278 228.874 26.662 228.874 27.13C228.874 27.586 228.706 27.97 228.37 28.282C228.034 28.582 227.59 28.732 227.038 28.732C226.486 28.732 226.042 28.582 225.706 28.282C225.37 27.97 225.202 27.586 225.202 27.13ZM228.568 29.956V40H225.49V29.956H228.568ZM236.381 37.354V40H234.995C233.819 40 232.901 39.712 232.241 39.136C231.593 38.548 231.269 37.582 231.269 36.238V32.548H229.919V29.956H231.269V27.49H234.347V29.956H236.363V32.548H234.347V36.292C234.347 36.688 234.425 36.964 234.581 37.12C234.749 37.276 235.025 37.354 235.409 37.354H236.381ZM242.647 29.83C243.943 29.83 245.029 30.19 245.905 30.91C246.781 31.618 247.333 32.596 247.561 33.844H244.303C244.207 33.412 244.009 33.076 243.709 32.836C243.409 32.596 243.031 32.476 242.575 32.476C242.035 32.476 241.591 32.692 241.243 33.124C240.895 33.544 240.721 34.162 240.721 34.978C240.721 35.794 240.895 36.418 241.243 36.85C241.591 37.27 242.035 37.48 242.575 37.48C243.031 37.48 243.409 37.36 243.709 37.12C244.009 36.88 244.207 36.544 244.303 36.112H247.561C247.333 37.36 246.781 38.344 245.905 39.064C245.029 39.772 243.943 40.126 242.647 40.126C241.663 40.126 240.787 39.922 240.019 39.514C239.263 39.094 238.669 38.494 238.237 37.714C237.805 36.934 237.589 36.022 237.589 34.978C237.589 33.922 237.799 33.01 238.219 32.242C238.651 31.462 239.251 30.868 240.019 30.46C240.787 30.04 241.663 29.83 242.647 29.83ZM255.539 29.848C256.691 29.848 257.603 30.232 258.275 31C258.959 31.768 259.301 32.824 259.301 34.168V40H256.223V34.528C256.223 33.856 256.043 33.334 255.683 32.962C255.335 32.578 254.867 32.386 254.279 32.386C253.655 32.386 253.157 32.584 252.785 32.98C252.425 33.376 252.245 33.94 252.245 34.672V40H249.167V26.68H252.245V31.792C252.533 31.192 252.959 30.718 253.523 30.37C254.099 30.022 254.771 29.848 255.539 29.848ZM270.872 34.708C270.872 34.96 270.842 35.236 270.782 35.536H263.816C263.852 36.292 264.044 36.838 264.392 37.174C264.74 37.498 265.184 37.66 265.724 37.66C266.18 37.66 266.558 37.546 266.858 37.318C267.158 37.09 267.356 36.796 267.452 36.436H270.71C270.578 37.144 270.29 37.78 269.846 38.344C269.402 38.896 268.838 39.334 268.154 39.658C267.47 39.97 266.708 40.126 265.868 40.126C264.884 40.126 264.008 39.922 263.24 39.514C262.484 39.094 261.89 38.494 261.458 37.714C261.026 36.934 260.81 36.022 260.81 34.978C260.81 33.922 261.02 33.01 261.44 32.242C261.872 31.462 262.472 30.868 263.24 30.46C264.008 30.04 264.884 29.83 265.868 29.83C266.864 29.83 267.74 30.034 268.496 30.442C269.252 30.85 269.834 31.426 270.242 32.17C270.662 32.902 270.872 33.748 270.872 34.708ZM267.758 34.24C267.77 33.58 267.59 33.088 267.218 32.764C266.858 32.428 266.408 32.26 265.868 32.26C265.304 32.26 264.836 32.428 264.464 32.764C264.092 33.1 263.882 33.592 263.834 34.24H267.758ZM278.848 29.848C280 29.848 280.912 30.232 281.584 31C282.268 31.768 282.61 32.824 282.61 34.168V40H279.532V34.528C279.532 33.856 279.352 33.334 278.992 32.962C278.644 32.578 278.176 32.386 277.588 32.386C276.964 32.386 276.466 32.584 276.094 32.98C275.734 33.376 275.554 33.94 275.554 34.672V40H272.476V29.956H275.554V31.792C275.842 31.192 276.268 30.718 276.832 30.37C277.408 30.022 278.08 29.848 278.848 29.848Z" fill="#EDF2F4"/>
</svg>
