<svg width="941" height="170" viewBox="0 0 941 170" fill="none" xmlns="http://www.w3.org/2000/svg">
<path d="M201.152 11.92C203.264 11.92 204.88 12.624 206 14.032C207.136 15.44 207.704 17.488 207.704 20.176C207.704 22.928 207.12 24.96 205.952 26.272C204.8 27.584 203.144 28.24 200.984 28.24C199.528 28.24 198.312 27.96 197.336 27.4C196.376 26.84 195.656 25.968 195.176 24.784L198.872 23.32C199.016 23.912 199.248 24.36 199.568 24.664C199.904 24.968 200.4 25.12 201.056 25.12C203.008 25.12 203.984 23.624 203.984 20.632V20.248H203.912C203.704 20.92 203.248 21.44 202.544 21.808C201.84 22.16 201.032 22.336 200.12 22.336C199.176 22.336 198.312 22.128 197.528 21.712C196.744 21.296 196.12 20.704 195.656 19.936C195.208 19.168 194.984 18.288 194.984 17.296C194.984 15.616 195.52 14.304 196.592 13.36C197.68 12.4 199.2 11.92 201.152 11.92ZM201.032 15.16C200.312 15.16 199.752 15.344 199.352 15.712C198.968 16.08 198.776 16.6 198.776 17.272C198.776 17.944 198.968 18.464 199.352 18.832C199.752 19.2 200.312 19.384 201.032 19.384C201.736 19.384 202.288 19.2 202.688 18.832C203.088 18.448 203.288 17.928 203.288 17.272C203.288 16.616 203.088 16.104 202.688 15.736C202.288 15.352 201.736 15.16 201.032 15.16ZM218.006 12.16V28H214.022V16.216C212.79 17.336 211.542 18.008 210.278 18.232L209.894 14.824C210.71 14.728 211.614 14.408 212.606 13.864C213.614 13.304 214.318 12.736 214.718 12.16H218.006ZM225.456 11.92C226.8 11.92 227.88 12.336 228.696 13.168C229.512 13.984 229.92 15.072 229.92 16.432C229.92 17.792 229.512 18.888 228.696 19.72C227.88 20.536 226.8 20.944 225.456 20.944C224.112 20.944 223.032 20.536 222.216 19.72C221.4 18.888 220.992 17.792 220.992 16.432C220.992 15.072 221.4 13.984 222.216 13.168C223.032 12.336 224.112 11.92 225.456 11.92ZM235.488 12.136H238.609L227.592 28H224.472L235.488 12.136ZM225.456 14.656C225.008 14.656 224.656 14.816 224.4 15.136C224.16 15.44 224.04 15.872 224.04 16.432C224.04 16.992 224.16 17.432 224.4 17.752C224.656 18.056 225.008 18.208 225.456 18.208C225.92 18.208 226.272 18.056 226.512 17.752C226.768 17.432 226.896 16.992 226.896 16.432C226.896 15.872 226.768 15.44 226.512 15.136C226.272 14.816 225.92 14.656 225.456 14.656ZM237.576 19.216C238.921 19.216 240.001 19.632 240.817 20.464C241.633 21.28 242.041 22.368 242.041 23.728C242.041 25.088 241.633 26.184 240.817 27.016C240.001 27.832 238.921 28.24 237.576 28.24C236.232 28.24 235.152 27.832 234.336 27.016C233.52 26.184 233.112 25.088 233.112 23.728C233.112 22.368 233.52 21.28 234.336 20.464C235.152 19.632 236.232 19.216 237.576 19.216ZM237.576 21.952C237.112 21.952 236.753 22.112 236.497 22.432C236.256 22.736 236.136 23.168 236.136 23.728C236.136 24.288 236.256 24.728 236.497 25.048C236.753 25.352 237.112 25.504 237.576 25.504C238.041 25.504 238.393 25.352 238.633 25.048C238.888 24.728 239.016 24.288 239.016 23.728C239.016 23.168 238.888 22.736 238.633 22.432C238.393 22.112 238.041 21.952 237.576 21.952ZM257.895 15.76C259.767 15.76 261.231 16.312 262.287 17.416C263.343 18.52 263.871 20.048 263.871 22C263.871 23.952 263.343 25.48 262.287 26.584C261.231 27.688 259.767 28.24 257.895 28.24C256.023 28.24 254.559 27.688 253.503 26.584C252.447 25.48 251.919 23.952 251.919 22C251.919 20.048 252.447 18.52 253.503 17.416C254.559 16.312 256.023 15.76 257.895 15.76ZM257.895 17.776C256.807 17.776 255.967 18.144 255.375 18.88C254.799 19.6 254.511 20.64 254.511 22C254.511 23.36 254.799 24.408 255.375 25.144C255.967 25.864 256.807 26.224 257.895 26.224C258.983 26.224 259.823 25.856 260.415 25.12C261.007 24.384 261.303 23.344 261.303 22C261.303 20.656 261.007 19.616 260.415 18.88C259.823 18.144 258.983 17.776 257.895 17.776ZM270.894 16H274.782V18.016H270.966V28H268.398V18.016H266.142V16H268.398V14.272C268.398 13.056 268.766 12.112 269.502 11.44C270.238 10.768 271.27 10.432 272.598 10.432C273.078 10.432 273.518 10.488 273.918 10.6C274.318 10.696 274.63 10.832 274.854 11.008L274.374 12.88C274.006 12.64 273.55 12.52 273.006 12.52C271.598 12.52 270.894 13.168 270.894 14.464V16ZM295.935 16V28H293.655L293.559 26.056C292.743 27.512 291.319 28.24 289.287 28.24C287.991 28.24 286.943 27.888 286.143 27.184C285.359 26.464 284.967 25.368 284.967 23.896V16H287.535V23.224C287.535 24.28 287.743 25.032 288.159 25.48C288.575 25.912 289.191 26.128 290.007 26.128C290.983 26.128 291.783 25.824 292.407 25.216C293.047 24.592 293.367 23.68 293.367 22.48V16H295.935ZM304.746 28.24C303.53 28.24 302.45 28.032 301.506 27.616C300.578 27.2 299.874 26.568 299.394 25.72L301.122 24.232C301.426 24.92 301.898 25.424 302.538 25.744C303.178 26.064 303.946 26.224 304.842 26.224C305.658 26.224 306.29 26.096 306.738 25.84C307.186 25.568 307.41 25.216 307.41 24.784C307.41 24.4 307.202 24.096 306.786 23.872C306.37 23.632 305.65 23.408 304.626 23.2C302.85 22.864 301.602 22.416 300.882 21.856C300.162 21.296 299.802 20.504 299.802 19.48C299.802 18.824 300.002 18.216 300.402 17.656C300.802 17.08 301.378 16.624 302.13 16.288C302.898 15.936 303.802 15.76 304.842 15.76C306.17 15.76 307.234 15.984 308.034 16.432C308.834 16.864 309.45 17.544 309.882 18.472L308.058 19.816C307.77 19.112 307.362 18.6 306.834 18.28C306.322 17.944 305.666 17.776 304.866 17.776C304.146 17.776 303.546 17.928 303.066 18.232C302.602 18.52 302.37 18.856 302.37 19.24C302.37 19.672 302.578 20.016 302.994 20.272C303.426 20.528 304.202 20.76 305.322 20.968C307.018 21.272 308.218 21.704 308.922 22.264C309.626 22.824 309.978 23.608 309.978 24.616C309.978 25.688 309.514 26.56 308.586 27.232C307.658 27.904 306.378 28.24 304.746 28.24ZM324.29 21.64C324.29 22.104 324.258 22.544 324.194 22.96H315.41C315.554 24.016 315.93 24.824 316.538 25.384C317.146 25.928 317.93 26.2 318.89 26.2C319.674 26.2 320.322 26.064 320.834 25.792C321.362 25.504 321.722 25.096 321.914 24.568L324.05 25.456C323.154 27.312 321.434 28.24 318.89 28.24C317.002 28.24 315.522 27.688 314.45 26.584C313.394 25.48 312.866 23.952 312.866 22C312.866 20.032 313.378 18.504 314.402 17.416C315.426 16.312 316.866 15.76 318.722 15.76C320.482 15.76 321.85 16.296 322.826 17.368C323.802 18.44 324.29 19.864 324.29 21.64ZM318.722 17.8C317.794 17.8 317.042 18.072 316.466 18.616C315.906 19.16 315.554 19.952 315.41 20.992H321.89C321.762 19.984 321.418 19.2 320.858 18.64C320.314 18.08 319.602 17.8 318.722 17.8ZM334.179 15.76C334.739 15.76 335.179 15.84 335.499 16L335.091 18.352C334.723 18.144 334.219 18.04 333.579 18.04C333.067 18.04 332.579 18.176 332.115 18.448C331.667 18.72 331.291 19.128 330.987 19.672C330.699 20.216 330.555 20.872 330.555 21.64V28H327.987V16H330.171L330.387 18.16C331.059 16.56 332.323 15.76 334.179 15.76ZM342.35 28.24C341.134 28.24 340.054 28.032 339.11 27.616C338.182 27.2 337.478 26.568 336.998 25.72L338.726 24.232C339.03 24.92 339.502 25.424 340.142 25.744C340.782 26.064 341.55 26.224 342.446 26.224C343.262 26.224 343.894 26.096 344.342 25.84C344.79 25.568 345.014 25.216 345.014 24.784C345.014 24.4 344.806 24.096 344.39 23.872C343.974 23.632 343.254 23.408 342.23 23.2C340.454 22.864 339.206 22.416 338.486 21.856C337.766 21.296 337.406 20.504 337.406 19.48C337.406 18.824 337.606 18.216 338.006 17.656C338.406 17.08 338.982 16.624 339.734 16.288C340.502 15.936 341.406 15.76 342.446 15.76C343.774 15.76 344.838 15.984 345.638 16.432C346.438 16.864 347.054 17.544 347.486 18.472L345.662 19.816C345.374 19.112 344.966 18.6 344.438 18.28C343.926 17.944 343.27 17.776 342.47 17.776C341.75 17.776 341.15 17.928 340.67 18.232C340.206 18.52 339.974 18.856 339.974 19.24C339.974 19.672 340.182 20.016 340.598 20.272C341.03 20.528 341.806 20.76 342.926 20.968C344.622 21.272 345.822 21.704 346.526 22.264C347.23 22.824 347.582 23.608 347.582 24.616C347.582 25.688 347.118 26.56 346.19 27.232C345.262 27.904 343.982 28.24 342.35 28.24ZM214.232 44L210.224 56H207.416L204.392 46.928L201.512 56H198.704L194.696 44H197.48L200.192 53.6L203.192 44H205.736L208.712 53.6L211.448 44H214.232ZM222.307 43.76C224.179 43.76 225.643 44.312 226.699 45.416C227.755 46.52 228.283 48.048 228.283 50C228.283 51.952 227.755 53.48 226.699 54.584C225.643 55.688 224.179 56.24 222.307 56.24C220.435 56.24 218.971 55.688 217.915 54.584C216.859 53.48 216.331 51.952 216.331 50C216.331 48.048 216.859 46.52 217.915 45.416C218.971 44.312 220.435 43.76 222.307 43.76ZM222.307 45.776C221.219 45.776 220.379 46.144 219.787 46.88C219.211 47.6 218.923 48.64 218.923 50C218.923 51.36 219.211 52.408 219.787 53.144C220.379 53.864 221.219 54.224 222.307 54.224C223.395 54.224 224.235 53.856 224.827 53.12C225.419 52.384 225.715 51.344 225.715 50C225.715 48.656 225.419 47.616 224.827 46.88C224.235 46.144 223.395 45.776 222.307 45.776ZM242.933 44V56H240.653L240.557 54.056C239.741 55.512 238.317 56.24 236.285 56.24C234.989 56.24 233.941 55.888 233.141 55.184C232.357 54.464 231.965 53.368 231.965 51.896V44H234.533V51.224C234.533 52.28 234.741 53.032 235.157 53.48C235.573 53.912 236.189 54.128 237.005 54.128C237.981 54.128 238.781 53.824 239.405 53.216C240.045 52.592 240.365 51.68 240.365 50.48V44H242.933ZM249.897 52.496C249.897 53.088 249.985 53.504 250.161 53.744C250.337 53.968 250.665 54.08 251.145 54.08C251.449 54.08 251.705 54.064 251.913 54.032C252.137 53.984 252.409 53.896 252.729 53.768L252.441 55.832C251.897 56.104 251.233 56.24 250.449 56.24C249.377 56.24 248.585 55.968 248.073 55.424C247.577 54.88 247.329 54.024 247.329 52.856V38.6H249.897V52.496ZM266.469 38.6V56H264.213L264.069 53.864C263.717 54.584 263.181 55.16 262.461 55.592C261.757 56.024 260.949 56.24 260.037 56.24C258.389 56.24 257.085 55.696 256.125 54.608C255.181 53.504 254.709 51.976 254.709 50.024C254.709 48.072 255.181 46.544 256.125 45.44C257.085 44.32 258.389 43.76 260.037 43.76C260.917 43.76 261.693 43.96 262.365 44.36C263.037 44.744 263.549 45.272 263.901 45.944V38.6H266.469ZM260.613 54.176C261.621 54.176 262.421 53.816 263.013 53.096C263.605 52.376 263.901 51.392 263.901 50.144V49.856C263.901 48.608 263.605 47.632 263.013 46.928C262.421 46.208 261.621 45.848 260.613 45.848C259.573 45.848 258.757 46.216 258.165 46.952C257.589 47.672 257.301 48.688 257.301 50C257.301 51.312 257.589 52.336 258.165 53.072C258.757 53.808 259.573 54.176 260.613 54.176ZM281.712 52.496C281.712 53.088 281.8 53.504 281.976 53.744C282.152 53.968 282.48 54.08 282.96 54.08C283.264 54.08 283.52 54.064 283.728 54.032C283.952 53.984 284.224 53.896 284.544 53.768L284.256 55.832C283.712 56.104 283.048 56.24 282.264 56.24C281.192 56.24 280.4 55.968 279.888 55.424C279.392 54.88 279.144 54.024 279.144 52.856V38.6H281.712V52.496ZM288.468 41.984C287.924 41.984 287.5 41.848 287.196 41.576C286.892 41.288 286.74 40.888 286.74 40.376C286.74 39.864 286.892 39.472 287.196 39.2C287.5 38.928 287.924 38.792 288.468 38.792C289.012 38.792 289.428 38.928 289.716 39.2C290.02 39.472 290.172 39.864 290.172 40.376C290.172 40.888 290.02 41.288 289.716 41.576C289.428 41.848 289.012 41.984 288.468 41.984ZM289.74 56H287.172V44H289.74V56ZM299.182 50.36L296.806 52.808V56H294.238V38.6H296.806V49.88L302.542 44H305.566L300.982 48.704L305.854 56H302.878L299.182 50.36ZM318.923 49.64C318.923 50.104 318.891 50.544 318.827 50.96H310.043C310.187 52.016 310.563 52.824 311.171 53.384C311.779 53.928 312.563 54.2 313.523 54.2C314.307 54.2 314.955 54.064 315.467 53.792C315.995 53.504 316.355 53.096 316.547 52.568L318.683 53.456C317.787 55.312 316.067 56.24 313.523 56.24C311.635 56.24 310.155 55.688 309.083 54.584C308.027 53.48 307.499 51.952 307.499 50C307.499 48.032 308.011 46.504 309.035 45.416C310.059 44.312 311.499 43.76 313.355 43.76C315.115 43.76 316.483 44.296 317.459 45.368C318.435 46.44 318.923 47.864 318.923 49.64ZM313.355 45.8C312.427 45.8 311.675 46.072 311.099 46.616C310.539 47.16 310.187 47.952 310.043 48.992H316.523C316.395 47.984 316.051 47.2 315.491 46.64C314.947 46.08 314.235 45.8 313.355 45.8ZM338.306 55.208C337.922 55.528 337.45 55.784 336.89 55.976C336.346 56.152 335.754 56.24 335.114 56.24C334.01 56.24 333.122 55.968 332.45 55.424C331.794 54.864 331.458 54 331.442 52.832V46.016H329.162V44H331.442V41.192L334.01 40.472V44H338.21V46.016H334.01V52.4C334.01 52.976 334.162 53.408 334.466 53.696C334.786 53.968 335.218 54.104 335.762 54.104C336.498 54.104 337.146 53.848 337.706 53.336L338.306 55.208ZM346.462 43.76C348.334 43.76 349.798 44.312 350.854 45.416C351.91 46.52 352.438 48.048 352.438 50C352.438 51.952 351.91 53.48 350.854 54.584C349.798 55.688 348.334 56.24 346.462 56.24C344.59 56.24 343.126 55.688 342.07 54.584C341.014 53.48 340.486 51.952 340.486 50C340.486 48.048 341.014 46.52 342.07 45.416C343.126 44.312 344.59 43.76 346.462 43.76ZM346.462 45.776C345.374 45.776 344.534 46.144 343.942 46.88C343.366 47.6 343.078 48.64 343.078 50C343.078 51.36 343.366 52.408 343.942 53.144C344.534 53.864 345.374 54.224 346.462 54.224C347.55 54.224 348.39 53.856 348.982 53.12C349.574 52.384 349.87 51.344 349.87 50C349.87 48.656 349.574 47.616 348.982 46.88C348.39 46.144 347.55 45.776 346.462 45.776ZM207.104 66.6V84H204.848L204.704 81.864C204.352 82.584 203.816 83.16 203.096 83.592C202.392 84.024 201.584 84.24 200.672 84.24C199.024 84.24 197.72 83.696 196.76 82.608C195.816 81.504 195.344 79.976 195.344 78.024C195.344 76.072 195.816 74.544 196.76 73.44C197.72 72.32 199.024 71.76 200.672 71.76C201.552 71.76 202.328 71.96 203 72.36C203.672 72.744 204.184 73.272 204.536 73.944V66.6H207.104ZM201.248 82.176C202.256 82.176 203.056 81.816 203.648 81.096C204.24 80.376 204.536 79.392 204.536 78.144V77.856C204.536 76.608 204.24 75.632 203.648 74.928C203.056 74.208 202.256 73.848 201.248 73.848C200.208 73.848 199.392 74.216 198.8 74.952C198.224 75.672 197.936 76.688 197.936 78C197.936 79.312 198.224 80.336 198.8 81.072C199.392 81.808 200.208 82.176 201.248 82.176ZM216.846 71.76C218.718 71.76 220.182 72.312 221.238 73.416C222.294 74.52 222.822 76.048 222.822 78C222.822 79.952 222.294 81.48 221.238 82.584C220.182 83.688 218.718 84.24 216.846 84.24C214.974 84.24 213.51 83.688 212.454 82.584C211.398 81.48 210.87 79.952 210.87 78C210.87 76.048 211.398 74.52 212.454 73.416C213.51 72.312 214.974 71.76 216.846 71.76ZM216.846 73.776C215.758 73.776 214.918 74.144 214.326 74.88C213.75 75.6 213.462 76.64 213.462 78C213.462 79.36 213.75 80.408 214.326 81.144C214.918 81.864 215.758 82.224 216.846 82.224C217.934 82.224 218.774 81.856 219.366 81.12C219.958 80.384 220.254 79.344 220.254 78C220.254 76.656 219.958 75.616 219.366 74.88C218.774 74.144 217.934 73.776 216.846 73.776ZM244.489 72L240.481 84H237.673L234.649 74.928L231.769 84H228.961L224.953 72H227.737L230.449 81.6L233.449 72H235.993L238.969 81.6L241.705 72H244.489ZM254.091 71.76C255.419 71.76 256.499 72.144 257.331 72.912C258.179 73.68 258.603 74.784 258.603 76.224V84H256.035V77.04C256.035 74.928 255.179 73.872 253.467 73.872C252.571 73.872 251.803 74.184 251.163 74.808C250.523 75.416 250.203 76.36 250.203 77.64V84H247.635V72H249.915L250.035 73.992C250.435 73.24 250.987 72.68 251.691 72.312C252.395 71.944 253.195 71.76 254.091 71.76ZM265.47 80.496C265.47 81.088 265.558 81.504 265.734 81.744C265.91 81.968 266.238 82.08 266.718 82.08C267.022 82.08 267.278 82.064 267.486 82.032C267.71 81.984 267.982 81.896 268.302 81.768L268.014 83.832C267.47 84.104 266.806 84.24 266.022 84.24C264.95 84.24 264.158 83.968 263.646 83.424C263.15 82.88 262.902 82.024 262.902 80.856V66.6H265.47V80.496ZM276.211 71.76C278.083 71.76 279.547 72.312 280.603 73.416C281.659 74.52 282.187 76.048 282.187 78C282.187 79.952 281.659 81.48 280.603 82.584C279.547 83.688 278.083 84.24 276.211 84.24C274.339 84.24 272.875 83.688 271.819 82.584C270.763 81.48 270.235 79.952 270.235 78C270.235 76.048 270.763 74.52 271.819 73.416C272.875 72.312 274.339 71.76 276.211 71.76ZM276.211 73.776C275.123 73.776 274.283 74.144 273.691 74.88C273.115 75.6 272.827 76.64 272.827 78C272.827 79.36 273.115 80.408 273.691 81.144C274.283 81.864 275.123 82.224 276.211 82.224C277.299 82.224 278.139 81.856 278.731 81.12C279.323 80.384 279.619 79.344 279.619 78C279.619 76.656 279.323 75.616 278.731 74.88C278.139 74.144 277.299 73.776 276.211 73.776ZM296.31 82.32C296.662 82.32 296.958 82.288 297.198 82.224L297.03 83.952C296.598 84.144 296.102 84.24 295.542 84.24C294.854 84.24 294.302 84.104 293.886 83.832C293.486 83.56 293.222 83.104 293.094 82.464C292.726 83.024 292.182 83.464 291.462 83.784C290.742 84.088 289.934 84.24 289.038 84.24C287.87 84.24 286.926 83.968 286.206 83.424C285.486 82.88 285.126 82.104 285.126 81.096C285.126 80.152 285.518 79.36 286.302 78.72C287.086 78.064 288.254 77.6 289.806 77.328L292.854 76.8V76.152C292.854 75.416 292.638 74.84 292.206 74.424C291.774 73.992 291.174 73.776 290.406 73.776C288.822 73.776 287.79 74.496 287.31 75.936L285.318 74.88C285.606 73.92 286.19 73.16 287.07 72.6C287.966 72.04 289.062 71.76 290.358 71.76C291.91 71.76 293.142 72.12 294.054 72.84C294.966 73.56 295.422 74.616 295.422 76.008V81.432C295.422 81.736 295.486 81.96 295.614 82.104C295.758 82.248 295.99 82.32 296.31 82.32ZM289.59 82.296C290.454 82.296 291.214 82.088 291.87 81.672C292.526 81.256 292.854 80.704 292.854 80.016V78.576L290.238 79.104C289.406 79.264 288.79 79.488 288.39 79.776C287.99 80.064 287.79 80.448 287.79 80.928C287.79 81.376 287.942 81.72 288.246 81.96C288.566 82.184 289.014 82.296 289.59 82.296ZM311.198 66.6V84H308.942L308.798 81.864C308.446 82.584 307.91 83.16 307.19 83.592C306.486 84.024 305.678 84.24 304.766 84.24C303.118 84.24 301.814 83.696 300.854 82.608C299.91 81.504 299.438 79.976 299.438 78.024C299.438 76.072 299.91 74.544 300.854 73.44C301.814 72.32 303.118 71.76 304.766 71.76C305.646 71.76 306.422 71.96 307.094 72.36C307.766 72.744 308.278 73.272 308.63 73.944V66.6H311.198ZM305.342 82.176C306.35 82.176 307.15 81.816 307.742 81.096C308.334 80.376 308.63 79.392 308.63 78.144V77.856C308.63 76.608 308.334 75.632 307.742 74.928C307.15 74.208 306.35 73.848 305.342 73.848C304.302 73.848 303.486 74.216 302.894 74.952C302.318 75.672 302.03 76.688 302.03 78C302.03 79.312 302.318 80.336 302.894 81.072C303.486 81.808 304.302 82.176 305.342 82.176ZM334.313 82.32C334.665 82.32 334.961 82.288 335.201 82.224L335.033 83.952C334.601 84.144 334.105 84.24 333.545 84.24C332.857 84.24 332.305 84.104 331.889 83.832C331.489 83.56 331.225 83.104 331.097 82.464C330.729 83.024 330.185 83.464 329.465 83.784C328.745 84.088 327.937 84.24 327.041 84.24C325.873 84.24 324.929 83.968 324.209 83.424C323.489 82.88 323.129 82.104 323.129 81.096C323.129 80.152 323.521 79.36 324.305 78.72C325.089 78.064 326.257 77.6 327.809 77.328L330.857 76.8V76.152C330.857 75.416 330.641 74.84 330.209 74.424C329.777 73.992 329.177 73.776 328.409 73.776C326.825 73.776 325.793 74.496 325.313 75.936L323.321 74.88C323.609 73.92 324.193 73.16 325.073 72.6C325.969 72.04 327.065 71.76 328.361 71.76C329.913 71.76 331.145 72.12 332.057 72.84C332.969 73.56 333.425 74.616 333.425 76.008V81.432C333.425 81.736 333.489 81.96 333.617 82.104C333.761 82.248 333.993 82.32 334.313 82.32ZM327.593 82.296C328.457 82.296 329.217 82.088 329.873 81.672C330.529 81.256 330.857 80.704 330.857 80.016V78.576L328.241 79.104C327.409 79.264 326.793 79.488 326.393 79.776C325.993 80.064 325.793 80.448 325.793 80.928C325.793 81.376 325.945 81.72 326.249 81.96C326.569 82.184 327.017 82.296 327.593 82.296ZM344.568 71.76C345.896 71.76 346.976 72.144 347.808 72.912C348.656 73.68 349.08 74.784 349.08 76.224V84H346.512V77.04C346.512 74.928 345.656 73.872 343.944 73.872C343.048 73.872 342.28 74.184 341.64 74.808C341 75.416 340.68 76.36 340.68 77.64V84H338.112V72H340.392L340.512 73.992C340.912 73.24 341.464 72.68 342.168 72.312C342.872 71.944 343.672 71.76 344.568 71.76ZM364.564 66.6V84H362.308L362.164 81.864C361.812 82.584 361.276 83.16 360.556 83.592C359.852 84.024 359.044 84.24 358.132 84.24C356.484 84.24 355.18 83.696 354.22 82.608C353.276 81.504 352.804 79.976 352.804 78.024C352.804 76.072 353.276 74.544 354.22 73.44C355.18 72.32 356.484 71.76 358.132 71.76C359.012 71.76 359.788 71.96 360.46 72.36C361.132 72.744 361.644 73.272 361.996 73.944V66.6H364.564ZM358.708 82.176C359.716 82.176 360.516 81.816 361.108 81.096C361.7 80.376 361.996 79.392 361.996 78.144V77.856C361.996 76.608 361.7 75.632 361.108 74.928C360.516 74.208 359.716 73.848 358.708 73.848C357.668 73.848 356.852 74.216 356.26 74.952C355.684 75.672 355.396 76.688 355.396 78C355.396 79.312 355.684 80.336 356.26 81.072C356.852 81.808 357.668 82.176 358.708 82.176ZM201.272 99.76C203.144 99.76 204.608 100.312 205.664 101.416C206.72 102.52 207.248 104.048 207.248 106C207.248 107.952 206.72 109.48 205.664 110.584C204.608 111.688 203.144 112.24 201.272 112.24C199.4 112.24 197.936 111.688 196.88 110.584C195.824 109.48 195.296 107.952 195.296 106C195.296 104.048 195.824 102.52 196.88 101.416C197.936 100.312 199.4 99.76 201.272 99.76ZM201.272 101.776C200.184 101.776 199.344 102.144 198.752 102.88C198.176 103.6 197.888 104.64 197.888 106C197.888 107.36 198.176 108.408 198.752 109.144C199.344 109.864 200.184 110.224 201.272 110.224C202.36 110.224 203.2 109.856 203.792 109.12C204.384 108.384 204.68 107.344 204.68 106C204.68 104.656 204.384 103.616 203.792 102.88C203.2 102.144 202.36 101.776 201.272 101.776ZM217.219 99.76C217.779 99.76 218.219 99.84 218.539 100L218.131 102.352C217.763 102.144 217.259 102.04 216.619 102.04C216.107 102.04 215.619 102.176 215.155 102.448C214.707 102.72 214.331 103.128 214.027 103.672C213.739 104.216 213.595 104.872 213.595 105.64V112H211.027V100H213.211L213.427 102.16C214.099 100.56 215.363 99.76 217.219 99.76ZM227.913 110.128C229.129 110.128 230.073 110.4 230.745 110.944C231.417 111.488 231.753 112.24 231.753 113.2C231.753 114.016 231.481 114.72 230.937 115.312C230.409 115.904 229.673 116.36 228.729 116.68C227.801 117 226.753 117.16 225.585 117.16C223.681 117.16 222.249 116.88 221.289 116.32C220.345 115.76 219.873 115.016 219.873 114.088C219.873 113.544 220.057 113.064 220.425 112.648C220.809 112.248 221.337 111.96 222.009 111.784C221.497 111.544 221.089 111.24 220.785 110.872C220.481 110.488 220.329 110.032 220.329 109.504C220.329 108.336 220.953 107.536 222.201 107.104C221.593 106.752 221.129 106.296 220.809 105.736C220.505 105.176 220.353 104.536 220.353 103.816C220.353 103.016 220.569 102.312 221.001 101.704C221.433 101.08 222.041 100.6 222.825 100.264C223.625 99.928 224.537 99.76 225.561 99.76C226.441 99.76 227.249 99.888 227.985 100.144C228.209 99.264 228.609 98.6 229.185 98.152C229.777 97.688 230.553 97.464 231.513 97.48L231.945 99.472C231.177 99.456 230.553 99.552 230.073 99.76C229.609 99.968 229.289 100.28 229.113 100.696C229.641 101.064 230.049 101.512 230.337 102.04C230.625 102.568 230.769 103.16 230.769 103.816C230.769 105.048 230.289 106.032 229.329 106.768C228.385 107.504 227.129 107.872 225.561 107.872C224.825 107.872 224.161 107.8 223.569 107.656C223.169 107.752 222.873 107.912 222.681 108.136C222.505 108.344 222.417 108.624 222.417 108.976C222.417 109.344 222.545 109.632 222.801 109.84C223.073 110.032 223.441 110.128 223.905 110.128H227.913ZM225.561 101.56C224.825 101.56 224.209 101.776 223.713 102.208C223.217 102.624 222.969 103.16 222.969 103.816C222.969 104.488 223.217 105.04 223.713 105.472C224.209 105.888 224.825 106.096 225.561 106.096C226.313 106.096 226.929 105.888 227.409 105.472C227.905 105.04 228.153 104.488 228.153 103.816C228.153 103.144 227.905 102.6 227.409 102.184C226.929 101.768 226.313 101.56 225.561 101.56ZM225.825 115.24C226.993 115.24 227.905 115.072 228.561 114.736C229.217 114.4 229.545 113.984 229.545 113.488C229.545 113.088 229.385 112.784 229.065 112.576C228.745 112.368 228.209 112.264 227.457 112.264H224.217C223.497 112.264 222.953 112.376 222.585 112.6C222.233 112.824 222.057 113.136 222.057 113.536C222.057 114.08 222.369 114.496 222.993 114.784C223.633 115.088 224.577 115.24 225.825 115.24ZM245.066 110.32C245.418 110.32 245.714 110.288 245.954 110.224L245.786 111.952C245.354 112.144 244.858 112.24 244.298 112.24C243.61 112.24 243.058 112.104 242.642 111.832C242.242 111.56 241.978 111.104 241.85 110.464C241.482 111.024 240.938 111.464 240.218 111.784C239.498 112.088 238.69 112.24 237.794 112.24C236.626 112.24 235.682 111.968 234.962 111.424C234.242 110.88 233.882 110.104 233.882 109.096C233.882 108.152 234.274 107.36 235.058 106.72C235.842 106.064 237.01 105.6 238.562 105.328L241.61 104.8V104.152C241.61 103.416 241.394 102.84 240.962 102.424C240.53 101.992 239.93 101.776 239.162 101.776C237.578 101.776 236.546 102.496 236.066 103.936L234.074 102.88C234.362 101.92 234.946 101.16 235.826 100.6C236.722 100.04 237.818 99.76 239.114 99.76C240.666 99.76 241.898 100.12 242.81 100.84C243.722 101.56 244.178 102.616 244.178 104.008V109.432C244.178 109.736 244.242 109.96 244.37 110.104C244.514 110.248 244.746 110.32 245.066 110.32ZM238.346 110.296C239.21 110.296 239.97 110.088 240.626 109.672C241.282 109.256 241.61 108.704 241.61 108.016V106.576L238.994 107.104C238.162 107.264 237.546 107.488 237.146 107.776C236.746 108.064 236.546 108.448 236.546 108.928C236.546 109.376 236.698 109.72 237.002 109.96C237.322 110.184 237.77 110.296 238.346 110.296ZM255.321 99.76C256.649 99.76 257.729 100.144 258.561 100.912C259.409 101.68 259.833 102.784 259.833 104.224V112H257.265V105.04C257.265 102.928 256.409 101.872 254.697 101.872C253.801 101.872 253.033 102.184 252.393 102.808C251.753 103.416 251.433 104.36 251.433 105.64V112H248.865V100H251.145L251.265 101.992C251.665 101.24 252.217 100.68 252.921 100.312C253.625 99.944 254.425 99.76 255.321 99.76ZM265.501 97.984C264.957 97.984 264.533 97.848 264.229 97.576C263.925 97.288 263.773 96.888 263.773 96.376C263.773 95.864 263.925 95.472 264.229 95.2C264.533 94.928 264.957 94.792 265.501 94.792C266.045 94.792 266.461 94.928 266.749 95.2C267.053 95.472 267.205 95.864 267.205 96.376C267.205 96.888 267.053 97.288 266.749 97.576C266.461 97.848 266.045 97.984 265.501 97.984ZM266.773 112H264.205V100H266.773V112ZM270.502 110.224L276.334 103.456L277.774 101.968L275.71 102.016H270.55V100H280.606V101.776L274.798 108.544L273.358 110.032L275.638 109.984H280.822V112H270.502V110.224ZM294.994 105.64C294.994 106.104 294.962 106.544 294.898 106.96H286.114C286.258 108.016 286.634 108.824 287.242 109.384C287.85 109.928 288.634 110.2 289.594 110.2C290.378 110.2 291.026 110.064 291.538 109.792C292.066 109.504 292.426 109.096 292.618 108.568L294.754 109.456C293.858 111.312 292.138 112.24 289.594 112.24C287.706 112.24 286.226 111.688 285.154 110.584C284.098 109.48 283.57 107.952 283.57 106C283.57 104.032 284.082 102.504 285.106 101.416C286.13 100.312 287.57 99.76 289.426 99.76C291.186 99.76 292.554 100.296 293.53 101.368C294.506 102.44 294.994 103.864 294.994 105.64ZM289.426 101.8C288.498 101.8 287.746 102.072 287.17 102.616C286.61 103.16 286.258 103.952 286.114 104.992H292.594C292.466 103.984 292.122 103.2 291.562 102.64C291.018 102.08 290.306 101.8 289.426 101.8ZM310.009 100H313.897V102.016H310.081V112H307.513V102.016H305.257V100H307.513V98.272C307.513 97.056 307.881 96.112 308.617 95.44C309.353 94.768 310.385 94.432 311.713 94.432C312.193 94.432 312.633 94.488 313.033 94.6C313.433 94.696 313.745 94.832 313.969 95.008L313.489 96.88C313.121 96.64 312.665 96.52 312.121 96.52C310.713 96.52 310.009 97.168 310.009 98.464V100ZM321.713 99.76C323.585 99.76 325.049 100.312 326.105 101.416C327.161 102.52 327.689 104.048 327.689 106C327.689 107.952 327.161 109.48 326.105 110.584C325.049 111.688 323.585 112.24 321.713 112.24C319.841 112.24 318.377 111.688 317.321 110.584C316.265 109.48 315.737 107.952 315.737 106C315.737 104.048 316.265 102.52 317.321 101.416C318.377 100.312 319.841 99.76 321.713 99.76ZM321.713 101.776C320.625 101.776 319.785 102.144 319.193 102.88C318.617 103.6 318.329 104.64 318.329 106C318.329 107.36 318.617 108.408 319.193 109.144C319.785 109.864 320.625 110.224 321.713 110.224C322.801 110.224 323.641 109.856 324.233 109.12C324.825 108.384 325.121 107.344 325.121 106C325.121 104.656 324.825 103.616 324.233 102.88C323.641 102.144 322.801 101.776 321.713 101.776ZM336.747 99.76C338.619 99.76 340.083 100.312 341.139 101.416C342.195 102.52 342.723 104.048 342.723 106C342.723 107.952 342.195 109.48 341.139 110.584C340.083 111.688 338.619 112.24 336.747 112.24C334.875 112.24 333.411 111.688 332.355 110.584C331.299 109.48 330.771 107.952 330.771 106C330.771 104.048 331.299 102.52 332.355 101.416C333.411 100.312 334.875 99.76 336.747 99.76ZM336.747 101.776C335.659 101.776 334.819 102.144 334.227 102.88C333.651 103.6 333.363 104.64 333.363 106C333.363 107.36 333.651 108.408 334.227 109.144C334.819 109.864 335.659 110.224 336.747 110.224C337.835 110.224 338.675 109.856 339.267 109.12C339.859 108.384 340.155 107.344 340.155 106C340.155 104.656 339.859 103.616 339.267 102.88C338.675 102.144 337.835 101.776 336.747 101.776ZM357.614 94.6V112H355.358L355.214 109.864C354.862 110.584 354.326 111.16 353.606 111.592C352.902 112.024 352.094 112.24 351.182 112.24C349.534 112.24 348.23 111.696 347.27 110.608C346.326 109.504 345.854 107.976 345.854 106.024C345.854 104.072 346.326 102.544 347.27 101.44C348.23 100.32 349.534 99.76 351.182 99.76C352.062 99.76 352.838 99.96 353.51 100.36C354.182 100.744 354.694 101.272 355.046 101.944V94.6H357.614ZM351.758 110.176C352.766 110.176 353.566 109.816 354.158 109.096C354.75 108.376 355.046 107.392 355.046 106.144V105.856C355.046 104.608 354.75 103.632 354.158 102.928C353.566 102.208 352.766 101.848 351.758 101.848C350.718 101.848 349.902 102.216 349.31 102.952C348.734 103.672 348.446 104.688 348.446 106C348.446 107.312 348.734 108.336 349.31 109.072C349.902 109.808 350.718 110.176 351.758 110.176ZM201.272 127.76C203.896 127.76 205.632 128.88 206.48 131.12L204.08 132.08C203.664 130.56 202.728 129.8 201.272 129.8C200.2 129.8 199.368 130.168 198.776 130.904C198.184 131.64 197.888 132.68 197.888 134.024C197.888 135.368 198.184 136.4 198.776 137.12C199.368 137.84 200.2 138.2 201.272 138.2C202.088 138.2 202.744 138 203.24 137.6C203.736 137.2 204.064 136.624 204.224 135.872L206.576 136.664C206.224 137.784 205.6 138.664 204.704 139.304C203.808 139.928 202.68 140.24 201.32 140.24C199.432 140.24 197.952 139.688 196.88 138.584C195.824 137.48 195.296 135.952 195.296 134C195.296 132.048 195.824 130.52 196.88 129.416C197.936 128.312 199.4 127.76 201.272 127.76ZM215.346 127.76C217.218 127.76 218.682 128.312 219.738 129.416C220.794 130.52 221.322 132.048 221.322 134C221.322 135.952 220.794 137.48 219.738 138.584C218.682 139.688 217.218 140.24 215.346 140.24C213.474 140.24 212.01 139.688 210.954 138.584C209.898 137.48 209.37 135.952 209.37 134C209.37 132.048 209.898 130.52 210.954 129.416C212.01 128.312 213.474 127.76 215.346 127.76ZM215.346 129.776C214.258 129.776 213.418 130.144 212.826 130.88C212.25 131.6 211.962 132.64 211.962 134C211.962 135.36 212.25 136.408 212.826 137.144C213.418 137.864 214.258 138.224 215.346 138.224C216.434 138.224 217.274 137.856 217.866 137.12C218.458 136.384 218.754 135.344 218.754 134C218.754 132.656 218.458 131.616 217.866 130.88C217.274 130.144 216.434 129.776 215.346 129.776ZM231.556 127.76C232.884 127.76 233.964 128.144 234.796 128.912C235.644 129.68 236.068 130.784 236.068 132.224V140H233.5V133.04C233.5 130.928 232.644 129.872 230.932 129.872C230.036 129.872 229.268 130.184 228.628 130.808C227.988 131.416 227.668 132.36 227.668 133.64V140H225.1V128H227.38L227.5 129.992C227.9 129.24 228.452 128.68 229.156 128.312C229.86 127.944 230.66 127.76 231.556 127.76ZM248.075 139.208C247.691 139.528 247.219 139.784 246.659 139.976C246.115 140.152 245.523 140.24 244.883 140.24C243.779 140.24 242.891 139.968 242.219 139.424C241.563 138.864 241.227 138 241.211 136.832V130.016H238.931V128H241.211V125.192L243.779 124.472V128H247.979V130.016H243.779V136.4C243.779 136.976 243.931 137.408 244.235 137.696C244.555 137.968 244.987 138.104 245.531 138.104C246.267 138.104 246.915 137.848 247.475 137.336L248.075 139.208ZM261.679 133.64C261.679 134.104 261.647 134.544 261.583 134.96H252.799C252.943 136.016 253.319 136.824 253.927 137.384C254.535 137.928 255.319 138.2 256.279 138.2C257.063 138.2 257.711 138.064 258.223 137.792C258.751 137.504 259.111 137.096 259.303 136.568L261.439 137.456C260.543 139.312 258.823 140.24 256.279 140.24C254.391 140.24 252.911 139.688 251.839 138.584C250.783 137.48 250.255 135.952 250.255 134C250.255 132.032 250.767 130.504 251.791 129.416C252.815 128.312 254.255 127.76 256.111 127.76C257.871 127.76 259.239 128.296 260.215 129.368C261.191 130.44 261.679 131.864 261.679 133.64ZM256.111 129.8C255.183 129.8 254.431 130.072 253.855 130.616C253.295 131.16 252.943 131.952 252.799 132.992H259.279C259.151 131.984 258.807 131.2 258.247 130.64C257.703 130.08 256.991 129.8 256.111 129.8ZM271.832 127.76C273.16 127.76 274.24 128.144 275.072 128.912C275.92 129.68 276.344 130.784 276.344 132.224V140H273.776V133.04C273.776 130.928 272.92 129.872 271.208 129.872C270.312 129.872 269.544 130.184 268.904 130.808C268.264 131.416 267.944 132.36 267.944 133.64V140H265.376V128H267.656L267.776 129.992C268.176 129.24 268.728 128.68 269.432 128.312C270.136 127.944 270.936 127.76 271.832 127.76ZM288.351 139.208C287.967 139.528 287.495 139.784 286.935 139.976C286.391 140.152 285.799 140.24 285.159 140.24C284.055 140.24 283.167 139.968 282.495 139.424C281.839 138.864 281.503 138 281.487 136.832V130.016H279.207V128H281.487V125.192L284.055 124.472V128H288.255V130.016H284.055V136.4C284.055 136.976 284.207 137.408 284.511 137.696C284.831 137.968 285.263 138.104 285.807 138.104C286.543 138.104 287.191 137.848 287.751 137.336L288.351 139.208ZM304.792 127.76C306.664 127.76 308.128 128.312 309.184 129.416C310.24 130.52 310.768 132.048 310.768 134C310.768 135.952 310.24 137.48 309.184 138.584C308.128 139.688 306.664 140.24 304.792 140.24C302.92 140.24 301.456 139.688 300.4 138.584C299.344 137.48 298.816 135.952 298.816 134C298.816 132.048 299.344 130.52 300.4 129.416C301.456 128.312 302.92 127.76 304.792 127.76ZM304.792 129.776C303.704 129.776 302.864 130.144 302.272 130.88C301.696 131.6 301.408 132.64 301.408 134C301.408 135.36 301.696 136.408 302.272 137.144C302.864 137.864 303.704 138.224 304.792 138.224C305.88 138.224 306.72 137.856 307.312 137.12C307.904 136.384 308.2 135.344 308.2 134C308.2 132.656 307.904 131.616 307.312 130.88C306.72 130.144 305.88 129.776 304.792 129.776ZM321.002 127.76C322.33 127.76 323.41 128.144 324.242 128.912C325.09 129.68 325.514 130.784 325.514 132.224V140H322.946V133.04C322.946 130.928 322.09 129.872 320.378 129.872C319.482 129.872 318.714 130.184 318.074 130.808C317.434 131.416 317.114 132.36 317.114 133.64V140H314.546V128H316.826L316.946 129.992C317.346 129.24 317.898 128.68 318.602 128.312C319.306 127.944 320.106 127.76 321.002 127.76ZM332.382 136.496C332.382 137.088 332.47 137.504 332.646 137.744C332.822 137.968 333.15 138.08 333.63 138.08C333.934 138.08 334.19 138.064 334.398 138.032C334.622 137.984 334.894 137.896 335.214 137.768L334.926 139.832C334.382 140.104 333.718 140.24 332.934 140.24C331.862 140.24 331.07 139.968 330.558 139.424C330.062 138.88 329.814 138.024 329.814 136.856V122.6H332.382V136.496ZM339.138 125.984C338.594 125.984 338.17 125.848 337.866 125.576C337.562 125.288 337.41 124.888 337.41 124.376C337.41 123.864 337.562 123.472 337.866 123.2C338.17 122.928 338.594 122.792 339.138 122.792C339.682 122.792 340.098 122.928 340.386 123.2C340.69 123.472 340.842 123.864 340.842 124.376C340.842 124.888 340.69 125.288 340.386 125.576C340.098 125.848 339.682 125.984 339.138 125.984ZM340.41 140H337.842V128H340.41V140ZM351.364 127.76C352.692 127.76 353.772 128.144 354.604 128.912C355.452 129.68 355.876 130.784 355.876 132.224V140H353.308V133.04C353.308 130.928 352.452 129.872 350.74 129.872C349.844 129.872 349.076 130.184 348.436 130.808C347.796 131.416 347.476 132.36 347.476 133.64V140H344.908V128H347.188L347.308 129.992C347.708 129.24 348.26 128.68 348.964 128.312C349.668 127.944 350.468 127.76 351.364 127.76ZM370.976 133.64C370.976 134.104 370.944 134.544 370.88 134.96H362.096C362.24 136.016 362.616 136.824 363.224 137.384C363.832 137.928 364.616 138.2 365.576 138.2C366.36 138.2 367.008 138.064 367.52 137.792C368.048 137.504 368.408 137.096 368.6 136.568L370.736 137.456C369.84 139.312 368.12 140.24 365.576 140.24C363.688 140.24 362.208 139.688 361.136 138.584C360.08 137.48 359.552 135.952 359.552 134C359.552 132.032 360.064 130.504 361.088 129.416C362.112 128.312 363.552 127.76 365.408 127.76C367.168 127.76 368.536 128.296 369.512 129.368C370.488 130.44 370.976 131.864 370.976 133.64ZM365.408 129.8C364.48 129.8 363.728 130.072 363.152 130.616C362.592 131.16 362.24 131.952 362.096 132.992H368.576C368.448 131.984 368.104 131.2 367.544 130.64C367 130.08 366.288 129.8 365.408 129.8Z" fill="#22181C"/>
<path d="M654.512 11.968C656.352 11.968 657.8 12.368 658.856 13.168C659.928 13.952 660.464 15.032 660.464 16.408C660.464 17.224 660.24 17.936 659.792 18.544C659.36 19.136 658.744 19.584 657.944 19.888V19.912C658.92 20.232 659.664 20.72 660.176 21.376C660.704 22.032 660.968 22.84 660.968 23.8C660.968 25.176 660.392 26.264 659.24 27.064C658.104 27.848 656.528 28.24 654.512 28.24C652.528 28.24 650.96 27.848 649.808 27.064C648.656 26.264 648.08 25.176 648.08 23.8C648.08 22.84 648.336 22.032 648.848 21.376C649.376 20.72 650.128 20.232 651.104 19.912V19.888C650.304 19.584 649.68 19.136 649.232 18.544C648.8 17.936 648.584 17.224 648.584 16.408C648.584 15.032 649.112 13.952 650.168 13.168C651.24 12.368 652.688 11.968 654.512 11.968ZM654.512 14.968C653.856 14.968 653.344 15.128 652.976 15.448C652.608 15.768 652.424 16.216 652.424 16.792C652.424 17.352 652.608 17.8 652.976 18.136C653.36 18.456 653.872 18.616 654.512 18.616C655.168 18.616 655.68 18.456 656.048 18.136C656.432 17.8 656.624 17.352 656.624 16.792C656.624 16.216 656.432 15.768 656.048 15.448C655.68 15.128 655.168 14.968 654.512 14.968ZM654.512 25.24C655.28 25.24 655.88 25.064 656.312 24.712C656.744 24.36 656.96 23.88 656.96 23.272C656.96 22.648 656.744 22.168 656.312 21.832C655.88 21.48 655.28 21.304 654.512 21.304C653.76 21.304 653.168 21.48 652.736 21.832C652.304 22.168 652.088 22.648 652.088 23.272C652.088 23.88 652.304 24.36 652.736 24.712C653.168 25.064 653.76 25.24 654.512 25.24ZM675.747 12.16V15.088C673.859 16.912 672.523 18.872 671.739 20.968C670.955 23.064 670.563 25.408 670.563 28H666.483C666.483 25.584 666.899 23.344 667.731 21.28C668.579 19.2 669.907 17.24 671.715 15.4H662.715V12.16H675.747ZM682.113 11.92C683.457 11.92 684.537 12.336 685.353 13.168C686.169 13.984 686.577 15.072 686.577 16.432C686.577 17.792 686.169 18.888 685.353 19.72C684.537 20.536 683.457 20.944 682.113 20.944C680.769 20.944 679.689 20.536 678.873 19.72C678.057 18.888 677.649 17.792 677.649 16.432C677.649 15.072 678.057 13.984 678.873 13.168C679.689 12.336 680.769 11.92 682.113 11.92ZM692.145 12.136H695.265L684.249 28H681.129L692.145 12.136ZM682.113 14.656C681.665 14.656 681.313 14.816 681.057 15.136C680.817 15.44 680.697 15.872 680.697 16.432C680.697 16.992 680.817 17.432 681.057 17.752C681.313 18.056 681.665 18.208 682.113 18.208C682.577 18.208 682.929 18.056 683.169 17.752C683.425 17.432 683.553 16.992 683.553 16.432C683.553 15.872 683.425 15.44 683.169 15.136C682.929 14.816 682.577 14.656 682.113 14.656ZM694.233 19.216C695.577 19.216 696.657 19.632 697.473 20.464C698.289 21.28 698.697 22.368 698.697 23.728C698.697 25.088 698.289 26.184 697.473 27.016C696.657 27.832 695.577 28.24 694.233 28.24C692.889 28.24 691.809 27.832 690.993 27.016C690.177 26.184 689.769 25.088 689.769 23.728C689.769 22.368 690.177 21.28 690.993 20.464C691.809 19.632 692.889 19.216 694.233 19.216ZM694.233 21.952C693.769 21.952 693.409 22.112 693.153 22.432C692.913 22.736 692.793 23.168 692.793 23.728C692.793 24.288 692.913 24.728 693.153 25.048C693.409 25.352 693.769 25.504 694.233 25.504C694.697 25.504 695.049 25.352 695.289 25.048C695.545 24.728 695.673 24.288 695.673 23.728C695.673 23.168 695.545 22.736 695.289 22.432C695.049 22.112 694.697 21.952 694.233 21.952ZM714.551 15.76C716.423 15.76 717.887 16.312 718.943 17.416C719.999 18.52 720.527 20.048 720.527 22C720.527 23.952 719.999 25.48 718.943 26.584C717.887 27.688 716.423 28.24 714.551 28.24C712.679 28.24 711.215 27.688 710.159 26.584C709.103 25.48 708.575 23.952 708.575 22C708.575 20.048 709.103 18.52 710.159 17.416C711.215 16.312 712.679 15.76 714.551 15.76ZM714.551 17.776C713.463 17.776 712.623 18.144 712.031 18.88C711.455 19.6 711.167 20.64 711.167 22C711.167 23.36 711.455 24.408 712.031 25.144C712.623 25.864 713.463 26.224 714.551 26.224C715.639 26.224 716.479 25.856 717.071 25.12C717.663 24.384 717.959 23.344 717.959 22C717.959 20.656 717.663 19.616 717.071 18.88C716.479 18.144 715.639 17.776 714.551 17.776ZM727.55 16H731.438V18.016H727.622V28H725.054V18.016H722.798V16H725.054V14.272C725.054 13.056 725.422 12.112 726.158 11.44C726.894 10.768 727.926 10.432 729.254 10.432C729.734 10.432 730.174 10.488 730.574 10.6C730.974 10.696 731.286 10.832 731.51 11.008L731.03 12.88C730.662 12.64 730.206 12.52 729.662 12.52C728.254 12.52 727.55 13.168 727.55 14.464V16ZM752.591 16V28H750.311L750.215 26.056C749.399 27.512 747.975 28.24 745.943 28.24C744.647 28.24 743.599 27.888 742.799 27.184C742.015 26.464 741.623 25.368 741.623 23.896V16H744.191V23.224C744.191 24.28 744.399 25.032 744.815 25.48C745.231 25.912 745.847 26.128 746.663 26.128C747.639 26.128 748.439 25.824 749.063 25.216C749.703 24.592 750.023 23.68 750.023 22.48V16H752.591ZM761.403 28.24C760.187 28.24 759.107 28.032 758.163 27.616C757.235 27.2 756.531 26.568 756.051 25.72L757.779 24.232C758.083 24.92 758.555 25.424 759.195 25.744C759.835 26.064 760.603 26.224 761.499 26.224C762.315 26.224 762.947 26.096 763.395 25.84C763.843 25.568 764.067 25.216 764.067 24.784C764.067 24.4 763.859 24.096 763.443 23.872C763.027 23.632 762.307 23.408 761.283 23.2C759.507 22.864 758.259 22.416 757.539 21.856C756.819 21.296 756.459 20.504 756.459 19.48C756.459 18.824 756.659 18.216 757.059 17.656C757.459 17.08 758.035 16.624 758.787 16.288C759.555 15.936 760.459 15.76 761.499 15.76C762.827 15.76 763.891 15.984 764.691 16.432C765.491 16.864 766.107 17.544 766.539 18.472L764.715 19.816C764.427 19.112 764.019 18.6 763.491 18.28C762.979 17.944 762.323 17.776 761.523 17.776C760.803 17.776 760.203 17.928 759.723 18.232C759.259 18.52 759.027 18.856 759.027 19.24C759.027 19.672 759.235 20.016 759.651 20.272C760.083 20.528 760.859 20.76 761.979 20.968C763.675 21.272 764.875 21.704 765.579 22.264C766.283 22.824 766.635 23.608 766.635 24.616C766.635 25.688 766.171 26.56 765.243 27.232C764.315 27.904 763.035 28.24 761.403 28.24ZM780.946 21.64C780.946 22.104 780.914 22.544 780.85 22.96H772.066C772.21 24.016 772.586 24.824 773.194 25.384C773.802 25.928 774.586 26.2 775.546 26.2C776.33 26.2 776.978 26.064 777.49 25.792C778.018 25.504 778.378 25.096 778.57 24.568L780.706 25.456C779.81 27.312 778.09 28.24 775.546 28.24C773.658 28.24 772.178 27.688 771.106 26.584C770.05 25.48 769.522 23.952 769.522 22C769.522 20.032 770.034 18.504 771.058 17.416C772.082 16.312 773.522 15.76 775.378 15.76C777.138 15.76 778.506 16.296 779.482 17.368C780.458 18.44 780.946 19.864 780.946 21.64ZM775.378 17.8C774.45 17.8 773.698 18.072 773.122 18.616C772.562 19.16 772.21 19.952 772.066 20.992H778.546C778.418 19.984 778.074 19.2 777.514 18.64C776.97 18.08 776.258 17.8 775.378 17.8ZM790.836 15.76C791.396 15.76 791.836 15.84 792.156 16L791.748 18.352C791.38 18.144 790.876 18.04 790.236 18.04C789.724 18.04 789.236 18.176 788.772 18.448C788.324 18.72 787.948 19.128 787.644 19.672C787.356 20.216 787.212 20.872 787.212 21.64V28H784.644V16H786.828L787.044 18.16C787.716 16.56 788.98 15.76 790.836 15.76ZM799.007 28.24C797.791 28.24 796.711 28.032 795.767 27.616C794.839 27.2 794.135 26.568 793.655 25.72L795.383 24.232C795.687 24.92 796.159 25.424 796.799 25.744C797.439 26.064 798.207 26.224 799.103 26.224C799.919 26.224 800.551 26.096 800.999 25.84C801.447 25.568 801.671 25.216 801.671 24.784C801.671 24.4 801.463 24.096 801.047 23.872C800.631 23.632 799.911 23.408 798.887 23.2C797.111 22.864 795.863 22.416 795.143 21.856C794.423 21.296 794.063 20.504 794.063 19.48C794.063 18.824 794.263 18.216 794.663 17.656C795.063 17.08 795.639 16.624 796.391 16.288C797.159 15.936 798.063 15.76 799.103 15.76C800.431 15.76 801.495 15.984 802.295 16.432C803.095 16.864 803.711 17.544 804.143 18.472L802.319 19.816C802.031 19.112 801.623 18.6 801.095 18.28C800.583 17.944 799.927 17.776 799.127 17.776C798.407 17.776 797.807 17.928 797.327 18.232C796.863 18.52 796.631 18.856 796.631 19.24C796.631 19.672 796.839 20.016 797.255 20.272C797.687 20.528 798.463 20.76 799.583 20.968C801.279 21.272 802.479 21.704 803.183 22.264C803.887 22.824 804.239 23.608 804.239 24.616C804.239 25.688 803.775 26.56 802.847 27.232C801.919 27.904 800.639 28.24 799.007 28.24ZM819.163 16H823.051V18.016H819.235V28H816.667V18.016H814.411V16H816.667V14.272C816.667 13.056 817.035 12.112 817.771 11.44C818.507 10.768 819.539 10.432 820.867 10.432C821.347 10.432 821.787 10.488 822.187 10.6C822.587 10.696 822.899 10.832 823.123 11.008L822.643 12.88C822.275 12.64 821.819 12.52 821.275 12.52C819.867 12.52 819.163 13.168 819.163 14.464V16ZM826.651 13.984C826.107 13.984 825.683 13.848 825.379 13.576C825.075 13.288 824.923 12.888 824.923 12.376C824.923 11.864 825.075 11.472 825.379 11.2C825.683 10.928 826.107 10.792 826.651 10.792C827.195 10.792 827.611 10.928 827.899 11.2C828.203 11.472 828.355 11.864 828.355 12.376C828.355 12.888 828.203 13.288 827.899 13.576C827.611 13.848 827.195 13.984 826.651 13.984ZM827.923 28H825.355V16H827.923V28ZM838.84 15.76C840.168 15.76 841.248 16.144 842.08 16.912C842.928 17.68 843.352 18.784 843.352 20.224V28H840.784V21.04C840.784 18.928 839.928 17.872 838.216 17.872C837.32 17.872 836.552 18.184 835.912 18.808C835.272 19.416 834.952 20.36 834.952 21.64V28H832.384V16H834.664L834.784 17.992C835.184 17.24 835.736 16.68 836.44 16.312C837.144 15.944 837.944 15.76 838.84 15.76ZM858.835 10.6V28H856.579L856.435 25.864C856.083 26.584 855.547 27.16 854.827 27.592C854.123 28.024 853.315 28.24 852.403 28.24C850.755 28.24 849.451 27.696 848.491 26.608C847.547 25.504 847.075 23.976 847.075 22.024C847.075 20.072 847.547 18.544 848.491 17.44C849.451 16.32 850.755 15.76 852.403 15.76C853.283 15.76 854.059 15.96 854.731 16.36C855.403 16.744 855.915 17.272 856.267 17.944V10.6H858.835ZM852.979 26.176C853.987 26.176 854.787 25.816 855.379 25.096C855.971 24.376 856.267 23.392 856.267 22.144V21.856C856.267 20.608 855.971 19.632 855.379 18.928C854.787 18.208 853.987 17.848 852.979 17.848C851.939 17.848 851.123 18.216 850.531 18.952C849.955 19.672 849.667 20.688 849.667 22C849.667 23.312 849.955 24.336 850.531 25.072C851.123 25.808 851.939 26.176 852.979 26.176ZM878.983 27.208C878.599 27.528 878.127 27.784 877.567 27.976C877.023 28.152 876.431 28.24 875.791 28.24C874.687 28.24 873.799 27.968 873.127 27.424C872.471 26.864 872.135 26 872.119 24.832V18.016H869.839V16H872.119V13.192L874.687 12.472V16H878.887V18.016H874.687V24.4C874.687 24.976 874.839 25.408 875.143 25.696C875.463 25.968 875.895 26.104 876.439 26.104C877.175 26.104 877.823 25.848 878.383 25.336L878.983 27.208ZM888.408 15.76C889.736 15.76 890.816 16.144 891.648 16.912C892.496 17.68 892.92 18.784 892.92 20.224V28H890.352V21.04C890.352 18.928 889.496 17.872 887.784 17.872C886.888 17.872 886.12 18.184 885.48 18.808C884.84 19.432 884.52 20.384 884.52 21.664V28H881.952V10.6H884.52V17.92C884.92 17.184 885.448 16.64 886.104 16.288C886.776 15.936 887.544 15.76 888.408 15.76ZM908.02 21.64C908.02 22.104 907.988 22.544 907.924 22.96H899.14C899.284 24.016 899.66 24.824 900.268 25.384C900.876 25.928 901.66 26.2 902.62 26.2C903.404 26.2 904.052 26.064 904.564 25.792C905.092 25.504 905.452 25.096 905.644 24.568L907.78 25.456C906.884 27.312 905.164 28.24 902.62 28.24C900.732 28.24 899.252 27.688 898.18 26.584C897.124 25.48 896.596 23.952 896.596 22C896.596 20.032 897.108 18.504 898.132 17.416C899.156 16.312 900.596 15.76 902.452 15.76C904.212 15.76 905.58 16.296 906.556 17.368C907.532 18.44 908.02 19.864 908.02 21.64ZM902.452 17.8C901.524 17.8 900.772 18.072 900.196 18.616C899.636 19.16 899.284 19.952 899.14 20.992H905.62C905.492 19.984 905.148 19.2 904.588 18.64C904.044 18.08 903.332 17.8 902.452 17.8ZM663.464 43.76C664.264 43.76 665 43.928 665.672 44.264C666.344 44.584 666.88 45.08 667.28 45.752C667.68 46.424 667.88 47.248 667.88 48.224V56H665.312V48.632C665.312 47.688 665.088 46.992 664.64 46.544C664.192 46.096 663.592 45.872 662.84 45.872C661.96 45.872 661.216 46.192 660.608 46.832C660.016 47.472 659.72 48.352 659.72 49.472V56H657.152V48.632C657.152 47.688 656.928 46.992 656.48 46.544C656.032 46.096 655.432 45.872 654.68 45.872C654.168 45.872 653.672 46.008 653.192 46.28C652.712 46.536 652.32 46.944 652.016 47.504C651.712 48.064 651.56 48.768 651.56 49.616V56H648.992V44H651.272L651.392 45.992C651.792 45.256 652.336 44.704 653.024 44.336C653.712 43.952 654.464 43.76 655.28 43.76C656.176 43.76 656.984 43.968 657.704 44.384C658.44 44.784 658.984 45.376 659.336 46.16C659.704 45.376 660.264 44.784 661.016 44.384C661.784 43.968 662.6 43.76 663.464 43.76ZM682.621 54.32C682.973 54.32 683.269 54.288 683.509 54.224L683.341 55.952C682.909 56.144 682.413 56.24 681.853 56.24C681.165 56.24 680.613 56.104 680.197 55.832C679.797 55.56 679.533 55.104 679.405 54.464C679.037 55.024 678.493 55.464 677.773 55.784C677.053 56.088 676.245 56.24 675.349 56.24C674.181 56.24 673.237 55.968 672.517 55.424C671.797 54.88 671.437 54.104 671.437 53.096C671.437 52.152 671.829 51.36 672.613 50.72C673.397 50.064 674.565 49.6 676.117 49.328L679.165 48.8V48.152C679.165 47.416 678.949 46.84 678.517 46.424C678.085 45.992 677.485 45.776 676.717 45.776C675.133 45.776 674.101 46.496 673.621 47.936L671.629 46.88C671.917 45.92 672.501 45.16 673.381 44.6C674.277 44.04 675.373 43.76 676.669 43.76C678.221 43.76 679.453 44.12 680.365 44.84C681.277 45.56 681.733 46.616 681.733 48.008V53.432C681.733 53.736 681.797 53.96 681.925 54.104C682.069 54.248 682.301 54.32 682.621 54.32ZM675.901 54.296C676.765 54.296 677.525 54.088 678.181 53.672C678.837 53.256 679.165 52.704 679.165 52.016V50.576L676.549 51.104C675.717 51.264 675.101 51.488 674.701 51.776C674.301 52.064 674.101 52.448 674.101 52.928C674.101 53.376 674.253 53.72 674.557 53.96C674.877 54.184 675.325 54.296 675.901 54.296ZM687.717 38.792C688.229 38.792 688.637 38.936 688.941 39.224C689.261 39.512 689.421 39.896 689.421 40.376C689.421 40.856 689.261 41.248 688.941 41.552C688.637 41.84 688.229 41.984 687.717 41.984C687.189 41.984 686.765 41.84 686.445 41.552C686.141 41.248 685.989 40.856 685.989 40.376C685.989 39.896 686.141 39.512 686.445 39.224C686.765 38.936 687.189 38.792 687.717 38.792ZM688.989 57.056C688.989 58.48 688.613 59.52 687.861 60.176C687.125 60.832 686.189 61.16 685.053 61.16C684.013 61.16 683.133 60.896 682.413 60.368L682.869 58.304C683.413 58.752 684.029 58.976 684.717 58.976C685.261 58.976 685.677 58.808 685.965 58.472C686.269 58.136 686.421 57.584 686.421 56.816V44H688.989V57.056ZM698.743 43.76C700.615 43.76 702.079 44.312 703.135 45.416C704.191 46.52 704.719 48.048 704.719 50C704.719 51.952 704.191 53.48 703.135 54.584C702.079 55.688 700.615 56.24 698.743 56.24C696.871 56.24 695.407 55.688 694.351 54.584C693.295 53.48 692.767 51.952 692.767 50C692.767 48.048 693.295 46.52 694.351 45.416C695.407 44.312 696.871 43.76 698.743 43.76ZM698.743 45.776C697.655 45.776 696.815 46.144 696.223 46.88C695.647 47.6 695.359 48.64 695.359 50C695.359 51.36 695.647 52.408 696.223 53.144C696.815 53.864 697.655 54.224 698.743 54.224C699.831 54.224 700.671 53.856 701.263 53.12C701.855 52.384 702.151 51.344 702.151 50C702.151 48.656 701.855 47.616 701.263 46.88C700.671 46.144 699.831 45.776 698.743 45.776ZM714.69 43.76C715.25 43.76 715.69 43.84 716.01 44L715.602 46.352C715.234 46.144 714.73 46.04 714.09 46.04C713.578 46.04 713.09 46.176 712.626 46.448C712.178 46.72 711.802 47.128 711.498 47.672C711.21 48.216 711.066 48.872 711.066 49.64V56H708.498V44H710.682L710.898 46.16C711.57 44.56 712.834 43.76 714.69 43.76ZM720.211 41.984C719.667 41.984 719.243 41.848 718.939 41.576C718.635 41.288 718.483 40.888 718.483 40.376C718.483 39.864 718.635 39.472 718.939 39.2C719.243 38.928 719.667 38.792 720.211 38.792C720.755 38.792 721.171 38.928 721.459 39.2C721.763 39.472 721.915 39.864 721.915 40.376C721.915 40.888 721.763 41.288 721.459 41.576C721.171 41.848 720.755 41.984 720.211 41.984ZM721.483 56H718.915V44H721.483V56ZM732.173 43.76C732.733 43.76 733.173 43.84 733.493 44L733.085 46.352C732.717 46.144 732.213 46.04 731.573 46.04C731.061 46.04 730.573 46.176 730.109 46.448C729.661 46.72 729.285 47.128 728.981 47.672C728.693 48.216 728.549 48.872 728.549 49.64V56H725.981V44H728.165L728.381 46.16C729.053 44.56 730.317 43.76 732.173 43.76ZM743.566 55.208C743.182 55.528 742.71 55.784 742.15 55.976C741.606 56.152 741.014 56.24 740.374 56.24C739.27 56.24 738.382 55.968 737.71 55.424C737.054 54.864 736.718 54 736.702 52.832V46.016H734.422V44H736.702V41.192L739.27 40.472V44H743.47V46.016H739.27V52.4C739.27 52.976 739.422 53.408 739.726 53.696C740.046 53.968 740.478 54.104 741.022 54.104C741.758 54.104 742.406 53.848 742.966 53.336L743.566 55.208ZM751.985 57.416C751.457 58.792 750.857 59.76 750.185 60.32C749.513 60.88 748.633 61.16 747.545 61.16C746.921 61.16 746.377 61.08 745.913 60.92C745.465 60.776 745.065 60.536 744.713 60.2L745.457 58.232C745.937 58.808 746.593 59.096 747.425 59.096C747.905 59.096 748.305 58.968 748.625 58.712C748.961 58.472 749.257 58.024 749.513 57.368L750.041 56.072L748.793 53.096L745.049 44H747.929L750.569 51.536L751.265 53.792L752.081 51.32L754.577 44H757.241L751.985 57.416ZM773.002 43.76C774.874 43.76 776.338 44.312 777.394 45.416C778.45 46.52 778.978 48.048 778.978 50C778.978 51.952 778.45 53.48 777.394 54.584C776.338 55.688 774.874 56.24 773.002 56.24C771.13 56.24 769.666 55.688 768.61 54.584C767.554 53.48 767.026 51.952 767.026 50C767.026 48.048 767.554 46.52 768.61 45.416C769.666 44.312 771.13 43.76 773.002 43.76ZM773.002 45.776C771.914 45.776 771.074 46.144 770.482 46.88C769.906 47.6 769.618 48.64 769.618 50C769.618 51.36 769.906 52.408 770.482 53.144C771.074 53.864 771.914 54.224 773.002 54.224C774.09 54.224 774.93 53.856 775.522 53.12C776.114 52.384 776.41 51.344 776.41 50C776.41 48.656 776.114 47.616 775.522 46.88C774.93 46.144 774.09 45.776 773.002 45.776ZM786 44H789.888V46.016H786.072V56H783.504V46.016H781.248V44H783.504V42.272C783.504 41.056 783.872 40.112 784.608 39.44C785.344 38.768 786.376 38.432 787.704 38.432C788.184 38.432 788.624 38.488 789.024 38.6C789.424 38.696 789.736 38.832 789.96 39.008L789.48 40.88C789.112 40.64 788.656 40.52 788.112 40.52C786.704 40.52 786 41.168 786 42.464V44ZM807.571 55.208C807.187 55.528 806.715 55.784 806.155 55.976C805.611 56.152 805.019 56.24 804.379 56.24C803.275 56.24 802.387 55.968 801.715 55.424C801.059 54.864 800.723 54 800.707 52.832V46.016H798.427V44H800.707V41.192L803.275 40.472V44H807.475V46.016H803.275V52.4C803.275 52.976 803.427 53.408 803.731 53.696C804.051 53.968 804.483 54.104 805.027 54.104C805.763 54.104 806.411 53.848 806.971 53.336L807.571 55.208ZM816.996 43.76C818.324 43.76 819.404 44.144 820.236 44.912C821.084 45.68 821.508 46.784 821.508 48.224V56H818.94V49.04C818.94 46.928 818.084 45.872 816.372 45.872C815.476 45.872 814.708 46.184 814.068 46.808C813.428 47.432 813.108 48.384 813.108 49.664V56H810.54V38.6H813.108V45.92C813.508 45.184 814.036 44.64 814.692 44.288C815.364 43.936 816.132 43.76 816.996 43.76ZM836.607 49.64C836.607 50.104 836.575 50.544 836.511 50.96H827.727C827.871 52.016 828.247 52.824 828.855 53.384C829.463 53.928 830.247 54.2 831.207 54.2C831.991 54.2 832.639 54.064 833.151 53.792C833.679 53.504 834.039 53.096 834.231 52.568L836.367 53.456C835.471 55.312 833.751 56.24 831.207 56.24C829.319 56.24 827.839 55.688 826.767 54.584C825.711 53.48 825.183 51.952 825.183 50C825.183 48.032 825.695 46.504 826.719 45.416C827.743 44.312 829.183 43.76 831.039 43.76C832.799 43.76 834.167 44.296 835.143 45.368C836.119 46.44 836.607 47.864 836.607 49.64ZM831.039 45.8C830.111 45.8 829.359 46.072 828.783 46.616C828.223 47.16 827.871 47.952 827.727 48.992H834.207C834.079 47.984 833.735 47.2 833.175 46.64C832.631 46.08 831.919 45.8 831.039 45.8ZM841.601 41.984C841.057 41.984 840.633 41.848 840.329 41.576C840.025 41.288 839.873 40.888 839.873 40.376C839.873 39.864 840.025 39.472 840.329 39.2C840.633 38.928 841.057 38.792 841.601 38.792C842.145 38.792 842.561 38.928 842.849 39.2C843.153 39.472 843.305 39.864 843.305 40.376C843.305 40.888 843.153 41.288 842.849 41.576C842.561 41.848 842.145 41.984 841.601 41.984ZM842.873 56H840.305V44H842.873V56ZM853.563 43.76C854.123 43.76 854.563 43.84 854.883 44L854.475 46.352C854.107 46.144 853.603 46.04 852.963 46.04C852.451 46.04 851.963 46.176 851.499 46.448C851.051 46.72 850.675 47.128 850.371 47.672C850.083 48.216 849.939 48.872 849.939 49.64V56H847.371V44H849.555L849.771 46.16C850.443 44.56 851.707 43.76 853.563 43.76ZM868.59 44H872.478V46.016H868.662V56H866.094V46.016H863.838V44H866.094V42.272C866.094 41.056 866.462 40.112 867.198 39.44C867.934 38.768 868.966 38.432 870.294 38.432C870.774 38.432 871.214 38.488 871.614 38.6C872.014 38.696 872.326 38.832 872.55 39.008L872.07 40.88C871.702 40.64 871.246 40.52 870.702 40.52C869.294 40.52 868.59 41.168 868.59 42.464V44ZM880.294 43.76C882.166 43.76 883.63 44.312 884.686 45.416C885.742 46.52 886.27 48.048 886.27 50C886.27 51.952 885.742 53.48 884.686 54.584C883.63 55.688 882.166 56.24 880.294 56.24C878.422 56.24 876.958 55.688 875.902 54.584C874.846 53.48 874.318 51.952 874.318 50C874.318 48.048 874.846 46.52 875.902 45.416C876.958 44.312 878.422 43.76 880.294 43.76ZM880.294 45.776C879.206 45.776 878.366 46.144 877.774 46.88C877.198 47.6 876.91 48.64 876.91 50C876.91 51.36 877.198 52.408 877.774 53.144C878.366 53.864 879.206 54.224 880.294 54.224C881.382 54.224 882.222 53.856 882.814 53.12C883.406 52.384 883.702 51.344 883.702 50C883.702 48.656 883.406 47.616 882.814 46.88C882.222 46.144 881.382 45.776 880.294 45.776ZM895.329 43.76C897.201 43.76 898.665 44.312 899.721 45.416C900.777 46.52 901.305 48.048 901.305 50C901.305 51.952 900.777 53.48 899.721 54.584C898.665 55.688 897.201 56.24 895.329 56.24C893.457 56.24 891.993 55.688 890.937 54.584C889.881 53.48 889.353 51.952 889.353 50C889.353 48.048 889.881 46.52 890.937 45.416C891.993 44.312 893.457 43.76 895.329 43.76ZM895.329 45.776C894.241 45.776 893.401 46.144 892.809 46.88C892.233 47.6 891.945 48.64 891.945 50C891.945 51.36 892.233 52.408 892.809 53.144C893.401 53.864 894.241 54.224 895.329 54.224C896.417 54.224 897.257 53.856 897.849 53.12C898.441 52.384 898.737 51.344 898.737 50C898.737 48.656 898.441 47.616 897.849 46.88C897.257 46.144 896.417 45.776 895.329 45.776ZM916.195 38.6V56H913.939L913.795 53.864C913.443 54.584 912.907 55.16 912.187 55.592C911.483 56.024 910.675 56.24 909.763 56.24C908.115 56.24 906.811 55.696 905.851 54.608C904.907 53.504 904.435 51.976 904.435 50.024C904.435 48.072 904.907 46.544 905.851 45.44C906.811 44.32 908.115 43.76 909.763 43.76C910.643 43.76 911.419 43.96 912.091 44.36C912.763 44.744 913.275 45.272 913.627 45.944V38.6H916.195ZM910.339 54.176C911.347 54.176 912.147 53.816 912.739 53.096C913.331 52.376 913.627 51.392 913.627 50.144V49.856C913.627 48.608 913.331 47.632 912.739 46.928C912.147 46.208 911.347 45.848 910.339 45.848C909.299 45.848 908.483 46.216 907.891 46.952C907.315 47.672 907.027 48.688 907.027 50C907.027 51.312 907.315 52.336 907.891 53.072C908.483 53.808 909.299 54.176 910.339 54.176ZM654.272 71.76C656.896 71.76 658.632 72.88 659.48 75.12L657.08 76.08C656.664 74.56 655.728 73.8 654.272 73.8C653.2 73.8 652.368 74.168 651.776 74.904C651.184 75.64 650.888 76.68 650.888 78.024C650.888 79.368 651.184 80.4 651.776 81.12C652.368 81.84 653.2 82.2 654.272 82.2C655.088 82.2 655.744 82 656.24 81.6C656.736 81.2 657.064 80.624 657.224 79.872L659.576 80.664C659.224 81.784 658.6 82.664 657.704 83.304C656.808 83.928 655.68 84.24 654.32 84.24C652.432 84.24 650.952 83.688 649.88 82.584C648.824 81.48 648.296 79.952 648.296 78C648.296 76.048 648.824 74.52 649.88 73.416C650.936 72.312 652.4 71.76 654.272 71.76ZM668.346 71.76C670.218 71.76 671.682 72.312 672.738 73.416C673.794 74.52 674.322 76.048 674.322 78C674.322 79.952 673.794 81.48 672.738 82.584C671.682 83.688 670.218 84.24 668.346 84.24C666.474 84.24 665.01 83.688 663.954 82.584C662.898 81.48 662.37 79.952 662.37 78C662.37 76.048 662.898 74.52 663.954 73.416C665.01 72.312 666.474 71.76 668.346 71.76ZM668.346 73.776C667.258 73.776 666.418 74.144 665.826 74.88C665.25 75.6 664.962 76.64 664.962 78C664.962 79.36 665.25 80.408 665.826 81.144C666.418 81.864 667.258 82.224 668.346 82.224C669.434 82.224 670.274 81.856 670.866 81.12C671.458 80.384 671.754 79.344 671.754 78C671.754 76.656 671.458 75.616 670.866 74.88C670.274 74.144 669.434 73.776 668.346 73.776ZM684.556 71.76C685.884 71.76 686.964 72.144 687.796 72.912C688.644 73.68 689.068 74.784 689.068 76.224V84H686.5V77.04C686.5 74.928 685.644 73.872 683.932 73.872C683.036 73.872 682.268 74.184 681.628 74.808C680.988 75.416 680.668 76.36 680.668 77.64V84H678.1V72H680.38L680.5 73.992C680.9 73.24 681.452 72.68 682.156 72.312C682.86 71.944 683.66 71.76 684.556 71.76ZM701.075 83.208C700.691 83.528 700.219 83.784 699.659 83.976C699.115 84.152 698.523 84.24 697.883 84.24C696.779 84.24 695.891 83.968 695.219 83.424C694.563 82.864 694.227 82 694.211 80.832V74.016H691.931V72H694.211V69.192L696.779 68.472V72H700.979V74.016H696.779V80.4C696.779 80.976 696.931 81.408 697.235 81.696C697.555 81.968 697.987 82.104 698.531 82.104C699.267 82.104 699.915 81.848 700.475 81.336L701.075 83.208ZM714.679 77.64C714.679 78.104 714.647 78.544 714.583 78.96H705.799C705.943 80.016 706.319 80.824 706.927 81.384C707.535 81.928 708.319 82.2 709.279 82.2C710.063 82.2 710.711 82.064 711.223 81.792C711.751 81.504 712.111 81.096 712.303 80.568L714.439 81.456C713.543 83.312 711.823 84.24 709.279 84.24C707.391 84.24 705.911 83.688 704.839 82.584C703.783 81.48 703.255 79.952 703.255 78C703.255 76.032 703.767 74.504 704.791 73.416C705.815 72.312 707.255 71.76 709.111 71.76C710.871 71.76 712.239 72.296 713.215 73.368C714.191 74.44 714.679 75.864 714.679 77.64ZM709.111 73.8C708.183 73.8 707.431 74.072 706.855 74.616C706.295 75.16 705.943 75.952 705.799 76.992H712.279C712.151 75.984 711.807 75.2 711.247 74.64C710.703 74.08 709.991 73.8 709.111 73.8ZM724.832 71.76C726.16 71.76 727.24 72.144 728.072 72.912C728.92 73.68 729.344 74.784 729.344 76.224V84H726.776V77.04C726.776 74.928 725.92 73.872 724.208 73.872C723.312 73.872 722.544 74.184 721.904 74.808C721.264 75.416 720.944 76.36 720.944 77.64V84H718.376V72H720.656L720.776 73.992C721.176 73.24 721.728 72.68 722.432 72.312C723.136 71.944 723.936 71.76 724.832 71.76ZM741.351 83.208C740.967 83.528 740.495 83.784 739.935 83.976C739.391 84.152 738.799 84.24 738.159 84.24C737.055 84.24 736.167 83.968 735.495 83.424C734.839 82.864 734.503 82 734.487 80.832V74.016H732.207V72H734.487V69.192L737.055 68.472V72H741.255V74.016H737.055V80.4C737.055 80.976 737.207 81.408 737.511 81.696C737.831 81.968 738.263 82.104 738.807 82.104C739.543 82.104 740.191 81.848 740.751 81.336L741.351 83.208ZM757.792 71.76C759.664 71.76 761.128 72.312 762.184 73.416C763.24 74.52 763.768 76.048 763.768 78C763.768 79.952 763.24 81.48 762.184 82.584C761.128 83.688 759.664 84.24 757.792 84.24C755.92 84.24 754.456 83.688 753.4 82.584C752.344 81.48 751.816 79.952 751.816 78C751.816 76.048 752.344 74.52 753.4 73.416C754.456 72.312 755.92 71.76 757.792 71.76ZM757.792 73.776C756.704 73.776 755.864 74.144 755.272 74.88C754.696 75.6 754.408 76.64 754.408 78C754.408 79.36 754.696 80.408 755.272 81.144C755.864 81.864 756.704 82.224 757.792 82.224C758.88 82.224 759.72 81.856 760.312 81.12C760.904 80.384 761.2 79.344 761.2 78C761.2 76.656 760.904 75.616 760.312 74.88C759.72 74.144 758.88 73.776 757.792 73.776ZM774.002 71.76C775.33 71.76 776.41 72.144 777.242 72.912C778.09 73.68 778.514 74.784 778.514 76.224V84H775.946V77.04C775.946 74.928 775.09 73.872 773.378 73.872C772.482 73.872 771.714 74.184 771.074 74.808C770.434 75.416 770.114 76.36 770.114 77.64V84H767.546V72H769.826L769.946 73.992C770.346 73.24 770.898 72.68 771.602 72.312C772.306 71.944 773.106 71.76 774.002 71.76ZM785.382 80.496C785.382 81.088 785.47 81.504 785.646 81.744C785.822 81.968 786.15 82.08 786.63 82.08C786.934 82.08 787.19 82.064 787.398 82.032C787.622 81.984 787.894 81.896 788.214 81.768L787.926 83.832C787.382 84.104 786.718 84.24 785.934 84.24C784.862 84.24 784.07 83.968 783.558 83.424C783.062 82.88 782.814 82.024 782.814 80.856V66.6H785.382V80.496ZM792.138 69.984C791.594 69.984 791.17 69.848 790.866 69.576C790.562 69.288 790.41 68.888 790.41 68.376C790.41 67.864 790.562 67.472 790.866 67.2C791.17 66.928 791.594 66.792 792.138 66.792C792.682 66.792 793.098 66.928 793.386 67.2C793.69 67.472 793.842 67.864 793.842 68.376C793.842 68.888 793.69 69.288 793.386 69.576C793.098 69.848 792.682 69.984 792.138 69.984ZM793.41 84H790.842V72H793.41V84ZM804.364 71.76C805.692 71.76 806.772 72.144 807.604 72.912C808.452 73.68 808.876 74.784 808.876 76.224V84H806.308V77.04C806.308 74.928 805.452 73.872 803.74 73.872C802.844 73.872 802.076 74.184 801.436 74.808C800.796 75.416 800.476 76.36 800.476 77.64V84H797.908V72H800.188L800.308 73.992C800.708 73.24 801.26 72.68 801.964 72.312C802.668 71.944 803.468 71.76 804.364 71.76ZM823.976 77.64C823.976 78.104 823.944 78.544 823.88 78.96H815.096C815.24 80.016 815.616 80.824 816.224 81.384C816.832 81.928 817.616 82.2 818.576 82.2C819.36 82.2 820.008 82.064 820.52 81.792C821.048 81.504 821.408 81.096 821.6 80.568L823.736 81.456C822.84 83.312 821.12 84.24 818.576 84.24C816.688 84.24 815.208 83.688 814.136 82.584C813.08 81.48 812.552 79.952 812.552 78C812.552 76.032 813.064 74.504 814.088 73.416C815.112 72.312 816.552 71.76 818.408 71.76C820.168 71.76 821.536 72.296 822.512 73.368C823.488 74.44 823.976 75.864 823.976 77.64ZM818.408 73.8C817.48 73.8 816.728 74.072 816.152 74.616C815.592 75.16 815.24 75.952 815.096 76.992H821.576C821.448 75.984 821.104 75.2 820.544 74.64C820 74.08 819.288 73.8 818.408 73.8ZM828.945 80.76C829.585 80.76 830.081 81 830.433 81.48C830.801 81.944 830.985 82.552 830.985 83.304C830.985 84.216 830.745 85.048 830.265 85.8C829.785 86.568 829.081 87.168 828.153 87.6L826.905 86.544C827.561 86.32 828.113 85.984 828.561 85.536C829.009 85.104 829.305 84.616 829.449 84.072L829.329 84.024C829.201 84.152 828.977 84.216 828.657 84.216C828.257 84.216 827.897 84.072 827.577 83.784C827.273 83.48 827.121 83.064 827.121 82.536C827.121 82.024 827.297 81.6 827.649 81.264C828.001 80.928 828.433 80.76 828.945 80.76ZM849.456 71.76C851.104 71.76 852.4 72.32 853.344 73.44C854.288 74.544 854.76 76.072 854.76 78.024C854.76 79.976 854.288 81.504 853.344 82.608C852.4 83.696 851.104 84.24 849.456 84.24C848.512 84.24 847.68 84.016 846.96 83.568C846.256 83.12 845.728 82.52 845.376 81.768L845.256 84H843V66.6H845.568V73.92C845.936 73.248 846.456 72.72 847.128 72.336C847.816 71.952 848.592 71.76 849.456 71.76ZM848.88 82.176C849.92 82.176 850.728 81.808 851.304 81.072C851.896 80.336 852.192 79.312 852.192 78C852.192 76.688 851.896 75.672 851.304 74.952C850.728 74.216 849.92 73.848 848.88 73.848C847.904 73.848 847.12 74.176 846.528 74.832C845.952 75.488 845.632 76.392 845.568 77.544V78.456C845.632 79.624 845.952 80.536 846.528 81.192C847.12 81.848 847.904 82.176 848.88 82.176ZM869.446 72V84H867.166L867.07 82.056C866.254 83.512 864.83 84.24 862.798 84.24C861.502 84.24 860.454 83.888 859.654 83.184C858.87 82.464 858.478 81.368 858.478 79.896V72H861.046V79.224C861.046 80.28 861.254 81.032 861.67 81.48C862.086 81.912 862.702 82.128 863.518 82.128C864.494 82.128 865.294 81.824 865.918 81.216C866.558 80.592 866.878 79.68 866.878 78.48V72H869.446ZM881.689 83.208C881.305 83.528 880.833 83.784 880.273 83.976C879.729 84.152 879.137 84.24 878.497 84.24C877.393 84.24 876.505 83.968 875.833 83.424C875.177 82.864 874.841 82 874.825 80.832V74.016H872.545V72H874.825V69.192L877.393 68.472V72H881.593V74.016H877.393V80.4C877.393 80.976 877.545 81.408 877.849 81.696C878.169 81.968 878.601 82.104 879.145 82.104C879.881 82.104 880.529 81.848 881.089 81.336L881.689 83.208ZM655.448 99.76C656.776 99.76 657.856 100.144 658.688 100.912C659.536 101.68 659.96 102.784 659.96 104.224V112H657.392V105.04C657.392 102.928 656.536 101.872 654.824 101.872C653.928 101.872 653.16 102.184 652.52 102.808C651.88 103.432 651.56 104.384 651.56 105.664V112H648.992V94.6H651.56V101.92C651.96 101.184 652.488 100.64 653.144 100.288C653.816 99.936 654.584 99.76 655.448 99.76ZM674.699 110.32C675.051 110.32 675.347 110.288 675.587 110.224L675.419 111.952C674.987 112.144 674.491 112.24 673.931 112.24C673.243 112.24 672.691 112.104 672.275 111.832C671.875 111.56 671.611 111.104 671.483 110.464C671.115 111.024 670.571 111.464 669.851 111.784C669.131 112.088 668.323 112.24 667.427 112.24C666.259 112.24 665.315 111.968 664.595 111.424C663.875 110.88 663.515 110.104 663.515 109.096C663.515 108.152 663.907 107.36 664.691 106.72C665.475 106.064 666.643 105.6 668.195 105.328L671.243 104.8V104.152C671.243 103.416 671.027 102.84 670.595 102.424C670.163 101.992 669.563 101.776 668.795 101.776C667.211 101.776 666.179 102.496 665.699 103.936L663.707 102.88C663.995 101.92 664.579 101.16 665.459 100.6C666.355 100.04 667.451 99.76 668.747 99.76C670.299 99.76 671.531 100.12 672.443 100.84C673.355 101.56 673.811 102.616 673.811 104.008V109.432C673.811 109.736 673.875 109.96 674.003 110.104C674.147 110.248 674.379 110.32 674.699 110.32ZM667.979 110.296C668.843 110.296 669.603 110.088 670.259 109.672C670.915 109.256 671.243 108.704 671.243 108.016V106.576L668.627 107.104C667.795 107.264 667.179 107.488 666.779 107.776C666.379 108.064 666.179 108.448 666.179 108.928C666.179 109.376 666.331 109.72 666.635 109.96C666.955 110.184 667.403 110.296 667.979 110.296ZM688.661 100L683.885 112H681.077L676.277 100H679.109L682.493 109.912L685.973 100H688.661ZM701.988 105.64C701.988 106.104 701.956 106.544 701.892 106.96H693.108C693.252 108.016 693.628 108.824 694.236 109.384C694.844 109.928 695.628 110.2 696.588 110.2C697.372 110.2 698.02 110.064 698.532 109.792C699.06 109.504 699.42 109.096 699.612 108.568L701.748 109.456C700.852 111.312 699.132 112.24 696.588 112.24C694.7 112.24 693.22 111.688 692.148 110.584C691.092 109.48 690.564 107.952 690.564 106C690.564 104.032 691.076 102.504 692.1 101.416C693.124 100.312 694.564 99.76 696.42 99.76C698.18 99.76 699.548 100.296 700.524 101.368C701.5 102.44 701.988 103.864 701.988 105.64ZM696.42 101.8C695.492 101.8 694.74 102.072 694.164 102.616C693.604 103.16 693.252 103.952 693.108 104.992H699.588C699.46 103.984 699.116 103.2 698.556 102.64C698.012 102.08 697.3 101.8 696.42 101.8ZM720.426 99.76C721.754 99.76 722.834 100.144 723.666 100.912C724.514 101.68 724.938 102.784 724.938 104.224V112H722.37V105.04C722.37 102.928 721.514 101.872 719.802 101.872C718.906 101.872 718.138 102.184 717.498 102.808C716.858 103.416 716.538 104.36 716.538 105.64V112H713.97V100H716.25L716.37 101.992C716.77 101.24 717.322 100.68 718.026 100.312C718.73 99.944 719.53 99.76 720.426 99.76ZM734.589 99.76C736.461 99.76 737.925 100.312 738.981 101.416C740.037 102.52 740.565 104.048 740.565 106C740.565 107.952 740.037 109.48 738.981 110.584C737.925 111.688 736.461 112.24 734.589 112.24C732.717 112.24 731.253 111.688 730.197 110.584C729.141 109.48 728.613 107.952 728.613 106C728.613 104.048 729.141 102.52 730.197 101.416C731.253 100.312 732.717 99.76 734.589 99.76ZM734.589 101.776C733.501 101.776 732.661 102.144 732.069 102.88C731.493 103.6 731.205 104.64 731.205 106C731.205 107.36 731.493 108.408 732.069 109.144C732.661 109.864 733.501 110.224 734.589 110.224C735.677 110.224 736.517 109.856 737.109 109.12C737.701 108.384 737.997 107.344 737.997 106C737.997 104.656 737.701 103.616 737.109 102.88C736.517 102.144 735.677 101.776 734.589 101.776ZM756.973 112.24C755.757 112.24 754.677 112.032 753.733 111.616C752.805 111.2 752.101 110.568 751.621 109.72L753.349 108.232C753.653 108.92 754.125 109.424 754.765 109.744C755.405 110.064 756.173 110.224 757.069 110.224C757.885 110.224 758.517 110.096 758.965 109.84C759.413 109.568 759.637 109.216 759.637 108.784C759.637 108.4 759.429 108.096 759.013 107.872C758.597 107.632 757.877 107.408 756.853 107.2C755.077 106.864 753.829 106.416 753.109 105.856C752.389 105.296 752.029 104.504 752.029 103.48C752.029 102.824 752.229 102.216 752.629 101.656C753.029 101.08 753.605 100.624 754.357 100.288C755.125 99.936 756.029 99.76 757.069 99.76C758.397 99.76 759.461 99.984 760.261 100.432C761.061 100.864 761.677 101.544 762.109 102.472L760.285 103.816C759.997 103.112 759.589 102.6 759.061 102.28C758.549 101.944 757.893 101.776 757.093 101.776C756.373 101.776 755.773 101.928 755.293 102.232C754.829 102.52 754.597 102.856 754.597 103.24C754.597 103.672 754.805 104.016 755.221 104.272C755.653 104.528 756.429 104.76 757.549 104.968C759.245 105.272 760.445 105.704 761.149 106.264C761.853 106.824 762.205 107.608 762.205 108.616C762.205 109.688 761.741 110.56 760.813 111.232C759.885 111.904 758.605 112.24 756.973 112.24ZM767.108 97.984C766.564 97.984 766.14 97.848 765.836 97.576C765.532 97.288 765.38 96.888 765.38 96.376C765.38 95.864 765.532 95.472 765.836 95.2C766.14 94.928 766.564 94.792 767.108 94.792C767.652 94.792 768.068 94.928 768.356 95.2C768.66 95.472 768.812 95.864 768.812 96.376C768.812 96.888 768.66 97.288 768.356 97.576C768.068 97.848 767.652 97.984 767.108 97.984ZM768.38 112H765.812V100H768.38V112ZM779.334 99.76C780.662 99.76 781.742 100.144 782.574 100.912C783.422 101.68 783.846 102.784 783.846 104.224V112H781.278V105.04C781.278 102.928 780.422 101.872 778.71 101.872C777.814 101.872 777.046 102.184 776.406 102.808C775.766 103.416 775.446 104.36 775.446 105.64V112H772.878V100H775.158L775.278 101.992C775.678 101.24 776.23 100.68 776.934 100.312C777.638 99.944 778.438 99.76 779.334 99.76ZM795.201 110.128C796.417 110.128 797.361 110.4 798.033 110.944C798.705 111.488 799.041 112.24 799.041 113.2C799.041 114.016 798.769 114.72 798.225 115.312C797.697 115.904 796.961 116.36 796.017 116.68C795.089 117 794.041 117.16 792.873 117.16C790.969 117.16 789.537 116.88 788.577 116.32C787.633 115.76 787.161 115.016 787.161 114.088C787.161 113.544 787.345 113.064 787.713 112.648C788.097 112.248 788.625 111.96 789.297 111.784C788.785 111.544 788.377 111.24 788.073 110.872C787.769 110.488 787.617 110.032 787.617 109.504C787.617 108.336 788.241 107.536 789.489 107.104C788.881 106.752 788.417 106.296 788.097 105.736C787.793 105.176 787.641 104.536 787.641 103.816C787.641 103.016 787.857 102.312 788.289 101.704C788.721 101.08 789.329 100.6 790.113 100.264C790.913 99.928 791.825 99.76 792.849 99.76C793.729 99.76 794.537 99.888 795.273 100.144C795.497 99.264 795.897 98.6 796.473 98.152C797.065 97.688 797.841 97.464 798.801 97.48L799.233 99.472C798.465 99.456 797.841 99.552 797.361 99.76C796.897 99.968 796.577 100.28 796.401 100.696C796.929 101.064 797.337 101.512 797.625 102.04C797.913 102.568 798.057 103.16 798.057 103.816C798.057 105.048 797.577 106.032 796.617 106.768C795.673 107.504 794.417 107.872 792.849 107.872C792.113 107.872 791.449 107.8 790.857 107.656C790.457 107.752 790.161 107.912 789.969 108.136C789.793 108.344 789.705 108.624 789.705 108.976C789.705 109.344 789.833 109.632 790.089 109.84C790.361 110.032 790.729 110.128 791.193 110.128H795.201ZM792.849 101.56C792.113 101.56 791.497 101.776 791.001 102.208C790.505 102.624 790.257 103.16 790.257 103.816C790.257 104.488 790.505 105.04 791.001 105.472C791.497 105.888 792.113 106.096 792.849 106.096C793.601 106.096 794.217 105.888 794.697 105.472C795.193 105.04 795.441 104.488 795.441 103.816C795.441 103.144 795.193 102.6 794.697 102.184C794.217 101.768 793.601 101.56 792.849 101.56ZM793.113 115.24C794.281 115.24 795.193 115.072 795.849 114.736C796.505 114.4 796.833 113.984 796.833 113.488C796.833 113.088 796.673 112.784 796.353 112.576C796.033 112.368 795.497 112.264 794.745 112.264H791.505C790.785 112.264 790.241 112.376 789.873 112.6C789.521 112.824 789.345 113.136 789.345 113.536C789.345 114.08 789.657 114.496 790.281 114.784C790.921 115.088 791.865 115.24 793.113 115.24ZM804.482 108.496C804.482 109.088 804.57 109.504 804.746 109.744C804.922 109.968 805.25 110.08 805.73 110.08C806.034 110.08 806.29 110.064 806.498 110.032C806.722 109.984 806.994 109.896 807.314 109.768L807.026 111.832C806.482 112.104 805.818 112.24 805.034 112.24C803.962 112.24 803.17 111.968 802.658 111.424C802.162 110.88 801.914 110.024 801.914 108.856V94.6H804.482V108.496ZM820.671 105.64C820.671 106.104 820.639 106.544 820.575 106.96H811.791C811.935 108.016 812.311 108.824 812.919 109.384C813.527 109.928 814.311 110.2 815.271 110.2C816.055 110.2 816.703 110.064 817.215 109.792C817.743 109.504 818.103 109.096 818.295 108.568L820.431 109.456C819.535 111.312 817.815 112.24 815.271 112.24C813.383 112.24 811.903 111.688 810.831 110.584C809.775 109.48 809.247 107.952 809.247 106C809.247 104.032 809.759 102.504 810.783 101.416C811.807 100.312 813.247 99.76 815.103 99.76C816.863 99.76 818.231 100.296 819.207 101.368C820.183 102.44 820.671 103.864 820.671 105.64ZM815.103 101.8C814.175 101.8 813.423 102.072 812.847 102.616C812.287 103.16 811.935 103.952 811.791 104.992H818.271C818.143 103.984 817.799 103.2 817.239 102.64C816.695 102.08 815.983 101.8 815.103 101.8ZM850.354 100L846.346 112H843.538L840.514 102.928L837.634 112H834.826L830.818 100H833.602L836.314 109.6L839.314 100H841.858L844.834 109.6L847.57 100H850.354ZM863.634 110.32C863.986 110.32 864.282 110.288 864.522 110.224L864.354 111.952C863.922 112.144 863.426 112.24 862.866 112.24C862.178 112.24 861.626 112.104 861.21 111.832C860.81 111.56 860.546 111.104 860.418 110.464C860.05 111.024 859.506 111.464 858.786 111.784C858.066 112.088 857.258 112.24 856.362 112.24C855.194 112.24 854.25 111.968 853.53 111.424C852.81 110.88 852.45 110.104 852.45 109.096C852.45 108.152 852.842 107.36 853.626 106.72C854.41 106.064 855.578 105.6 857.13 105.328L860.178 104.8V104.152C860.178 103.416 859.962 102.84 859.53 102.424C859.098 101.992 858.498 101.776 857.73 101.776C856.146 101.776 855.114 102.496 854.634 103.936L852.642 102.88C852.93 101.92 853.514 101.16 854.394 100.6C855.29 100.04 856.386 99.76 857.682 99.76C859.234 99.76 860.466 100.12 861.378 100.84C862.29 101.56 862.746 102.616 862.746 104.008V109.432C862.746 109.736 862.81 109.96 862.938 110.104C863.082 110.248 863.314 110.32 863.634 110.32ZM856.914 110.296C857.778 110.296 858.538 110.088 859.194 109.672C859.85 109.256 860.178 108.704 860.178 108.016V106.576L857.562 107.104C856.73 107.264 856.114 107.488 855.714 107.776C855.314 108.064 855.114 108.448 855.114 108.928C855.114 109.376 855.266 109.72 855.57 109.96C855.89 110.184 856.338 110.296 856.914 110.296ZM872.251 113.416C871.723 114.792 871.123 115.76 870.451 116.32C869.779 116.88 868.899 117.16 867.811 117.16C867.187 117.16 866.643 117.08 866.179 116.92C865.731 116.776 865.331 116.536 864.979 116.2L865.723 114.232C866.203 114.808 866.859 115.096 867.691 115.096C868.171 115.096 868.571 114.968 868.891 114.712C869.227 114.472 869.523 114.024 869.779 113.368L870.307 112.072L869.059 109.096L865.315 100H868.195L870.835 107.536L871.531 109.792L872.347 107.32L874.843 100H877.507L872.251 113.416ZM895.388 111.208C895.004 111.528 894.532 111.784 893.972 111.976C893.428 112.152 892.836 112.24 892.196 112.24C891.092 112.24 890.204 111.968 889.532 111.424C888.876 110.864 888.54 110 888.524 108.832V102.016H886.244V100H888.524V97.192L891.092 96.472V100H895.292V102.016H891.092V108.4C891.092 108.976 891.244 109.408 891.548 109.696C891.868 109.968 892.3 110.104 892.844 110.104C893.58 110.104 894.228 109.848 894.788 109.336L895.388 111.208ZM903.544 99.76C905.416 99.76 906.88 100.312 907.936 101.416C908.992 102.52 909.52 104.048 909.52 106C909.52 107.952 908.992 109.48 907.936 110.584C906.88 111.688 905.416 112.24 903.544 112.24C901.672 112.24 900.208 111.688 899.152 110.584C898.096 109.48 897.568 107.952 897.568 106C897.568 104.048 898.096 102.52 899.152 101.416C900.208 100.312 901.672 99.76 903.544 99.76ZM903.544 101.776C902.456 101.776 901.616 102.144 901.024 102.88C900.448 103.6 900.16 104.64 900.16 106C900.16 107.36 900.448 108.408 901.024 109.144C901.616 109.864 902.456 110.224 903.544 110.224C904.632 110.224 905.472 109.856 906.064 109.12C906.656 108.384 906.952 107.344 906.952 106C906.952 104.656 906.656 103.616 906.064 102.88C905.472 102.144 904.632 101.776 903.544 101.776ZM654.272 127.76C656.144 127.76 657.608 128.312 658.664 129.416C659.72 130.52 660.248 132.048 660.248 134C660.248 135.952 659.72 137.48 658.664 138.584C657.608 139.688 656.144 140.24 654.272 140.24C652.4 140.24 650.936 139.688 649.88 138.584C648.824 137.48 648.296 135.952 648.296 134C648.296 132.048 648.824 130.52 649.88 129.416C650.936 128.312 652.4 127.76 654.272 127.76ZM654.272 129.776C653.184 129.776 652.344 130.144 651.752 130.88C651.176 131.6 650.888 132.64 650.888 134C650.888 135.36 651.176 136.408 651.752 137.144C652.344 137.864 653.184 138.224 654.272 138.224C655.36 138.224 656.2 137.856 656.792 137.12C657.384 136.384 657.68 135.344 657.68 134C657.68 132.656 657.384 131.616 656.792 130.88C656.2 130.144 655.36 129.776 654.272 129.776ZM670.219 127.76C670.779 127.76 671.219 127.84 671.539 128L671.131 130.352C670.763 130.144 670.259 130.04 669.619 130.04C669.107 130.04 668.619 130.176 668.155 130.448C667.707 130.72 667.331 131.128 667.027 131.672C666.739 132.216 666.595 132.872 666.595 133.64V140H664.027V128H666.211L666.427 130.16C667.099 128.56 668.363 127.76 670.219 127.76ZM680.913 138.128C682.129 138.128 683.073 138.4 683.745 138.944C684.417 139.488 684.753 140.24 684.753 141.2C684.753 142.016 684.481 142.72 683.937 143.312C683.409 143.904 682.673 144.36 681.729 144.68C680.801 145 679.753 145.16 678.585 145.16C676.681 145.16 675.249 144.88 674.289 144.32C673.345 143.76 672.873 143.016 672.873 142.088C672.873 141.544 673.057 141.064 673.425 140.648C673.809 140.248 674.337 139.96 675.009 139.784C674.497 139.544 674.089 139.24 673.785 138.872C673.481 138.488 673.329 138.032 673.329 137.504C673.329 136.336 673.953 135.536 675.201 135.104C674.593 134.752 674.129 134.296 673.809 133.736C673.505 133.176 673.353 132.536 673.353 131.816C673.353 131.016 673.569 130.312 674.001 129.704C674.433 129.08 675.041 128.6 675.825 128.264C676.625 127.928 677.537 127.76 678.561 127.76C679.441 127.76 680.249 127.888 680.985 128.144C681.209 127.264 681.609 126.6 682.185 126.152C682.777 125.688 683.553 125.464 684.513 125.48L684.945 127.472C684.177 127.456 683.553 127.552 683.073 127.76C682.609 127.968 682.289 128.28 682.113 128.696C682.641 129.064 683.049 129.512 683.337 130.04C683.625 130.568 683.769 131.16 683.769 131.816C683.769 133.048 683.289 134.032 682.329 134.768C681.385 135.504 680.129 135.872 678.561 135.872C677.825 135.872 677.161 135.8 676.569 135.656C676.169 135.752 675.873 135.912 675.681 136.136C675.505 136.344 675.417 136.624 675.417 136.976C675.417 137.344 675.545 137.632 675.801 137.84C676.073 138.032 676.441 138.128 676.905 138.128H680.913ZM678.561 129.56C677.825 129.56 677.209 129.776 676.713 130.208C676.217 130.624 675.969 131.16 675.969 131.816C675.969 132.488 676.217 133.04 676.713 133.472C677.209 133.888 677.825 134.096 678.561 134.096C679.313 134.096 679.929 133.888 680.409 133.472C680.905 133.04 681.153 132.488 681.153 131.816C681.153 131.144 680.905 130.6 680.409 130.184C679.929 129.768 679.313 129.56 678.561 129.56ZM678.825 143.24C679.993 143.24 680.905 143.072 681.561 142.736C682.217 142.4 682.545 141.984 682.545 141.488C682.545 141.088 682.385 140.784 682.065 140.576C681.745 140.368 681.209 140.264 680.457 140.264H677.217C676.497 140.264 675.953 140.376 675.585 140.6C675.233 140.824 675.057 141.136 675.057 141.536C675.057 142.08 675.369 142.496 675.993 142.784C676.633 143.088 677.577 143.24 678.825 143.24ZM698.066 138.32C698.418 138.32 698.714 138.288 698.954 138.224L698.786 139.952C698.354 140.144 697.858 140.24 697.298 140.24C696.61 140.24 696.058 140.104 695.642 139.832C695.242 139.56 694.978 139.104 694.85 138.464C694.482 139.024 693.938 139.464 693.218 139.784C692.498 140.088 691.69 140.24 690.794 140.24C689.626 140.24 688.682 139.968 687.962 139.424C687.242 138.88 686.882 138.104 686.882 137.096C686.882 136.152 687.274 135.36 688.058 134.72C688.842 134.064 690.01 133.6 691.562 133.328L694.61 132.8V132.152C694.61 131.416 694.394 130.84 693.962 130.424C693.53 129.992 692.93 129.776 692.162 129.776C690.578 129.776 689.546 130.496 689.066 131.936L687.074 130.88C687.362 129.92 687.946 129.16 688.826 128.6C689.722 128.04 690.818 127.76 692.114 127.76C693.666 127.76 694.898 128.12 695.81 128.84C696.722 129.56 697.178 130.616 697.178 132.008V137.432C697.178 137.736 697.242 137.96 697.37 138.104C697.514 138.248 697.746 138.32 698.066 138.32ZM691.346 138.296C692.21 138.296 692.97 138.088 693.626 137.672C694.282 137.256 694.61 136.704 694.61 136.016V134.576L691.994 135.104C691.162 135.264 690.546 135.488 690.146 135.776C689.746 136.064 689.546 136.448 689.546 136.928C689.546 137.376 689.698 137.72 690.002 137.96C690.322 138.184 690.77 138.296 691.346 138.296ZM708.321 127.76C709.649 127.76 710.729 128.144 711.561 128.912C712.409 129.68 712.833 130.784 712.833 132.224V140H710.265V133.04C710.265 130.928 709.409 129.872 707.697 129.872C706.801 129.872 706.033 130.184 705.393 130.808C704.753 131.416 704.433 132.36 704.433 133.64V140H701.865V128H704.145L704.265 129.992C704.665 129.24 705.217 128.68 705.921 128.312C706.625 127.944 707.425 127.76 708.321 127.76ZM718.501 125.984C717.957 125.984 717.533 125.848 717.229 125.576C716.925 125.288 716.773 124.888 716.773 124.376C716.773 123.864 716.925 123.472 717.229 123.2C717.533 122.928 717.957 122.792 718.501 122.792C719.045 122.792 719.461 122.928 719.749 123.2C720.053 123.472 720.205 123.864 720.205 124.376C720.205 124.888 720.053 125.288 719.749 125.576C719.461 125.848 719.045 125.984 718.501 125.984ZM719.773 140H717.205V128H719.773V140ZM723.502 138.224L729.334 131.456L730.774 129.968L728.71 130.016H723.55V128H733.606V129.776L727.798 136.544L726.358 138.032L728.638 137.984H733.822V140H723.502V138.224ZM747.994 133.64C747.994 134.104 747.962 134.544 747.898 134.96H739.114C739.258 136.016 739.634 136.824 740.242 137.384C740.85 137.928 741.634 138.2 742.594 138.2C743.378 138.2 744.026 138.064 744.538 137.792C745.066 137.504 745.426 137.096 745.618 136.568L747.754 137.456C746.858 139.312 745.138 140.24 742.594 140.24C740.706 140.24 739.226 139.688 738.154 138.584C737.098 137.48 736.57 135.952 736.57 134C736.57 132.032 737.082 130.504 738.106 129.416C739.13 128.312 740.57 127.76 742.426 127.76C744.186 127.76 745.554 128.296 746.53 129.368C747.506 130.44 747.994 131.864 747.994 133.64ZM742.426 129.8C741.498 129.8 740.746 130.072 740.17 130.616C739.61 131.16 739.258 131.952 739.114 132.992H745.594C745.466 131.984 745.122 131.2 744.562 130.64C744.018 130.08 743.306 129.8 742.426 129.8ZM765.256 127.76C767.128 127.76 768.592 128.312 769.648 129.416C770.704 130.52 771.232 132.048 771.232 134C771.232 135.952 770.704 137.48 769.648 138.584C768.592 139.688 767.128 140.24 765.256 140.24C763.384 140.24 761.92 139.688 760.864 138.584C759.808 137.48 759.28 135.952 759.28 134C759.28 132.048 759.808 130.52 760.864 129.416C761.92 128.312 763.384 127.76 765.256 127.76ZM765.256 129.776C764.168 129.776 763.328 130.144 762.736 130.88C762.16 131.6 761.872 132.64 761.872 134C761.872 135.36 762.16 136.408 762.736 137.144C763.328 137.864 764.168 138.224 765.256 138.224C766.344 138.224 767.184 137.856 767.776 137.12C768.368 136.384 768.664 135.344 768.664 134C768.664 132.656 768.368 131.616 767.776 130.88C767.184 130.144 766.344 129.776 765.256 129.776ZM781.203 127.76C781.763 127.76 782.203 127.84 782.523 128L782.115 130.352C781.747 130.144 781.243 130.04 780.603 130.04C780.091 130.04 779.603 130.176 779.139 130.448C778.691 130.72 778.315 131.128 778.011 131.672C777.723 132.216 777.579 132.872 777.579 133.64V140H775.011V128H777.195L777.411 130.16C778.083 128.56 779.347 127.76 781.203 127.76ZM797.541 140.24C796.325 140.24 795.245 140.032 794.301 139.616C793.373 139.2 792.669 138.568 792.189 137.72L793.917 136.232C794.221 136.92 794.693 137.424 795.333 137.744C795.973 138.064 796.741 138.224 797.637 138.224C798.453 138.224 799.085 138.096 799.533 137.84C799.981 137.568 800.205 137.216 800.205 136.784C800.205 136.4 799.997 136.096 799.581 135.872C799.165 135.632 798.445 135.408 797.421 135.2C795.645 134.864 794.397 134.416 793.677 133.856C792.957 133.296 792.597 132.504 792.597 131.48C792.597 130.824 792.797 130.216 793.197 129.656C793.597 129.08 794.173 128.624 794.925 128.288C795.693 127.936 796.597 127.76 797.637 127.76C798.965 127.76 800.029 127.984 800.829 128.432C801.629 128.864 802.245 129.544 802.677 130.472L800.853 131.816C800.565 131.112 800.157 130.6 799.629 130.28C799.117 129.944 798.461 129.776 797.661 129.776C796.941 129.776 796.341 129.928 795.861 130.232C795.397 130.52 795.165 130.856 795.165 131.24C795.165 131.672 795.373 132.016 795.789 132.272C796.221 132.528 796.997 132.76 798.117 132.968C799.813 133.272 801.013 133.704 801.717 134.264C802.421 134.824 802.773 135.608 802.773 136.616C802.773 137.688 802.309 138.56 801.381 139.232C800.453 139.904 799.173 140.24 797.541 140.24ZM816.748 138.32C817.1 138.32 817.396 138.288 817.636 138.224L817.468 139.952C817.036 140.144 816.54 140.24 815.98 140.24C815.292 140.24 814.74 140.104 814.324 139.832C813.924 139.56 813.66 139.104 813.532 138.464C813.164 139.024 812.62 139.464 811.9 139.784C811.18 140.088 810.372 140.24 809.476 140.24C808.308 140.24 807.364 139.968 806.644 139.424C805.924 138.88 805.564 138.104 805.564 137.096C805.564 136.152 805.956 135.36 806.74 134.72C807.524 134.064 808.692 133.6 810.244 133.328L813.292 132.8V132.152C813.292 131.416 813.076 130.84 812.644 130.424C812.212 129.992 811.612 129.776 810.844 129.776C809.26 129.776 808.228 130.496 807.748 131.936L805.756 130.88C806.044 129.92 806.628 129.16 807.508 128.6C808.404 128.04 809.5 127.76 810.796 127.76C812.348 127.76 813.58 128.12 814.492 128.84C815.404 129.56 815.86 130.616 815.86 132.008V137.432C815.86 137.736 815.924 137.96 816.052 138.104C816.196 138.248 816.428 138.32 816.748 138.32ZM810.028 138.296C810.892 138.296 811.652 138.088 812.308 137.672C812.964 137.256 813.292 136.704 813.292 136.016V134.576L810.676 135.104C809.844 135.264 809.228 135.488 808.828 135.776C808.428 136.064 808.228 136.448 808.228 136.928C808.228 137.376 808.38 137.72 808.684 137.96C809.004 138.184 809.452 138.296 810.028 138.296ZM830.71 128L825.934 140H823.126L818.326 128H821.158L824.542 137.912L828.022 128H830.71ZM844.037 133.64C844.037 134.104 844.005 134.544 843.941 134.96H835.157C835.301 136.016 835.677 136.824 836.285 137.384C836.893 137.928 837.677 138.2 838.637 138.2C839.421 138.2 840.069 138.064 840.581 137.792C841.109 137.504 841.469 137.096 841.661 136.568L843.797 137.456C842.901 139.312 841.181 140.24 838.637 140.24C836.749 140.24 835.269 139.688 834.197 138.584C833.141 137.48 832.613 135.952 832.613 134C832.613 132.032 833.125 130.504 834.149 129.416C835.173 128.312 836.613 127.76 838.469 127.76C840.229 127.76 841.597 128.296 842.573 129.368C843.549 130.44 844.037 131.864 844.037 133.64ZM838.469 129.8C837.541 129.8 836.789 130.072 836.213 130.616C835.653 131.16 835.301 131.952 835.157 132.992H841.637C841.509 131.984 841.165 131.2 840.605 130.64C840.061 130.08 839.349 129.8 838.469 129.8ZM857.315 125.984C856.771 125.984 856.347 125.848 856.043 125.576C855.739 125.288 855.587 124.888 855.587 124.376C855.587 123.864 855.739 123.472 856.043 123.2C856.347 122.928 856.771 122.792 857.315 122.792C857.859 122.792 858.275 122.928 858.563 123.2C858.867 123.472 859.019 123.864 859.019 124.376C859.019 124.888 858.867 125.288 858.563 125.576C858.275 125.848 857.859 125.984 857.315 125.984ZM858.587 140H856.019V128H858.587V140ZM870.861 139.208C870.477 139.528 870.005 139.784 869.445 139.976C868.901 140.152 868.309 140.24 867.669 140.24C866.565 140.24 865.677 139.968 865.005 139.424C864.349 138.864 864.013 138 863.997 136.832V130.016H861.717V128H863.997V125.192L866.565 124.472V128H870.765V130.016H866.565V136.4C866.565 136.976 866.717 137.408 867.021 137.696C867.341 137.968 867.773 138.104 868.317 138.104C869.053 138.104 869.701 137.848 870.261 137.336L870.861 139.208ZM875.08 136.76C875.624 136.76 876.056 136.92 876.376 137.24C876.712 137.544 876.88 137.96 876.88 138.488C876.88 139.016 876.712 139.44 876.376 139.76C876.056 140.08 875.624 140.24 875.08 140.24C874.536 140.24 874.096 140.08 873.76 139.76C873.424 139.44 873.256 139.016 873.256 138.488C873.256 137.96 873.416 137.544 873.736 137.24C874.072 136.92 874.52 136.76 875.08 136.76Z" fill="#22181C"/>
<g filter="url(#filter0_d)">
<path d="M138.033 27.967C150.803 40.7371 158.537 57.6862 159.813 75.7007C161.089 93.7152 155.822 111.585 144.979 126.028C134.137 140.471 118.447 150.516 100.792 154.319C83.1373 158.121 64.7033 155.426 48.8765 146.727C33.0496 138.029 20.8929 123.912 14.6396 106.969C8.38627 90.027 8.45632 71.3971 14.8369 54.5022C21.2174 37.6073 33.4799 23.582 49.3717 15.0028C65.2635 6.42372 83.7173 3.86697 101.343 7.80226L85 81L138.033 27.967Z" fill="#256EFF"/>
</g>
<g filter="url(#filter1_d)">
<path d="M610.464 61.6627C614.938 78.4277 613.46 96.2253 606.283 112.023C599.106 127.821 586.673 140.641 571.103 148.299C555.533 155.958 537.789 157.981 520.895 154.023C504 150.066 489.001 140.373 478.452 126.596C467.903 112.819 462.457 95.8111 463.043 78.4693C463.628 61.1276 470.209 44.5253 481.663 31.4914C493.117 18.4574 508.736 9.79826 525.859 6.98928C542.981 4.18031 560.548 7.39532 575.566 16.0865L538 81L610.464 61.6627Z" fill="#256EFF"/>
</g>
<defs>
<filter id="filter0_d" x="0" y="-0.00012207" width="170" height="170" filterUnits="userSpaceOnUse" color-interpolation-filters="sRGB">
<feFlood flood-opacity="0" result="BackgroundImageFix"/>
<feColorMatrix in="SourceAlpha" type="matrix" values="0 0 0 0 0 0 0 0 0 0 0 0 0 0 0 0 0 0 127 0"/>
<feOffset dy="4"/>
<feGaussianBlur stdDeviation="5"/>
<feColorMatrix type="matrix" values="0 0 0 0 0 0 0 0 0 0 0 0 0 0 0 0 0 0 0.25 0"/>
<feBlend mode="normal" in2="BackgroundImageFix" result="effect1_dropShadow"/>
<feBlend mode="normal" in="SourceGraphic" in2="effect1_dropShadow" result="shape"/>
</filter>
<filter id="filter1_d" x="453" y="-0.00012207" width="170" height="170" filterUnits="userSpaceOnUse" color-interpolation-filters="sRGB">
<feFlood flood-opacity="0" result="BackgroundImageFix"/>
<feColorMatrix in="SourceAlpha" type="matrix" values="0 0 0 0 0 0 0 0 0 0 0 0 0 0 0 0 0 0 127 0"/>
<feOffset dy="4"/>
<feGaussianBlur stdDeviation="5"/>
<feColorMatrix type="matrix" values="0 0 0 0 0 0 0 0 0 0 0 0 0 0 0 0 0 0 0.25 0"/>
<feBlend mode="normal" in2="BackgroundImageFix" result="effect1_dropShadow"/>
<feBlend mode="normal" in="SourceGraphic" in2="effect1_dropShadow" result="shape"/>
</filter>
</defs>
</svg>
