<svg width="941" height="170" viewBox="0 0 941 170" fill="none" xmlns="http://www.w3.org/2000/svg">
<path d="M202.16 11.92C205.04 11.92 206.88 13.088 207.68 15.424L204.296 17.008C203.96 15.792 203.16 15.184 201.896 15.184C201 15.184 200.272 15.608 199.712 16.456C199.152 17.288 198.872 18.416 198.872 19.84V20.224H198.92C199.192 19.552 199.664 19.04 200.336 18.688C201.008 18.32 201.816 18.136 202.76 18.136C203.736 18.136 204.616 18.344 205.4 18.76C206.184 19.16 206.792 19.736 207.224 20.488C207.672 21.224 207.896 22.08 207.896 23.056C207.896 24.656 207.36 25.92 206.288 26.848C205.216 27.776 203.72 28.24 201.8 28.24C199.672 28.24 198.04 27.544 196.904 26.152C195.768 24.76 195.2 22.736 195.2 20.08C195.2 18.272 195.496 16.76 196.088 15.544C196.696 14.312 197.52 13.4 198.56 12.808C199.6 12.216 200.8 11.92 202.16 11.92ZM201.872 20.92C201.184 20.92 200.632 21.112 200.216 21.496C199.816 21.864 199.616 22.376 199.616 23.032C199.616 23.688 199.816 24.208 200.216 24.592C200.632 24.96 201.184 25.144 201.872 25.144C202.592 25.144 203.144 24.96 203.528 24.592C203.928 24.224 204.128 23.704 204.128 23.032C204.128 22.36 203.928 21.84 203.528 21.472C203.144 21.104 202.592 20.92 201.872 20.92ZM214.453 11.92C215.797 11.92 216.877 12.336 217.693 13.168C218.509 13.984 218.917 15.072 218.917 16.432C218.917 17.792 218.509 18.888 217.693 19.72C216.877 20.536 215.797 20.944 214.453 20.944C213.109 20.944 212.029 20.536 211.213 19.72C210.397 18.888 209.989 17.792 209.989 16.432C209.989 15.072 210.397 13.984 211.213 13.168C212.029 12.336 213.109 11.92 214.453 11.92ZM224.485 12.136H227.605L216.589 28H213.469L224.485 12.136ZM214.453 14.656C214.005 14.656 213.653 14.816 213.397 15.136C213.157 15.44 213.037 15.872 213.037 16.432C213.037 16.992 213.157 17.432 213.397 17.752C213.653 18.056 214.005 18.208 214.453 18.208C214.917 18.208 215.269 18.056 215.509 17.752C215.765 17.432 215.893 16.992 215.893 16.432C215.893 15.872 215.765 15.44 215.509 15.136C215.269 14.816 214.917 14.656 214.453 14.656ZM226.573 19.216C227.917 19.216 228.997 19.632 229.813 20.464C230.629 21.28 231.037 22.368 231.037 23.728C231.037 25.088 230.629 26.184 229.813 27.016C228.997 27.832 227.917 28.24 226.573 28.24C225.229 28.24 224.149 27.832 223.333 27.016C222.517 26.184 222.109 25.088 222.109 23.728C222.109 22.368 222.517 21.28 223.333 20.464C224.149 19.632 225.229 19.216 226.573 19.216ZM226.573 21.952C226.109 21.952 225.749 22.112 225.493 22.432C225.253 22.736 225.133 23.168 225.133 23.728C225.133 24.288 225.253 24.728 225.493 25.048C225.749 25.352 226.109 25.504 226.573 25.504C227.037 25.504 227.389 25.352 227.629 25.048C227.885 24.728 228.013 24.288 228.013 23.728C228.013 23.168 227.885 22.736 227.629 22.432C227.389 22.112 227.037 21.952 226.573 21.952ZM246.892 15.76C248.764 15.76 250.228 16.312 251.284 17.416C252.34 18.52 252.868 20.048 252.868 22C252.868 23.952 252.34 25.48 251.284 26.584C250.228 27.688 248.764 28.24 246.892 28.24C245.02 28.24 243.556 27.688 242.5 26.584C241.444 25.48 240.916 23.952 240.916 22C240.916 20.048 241.444 18.52 242.5 17.416C243.556 16.312 245.02 15.76 246.892 15.76ZM246.892 17.776C245.804 17.776 244.964 18.144 244.372 18.88C243.796 19.6 243.508 20.64 243.508 22C243.508 23.36 243.796 24.408 244.372 25.144C244.964 25.864 245.804 26.224 246.892 26.224C247.98 26.224 248.82 25.856 249.412 25.12C250.004 24.384 250.3 23.344 250.3 22C250.3 20.656 250.004 19.616 249.412 18.88C248.82 18.144 247.98 17.776 246.892 17.776ZM259.89 16H263.778V18.016H259.962V28H257.394V18.016H255.138V16H257.394V14.272C257.394 13.056 257.762 12.112 258.498 11.44C259.234 10.768 260.266 10.432 261.594 10.432C262.074 10.432 262.514 10.488 262.914 10.6C263.314 10.696 263.626 10.832 263.85 11.008L263.37 12.88C263.002 12.64 262.546 12.52 262.002 12.52C260.594 12.52 259.89 13.168 259.89 14.464V16ZM284.931 16V28H282.651L282.555 26.056C281.739 27.512 280.315 28.24 278.283 28.24C276.987 28.24 275.939 27.888 275.139 27.184C274.355 26.464 273.963 25.368 273.963 23.896V16H276.531V23.224C276.531 24.28 276.739 25.032 277.155 25.48C277.571 25.912 278.187 26.128 279.003 26.128C279.979 26.128 280.779 25.824 281.403 25.216C282.043 24.592 282.363 23.68 282.363 22.48V16H284.931ZM293.743 28.24C292.527 28.24 291.447 28.032 290.503 27.616C289.575 27.2 288.871 26.568 288.391 25.72L290.119 24.232C290.423 24.92 290.895 25.424 291.535 25.744C292.175 26.064 292.943 26.224 293.839 26.224C294.655 26.224 295.287 26.096 295.735 25.84C296.183 25.568 296.407 25.216 296.407 24.784C296.407 24.4 296.199 24.096 295.783 23.872C295.367 23.632 294.647 23.408 293.623 23.2C291.847 22.864 290.599 22.416 289.879 21.856C289.159 21.296 288.799 20.504 288.799 19.48C288.799 18.824 288.999 18.216 289.399 17.656C289.799 17.08 290.375 16.624 291.127 16.288C291.895 15.936 292.799 15.76 293.839 15.76C295.167 15.76 296.231 15.984 297.031 16.432C297.831 16.864 298.447 17.544 298.879 18.472L297.055 19.816C296.767 19.112 296.359 18.6 295.831 18.28C295.319 17.944 294.663 17.776 293.863 17.776C293.143 17.776 292.543 17.928 292.063 18.232C291.599 18.52 291.367 18.856 291.367 19.24C291.367 19.672 291.575 20.016 291.991 20.272C292.423 20.528 293.199 20.76 294.319 20.968C296.015 21.272 297.215 21.704 297.919 22.264C298.623 22.824 298.975 23.608 298.975 24.616C298.975 25.688 298.511 26.56 297.583 27.232C296.655 27.904 295.375 28.24 293.743 28.24ZM313.287 21.64C313.287 22.104 313.255 22.544 313.191 22.96H304.407C304.551 24.016 304.927 24.824 305.535 25.384C306.143 25.928 306.927 26.2 307.887 26.2C308.671 26.2 309.319 26.064 309.831 25.792C310.359 25.504 310.719 25.096 310.911 24.568L313.047 25.456C312.151 27.312 310.431 28.24 307.887 28.24C305.999 28.24 304.519 27.688 303.447 26.584C302.391 25.48 301.863 23.952 301.863 22C301.863 20.032 302.375 18.504 303.399 17.416C304.423 16.312 305.863 15.76 307.719 15.76C309.479 15.76 310.847 16.296 311.823 17.368C312.799 18.44 313.287 19.864 313.287 21.64ZM307.719 17.8C306.791 17.8 306.039 18.072 305.463 18.616C304.903 19.16 304.551 19.952 304.407 20.992H310.887C310.759 19.984 310.415 19.2 309.855 18.64C309.311 18.08 308.599 17.8 307.719 17.8ZM323.176 15.76C323.736 15.76 324.176 15.84 324.496 16L324.088 18.352C323.72 18.144 323.216 18.04 322.576 18.04C322.064 18.04 321.576 18.176 321.112 18.448C320.664 18.72 320.288 19.128 319.984 19.672C319.696 20.216 319.552 20.872 319.552 21.64V28H316.984V16H319.168L319.384 18.16C320.056 16.56 321.32 15.76 323.176 15.76ZM331.347 28.24C330.131 28.24 329.051 28.032 328.107 27.616C327.179 27.2 326.475 26.568 325.995 25.72L327.723 24.232C328.027 24.92 328.499 25.424 329.139 25.744C329.779 26.064 330.547 26.224 331.443 26.224C332.259 26.224 332.891 26.096 333.339 25.84C333.787 25.568 334.011 25.216 334.011 24.784C334.011 24.4 333.803 24.096 333.387 23.872C332.971 23.632 332.251 23.408 331.227 23.2C329.451 22.864 328.203 22.416 327.483 21.856C326.763 21.296 326.403 20.504 326.403 19.48C326.403 18.824 326.603 18.216 327.003 17.656C327.403 17.08 327.979 16.624 328.731 16.288C329.499 15.936 330.403 15.76 331.443 15.76C332.771 15.76 333.835 15.984 334.635 16.432C335.435 16.864 336.051 17.544 336.483 18.472L334.659 19.816C334.371 19.112 333.963 18.6 333.435 18.28C332.923 17.944 332.267 17.776 331.467 17.776C330.747 17.776 330.147 17.928 329.667 18.232C329.203 18.52 328.971 18.856 328.971 19.24C328.971 19.672 329.179 20.016 329.595 20.272C330.027 20.528 330.803 20.76 331.923 20.968C333.619 21.272 334.819 21.704 335.523 22.264C336.227 22.824 336.579 23.608 336.579 24.616C336.579 25.688 336.115 26.56 335.187 27.232C334.259 27.904 332.979 28.24 331.347 28.24ZM359.343 16V28H357.063L356.967 26.056C356.151 27.512 354.727 28.24 352.695 28.24C351.399 28.24 350.351 27.888 349.551 27.184C348.767 26.464 348.375 25.368 348.375 23.896V16H350.943V23.224C350.943 24.28 351.151 25.032 351.567 25.48C351.983 25.912 352.599 26.128 353.415 26.128C354.391 26.128 355.191 25.824 355.815 25.216C356.455 24.592 356.775 23.68 356.775 22.48V16H359.343ZM368.154 28.24C366.938 28.24 365.858 28.032 364.914 27.616C363.986 27.2 363.282 26.568 362.802 25.72L364.53 24.232C364.834 24.92 365.306 25.424 365.946 25.744C366.586 26.064 367.354 26.224 368.25 26.224C369.066 26.224 369.698 26.096 370.146 25.84C370.594 25.568 370.818 25.216 370.818 24.784C370.818 24.4 370.61 24.096 370.194 23.872C369.778 23.632 369.058 23.408 368.034 23.2C366.258 22.864 365.01 22.416 364.29 21.856C363.57 21.296 363.21 20.504 363.21 19.48C363.21 18.824 363.41 18.216 363.81 17.656C364.21 17.08 364.786 16.624 365.538 16.288C366.306 15.936 367.21 15.76 368.25 15.76C369.578 15.76 370.642 15.984 371.442 16.432C372.242 16.864 372.858 17.544 373.29 18.472L371.466 19.816C371.178 19.112 370.77 18.6 370.242 18.28C369.73 17.944 369.074 17.776 368.274 17.776C367.554 17.776 366.954 17.928 366.474 18.232C366.01 18.52 365.778 18.856 365.778 19.24C365.778 19.672 365.986 20.016 366.402 20.272C366.834 20.528 367.61 20.76 368.73 20.968C370.426 21.272 371.626 21.704 372.33 22.264C373.034 22.824 373.386 23.608 373.386 24.616C373.386 25.688 372.922 26.56 371.994 27.232C371.066 27.904 369.786 28.24 368.154 28.24ZM387.698 21.64C387.698 22.104 387.666 22.544 387.602 22.96H378.818C378.962 24.016 379.338 24.824 379.946 25.384C380.554 25.928 381.338 26.2 382.298 26.2C383.082 26.2 383.73 26.064 384.242 25.792C384.77 25.504 385.13 25.096 385.322 24.568L387.458 25.456C386.562 27.312 384.842 28.24 382.298 28.24C380.41 28.24 378.93 27.688 377.858 26.584C376.802 25.48 376.274 23.952 376.274 22C376.274 20.032 376.786 18.504 377.81 17.416C378.834 16.312 380.274 15.76 382.13 15.76C383.89 15.76 385.258 16.296 386.234 17.368C387.21 18.44 387.698 19.864 387.698 21.64ZM382.13 17.8C381.202 17.8 380.45 18.072 379.874 18.616C379.314 19.16 378.962 19.952 378.818 20.992H385.298C385.17 19.984 384.826 19.2 384.266 18.64C383.722 18.08 383.01 17.8 382.13 17.8ZM397.587 15.76C398.147 15.76 398.587 15.84 398.907 16L398.499 18.352C398.131 18.144 397.627 18.04 396.987 18.04C396.475 18.04 395.987 18.176 395.523 18.448C395.075 18.72 394.699 19.128 394.395 19.672C394.107 20.216 393.963 20.872 393.963 21.64V28H391.395V16H393.579L393.795 18.16C394.467 16.56 395.731 15.76 397.587 15.76ZM206.36 54.32C206.712 54.32 207.008 54.288 207.248 54.224L207.08 55.952C206.648 56.144 206.152 56.24 205.592 56.24C204.904 56.24 204.352 56.104 203.936 55.832C203.536 55.56 203.272 55.104 203.144 54.464C202.776 55.024 202.232 55.464 201.512 55.784C200.792 56.088 199.984 56.24 199.088 56.24C197.92 56.24 196.976 55.968 196.256 55.424C195.536 54.88 195.176 54.104 195.176 53.096C195.176 52.152 195.568 51.36 196.352 50.72C197.136 50.064 198.304 49.6 199.856 49.328L202.904 48.8V48.152C202.904 47.416 202.688 46.84 202.256 46.424C201.824 45.992 201.224 45.776 200.456 45.776C198.872 45.776 197.84 46.496 197.36 47.936L195.368 46.88C195.656 45.92 196.24 45.16 197.12 44.6C198.016 44.04 199.112 43.76 200.408 43.76C201.96 43.76 203.192 44.12 204.104 44.84C205.016 45.56 205.472 46.616 205.472 48.008V53.432C205.472 53.736 205.536 53.96 205.664 54.104C205.808 54.248 206.04 54.32 206.36 54.32ZM199.64 54.296C200.504 54.296 201.264 54.088 201.92 53.672C202.576 53.256 202.904 52.704 202.904 52.016V50.576L200.288 51.104C199.456 51.264 198.84 51.488 198.44 51.776C198.04 52.064 197.84 52.448 197.84 52.928C197.84 53.376 197.992 53.72 198.296 53.96C198.616 54.184 199.064 54.296 199.64 54.296ZM216.616 43.76C217.944 43.76 219.024 44.144 219.855 44.912C220.704 45.68 221.128 46.784 221.128 48.224V56H218.56V49.04C218.56 46.928 217.704 45.872 215.991 45.872C215.095 45.872 214.327 46.184 213.687 46.808C213.047 47.416 212.727 48.36 212.727 49.64V56H210.159V44H212.439L212.559 45.992C212.959 45.24 213.511 44.68 214.215 44.312C214.919 43.944 215.719 43.76 216.616 43.76ZM230.668 57.416C230.14 58.792 229.54 59.76 228.868 60.32C228.196 60.88 227.316 61.16 226.228 61.16C225.604 61.16 225.06 61.08 224.596 60.92C224.148 60.776 223.748 60.536 223.396 60.2L224.14 58.232C224.62 58.808 225.276 59.096 226.108 59.096C226.588 59.096 226.988 58.968 227.308 58.712C227.644 58.472 227.94 58.024 228.196 57.368L228.724 56.072L227.476 53.096L223.732 44H226.612L229.252 51.536L229.948 53.792L230.764 51.32L233.26 44H235.924L230.668 57.416ZM251.348 50.36L248.972 52.808V56H246.404V38.6H248.972V49.88L254.708 44H257.732L253.148 48.704L258.02 56H255.044L251.348 50.36ZM262.172 41.984C261.628 41.984 261.204 41.848 260.9 41.576C260.596 41.288 260.444 40.888 260.444 40.376C260.444 39.864 260.596 39.472 260.9 39.2C261.204 38.928 261.628 38.792 262.172 38.792C262.716 38.792 263.132 38.928 263.42 39.2C263.724 39.472 263.876 39.864 263.876 40.376C263.876 40.888 263.724 41.288 263.42 41.576C263.132 41.848 262.716 41.984 262.172 41.984ZM263.444 56H260.876V44H263.444V56ZM274.398 43.76C275.726 43.76 276.806 44.144 277.638 44.912C278.486 45.68 278.91 46.784 278.91 48.224V56H276.342V49.04C276.342 46.928 275.486 45.872 273.774 45.872C272.878 45.872 272.11 46.184 271.47 46.808C270.83 47.416 270.51 48.36 270.51 49.64V56H267.942V44H270.222L270.342 45.992C270.742 45.24 271.294 44.68 271.998 44.312C272.702 43.944 273.502 43.76 274.398 43.76ZM294.394 38.6V56H292.138L291.994 53.864C291.642 54.584 291.106 55.16 290.386 55.592C289.682 56.024 288.874 56.24 287.962 56.24C286.314 56.24 285.01 55.696 284.05 54.608C283.106 53.504 282.634 51.976 282.634 50.024C282.634 48.072 283.106 46.544 284.05 45.44C285.01 44.32 286.314 43.76 287.962 43.76C288.842 43.76 289.618 43.96 290.29 44.36C290.962 44.744 291.474 45.272 291.826 45.944V38.6H294.394ZM288.538 54.176C289.546 54.176 290.346 53.816 290.938 53.096C291.53 52.376 291.826 51.392 291.826 50.144V49.856C291.826 48.608 291.53 47.632 290.938 46.928C290.346 46.208 289.546 45.848 288.538 45.848C287.498 45.848 286.682 46.216 286.09 46.952C285.514 47.672 285.226 48.688 285.226 50C285.226 51.312 285.514 52.336 286.09 53.072C286.682 53.808 287.498 54.176 288.538 54.176ZM312.42 43.76C314.292 43.76 315.756 44.312 316.812 45.416C317.868 46.52 318.396 48.048 318.396 50C318.396 51.952 317.868 53.48 316.812 54.584C315.756 55.688 314.292 56.24 312.42 56.24C310.548 56.24 309.084 55.688 308.028 54.584C306.972 53.48 306.444 51.952 306.444 50C306.444 48.048 306.972 46.52 308.028 45.416C309.084 44.312 310.548 43.76 312.42 43.76ZM312.42 45.776C311.332 45.776 310.492 46.144 309.9 46.88C309.324 47.6 309.036 48.64 309.036 50C309.036 51.36 309.324 52.408 309.9 53.144C310.492 53.864 311.332 54.224 312.42 54.224C313.508 54.224 314.348 53.856 314.94 53.12C315.532 52.384 315.828 51.344 315.828 50C315.828 48.656 315.532 47.616 314.94 46.88C314.348 46.144 313.508 45.776 312.42 45.776ZM325.419 44H329.307V46.016H325.491V56H322.923V46.016H320.667V44H322.923V42.272C322.923 41.056 323.291 40.112 324.027 39.44C324.763 38.768 325.795 38.432 327.123 38.432C327.603 38.432 328.043 38.488 328.443 38.6C328.843 38.696 329.155 38.832 329.379 39.008L328.899 40.88C328.531 40.64 328.075 40.52 327.531 40.52C326.123 40.52 325.419 41.168 325.419 42.464V44ZM346.989 55.208C346.605 55.528 346.133 55.784 345.573 55.976C345.029 56.152 344.437 56.24 343.797 56.24C342.693 56.24 341.805 55.968 341.133 55.424C340.477 54.864 340.141 54 340.125 52.832V46.016H337.845V44H340.125V41.192L342.693 40.472V44H346.893V46.016H342.693V52.4C342.693 52.976 342.845 53.408 343.149 53.696C343.469 53.968 343.901 54.104 344.445 54.104C345.181 54.104 345.829 53.848 346.389 53.336L346.989 55.208ZM360.593 49.64C360.593 50.104 360.561 50.544 360.497 50.96H351.713C351.857 52.016 352.233 52.824 352.841 53.384C353.449 53.928 354.233 54.2 355.193 54.2C355.977 54.2 356.625 54.064 357.137 53.792C357.665 53.504 358.025 53.096 358.217 52.568L360.353 53.456C359.457 55.312 357.737 56.24 355.193 56.24C353.305 56.24 351.825 55.688 350.753 54.584C349.697 53.48 349.169 51.952 349.169 50C349.169 48.032 349.681 46.504 350.705 45.416C351.729 44.312 353.169 43.76 355.025 43.76C356.785 43.76 358.153 44.296 359.129 45.368C360.105 46.44 360.593 47.864 360.593 49.64ZM355.025 45.8C354.097 45.8 353.345 46.072 352.769 46.616C352.209 47.16 351.857 47.952 351.713 48.992H358.193C358.065 47.984 357.721 47.2 357.161 46.64C356.617 46.08 355.905 45.8 355.025 45.8ZM369.57 43.76C372.194 43.76 373.93 44.88 374.778 47.12L372.378 48.08C371.962 46.56 371.026 45.8 369.57 45.8C368.498 45.8 367.666 46.168 367.074 46.904C366.482 47.64 366.186 48.68 366.186 50.024C366.186 51.368 366.482 52.4 367.074 53.12C367.666 53.84 368.498 54.2 369.57 54.2C370.386 54.2 371.042 54 371.538 53.6C372.034 53.2 372.362 52.624 372.522 51.872L374.874 52.664C374.522 53.784 373.898 54.664 373.002 55.304C372.106 55.928 370.978 56.24 369.618 56.24C367.73 56.24 366.25 55.688 365.178 54.584C364.122 53.48 363.594 51.952 363.594 50C363.594 48.048 364.122 46.52 365.178 45.416C366.234 44.312 367.698 43.76 369.57 43.76ZM384.82 43.76C386.148 43.76 387.228 44.144 388.06 44.912C388.908 45.68 389.332 46.784 389.332 48.224V56H386.764V49.04C386.764 46.928 385.908 45.872 384.196 45.872C383.3 45.872 382.532 46.184 381.892 46.808C381.252 47.432 380.932 48.384 380.932 49.664V56H378.364V38.6H380.932V45.92C381.332 45.184 381.86 44.64 382.516 44.288C383.188 43.936 383.956 43.76 384.82 43.76ZM409.389 55.208C409.005 55.528 408.533 55.784 407.973 55.976C407.429 56.152 406.837 56.24 406.197 56.24C405.093 56.24 404.205 55.968 403.533 55.424C402.877 54.864 402.541 54 402.525 52.832V46.016H400.245V44H402.525V41.192L405.093 40.472V44H409.293V46.016H405.093V52.4C405.093 52.976 405.245 53.408 405.549 53.696C405.869 53.968 406.301 54.104 406.845 54.104C407.581 54.104 408.229 53.848 408.789 53.336L409.389 55.208ZM417.545 43.76C419.417 43.76 420.881 44.312 421.937 45.416C422.993 46.52 423.521 48.048 423.521 50C423.521 51.952 422.993 53.48 421.937 54.584C420.881 55.688 419.417 56.24 417.545 56.24C415.673 56.24 414.209 55.688 413.153 54.584C412.097 53.48 411.569 51.952 411.569 50C411.569 48.048 412.097 46.52 413.153 45.416C414.209 44.312 415.673 43.76 417.545 43.76ZM417.545 45.776C416.457 45.776 415.617 46.144 415.025 46.88C414.449 47.6 414.161 48.64 414.161 50C414.161 51.36 414.449 52.408 415.025 53.144C415.617 53.864 416.457 54.224 417.545 54.224C418.633 54.224 419.473 53.856 420.065 53.12C420.657 52.384 420.953 51.344 420.953 50C420.953 48.656 420.657 47.616 420.065 46.88C419.473 46.144 418.633 45.776 417.545 45.776ZM203.768 83.208C203.384 83.528 202.912 83.784 202.352 83.976C201.808 84.152 201.216 84.24 200.576 84.24C199.472 84.24 198.584 83.968 197.912 83.424C197.256 82.864 196.92 82 196.904 80.832V74.016H194.624V72H196.904V69.192L199.472 68.472V72H203.672V74.016H199.472V80.4C199.472 80.976 199.624 81.408 199.928 81.696C200.248 81.968 200.68 82.104 201.224 82.104C201.96 82.104 202.608 81.848 203.168 81.336L203.768 83.208ZM212.836 71.76C213.396 71.76 213.836 71.84 214.156 72L213.748 74.352C213.38 74.144 212.876 74.04 212.236 74.04C211.724 74.04 211.236 74.176 210.772 74.448C210.324 74.72 209.948 75.128 209.644 75.672C209.356 76.216 209.212 76.872 209.212 77.64V84H206.644V72H208.828L209.044 74.16C209.716 72.56 210.98 71.76 212.836 71.76ZM227.172 82.32C227.524 82.32 227.82 82.288 228.06 82.224L227.892 83.952C227.46 84.144 226.964 84.24 226.404 84.24C225.716 84.24 225.164 84.104 224.748 83.832C224.348 83.56 224.084 83.104 223.956 82.464C223.588 83.024 223.044 83.464 222.324 83.784C221.604 84.088 220.796 84.24 219.9 84.24C218.732 84.24 217.788 83.968 217.068 83.424C216.348 82.88 215.988 82.104 215.988 81.096C215.988 80.152 216.38 79.36 217.164 78.72C217.948 78.064 219.116 77.6 220.668 77.328L223.716 76.8V76.152C223.716 75.416 223.5 74.84 223.068 74.424C222.636 73.992 222.036 73.776 221.268 73.776C219.684 73.776 218.652 74.496 218.172 75.936L216.18 74.88C216.468 73.92 217.052 73.16 217.932 72.6C218.828 72.04 219.924 71.76 221.22 71.76C222.772 71.76 224.004 72.12 224.916 72.84C225.828 73.56 226.284 74.616 226.284 76.008V81.432C226.284 81.736 226.348 81.96 226.476 82.104C226.62 82.248 226.852 82.32 227.172 82.32ZM220.452 82.296C221.316 82.296 222.076 82.088 222.732 81.672C223.388 81.256 223.716 80.704 223.716 80.016V78.576L221.1 79.104C220.268 79.264 219.652 79.488 219.252 79.776C218.852 80.064 218.652 80.448 218.652 80.928C218.652 81.376 218.804 81.72 219.108 81.96C219.428 82.184 219.876 82.296 220.452 82.296ZM236.228 71.76C238.852 71.76 240.588 72.88 241.436 75.12L239.036 76.08C238.62 74.56 237.684 73.8 236.228 73.8C235.156 73.8 234.324 74.168 233.732 74.904C233.14 75.64 232.844 76.68 232.844 78.024C232.844 79.368 233.14 80.4 233.732 81.12C234.324 81.84 235.156 82.2 236.228 82.2C237.044 82.2 237.7 82 238.196 81.6C238.692 81.2 239.02 80.624 239.18 79.872L241.532 80.664C241.18 81.784 240.556 82.664 239.66 83.304C238.764 83.928 237.636 84.24 236.276 84.24C234.388 84.24 232.908 83.688 231.836 82.584C230.78 81.48 230.252 79.952 230.252 78C230.252 76.048 230.78 74.52 231.836 73.416C232.892 72.312 234.356 71.76 236.228 71.76ZM249.965 78.36L247.589 80.808V84H245.021V66.6H247.589V77.88L253.325 72H256.349L251.765 76.704L256.637 84H253.661L249.965 78.36ZM272.589 71.76C274.461 71.76 275.925 72.312 276.981 73.416C278.037 74.52 278.565 76.048 278.565 78C278.565 79.952 278.037 81.48 276.981 82.584C275.925 83.688 274.461 84.24 272.589 84.24C270.717 84.24 269.253 83.688 268.197 82.584C267.141 81.48 266.613 79.952 266.613 78C266.613 76.048 267.141 74.52 268.197 73.416C269.253 72.312 270.717 71.76 272.589 71.76ZM272.589 73.776C271.501 73.776 270.661 74.144 270.069 74.88C269.493 75.6 269.205 76.64 269.205 78C269.205 79.36 269.493 80.408 270.069 81.144C270.661 81.864 271.501 82.224 272.589 82.224C273.677 82.224 274.517 81.856 275.109 81.12C275.701 80.384 275.997 79.344 275.997 78C275.997 76.656 275.701 75.616 275.109 74.88C274.517 74.144 273.677 73.776 272.589 73.776ZM288.536 71.76C289.096 71.76 289.536 71.84 289.856 72L289.448 74.352C289.08 74.144 288.576 74.04 287.936 74.04C287.424 74.04 286.936 74.176 286.472 74.448C286.024 74.72 285.648 75.128 285.344 75.672C285.056 76.216 284.912 76.872 284.912 77.64V84H282.344V72H284.528L284.744 74.16C285.416 72.56 286.68 71.76 288.536 71.76ZM315.003 71.76C315.803 71.76 316.539 71.928 317.211 72.264C317.883 72.584 318.419 73.08 318.819 73.752C319.219 74.424 319.419 75.248 319.419 76.224V84H316.851V76.632C316.851 75.688 316.627 74.992 316.179 74.544C315.731 74.096 315.131 73.872 314.379 73.872C313.499 73.872 312.755 74.192 312.147 74.832C311.555 75.472 311.259 76.352 311.259 77.472V84H308.691V76.632C308.691 75.688 308.467 74.992 308.019 74.544C307.571 74.096 306.971 73.872 306.219 73.872C305.707 73.872 305.211 74.008 304.731 74.28C304.251 74.536 303.859 74.944 303.555 75.504C303.251 76.064 303.099 76.768 303.099 77.616V84H300.531V72H302.811L302.931 73.992C303.331 73.256 303.875 72.704 304.563 72.336C305.251 71.952 306.003 71.76 306.819 71.76C307.715 71.76 308.523 71.968 309.243 72.384C309.979 72.784 310.523 73.376 310.875 74.16C311.243 73.376 311.803 72.784 312.555 72.384C313.323 71.968 314.139 71.76 315.003 71.76ZM329.072 71.76C330.944 71.76 332.408 72.312 333.464 73.416C334.52 74.52 335.048 76.048 335.048 78C335.048 79.952 334.52 81.48 333.464 82.584C332.408 83.688 330.944 84.24 329.072 84.24C327.2 84.24 325.736 83.688 324.68 82.584C323.624 81.48 323.096 79.952 323.096 78C323.096 76.048 323.624 74.52 324.68 73.416C325.736 72.312 327.2 71.76 329.072 71.76ZM329.072 73.776C327.984 73.776 327.144 74.144 326.552 74.88C325.976 75.6 325.688 76.64 325.688 78C325.688 79.36 325.976 80.408 326.552 81.144C327.144 81.864 327.984 82.224 329.072 82.224C330.16 82.224 331 81.856 331.592 81.12C332.184 80.384 332.48 79.344 332.48 78C332.48 76.656 332.184 75.616 331.592 74.88C331 74.144 330.16 73.776 329.072 73.776ZM345.283 71.76C346.611 71.76 347.691 72.144 348.523 72.912C349.371 73.68 349.795 74.784 349.795 76.224V84H347.227V77.04C347.227 74.928 346.371 73.872 344.659 73.872C343.763 73.872 342.995 74.184 342.355 74.808C341.715 75.416 341.395 76.36 341.395 77.64V84H338.827V72H341.107L341.227 73.992C341.627 73.24 342.179 72.68 342.883 72.312C343.587 71.944 344.387 71.76 345.283 71.76ZM355.462 69.984C354.918 69.984 354.494 69.848 354.19 69.576C353.886 69.288 353.734 68.888 353.734 68.376C353.734 67.864 353.886 67.472 354.19 67.2C354.494 66.928 354.918 66.792 355.462 66.792C356.006 66.792 356.422 66.928 356.71 67.2C357.014 67.472 357.166 67.864 357.166 68.376C357.166 68.888 357.014 69.288 356.71 69.576C356.422 69.848 356.006 69.984 355.462 69.984ZM356.734 84H354.166V72H356.734V84ZM369.008 83.208C368.624 83.528 368.152 83.784 367.592 83.976C367.048 84.152 366.456 84.24 365.816 84.24C364.712 84.24 363.824 83.968 363.152 83.424C362.496 82.864 362.16 82 362.144 80.832V74.016H359.864V72H362.144V69.192L364.712 68.472V72H368.912V74.016H364.712V80.4C364.712 80.976 364.864 81.408 365.168 81.696C365.488 81.968 365.92 82.104 366.464 82.104C367.2 82.104 367.848 81.848 368.408 81.336L369.008 83.208ZM377.164 71.76C379.036 71.76 380.5 72.312 381.556 73.416C382.612 74.52 383.14 76.048 383.14 78C383.14 79.952 382.612 81.48 381.556 82.584C380.5 83.688 379.036 84.24 377.164 84.24C375.292 84.24 373.828 83.688 372.772 82.584C371.716 81.48 371.188 79.952 371.188 78C371.188 76.048 371.716 74.52 372.772 73.416C373.828 72.312 375.292 71.76 377.164 71.76ZM377.164 73.776C376.076 73.776 375.236 74.144 374.644 74.88C374.068 75.6 373.78 76.64 373.78 78C373.78 79.36 374.068 80.408 374.644 81.144C375.236 81.864 376.076 82.224 377.164 82.224C378.252 82.224 379.092 81.856 379.684 81.12C380.276 80.384 380.572 79.344 380.572 78C380.572 76.656 380.276 75.616 379.684 74.88C379.092 74.144 378.252 73.776 377.164 73.776ZM393.111 71.76C393.671 71.76 394.111 71.84 394.431 72L394.023 74.352C393.655 74.144 393.151 74.04 392.511 74.04C391.999 74.04 391.511 74.176 391.047 74.448C390.599 74.72 390.223 75.128 389.919 75.672C389.631 76.216 389.487 76.872 389.487 77.64V84H386.919V72H389.103L389.319 74.16C389.991 72.56 391.255 71.76 393.111 71.76ZM203.768 111.208C203.384 111.528 202.912 111.784 202.352 111.976C201.808 112.152 201.216 112.24 200.576 112.24C199.472 112.24 198.584 111.968 197.912 111.424C197.256 110.864 196.92 110 196.904 108.832V102.016H194.624V100H196.904V97.192L199.472 96.472V100H203.672V102.016H199.472V108.4C199.472 108.976 199.624 109.408 199.928 109.696C200.248 109.968 200.68 110.104 201.224 110.104C201.96 110.104 202.608 109.848 203.168 109.336L203.768 111.208ZM213.194 99.76C214.522 99.76 215.602 100.144 216.434 100.912C217.282 101.68 217.706 102.784 217.706 104.224V112H215.138V105.04C215.138 102.928 214.282 101.872 212.57 101.872C211.674 101.872 210.906 102.184 210.266 102.808C209.626 103.432 209.306 104.384 209.306 105.664V112H206.738V94.6H209.306V101.92C209.706 101.184 210.234 100.64 210.89 100.288C211.562 99.936 212.33 99.76 213.194 99.76ZM232.805 105.64C232.805 106.104 232.773 106.544 232.709 106.96H223.925C224.069 108.016 224.445 108.824 225.053 109.384C225.661 109.928 226.445 110.2 227.405 110.2C228.189 110.2 228.837 110.064 229.349 109.792C229.877 109.504 230.237 109.096 230.429 108.568L232.565 109.456C231.669 111.312 229.949 112.24 227.405 112.24C225.517 112.24 224.037 111.688 222.965 110.584C221.909 109.48 221.381 107.952 221.381 106C221.381 104.032 221.893 102.504 222.917 101.416C223.941 100.312 225.381 99.76 227.237 99.76C228.997 99.76 230.365 100.296 231.341 101.368C232.317 102.44 232.805 103.864 232.805 105.64ZM227.237 101.8C226.309 101.8 225.557 102.072 224.981 102.616C224.421 103.16 224.069 103.952 223.925 104.992H230.405C230.277 103.984 229.933 103.2 229.373 102.64C228.829 102.08 228.117 101.8 227.237 101.8ZM237.798 97.984C237.254 97.984 236.83 97.848 236.526 97.576C236.222 97.288 236.07 96.888 236.07 96.376C236.07 95.864 236.222 95.472 236.526 95.2C236.83 94.928 237.254 94.792 237.798 94.792C238.342 94.792 238.758 94.928 239.046 95.2C239.35 95.472 239.502 95.864 239.502 96.376C239.502 96.888 239.35 97.288 239.046 97.576C238.758 97.848 238.342 97.984 237.798 97.984ZM239.07 112H236.502V100H239.07V112ZM249.76 99.76C250.32 99.76 250.76 99.84 251.08 100L250.672 102.352C250.304 102.144 249.8 102.04 249.16 102.04C248.648 102.04 248.16 102.176 247.696 102.448C247.248 102.72 246.872 103.128 246.568 103.672C246.28 104.216 246.136 104.872 246.136 105.64V112H243.568V100H245.752L245.968 102.16C246.64 100.56 247.904 99.76 249.76 99.76ZM268.211 99.76C269.859 99.76 271.155 100.312 272.099 101.416C273.043 102.504 273.515 104.024 273.515 105.976C273.515 107.928 273.043 109.464 272.099 110.584C271.155 111.688 269.859 112.24 268.211 112.24C267.347 112.24 266.571 112.048 265.883 111.664C265.211 111.28 264.691 110.752 264.323 110.08V117.04H261.755V100H264.011L264.131 102.232C264.483 101.48 265.011 100.88 265.715 100.432C266.435 99.984 267.267 99.76 268.211 99.76ZM267.635 110.152C268.675 110.152 269.483 109.792 270.059 109.072C270.651 108.336 270.947 107.312 270.947 106C270.947 104.688 270.651 103.664 270.059 102.928C269.483 102.192 268.675 101.824 267.635 101.824C266.659 101.824 265.875 102.152 265.283 102.808C264.707 103.464 264.387 104.376 264.323 105.544V106.456C264.387 107.608 264.707 108.512 265.283 109.168C265.875 109.824 266.659 110.152 267.635 110.152ZM288.057 105.64C288.057 106.104 288.025 106.544 287.961 106.96H279.177C279.321 108.016 279.697 108.824 280.305 109.384C280.913 109.928 281.697 110.2 282.657 110.2C283.441 110.2 284.089 110.064 284.601 109.792C285.129 109.504 285.489 109.096 285.681 108.568L287.817 109.456C286.921 111.312 285.201 112.24 282.657 112.24C280.769 112.24 279.289 111.688 278.217 110.584C277.161 109.48 276.633 107.952 276.633 106C276.633 104.032 277.145 102.504 278.169 101.416C279.193 100.312 280.633 99.76 282.489 99.76C284.249 99.76 285.617 100.296 286.593 101.368C287.569 102.44 288.057 103.864 288.057 105.64ZM282.489 101.8C281.561 101.8 280.809 102.072 280.233 102.616C279.673 103.16 279.321 103.952 279.177 104.992H285.657C285.529 103.984 285.185 103.2 284.625 102.64C284.081 102.08 283.369 101.8 282.489 101.8ZM299.249 111.208C298.865 111.528 298.393 111.784 297.833 111.976C297.289 112.152 296.697 112.24 296.057 112.24C294.953 112.24 294.065 111.968 293.393 111.424C292.737 110.864 292.401 110 292.385 108.832V102.016H290.105V100H292.385V97.192L294.953 96.472V100H299.153V102.016H294.953V108.4C294.953 108.976 295.105 109.408 295.409 109.696C295.729 109.968 296.161 110.104 296.705 110.104C297.441 110.104 298.089 109.848 298.649 109.336L299.249 111.208ZM303.42 95.272C304.06 95.272 304.556 95.512 304.909 95.992C305.277 96.456 305.461 97.064 305.461 97.816C305.461 98.728 305.22 99.568 304.74 100.336C304.276 101.088 303.572 101.68 302.628 102.112L301.38 101.08C302.036 100.84 302.588 100.504 303.036 100.072C303.484 99.624 303.78 99.136 303.924 98.608L303.829 98.536C303.668 98.664 303.436 98.728 303.132 98.728C302.732 98.728 302.372 98.584 302.052 98.296C301.748 98.008 301.596 97.6 301.596 97.072C301.596 96.56 301.772 96.136 302.124 95.8C302.476 95.448 302.908 95.272 303.42 95.272ZM312.245 112.24C311.029 112.24 309.949 112.032 309.005 111.616C308.077 111.2 307.373 110.568 306.893 109.72L308.621 108.232C308.925 108.92 309.397 109.424 310.037 109.744C310.677 110.064 311.445 110.224 312.341 110.224C313.157 110.224 313.789 110.096 314.237 109.84C314.685 109.568 314.909 109.216 314.909 108.784C314.909 108.4 314.701 108.096 314.285 107.872C313.869 107.632 313.149 107.408 312.125 107.2C310.349 106.864 309.101 106.416 308.381 105.856C307.661 105.296 307.301 104.504 307.301 103.48C307.301 102.824 307.501 102.216 307.901 101.656C308.301 101.08 308.877 100.624 309.629 100.288C310.397 99.936 311.301 99.76 312.341 99.76C313.669 99.76 314.733 99.984 315.533 100.432C316.333 100.864 316.949 101.544 317.381 102.472L315.557 103.816C315.269 103.112 314.861 102.6 314.333 102.28C313.821 101.944 313.165 101.776 312.365 101.776C311.645 101.776 311.045 101.928 310.565 102.232C310.101 102.52 309.869 102.856 309.869 103.24C309.869 103.672 310.077 104.016 310.493 104.272C310.925 104.528 311.701 104.76 312.821 104.968C314.517 105.272 315.717 105.704 316.421 106.264C317.125 106.824 317.477 107.608 317.477 108.616C317.477 109.688 317.013 110.56 316.085 111.232C315.157 111.904 313.877 112.24 312.245 112.24ZM335.825 99.76C337.153 99.76 338.233 100.144 339.065 100.912C339.913 101.68 340.337 102.784 340.337 104.224V112H337.769V105.04C337.769 102.928 336.913 101.872 335.201 101.872C334.305 101.872 333.537 102.184 332.897 102.808C332.257 103.432 331.937 104.384 331.937 105.664V112H329.369V94.6H331.937V101.92C332.337 101.184 332.865 100.64 333.521 100.288C334.193 99.936 334.961 99.76 335.825 99.76ZM355.437 105.64C355.437 106.104 355.405 106.544 355.341 106.96H346.557C346.701 108.016 347.077 108.824 347.685 109.384C348.293 109.928 349.077 110.2 350.037 110.2C350.821 110.2 351.469 110.064 351.981 109.792C352.509 109.504 352.869 109.096 353.061 108.568L355.197 109.456C354.301 111.312 352.581 112.24 350.037 112.24C348.149 112.24 346.669 111.688 345.597 110.584C344.541 109.48 344.013 107.952 344.013 106C344.013 104.032 344.525 102.504 345.549 101.416C346.573 100.312 348.013 99.76 349.869 99.76C351.629 99.76 352.997 100.296 353.973 101.368C354.949 102.44 355.437 103.864 355.437 105.64ZM349.869 101.8C348.941 101.8 348.189 102.072 347.613 102.616C347.053 103.16 346.701 103.952 346.557 104.992H353.037C352.909 103.984 352.565 103.2 352.005 102.64C351.461 102.08 350.749 101.8 349.869 101.8ZM369.502 110.32C369.854 110.32 370.15 110.288 370.39 110.224L370.222 111.952C369.79 112.144 369.294 112.24 368.734 112.24C368.046 112.24 367.494 112.104 367.078 111.832C366.678 111.56 366.414 111.104 366.286 110.464C365.918 111.024 365.374 111.464 364.654 111.784C363.934 112.088 363.126 112.24 362.23 112.24C361.062 112.24 360.118 111.968 359.398 111.424C358.678 110.88 358.318 110.104 358.318 109.096C358.318 108.152 358.71 107.36 359.494 106.72C360.278 106.064 361.446 105.6 362.998 105.328L366.046 104.8V104.152C366.046 103.416 365.83 102.84 365.398 102.424C364.966 101.992 364.366 101.776 363.598 101.776C362.014 101.776 360.982 102.496 360.502 103.936L358.51 102.88C358.798 101.92 359.382 101.16 360.262 100.6C361.158 100.04 362.254 99.76 363.55 99.76C365.102 99.76 366.334 100.12 367.246 100.84C368.158 101.56 368.614 102.616 368.614 104.008V109.432C368.614 109.736 368.678 109.96 368.806 110.104C368.95 110.248 369.182 110.32 369.502 110.32ZM362.782 110.296C363.646 110.296 364.406 110.088 365.062 109.672C365.718 109.256 366.046 108.704 366.046 108.016V106.576L363.43 107.104C362.598 107.264 361.982 107.488 361.582 107.776C361.182 108.064 360.982 108.448 360.982 108.928C360.982 109.376 361.134 109.72 361.438 109.96C361.758 110.184 362.206 110.296 362.782 110.296ZM375.797 108.496C375.797 109.088 375.885 109.504 376.061 109.744C376.237 109.968 376.565 110.08 377.045 110.08C377.349 110.08 377.605 110.064 377.813 110.032C378.037 109.984 378.309 109.896 378.629 109.768L378.341 111.832C377.797 112.104 377.133 112.24 376.349 112.24C375.277 112.24 374.485 111.968 373.973 111.424C373.477 110.88 373.229 110.024 373.229 108.856V94.6H375.797V108.496ZM388.589 111.208C388.205 111.528 387.733 111.784 387.173 111.976C386.629 112.152 386.037 112.24 385.397 112.24C384.293 112.24 383.405 111.968 382.733 111.424C382.077 110.864 381.741 110 381.725 108.832V102.016H379.445V100H381.725V97.192L384.293 96.472V100H388.493V102.016H384.293V108.4C384.293 108.976 384.445 109.408 384.749 109.696C385.069 109.968 385.501 110.104 386.045 110.104C386.781 110.104 387.429 109.848 387.989 109.336L388.589 111.208ZM398.014 99.76C399.342 99.76 400.422 100.144 401.254 100.912C402.102 101.68 402.526 102.784 402.526 104.224V112H399.958V105.04C399.958 102.928 399.102 101.872 397.39 101.872C396.494 101.872 395.726 102.184 395.086 102.808C394.446 103.432 394.126 104.384 394.126 105.664V112H391.558V94.6H394.126V101.92C394.526 101.184 395.054 100.64 395.71 100.288C396.382 99.936 397.15 99.76 398.014 99.76Z" fill="#22181C"/>
<path d="M654.512 11.968C656.352 11.968 657.8 12.368 658.856 13.168C659.928 13.952 660.464 15.032 660.464 16.408C660.464 17.224 660.24 17.936 659.792 18.544C659.36 19.136 658.744 19.584 657.944 19.888V19.912C658.92 20.232 659.664 20.72 660.176 21.376C660.704 22.032 660.968 22.84 660.968 23.8C660.968 25.176 660.392 26.264 659.24 27.064C658.104 27.848 656.528 28.24 654.512 28.24C652.528 28.24 650.96 27.848 649.808 27.064C648.656 26.264 648.08 25.176 648.08 23.8C648.08 22.84 648.336 22.032 648.848 21.376C649.376 20.72 650.128 20.232 651.104 19.912V19.888C650.304 19.584 649.68 19.136 649.232 18.544C648.8 17.936 648.584 17.224 648.584 16.408C648.584 15.032 649.112 13.952 650.168 13.168C651.24 12.368 652.688 11.968 654.512 11.968ZM654.512 14.968C653.856 14.968 653.344 15.128 652.976 15.448C652.608 15.768 652.424 16.216 652.424 16.792C652.424 17.352 652.608 17.8 652.976 18.136C653.36 18.456 653.872 18.616 654.512 18.616C655.168 18.616 655.68 18.456 656.048 18.136C656.432 17.8 656.624 17.352 656.624 16.792C656.624 16.216 656.432 15.768 656.048 15.448C655.68 15.128 655.168 14.968 654.512 14.968ZM654.512 25.24C655.28 25.24 655.88 25.064 656.312 24.712C656.744 24.36 656.96 23.88 656.96 23.272C656.96 22.648 656.744 22.168 656.312 21.832C655.88 21.48 655.28 21.304 654.512 21.304C653.76 21.304 653.168 21.48 652.736 21.832C652.304 22.168 652.088 22.648 652.088 23.272C652.088 23.88 652.304 24.36 652.736 24.712C653.168 25.064 653.76 25.24 654.512 25.24ZM675.747 12.16V15.088C673.859 16.912 672.523 18.872 671.739 20.968C670.955 23.064 670.563 25.408 670.563 28H666.483C666.483 25.584 666.899 23.344 667.731 21.28C668.579 19.2 669.907 17.24 671.715 15.4H662.715V12.16H675.747ZM682.113 11.92C683.457 11.92 684.537 12.336 685.353 13.168C686.169 13.984 686.577 15.072 686.577 16.432C686.577 17.792 686.169 18.888 685.353 19.72C684.537 20.536 683.457 20.944 682.113 20.944C680.769 20.944 679.689 20.536 678.873 19.72C678.057 18.888 677.649 17.792 677.649 16.432C677.649 15.072 678.057 13.984 678.873 13.168C679.689 12.336 680.769 11.92 682.113 11.92ZM692.145 12.136H695.265L684.249 28H681.129L692.145 12.136ZM682.113 14.656C681.665 14.656 681.313 14.816 681.057 15.136C680.817 15.44 680.697 15.872 680.697 16.432C680.697 16.992 680.817 17.432 681.057 17.752C681.313 18.056 681.665 18.208 682.113 18.208C682.577 18.208 682.929 18.056 683.169 17.752C683.425 17.432 683.553 16.992 683.553 16.432C683.553 15.872 683.425 15.44 683.169 15.136C682.929 14.816 682.577 14.656 682.113 14.656ZM694.233 19.216C695.577 19.216 696.657 19.632 697.473 20.464C698.289 21.28 698.697 22.368 698.697 23.728C698.697 25.088 698.289 26.184 697.473 27.016C696.657 27.832 695.577 28.24 694.233 28.24C692.889 28.24 691.809 27.832 690.993 27.016C690.177 26.184 689.769 25.088 689.769 23.728C689.769 22.368 690.177 21.28 690.993 20.464C691.809 19.632 692.889 19.216 694.233 19.216ZM694.233 21.952C693.769 21.952 693.409 22.112 693.153 22.432C692.913 22.736 692.793 23.168 692.793 23.728C692.793 24.288 692.913 24.728 693.153 25.048C693.409 25.352 693.769 25.504 694.233 25.504C694.697 25.504 695.049 25.352 695.289 25.048C695.545 24.728 695.673 24.288 695.673 23.728C695.673 23.168 695.545 22.736 695.289 22.432C695.049 22.112 694.697 21.952 694.233 21.952ZM714.551 15.76C716.423 15.76 717.887 16.312 718.943 17.416C719.999 18.52 720.527 20.048 720.527 22C720.527 23.952 719.999 25.48 718.943 26.584C717.887 27.688 716.423 28.24 714.551 28.24C712.679 28.24 711.215 27.688 710.159 26.584C709.103 25.48 708.575 23.952 708.575 22C708.575 20.048 709.103 18.52 710.159 17.416C711.215 16.312 712.679 15.76 714.551 15.76ZM714.551 17.776C713.463 17.776 712.623 18.144 712.031 18.88C711.455 19.6 711.167 20.64 711.167 22C711.167 23.36 711.455 24.408 712.031 25.144C712.623 25.864 713.463 26.224 714.551 26.224C715.639 26.224 716.479 25.856 717.071 25.12C717.663 24.384 717.959 23.344 717.959 22C717.959 20.656 717.663 19.616 717.071 18.88C716.479 18.144 715.639 17.776 714.551 17.776ZM727.55 16H731.438V18.016H727.622V28H725.054V18.016H722.798V16H725.054V14.272C725.054 13.056 725.422 12.112 726.158 11.44C726.894 10.768 727.926 10.432 729.254 10.432C729.734 10.432 730.174 10.488 730.574 10.6C730.974 10.696 731.286 10.832 731.51 11.008L731.03 12.88C730.662 12.64 730.206 12.52 729.662 12.52C728.254 12.52 727.55 13.168 727.55 14.464V16ZM752.591 16V28H750.311L750.215 26.056C749.399 27.512 747.975 28.24 745.943 28.24C744.647 28.24 743.599 27.888 742.799 27.184C742.015 26.464 741.623 25.368 741.623 23.896V16H744.191V23.224C744.191 24.28 744.399 25.032 744.815 25.48C745.231 25.912 745.847 26.128 746.663 26.128C747.639 26.128 748.439 25.824 749.063 25.216C749.703 24.592 750.023 23.68 750.023 22.48V16H752.591ZM761.403 28.24C760.187 28.24 759.107 28.032 758.163 27.616C757.235 27.2 756.531 26.568 756.051 25.72L757.779 24.232C758.083 24.92 758.555 25.424 759.195 25.744C759.835 26.064 760.603 26.224 761.499 26.224C762.315 26.224 762.947 26.096 763.395 25.84C763.843 25.568 764.067 25.216 764.067 24.784C764.067 24.4 763.859 24.096 763.443 23.872C763.027 23.632 762.307 23.408 761.283 23.2C759.507 22.864 758.259 22.416 757.539 21.856C756.819 21.296 756.459 20.504 756.459 19.48C756.459 18.824 756.659 18.216 757.059 17.656C757.459 17.08 758.035 16.624 758.787 16.288C759.555 15.936 760.459 15.76 761.499 15.76C762.827 15.76 763.891 15.984 764.691 16.432C765.491 16.864 766.107 17.544 766.539 18.472L764.715 19.816C764.427 19.112 764.019 18.6 763.491 18.28C762.979 17.944 762.323 17.776 761.523 17.776C760.803 17.776 760.203 17.928 759.723 18.232C759.259 18.52 759.027 18.856 759.027 19.24C759.027 19.672 759.235 20.016 759.651 20.272C760.083 20.528 760.859 20.76 761.979 20.968C763.675 21.272 764.875 21.704 765.579 22.264C766.283 22.824 766.635 23.608 766.635 24.616C766.635 25.688 766.171 26.56 765.243 27.232C764.315 27.904 763.035 28.24 761.403 28.24ZM780.946 21.64C780.946 22.104 780.914 22.544 780.85 22.96H772.066C772.21 24.016 772.586 24.824 773.194 25.384C773.802 25.928 774.586 26.2 775.546 26.2C776.33 26.2 776.978 26.064 777.49 25.792C778.018 25.504 778.378 25.096 778.57 24.568L780.706 25.456C779.81 27.312 778.09 28.24 775.546 28.24C773.658 28.24 772.178 27.688 771.106 26.584C770.05 25.48 769.522 23.952 769.522 22C769.522 20.032 770.034 18.504 771.058 17.416C772.082 16.312 773.522 15.76 775.378 15.76C777.138 15.76 778.506 16.296 779.482 17.368C780.458 18.44 780.946 19.864 780.946 21.64ZM775.378 17.8C774.45 17.8 773.698 18.072 773.122 18.616C772.562 19.16 772.21 19.952 772.066 20.992H778.546C778.418 19.984 778.074 19.2 777.514 18.64C776.97 18.08 776.258 17.8 775.378 17.8ZM790.836 15.76C791.396 15.76 791.836 15.84 792.156 16L791.748 18.352C791.38 18.144 790.876 18.04 790.236 18.04C789.724 18.04 789.236 18.176 788.772 18.448C788.324 18.72 787.948 19.128 787.644 19.672C787.356 20.216 787.212 20.872 787.212 21.64V28H784.644V16H786.828L787.044 18.16C787.716 16.56 788.98 15.76 790.836 15.76ZM799.007 28.24C797.791 28.24 796.711 28.032 795.767 27.616C794.839 27.2 794.135 26.568 793.655 25.72L795.383 24.232C795.687 24.92 796.159 25.424 796.799 25.744C797.439 26.064 798.207 26.224 799.103 26.224C799.919 26.224 800.551 26.096 800.999 25.84C801.447 25.568 801.671 25.216 801.671 24.784C801.671 24.4 801.463 24.096 801.047 23.872C800.631 23.632 799.911 23.408 798.887 23.2C797.111 22.864 795.863 22.416 795.143 21.856C794.423 21.296 794.063 20.504 794.063 19.48C794.063 18.824 794.263 18.216 794.663 17.656C795.063 17.08 795.639 16.624 796.391 16.288C797.159 15.936 798.063 15.76 799.103 15.76C800.431 15.76 801.495 15.984 802.295 16.432C803.095 16.864 803.711 17.544 804.143 18.472L802.319 19.816C802.031 19.112 801.623 18.6 801.095 18.28C800.583 17.944 799.927 17.776 799.127 17.776C798.407 17.776 797.807 17.928 797.327 18.232C796.863 18.52 796.631 18.856 796.631 19.24C796.631 19.672 796.839 20.016 797.255 20.272C797.687 20.528 798.463 20.76 799.583 20.968C801.279 21.272 802.479 21.704 803.183 22.264C803.887 22.824 804.239 23.608 804.239 24.616C804.239 25.688 803.775 26.56 802.847 27.232C801.919 27.904 800.639 28.24 799.007 28.24ZM826.498 26.32C826.85 26.32 827.146 26.288 827.386 26.224L827.218 27.952C826.786 28.144 826.29 28.24 825.73 28.24C825.042 28.24 824.49 28.104 824.074 27.832C823.674 27.56 823.41 27.104 823.282 26.464C822.914 27.024 822.37 27.464 821.65 27.784C820.93 28.088 820.122 28.24 819.226 28.24C818.058 28.24 817.114 27.968 816.394 27.424C815.674 26.88 815.314 26.104 815.314 25.096C815.314 24.152 815.706 23.36 816.49 22.72C817.274 22.064 818.442 21.6 819.994 21.328L823.042 20.8V20.152C823.042 19.416 822.826 18.84 822.394 18.424C821.962 17.992 821.362 17.776 820.594 17.776C819.01 17.776 817.978 18.496 817.498 19.936L815.506 18.88C815.794 17.92 816.378 17.16 817.258 16.6C818.154 16.04 819.25 15.76 820.546 15.76C822.098 15.76 823.33 16.12 824.242 16.84C825.154 17.56 825.61 18.616 825.61 20.008V25.432C825.61 25.736 825.674 25.96 825.802 26.104C825.946 26.248 826.178 26.32 826.498 26.32ZM819.778 26.296C820.642 26.296 821.402 26.088 822.058 25.672C822.714 25.256 823.042 24.704 823.042 24.016V22.576L820.426 23.104C819.594 23.264 818.978 23.488 818.578 23.776C818.178 24.064 817.978 24.448 817.978 24.928C817.978 25.376 818.13 25.72 818.434 25.96C818.754 26.184 819.202 26.296 819.778 26.296ZM836.49 15.76C837.05 15.76 837.49 15.84 837.81 16L837.402 18.352C837.034 18.144 836.53 18.04 835.89 18.04C835.378 18.04 834.89 18.176 834.426 18.448C833.978 18.72 833.602 19.128 833.298 19.672C833.01 20.216 832.866 20.872 832.866 21.64V28H830.298V16H832.482L832.698 18.16C833.37 16.56 834.634 15.76 836.49 15.76ZM851.139 21.64C851.139 22.104 851.107 22.544 851.043 22.96H842.259C842.403 24.016 842.779 24.824 843.387 25.384C843.995 25.928 844.779 26.2 845.739 26.2C846.523 26.2 847.171 26.064 847.683 25.792C848.211 25.504 848.571 25.096 848.763 24.568L850.899 25.456C850.003 27.312 848.283 28.24 845.739 28.24C843.851 28.24 842.371 27.688 841.299 26.584C840.243 25.48 839.715 23.952 839.715 22C839.715 20.032 840.227 18.504 841.251 17.416C842.275 16.312 843.715 15.76 845.571 15.76C847.331 15.76 848.699 16.296 849.675 17.368C850.651 18.44 851.139 19.864 851.139 21.64ZM845.571 17.8C844.643 17.8 843.891 18.072 843.315 18.616C842.755 19.16 842.403 19.952 842.259 20.992H848.739C848.611 19.984 848.267 19.2 847.707 18.64C847.163 18.08 846.451 17.8 845.571 17.8ZM650.288 41.984C649.744 41.984 649.32 41.848 649.016 41.576C648.712 41.288 648.56 40.888 648.56 40.376C648.56 39.864 648.712 39.472 649.016 39.2C649.32 38.928 649.744 38.792 650.288 38.792C650.832 38.792 651.248 38.928 651.536 39.2C651.84 39.472 651.992 39.864 651.992 40.376C651.992 40.888 651.84 41.288 651.536 41.576C651.248 41.848 650.832 41.984 650.288 41.984ZM651.56 56H648.992V44H651.56V56ZM662.514 43.76C663.842 43.76 664.922 44.144 665.754 44.912C666.602 45.68 667.026 46.784 667.026 48.224V56H664.458V49.04C664.458 46.928 663.602 45.872 661.89 45.872C660.994 45.872 660.226 46.184 659.586 46.808C658.946 47.416 658.626 48.36 658.626 49.64V56H656.058V44H658.338L658.458 45.992C658.858 45.24 659.41 44.68 660.114 44.312C660.818 43.944 661.618 43.76 662.514 43.76ZM679.033 55.208C678.649 55.528 678.177 55.784 677.617 55.976C677.073 56.152 676.481 56.24 675.841 56.24C674.737 56.24 673.849 55.968 673.177 55.424C672.521 54.864 672.185 54 672.169 52.832V46.016H669.889V44H672.169V41.192L674.737 40.472V44H678.937V46.016H674.737V52.4C674.737 52.976 674.889 53.408 675.193 53.696C675.513 53.968 675.945 54.104 676.489 54.104C677.225 54.104 677.873 53.848 678.433 53.336L679.033 55.208ZM692.637 49.64C692.637 50.104 692.605 50.544 692.541 50.96H683.757C683.901 52.016 684.277 52.824 684.885 53.384C685.493 53.928 686.277 54.2 687.237 54.2C688.021 54.2 688.669 54.064 689.181 53.792C689.709 53.504 690.069 53.096 690.261 52.568L692.397 53.456C691.501 55.312 689.781 56.24 687.237 56.24C685.349 56.24 683.869 55.688 682.797 54.584C681.741 53.48 681.213 51.952 681.213 50C681.213 48.032 681.725 46.504 682.749 45.416C683.773 44.312 685.213 43.76 687.069 43.76C688.829 43.76 690.197 44.296 691.173 45.368C692.149 46.44 692.637 47.864 692.637 49.64ZM687.069 45.8C686.141 45.8 685.389 46.072 684.813 46.616C684.253 47.16 683.901 47.952 683.757 48.992H690.237C690.109 47.984 689.765 47.2 689.205 46.64C688.661 46.08 687.949 45.8 687.069 45.8ZM702.526 43.76C703.086 43.76 703.526 43.84 703.846 44L703.438 46.352C703.07 46.144 702.566 46.04 701.926 46.04C701.414 46.04 700.926 46.176 700.462 46.448C700.014 46.72 699.638 47.128 699.334 47.672C699.046 48.216 698.902 48.872 698.902 49.64V56H696.334V44H698.518L698.734 46.16C699.406 44.56 700.67 43.76 702.526 43.76ZM717.175 49.64C717.175 50.104 717.143 50.544 717.079 50.96H708.295C708.439 52.016 708.815 52.824 709.423 53.384C710.031 53.928 710.815 54.2 711.775 54.2C712.559 54.2 713.207 54.064 713.719 53.792C714.247 53.504 714.607 53.096 714.799 52.568L716.935 53.456C716.039 55.312 714.319 56.24 711.775 56.24C709.887 56.24 708.407 55.688 707.335 54.584C706.279 53.48 705.751 51.952 705.751 50C705.751 48.032 706.263 46.504 707.287 45.416C708.311 44.312 709.751 43.76 711.607 43.76C713.367 43.76 714.735 44.296 715.711 45.368C716.687 46.44 717.175 47.864 717.175 49.64ZM711.607 45.8C710.679 45.8 709.927 46.072 709.351 46.616C708.791 47.16 708.439 47.952 708.295 48.992H714.775C714.647 47.984 714.303 47.2 713.743 46.64C713.199 46.08 712.487 45.8 711.607 45.8ZM725.216 56.24C724 56.24 722.92 56.032 721.976 55.616C721.048 55.2 720.344 54.568 719.864 53.72L721.592 52.232C721.896 52.92 722.368 53.424 723.008 53.744C723.648 54.064 724.416 54.224 725.312 54.224C726.128 54.224 726.76 54.096 727.208 53.84C727.656 53.568 727.88 53.216 727.88 52.784C727.88 52.4 727.672 52.096 727.256 51.872C726.84 51.632 726.12 51.408 725.096 51.2C723.32 50.864 722.072 50.416 721.352 49.856C720.632 49.296 720.272 48.504 720.272 47.48C720.272 46.824 720.472 46.216 720.872 45.656C721.272 45.08 721.848 44.624 722.6 44.288C723.368 43.936 724.272 43.76 725.312 43.76C726.64 43.76 727.704 43.984 728.504 44.432C729.304 44.864 729.92 45.544 730.352 46.472L728.528 47.816C728.24 47.112 727.832 46.6 727.304 46.28C726.792 45.944 726.136 45.776 725.336 45.776C724.616 45.776 724.016 45.928 723.536 46.232C723.072 46.52 722.84 46.856 722.84 47.24C722.84 47.672 723.048 48.016 723.464 48.272C723.896 48.528 724.672 48.76 725.792 48.968C727.488 49.272 728.688 49.704 729.392 50.264C730.096 50.824 730.448 51.608 730.448 52.616C730.448 53.688 729.984 54.56 729.056 55.232C728.128 55.904 726.848 56.24 725.216 56.24ZM741.831 55.208C741.447 55.528 740.975 55.784 740.415 55.976C739.871 56.152 739.279 56.24 738.639 56.24C737.535 56.24 736.647 55.968 735.975 55.424C735.319 54.864 734.983 54 734.967 52.832V46.016H732.687V44H734.967V41.192L737.535 40.472V44H741.735V46.016H737.535V52.4C737.535 52.976 737.687 53.408 737.991 53.696C738.311 53.968 738.743 54.104 739.287 54.104C740.023 54.104 740.671 53.848 741.231 53.336L741.831 55.208ZM755.435 49.64C755.435 50.104 755.403 50.544 755.339 50.96H746.555C746.699 52.016 747.075 52.824 747.683 53.384C748.291 53.928 749.075 54.2 750.035 54.2C750.819 54.2 751.467 54.064 751.979 53.792C752.507 53.504 752.867 53.096 753.059 52.568L755.195 53.456C754.299 55.312 752.579 56.24 750.035 56.24C748.147 56.24 746.667 55.688 745.595 54.584C744.539 53.48 744.011 51.952 744.011 50C744.011 48.032 744.523 46.504 745.547 45.416C746.571 44.312 748.011 43.76 749.867 43.76C751.627 43.76 752.995 44.296 753.971 45.368C754.947 46.44 755.435 47.864 755.435 49.64ZM749.867 45.8C748.939 45.8 748.187 46.072 747.611 46.616C747.051 47.16 746.699 47.952 746.555 48.992H753.035C752.907 47.984 752.563 47.2 752.003 46.64C751.459 46.08 750.747 45.8 749.867 45.8ZM770.244 38.6V56H767.988L767.844 53.864C767.492 54.584 766.956 55.16 766.236 55.592C765.532 56.024 764.724 56.24 763.812 56.24C762.164 56.24 760.86 55.696 759.9 54.608C758.956 53.504 758.484 51.976 758.484 50.024C758.484 48.072 758.956 46.544 759.9 45.44C760.86 44.32 762.164 43.76 763.812 43.76C764.692 43.76 765.468 43.96 766.14 44.36C766.812 44.744 767.324 45.272 767.676 45.944V38.6H770.244ZM764.388 54.176C765.396 54.176 766.196 53.816 766.788 53.096C767.38 52.376 767.676 51.392 767.676 50.144V49.856C767.676 48.608 767.38 47.632 766.788 46.928C766.196 46.208 765.396 45.848 764.388 45.848C763.348 45.848 762.532 46.216 761.94 46.952C761.364 47.672 761.076 48.688 761.076 50C761.076 51.312 761.364 52.336 761.94 53.072C762.532 53.808 763.348 54.176 764.388 54.176ZM784.287 41.984C783.743 41.984 783.319 41.848 783.015 41.576C782.711 41.288 782.559 40.888 782.559 40.376C782.559 39.864 782.711 39.472 783.015 39.2C783.319 38.928 783.743 38.792 784.287 38.792C784.831 38.792 785.247 38.928 785.535 39.2C785.839 39.472 785.991 39.864 785.991 40.376C785.991 40.888 785.839 41.288 785.535 41.576C785.247 41.848 784.831 41.984 784.287 41.984ZM785.559 56H782.991V44H785.559V56ZM796.513 43.76C797.841 43.76 798.921 44.144 799.753 44.912C800.601 45.68 801.025 46.784 801.025 48.224V56H798.457V49.04C798.457 46.928 797.601 45.872 795.889 45.872C794.993 45.872 794.225 46.184 793.585 46.808C792.945 47.416 792.625 48.36 792.625 49.64V56H790.057V44H792.337L792.457 45.992C792.857 45.24 793.409 44.68 794.113 44.312C794.817 43.944 795.617 43.76 796.513 43.76ZM821.082 55.208C820.698 55.528 820.226 55.784 819.666 55.976C819.122 56.152 818.53 56.24 817.89 56.24C816.786 56.24 815.898 55.968 815.226 55.424C814.57 54.864 814.234 54 814.218 52.832V46.016H811.938V44H814.218V41.192L816.786 40.472V44H820.986V46.016H816.786V52.4C816.786 52.976 816.938 53.408 817.242 53.696C817.562 53.968 817.994 54.104 818.538 54.104C819.274 54.104 819.922 53.848 820.482 53.336L821.082 55.208ZM834.686 49.64C834.686 50.104 834.654 50.544 834.59 50.96H825.806C825.95 52.016 826.326 52.824 826.934 53.384C827.542 53.928 828.326 54.2 829.286 54.2C830.07 54.2 830.718 54.064 831.23 53.792C831.758 53.504 832.118 53.096 832.31 52.568L834.446 53.456C833.55 55.312 831.83 56.24 829.286 56.24C827.398 56.24 825.918 55.688 824.846 54.584C823.79 53.48 823.262 51.952 823.262 50C823.262 48.032 823.774 46.504 824.798 45.416C825.822 44.312 827.262 43.76 829.118 43.76C830.878 43.76 832.246 44.296 833.222 45.368C834.198 46.44 834.686 47.864 834.686 49.64ZM829.118 45.8C828.19 45.8 827.438 46.072 826.862 46.616C826.302 47.16 825.95 47.952 825.806 48.992H832.286C832.158 47.984 831.814 47.2 831.254 46.64C830.71 46.08 829.998 45.8 829.118 45.8ZM843.663 43.76C846.287 43.76 848.023 44.88 848.871 47.12L846.471 48.08C846.055 46.56 845.119 45.8 843.663 45.8C842.591 45.8 841.759 46.168 841.167 46.904C840.575 47.64 840.279 48.68 840.279 50.024C840.279 51.368 840.575 52.4 841.167 53.12C841.759 53.84 842.591 54.2 843.663 54.2C844.479 54.2 845.135 54 845.631 53.6C846.127 53.2 846.455 52.624 846.615 51.872L848.967 52.664C848.615 53.784 847.991 54.664 847.095 55.304C846.199 55.928 845.071 56.24 843.711 56.24C841.823 56.24 840.343 55.688 839.271 54.584C838.215 53.48 837.687 51.952 837.687 50C837.687 48.048 838.215 46.52 839.271 45.416C840.327 44.312 841.791 43.76 843.663 43.76ZM858.913 43.76C860.241 43.76 861.321 44.144 862.153 44.912C863.001 45.68 863.425 46.784 863.425 48.224V56H860.857V49.04C860.857 46.928 860.001 45.872 858.289 45.872C857.393 45.872 856.625 46.184 855.985 46.808C855.345 47.432 855.025 48.384 855.025 49.664V56H852.457V38.6H855.025V45.92C855.425 45.184 855.953 44.64 856.609 44.288C857.281 43.936 858.049 43.76 858.913 43.76ZM883.482 55.208C883.098 55.528 882.626 55.784 882.066 55.976C881.522 56.152 880.93 56.24 880.29 56.24C879.186 56.24 878.298 55.968 877.626 55.424C876.97 54.864 876.634 54 876.618 52.832V46.016H874.338V44H876.618V41.192L879.186 40.472V44H883.386V46.016H879.186V52.4C879.186 52.976 879.338 53.408 879.642 53.696C879.962 53.968 880.394 54.104 880.938 54.104C881.674 54.104 882.322 53.848 882.882 53.336L883.482 55.208ZM892.907 43.76C894.235 43.76 895.315 44.144 896.147 44.912C896.995 45.68 897.419 46.784 897.419 48.224V56H894.851V49.04C894.851 46.928 893.995 45.872 892.283 45.872C891.387 45.872 890.619 46.184 889.979 46.808C889.339 47.432 889.019 48.384 889.019 49.664V56H886.451V38.6H889.019V45.92C889.419 45.184 889.947 44.64 890.603 44.288C891.275 43.936 892.043 43.76 892.907 43.76ZM912.159 54.32C912.511 54.32 912.807 54.288 913.047 54.224L912.879 55.952C912.447 56.144 911.951 56.24 911.391 56.24C910.703 56.24 910.151 56.104 909.735 55.832C909.335 55.56 909.071 55.104 908.943 54.464C908.575 55.024 908.031 55.464 907.311 55.784C906.591 56.088 905.783 56.24 904.887 56.24C903.719 56.24 902.775 55.968 902.055 55.424C901.335 54.88 900.975 54.104 900.975 53.096C900.975 52.152 901.367 51.36 902.151 50.72C902.935 50.064 904.103 49.6 905.655 49.328L908.703 48.8V48.152C908.703 47.416 908.487 46.84 908.055 46.424C907.623 45.992 907.023 45.776 906.255 45.776C904.671 45.776 903.639 46.496 903.159 47.936L901.167 46.88C901.455 45.92 902.039 45.16 902.919 44.6C903.815 44.04 904.911 43.76 906.207 43.76C907.759 43.76 908.991 44.12 909.903 44.84C910.815 45.56 911.271 46.616 911.271 48.008V53.432C911.271 53.736 911.335 53.96 911.463 54.104C911.607 54.248 911.839 54.32 912.159 54.32ZM905.439 54.296C906.303 54.296 907.063 54.088 907.719 53.672C908.375 53.256 908.703 52.704 908.703 52.016V50.576L906.087 51.104C905.255 51.264 904.639 51.488 904.239 51.776C903.839 52.064 903.639 52.448 903.639 52.928C903.639 53.376 903.791 53.72 904.095 53.96C904.415 54.184 904.863 54.296 905.439 54.296ZM923.265 55.208C922.881 55.528 922.409 55.784 921.849 55.976C921.305 56.152 920.713 56.24 920.073 56.24C918.969 56.24 918.081 55.968 917.409 55.424C916.753 54.864 916.417 54 916.401 52.832V46.016H914.121V44H916.401V41.192L918.969 40.472V44H923.169V46.016H918.969V52.4C918.969 52.976 919.121 53.408 919.425 53.696C919.745 53.968 920.177 54.104 920.721 54.104C921.457 54.104 922.105 53.848 922.665 53.336L923.265 55.208ZM667.232 72L663.224 84H660.416L657.392 74.928L654.512 84H651.704L647.696 72H650.48L653.192 81.6L656.192 72H658.736L661.712 81.6L664.448 72H667.232ZM675.307 71.76C677.179 71.76 678.643 72.312 679.699 73.416C680.755 74.52 681.283 76.048 681.283 78C681.283 79.952 680.755 81.48 679.699 82.584C678.643 83.688 677.179 84.24 675.307 84.24C673.435 84.24 671.971 83.688 670.915 82.584C669.859 81.48 669.331 79.952 669.331 78C669.331 76.048 669.859 74.52 670.915 73.416C671.971 72.312 673.435 71.76 675.307 71.76ZM675.307 73.776C674.219 73.776 673.379 74.144 672.787 74.88C672.211 75.6 671.923 76.64 671.923 78C671.923 79.36 672.211 80.408 672.787 81.144C673.379 81.864 674.219 82.224 675.307 82.224C676.395 82.224 677.235 81.856 677.827 81.12C678.419 80.384 678.715 79.344 678.715 78C678.715 76.656 678.419 75.616 677.827 74.88C677.235 74.144 676.395 73.776 675.307 73.776ZM695.933 72V84H693.653L693.557 82.056C692.741 83.512 691.317 84.24 689.285 84.24C687.989 84.24 686.941 83.888 686.141 83.184C685.357 82.464 684.965 81.368 684.965 79.896V72H687.533V79.224C687.533 80.28 687.741 81.032 688.157 81.48C688.573 81.912 689.189 82.128 690.005 82.128C690.981 82.128 691.781 81.824 692.405 81.216C693.045 80.592 693.365 79.68 693.365 78.48V72H695.933ZM702.897 80.496C702.897 81.088 702.985 81.504 703.161 81.744C703.337 81.968 703.665 82.08 704.145 82.08C704.449 82.08 704.705 82.064 704.913 82.032C705.137 81.984 705.409 81.896 705.729 81.768L705.441 83.832C704.897 84.104 704.233 84.24 703.449 84.24C702.377 84.24 701.585 83.968 701.073 83.424C700.577 82.88 700.329 82.024 700.329 80.856V66.6H702.897V80.496ZM719.469 66.6V84H717.213L717.069 81.864C716.717 82.584 716.181 83.16 715.461 83.592C714.757 84.024 713.949 84.24 713.037 84.24C711.389 84.24 710.085 83.696 709.125 82.608C708.181 81.504 707.709 79.976 707.709 78.024C707.709 76.072 708.181 74.544 709.125 73.44C710.085 72.32 711.389 71.76 713.037 71.76C713.917 71.76 714.693 71.96 715.365 72.36C716.037 72.744 716.549 73.272 716.901 73.944V66.6H719.469ZM713.613 82.176C714.621 82.176 715.421 81.816 716.013 81.096C716.605 80.376 716.901 79.392 716.901 78.144V77.856C716.901 76.608 716.605 75.632 716.013 74.928C715.421 74.208 714.621 73.848 713.613 73.848C712.573 73.848 711.757 74.216 711.165 74.952C710.589 75.672 710.301 76.688 710.301 78C710.301 79.312 710.589 80.336 711.165 81.072C711.757 81.808 712.573 82.176 713.613 82.176ZM738.672 71.76C740 71.76 741.08 72.144 741.912 72.912C742.76 73.68 743.184 74.784 743.184 76.224V84H740.616V77.04C740.616 74.928 739.76 73.872 738.048 73.872C737.152 73.872 736.384 74.184 735.744 74.808C735.104 75.432 734.784 76.384 734.784 77.664V84H732.216V66.6H734.784V73.92C735.184 73.184 735.712 72.64 736.368 72.288C737.04 71.936 737.808 71.76 738.672 71.76ZM758.283 77.64C758.283 78.104 758.251 78.544 758.187 78.96H749.403C749.547 80.016 749.923 80.824 750.531 81.384C751.139 81.928 751.923 82.2 752.883 82.2C753.667 82.2 754.315 82.064 754.827 81.792C755.355 81.504 755.715 81.096 755.907 80.568L758.043 81.456C757.147 83.312 755.427 84.24 752.883 84.24C750.995 84.24 749.515 83.688 748.443 82.584C747.387 81.48 746.859 79.952 746.859 78C746.859 76.032 747.371 74.504 748.395 73.416C749.419 72.312 750.859 71.76 752.715 71.76C754.475 71.76 755.843 72.296 756.819 73.368C757.795 74.44 758.283 75.864 758.283 77.64ZM752.715 73.8C751.787 73.8 751.035 74.072 750.459 74.616C749.899 75.16 749.547 75.952 749.403 76.992H755.883C755.755 75.984 755.411 75.2 754.851 74.64C754.307 74.08 753.595 73.8 752.715 73.8ZM764.476 80.496C764.476 81.088 764.564 81.504 764.74 81.744C764.916 81.968 765.244 82.08 765.724 82.08C766.028 82.08 766.284 82.064 766.492 82.032C766.716 81.984 766.988 81.896 767.308 81.768L767.02 83.832C766.476 84.104 765.812 84.24 765.028 84.24C763.956 84.24 763.164 83.968 762.652 83.424C762.156 82.88 761.908 82.024 761.908 80.856V66.6H764.476V80.496ZM776.393 71.76C778.041 71.76 779.337 72.312 780.281 73.416C781.225 74.504 781.697 76.024 781.697 77.976C781.697 79.928 781.225 81.464 780.281 82.584C779.337 83.688 778.041 84.24 776.393 84.24C775.529 84.24 774.753 84.048 774.065 83.664C773.393 83.28 772.873 82.752 772.505 82.08V89.04H769.937V72H772.193L772.313 74.232C772.665 73.48 773.193 72.88 773.897 72.432C774.617 71.984 775.449 71.76 776.393 71.76ZM775.817 82.152C776.857 82.152 777.665 81.792 778.241 81.072C778.833 80.336 779.129 79.312 779.129 78C779.129 76.688 778.833 75.664 778.241 74.928C777.665 74.192 776.857 73.824 775.817 73.824C774.841 73.824 774.057 74.152 773.465 74.808C772.889 75.464 772.569 76.376 772.505 77.544V78.456C772.569 79.608 772.889 80.512 773.465 81.168C774.057 81.824 774.841 82.152 775.817 82.152ZM801.196 83.208C800.812 83.528 800.34 83.784 799.78 83.976C799.236 84.152 798.644 84.24 798.004 84.24C796.9 84.24 796.012 83.968 795.34 83.424C794.684 82.864 794.348 82 794.332 80.832V74.016H792.052V72H794.332V69.192L796.9 68.472V72H801.1V74.016H796.9V80.4C796.9 80.976 797.052 81.408 797.356 81.696C797.676 81.968 798.108 82.104 798.652 82.104C799.388 82.104 800.036 81.848 800.596 81.336L801.196 83.208ZM810.622 71.76C811.95 71.76 813.03 72.144 813.862 72.912C814.71 73.68 815.134 74.784 815.134 76.224V84H812.566V77.04C812.566 74.928 811.71 73.872 809.998 73.872C809.102 73.872 808.334 74.184 807.694 74.808C807.054 75.432 806.734 76.384 806.734 77.664V84H804.166V66.6H806.734V73.92C807.134 73.184 807.662 72.64 808.318 72.288C808.99 71.936 809.758 71.76 810.622 71.76ZM830.233 77.64C830.233 78.104 830.201 78.544 830.137 78.96H821.353C821.497 80.016 821.873 80.824 822.481 81.384C823.089 81.928 823.873 82.2 824.833 82.2C825.617 82.2 826.265 82.064 826.777 81.792C827.305 81.504 827.665 81.096 827.857 80.568L829.993 81.456C829.097 83.312 827.377 84.24 824.833 84.24C822.945 84.24 821.465 83.688 820.393 82.584C819.337 81.48 818.809 79.952 818.809 78C818.809 76.032 819.321 74.504 820.345 73.416C821.369 72.312 822.809 71.76 824.665 71.76C826.425 71.76 827.793 72.296 828.769 73.368C829.745 74.44 830.233 75.864 830.233 77.64ZM824.665 73.8C823.737 73.8 822.985 74.072 822.409 74.616C821.849 75.16 821.497 75.952 821.353 76.992H827.833C827.705 75.984 827.361 75.2 826.801 74.64C826.257 74.08 825.545 73.8 824.665 73.8ZM848.403 71.76C849.203 71.76 849.939 71.928 850.611 72.264C851.283 72.584 851.819 73.08 852.219 73.752C852.619 74.424 852.819 75.248 852.819 76.224V84H850.251V76.632C850.251 75.688 850.027 74.992 849.579 74.544C849.131 74.096 848.531 73.872 847.779 73.872C846.899 73.872 846.155 74.192 845.547 74.832C844.955 75.472 844.659 76.352 844.659 77.472V84H842.091V76.632C842.091 75.688 841.867 74.992 841.419 74.544C840.971 74.096 840.371 73.872 839.619 73.872C839.107 73.872 838.611 74.008 838.131 74.28C837.651 74.536 837.259 74.944 836.955 75.504C836.651 76.064 836.499 76.768 836.499 77.616V84H833.931V72H836.211L836.331 73.992C836.731 73.256 837.275 72.704 837.963 72.336C838.651 71.952 839.403 71.76 840.219 71.76C841.115 71.76 841.923 71.968 842.643 72.384C843.379 72.784 843.923 73.376 844.275 74.16C844.643 73.376 845.203 72.784 845.955 72.384C846.723 71.968 847.539 71.76 848.403 71.76ZM872.878 83.208C872.494 83.528 872.022 83.784 871.462 83.976C870.918 84.152 870.326 84.24 869.686 84.24C868.582 84.24 867.694 83.968 867.022 83.424C866.366 82.864 866.03 82 866.014 80.832V74.016H863.734V72H866.014V69.192L868.582 68.472V72H872.782V74.016H868.582V80.4C868.582 80.976 868.734 81.408 869.038 81.696C869.358 81.968 869.79 82.104 870.334 82.104C871.07 82.104 871.718 81.848 872.278 81.336L872.878 83.208ZM881.946 71.76C882.506 71.76 882.946 71.84 883.266 72L882.858 74.352C882.49 74.144 881.986 74.04 881.346 74.04C880.834 74.04 880.346 74.176 879.882 74.448C879.434 74.72 879.058 75.128 878.754 75.672C878.466 76.216 878.322 76.872 878.322 77.64V84H875.754V72H877.938L878.154 74.16C878.826 72.56 880.09 71.76 881.946 71.76ZM896.281 82.32C896.633 82.32 896.929 82.288 897.169 82.224L897.001 83.952C896.569 84.144 896.073 84.24 895.513 84.24C894.825 84.24 894.273 84.104 893.857 83.832C893.457 83.56 893.193 83.104 893.065 82.464C892.697 83.024 892.153 83.464 891.433 83.784C890.713 84.088 889.905 84.24 889.009 84.24C887.841 84.24 886.897 83.968 886.177 83.424C885.457 82.88 885.097 82.104 885.097 81.096C885.097 80.152 885.489 79.36 886.273 78.72C887.057 78.064 888.225 77.6 889.777 77.328L892.825 76.8V76.152C892.825 75.416 892.609 74.84 892.177 74.424C891.745 73.992 891.145 73.776 890.377 73.776C888.793 73.776 887.761 74.496 887.281 75.936L885.289 74.88C885.577 73.92 886.161 73.16 887.041 72.6C887.937 72.04 889.033 71.76 890.329 71.76C891.881 71.76 893.113 72.12 894.025 72.84C894.937 73.56 895.393 74.616 895.393 76.008V81.432C895.393 81.736 895.457 81.96 895.585 82.104C895.729 82.248 895.961 82.32 896.281 82.32ZM889.561 82.296C890.425 82.296 891.185 82.088 891.841 81.672C892.497 81.256 892.825 80.704 892.825 80.016V78.576L890.209 79.104C889.377 79.264 888.761 79.488 888.361 79.776C887.961 80.064 887.761 80.448 887.761 80.928C887.761 81.376 887.913 81.72 888.217 81.96C888.537 82.184 888.985 82.296 889.561 82.296ZM905.337 71.76C907.961 71.76 909.697 72.88 910.545 75.12L908.145 76.08C907.729 74.56 906.793 73.8 905.337 73.8C904.265 73.8 903.433 74.168 902.841 74.904C902.249 75.64 901.953 76.68 901.953 78.024C901.953 79.368 902.249 80.4 902.841 81.12C903.433 81.84 904.265 82.2 905.337 82.2C906.153 82.2 906.809 82 907.305 81.6C907.801 81.2 908.129 80.624 908.289 79.872L910.641 80.664C910.289 81.784 909.665 82.664 908.769 83.304C907.873 83.928 906.745 84.24 905.385 84.24C903.497 84.24 902.017 83.688 900.945 82.584C899.889 81.48 899.361 79.952 899.361 78C899.361 76.048 899.889 74.52 900.945 73.416C902.001 72.312 903.465 71.76 905.337 71.76ZM919.075 78.36L916.699 80.808V84H914.131V66.6H916.699V77.88L922.435 72H925.459L920.875 76.704L925.747 84H922.771L919.075 78.36ZM654.272 99.76C656.144 99.76 657.608 100.312 658.664 101.416C659.72 102.52 660.248 104.048 660.248 106C660.248 107.952 659.72 109.48 658.664 110.584C657.608 111.688 656.144 112.24 654.272 112.24C652.4 112.24 650.936 111.688 649.88 110.584C648.824 109.48 648.296 107.952 648.296 106C648.296 104.048 648.824 102.52 649.88 101.416C650.936 100.312 652.4 99.76 654.272 99.76ZM654.272 101.776C653.184 101.776 652.344 102.144 651.752 102.88C651.176 103.6 650.888 104.64 650.888 106C650.888 107.36 651.176 108.408 651.752 109.144C652.344 109.864 653.184 110.224 654.272 110.224C655.36 110.224 656.2 109.856 656.792 109.12C657.384 108.384 657.68 107.344 657.68 106C657.68 104.656 657.384 103.616 656.792 102.88C656.2 102.144 655.36 101.776 654.272 101.776ZM670.219 99.76C670.779 99.76 671.219 99.84 671.539 100L671.131 102.352C670.763 102.144 670.259 102.04 669.619 102.04C669.107 102.04 668.619 102.176 668.155 102.448C667.707 102.72 667.331 103.128 667.027 103.672C666.739 104.216 666.595 104.872 666.595 105.64V112H664.027V100H666.211L666.427 102.16C667.099 100.56 668.363 99.76 670.219 99.76ZM696.685 99.76C697.485 99.76 698.221 99.928 698.893 100.264C699.565 100.584 700.101 101.08 700.501 101.752C700.901 102.424 701.101 103.248 701.101 104.224V112H698.533V104.632C698.533 103.688 698.309 102.992 697.861 102.544C697.413 102.096 696.813 101.872 696.061 101.872C695.181 101.872 694.437 102.192 693.829 102.832C693.237 103.472 692.941 104.352 692.941 105.472V112H690.373V104.632C690.373 103.688 690.149 102.992 689.701 102.544C689.253 102.096 688.653 101.872 687.901 101.872C687.389 101.872 686.893 102.008 686.413 102.28C685.933 102.536 685.541 102.944 685.237 103.504C684.933 104.064 684.781 104.768 684.781 105.616V112H682.213V100H684.493L684.613 101.992C685.013 101.256 685.557 100.704 686.245 100.336C686.933 99.952 687.685 99.76 688.501 99.76C689.397 99.76 690.205 99.968 690.925 100.384C691.661 100.784 692.205 101.376 692.557 102.16C692.925 101.376 693.485 100.784 694.237 100.384C695.005 99.968 695.821 99.76 696.685 99.76ZM710.754 99.76C712.626 99.76 714.09 100.312 715.146 101.416C716.202 102.52 716.73 104.048 716.73 106C716.73 107.952 716.202 109.48 715.146 110.584C714.09 111.688 712.626 112.24 710.754 112.24C708.882 112.24 707.418 111.688 706.362 110.584C705.306 109.48 704.778 107.952 704.778 106C704.778 104.048 705.306 102.52 706.362 101.416C707.418 100.312 708.882 99.76 710.754 99.76ZM710.754 101.776C709.666 101.776 708.826 102.144 708.234 102.88C707.658 103.6 707.37 104.64 707.37 106C707.37 107.36 707.658 108.408 708.234 109.144C708.826 109.864 709.666 110.224 710.754 110.224C711.842 110.224 712.682 109.856 713.274 109.12C713.866 108.384 714.162 107.344 714.162 106C714.162 104.656 713.866 103.616 713.274 102.88C712.682 102.144 711.842 101.776 710.754 101.776ZM726.965 99.76C728.293 99.76 729.373 100.144 730.205 100.912C731.053 101.68 731.477 102.784 731.477 104.224V112H728.909V105.04C728.909 102.928 728.053 101.872 726.341 101.872C725.445 101.872 724.677 102.184 724.037 102.808C723.397 103.416 723.077 104.36 723.077 105.64V112H720.509V100H722.789L722.909 101.992C723.309 101.24 723.861 100.68 724.565 100.312C725.269 99.944 726.069 99.76 726.965 99.76ZM737.145 97.984C736.601 97.984 736.177 97.848 735.873 97.576C735.569 97.288 735.417 96.888 735.417 96.376C735.417 95.864 735.569 95.472 735.873 95.2C736.177 94.928 736.601 94.792 737.145 94.792C737.689 94.792 738.105 94.928 738.393 95.2C738.697 95.472 738.849 95.864 738.849 96.376C738.849 96.888 738.697 97.288 738.393 97.576C738.105 97.848 737.689 97.984 737.145 97.984ZM738.417 112H735.849V100H738.417V112ZM750.691 111.208C750.307 111.528 749.835 111.784 749.275 111.976C748.731 112.152 748.139 112.24 747.499 112.24C746.395 112.24 745.507 111.968 744.835 111.424C744.179 110.864 743.843 110 743.827 108.832V102.016H741.547V100H743.827V97.192L746.395 96.472V100H750.595V102.016H746.395V108.4C746.395 108.976 746.547 109.408 746.851 109.696C747.171 109.968 747.603 110.104 748.147 110.104C748.883 110.104 749.531 109.848 750.091 109.336L750.691 111.208ZM758.846 99.76C760.718 99.76 762.182 100.312 763.238 101.416C764.294 102.52 764.822 104.048 764.822 106C764.822 107.952 764.294 109.48 763.238 110.584C762.182 111.688 760.718 112.24 758.846 112.24C756.974 112.24 755.51 111.688 754.454 110.584C753.398 109.48 752.87 107.952 752.87 106C752.87 104.048 753.398 102.52 754.454 101.416C755.51 100.312 756.974 99.76 758.846 99.76ZM758.846 101.776C757.758 101.776 756.918 102.144 756.326 102.88C755.75 103.6 755.462 104.64 755.462 106C755.462 107.36 755.75 108.408 756.326 109.144C756.918 109.864 757.758 110.224 758.846 110.224C759.934 110.224 760.774 109.856 761.366 109.12C761.958 108.384 762.254 107.344 762.254 106C762.254 104.656 761.958 103.616 761.366 102.88C760.774 102.144 759.934 101.776 758.846 101.776ZM774.793 99.76C775.353 99.76 775.793 99.84 776.113 100L775.705 102.352C775.337 102.144 774.833 102.04 774.193 102.04C773.681 102.04 773.193 102.176 772.729 102.448C772.281 102.72 771.905 103.128 771.601 103.672C771.313 104.216 771.169 104.872 771.169 105.64V112H768.601V100H770.785L771.001 102.16C771.673 100.56 772.937 99.76 774.793 99.76ZM794.189 111.208C793.805 111.528 793.333 111.784 792.773 111.976C792.229 112.152 791.637 112.24 790.997 112.24C789.893 112.24 789.005 111.968 788.333 111.424C787.677 110.864 787.341 110 787.325 108.832V102.016H785.045V100H787.325V97.192L789.893 96.472V100H794.093V102.016H789.893V108.4C789.893 108.976 790.045 109.408 790.349 109.696C790.669 109.968 791.101 110.104 791.645 110.104C792.381 110.104 793.029 109.848 793.589 109.336L794.189 111.208ZM803.614 99.76C804.942 99.76 806.022 100.144 806.854 100.912C807.702 101.68 808.126 102.784 808.126 104.224V112H805.558V105.04C805.558 102.928 804.702 101.872 802.99 101.872C802.094 101.872 801.326 102.184 800.686 102.808C800.046 103.432 799.726 104.384 799.726 105.664V112H797.158V94.6H799.726V101.92C800.126 101.184 800.654 100.64 801.31 100.288C801.982 99.936 802.75 99.76 803.614 99.76ZM823.226 105.64C823.226 106.104 823.194 106.544 823.13 106.96H814.346C814.49 108.016 814.866 108.824 815.474 109.384C816.082 109.928 816.866 110.2 817.826 110.2C818.61 110.2 819.258 110.064 819.77 109.792C820.298 109.504 820.658 109.096 820.85 108.568L822.986 109.456C822.09 111.312 820.37 112.24 817.826 112.24C815.938 112.24 814.458 111.688 813.386 110.584C812.33 109.48 811.802 107.952 811.802 106C811.802 104.032 812.314 102.504 813.338 101.416C814.362 100.312 815.802 99.76 817.658 99.76C819.418 99.76 820.786 100.296 821.762 101.368C822.738 102.44 823.226 103.864 823.226 105.64ZM817.658 101.8C816.73 101.8 815.978 102.072 815.402 102.616C814.842 103.16 814.49 103.952 814.346 104.992H820.826C820.698 103.984 820.354 103.2 819.794 102.64C819.25 102.08 818.538 101.8 817.658 101.8ZM828.219 97.984C827.675 97.984 827.251 97.848 826.947 97.576C826.643 97.288 826.491 96.888 826.491 96.376C826.491 95.864 826.643 95.472 826.947 95.2C827.251 94.928 827.675 94.792 828.219 94.792C828.763 94.792 829.179 94.928 829.467 95.2C829.771 95.472 829.923 95.864 829.923 96.376C829.923 96.888 829.771 97.288 829.467 97.576C829.179 97.848 828.763 97.984 828.219 97.984ZM829.491 112H826.923V100H829.491V112ZM840.181 99.76C840.741 99.76 841.181 99.84 841.501 100L841.093 102.352C840.725 102.144 840.221 102.04 839.581 102.04C839.069 102.04 838.581 102.176 838.117 102.448C837.669 102.72 837.293 103.128 836.989 103.672C836.701 104.216 836.557 104.872 836.557 105.64V112H833.989V100H836.173L836.389 102.16C837.061 100.56 838.325 99.76 840.181 99.76ZM858.631 99.76C860.279 99.76 861.575 100.312 862.519 101.416C863.463 102.504 863.935 104.024 863.935 105.976C863.935 107.928 863.463 109.464 862.519 110.584C861.575 111.688 860.279 112.24 858.631 112.24C857.767 112.24 856.991 112.048 856.303 111.664C855.631 111.28 855.111 110.752 854.743 110.08V117.04H852.175V100H854.431L854.551 102.232C854.903 101.48 855.431 100.88 856.135 100.432C856.855 99.984 857.687 99.76 858.631 99.76ZM858.055 110.152C859.095 110.152 859.903 109.792 860.479 109.072C861.071 108.336 861.367 107.312 861.367 106C861.367 104.688 861.071 103.664 860.479 102.928C859.903 102.192 859.095 101.824 858.055 101.824C857.079 101.824 856.295 102.152 855.703 102.808C855.127 103.464 854.807 104.376 854.743 105.544V106.456C854.807 107.608 855.127 108.512 855.703 109.168C856.295 109.824 857.079 110.152 858.055 110.152ZM878.477 105.64C878.477 106.104 878.445 106.544 878.381 106.96H869.597C869.741 108.016 870.117 108.824 870.725 109.384C871.333 109.928 872.117 110.2 873.077 110.2C873.861 110.2 874.509 110.064 875.021 109.792C875.549 109.504 875.909 109.096 876.101 108.568L878.237 109.456C877.341 111.312 875.621 112.24 873.077 112.24C871.189 112.24 869.709 111.688 868.637 110.584C867.581 109.48 867.053 107.952 867.053 106C867.053 104.032 867.565 102.504 868.589 101.416C869.613 100.312 871.053 99.76 872.909 99.76C874.669 99.76 876.037 100.296 877.013 101.368C877.989 102.44 878.477 103.864 878.477 105.64ZM872.909 101.8C871.981 101.8 871.229 102.072 870.653 102.616C870.093 103.16 869.741 103.952 869.597 104.992H876.077C875.949 103.984 875.605 103.2 875.045 102.64C874.501 102.08 873.789 101.8 872.909 101.8ZM889.669 111.208C889.285 111.528 888.813 111.784 888.253 111.976C887.709 112.152 887.117 112.24 886.477 112.24C885.373 112.24 884.485 111.968 883.813 111.424C883.157 110.864 882.821 110 882.805 108.832V102.016H880.525V100H882.805V97.192L885.373 96.472V100H889.573V102.016H885.373V108.4C885.373 108.976 885.525 109.408 885.829 109.696C886.149 109.968 886.581 110.104 887.125 110.104C887.861 110.104 888.509 109.848 889.069 109.336L889.669 111.208ZM893.841 95.272C894.481 95.272 894.977 95.512 895.329 95.992C895.697 96.456 895.881 97.064 895.881 97.816C895.881 98.728 895.641 99.568 895.161 100.336C894.697 101.088 893.993 101.68 893.049 102.112L891.801 101.08C892.457 100.84 893.009 100.504 893.457 100.072C893.905 99.624 894.201 99.136 894.345 98.608L894.249 98.536C894.089 98.664 893.857 98.728 893.553 98.728C893.153 98.728 892.793 98.584 892.473 98.296C892.169 98.008 892.017 97.6 892.017 97.072C892.017 96.56 892.193 96.136 892.545 95.8C892.897 95.448 893.329 95.272 893.841 95.272ZM902.666 112.24C901.45 112.24 900.37 112.032 899.426 111.616C898.498 111.2 897.794 110.568 897.314 109.72L899.042 108.232C899.346 108.92 899.818 109.424 900.458 109.744C901.098 110.064 901.866 110.224 902.762 110.224C903.578 110.224 904.21 110.096 904.658 109.84C905.106 109.568 905.33 109.216 905.33 108.784C905.33 108.4 905.122 108.096 904.706 107.872C904.29 107.632 903.57 107.408 902.546 107.2C900.77 106.864 899.522 106.416 898.802 105.856C898.082 105.296 897.722 104.504 897.722 103.48C897.722 102.824 897.922 102.216 898.322 101.656C898.722 101.08 899.298 100.624 900.05 100.288C900.818 99.936 901.722 99.76 902.762 99.76C904.09 99.76 905.154 99.984 905.954 100.432C906.754 100.864 907.37 101.544 907.802 102.472L905.978 103.816C905.69 103.112 905.282 102.6 904.754 102.28C904.242 101.944 903.586 101.776 902.786 101.776C902.066 101.776 901.466 101.928 900.986 102.232C900.522 102.52 900.29 102.856 900.29 103.24C900.29 103.672 900.498 104.016 900.914 104.272C901.346 104.528 902.122 104.76 903.242 104.968C904.938 105.272 906.138 105.704 906.842 106.264C907.546 106.824 907.898 107.608 907.898 108.616C907.898 109.688 907.434 110.56 906.506 111.232C905.578 111.904 904.298 112.24 902.666 112.24ZM655.448 127.76C656.776 127.76 657.856 128.144 658.688 128.912C659.536 129.68 659.96 130.784 659.96 132.224V140H657.392V133.04C657.392 130.928 656.536 129.872 654.824 129.872C653.928 129.872 653.16 130.184 652.52 130.808C651.88 131.432 651.56 132.384 651.56 133.664V140H648.992V122.6H651.56V129.92C651.96 129.184 652.488 128.64 653.144 128.288C653.816 127.936 654.584 127.76 655.448 127.76ZM675.059 133.64C675.059 134.104 675.027 134.544 674.963 134.96H666.179C666.323 136.016 666.699 136.824 667.307 137.384C667.915 137.928 668.699 138.2 669.659 138.2C670.443 138.2 671.091 138.064 671.603 137.792C672.131 137.504 672.491 137.096 672.683 136.568L674.819 137.456C673.923 139.312 672.203 140.24 669.659 140.24C667.771 140.24 666.291 139.688 665.219 138.584C664.163 137.48 663.635 135.952 663.635 134C663.635 132.032 664.147 130.504 665.171 129.416C666.195 128.312 667.635 127.76 669.491 127.76C671.251 127.76 672.619 128.296 673.595 129.368C674.571 130.44 675.059 131.864 675.059 133.64ZM669.491 129.8C668.563 129.8 667.811 130.072 667.235 130.616C666.675 131.16 666.323 131.952 666.179 132.992H672.659C672.531 131.984 672.187 131.2 671.627 130.64C671.083 130.08 670.371 129.8 669.491 129.8ZM689.125 138.32C689.477 138.32 689.773 138.288 690.013 138.224L689.845 139.952C689.413 140.144 688.917 140.24 688.357 140.24C687.669 140.24 687.117 140.104 686.701 139.832C686.301 139.56 686.037 139.104 685.909 138.464C685.541 139.024 684.997 139.464 684.277 139.784C683.557 140.088 682.749 140.24 681.853 140.24C680.685 140.24 679.741 139.968 679.021 139.424C678.301 138.88 677.941 138.104 677.941 137.096C677.941 136.152 678.333 135.36 679.117 134.72C679.901 134.064 681.069 133.6 682.621 133.328L685.669 132.8V132.152C685.669 131.416 685.453 130.84 685.021 130.424C684.589 129.992 683.989 129.776 683.221 129.776C681.637 129.776 680.605 130.496 680.125 131.936L678.133 130.88C678.421 129.92 679.005 129.16 679.885 128.6C680.781 128.04 681.877 127.76 683.173 127.76C684.725 127.76 685.957 128.12 686.869 128.84C687.781 129.56 688.237 130.616 688.237 132.008V137.432C688.237 137.736 688.301 137.96 688.429 138.104C688.573 138.248 688.805 138.32 689.125 138.32ZM682.405 138.296C683.269 138.296 684.029 138.088 684.685 137.672C685.341 137.256 685.669 136.704 685.669 136.016V134.576L683.053 135.104C682.221 135.264 681.605 135.488 681.205 135.776C680.805 136.064 680.605 136.448 680.605 136.928C680.605 137.376 680.757 137.72 681.061 137.96C681.381 138.184 681.829 138.296 682.405 138.296ZM695.42 136.496C695.42 137.088 695.508 137.504 695.684 137.744C695.86 137.968 696.188 138.08 696.668 138.08C696.972 138.08 697.228 138.064 697.436 138.032C697.66 137.984 697.932 137.896 698.252 137.768L697.964 139.832C697.42 140.104 696.756 140.24 695.972 140.24C694.9 140.24 694.108 139.968 693.596 139.424C693.1 138.88 692.852 138.024 692.852 136.856V122.6H695.42V136.496ZM708.211 139.208C707.827 139.528 707.355 139.784 706.795 139.976C706.251 140.152 705.659 140.24 705.019 140.24C703.915 140.24 703.027 139.968 702.355 139.424C701.699 138.864 701.363 138 701.347 136.832V130.016H699.067V128H701.347V125.192L703.915 124.472V128H708.115V130.016H703.915V136.4C703.915 136.976 704.067 137.408 704.371 137.696C704.691 137.968 705.123 138.104 705.667 138.104C706.403 138.104 707.051 137.848 707.611 137.336L708.211 139.208ZM717.637 127.76C718.965 127.76 720.045 128.144 720.877 128.912C721.725 129.68 722.149 130.784 722.149 132.224V140H719.581V133.04C719.581 130.928 718.725 129.872 717.013 129.872C716.117 129.872 715.349 130.184 714.709 130.808C714.069 131.432 713.749 132.384 713.749 133.664V140H711.181V122.6H713.749V129.92C714.149 129.184 714.677 128.64 715.333 128.288C716.005 127.936 716.773 127.76 717.637 127.76Z" fill="#22181C"/>
<g filter="url(#filter0_d)">
<path d="M138.033 27.967C150.803 40.7371 158.537 57.6862 159.813 75.7007C161.089 93.7152 155.822 111.585 144.979 126.028C134.137 140.471 118.447 150.516 100.792 154.319C83.1373 158.121 64.7033 155.426 48.8765 146.727C33.0496 138.029 20.8929 123.912 14.6396 106.969C8.38627 90.027 8.45632 71.3971 14.8369 54.5022C21.2174 37.6073 33.4799 23.582 49.3717 15.0028C65.2635 6.42372 83.7173 3.86697 101.343 7.80226L85 81L138.033 27.967Z" fill="#256EFF"/>
</g>
<g filter="url(#filter1_d)">
<path d="M610.464 61.6627C614.938 78.4277 613.46 96.2253 606.283 112.023C599.106 127.821 586.673 140.641 571.103 148.299C555.533 155.958 537.789 157.981 520.895 154.023C504 150.066 489.001 140.373 478.452 126.596C467.903 112.819 462.457 95.8111 463.043 78.4693C463.628 61.1276 470.209 44.5253 481.663 31.4914C493.117 18.4574 508.736 9.79826 525.859 6.98928C542.981 4.18031 560.548 7.39532 575.566 16.0865L538 81L610.464 61.6627Z" fill="#256EFF"/>
</g>
<defs>
<filter id="filter0_d" x="0" y="-0.00012207" width="170" height="170" filterUnits="userSpaceOnUse" color-interpolation-filters="sRGB">
<feFlood flood-opacity="0" result="BackgroundImageFix"/>
<feColorMatrix in="SourceAlpha" type="matrix" values="0 0 0 0 0 0 0 0 0 0 0 0 0 0 0 0 0 0 127 0"/>
<feOffset dy="4"/>
<feGaussianBlur stdDeviation="5"/>
<feColorMatrix type="matrix" values="0 0 0 0 0 0 0 0 0 0 0 0 0 0 0 0 0 0 0.25 0"/>
<feBlend mode="normal" in2="BackgroundImageFix" result="effect1_dropShadow"/>
<feBlend mode="normal" in="SourceGraphic" in2="effect1_dropShadow" result="shape"/>
</filter>
<filter id="filter1_d" x="453" y="-0.00012207" width="170" height="170" filterUnits="userSpaceOnUse" color-interpolation-filters="sRGB">
<feFlood flood-opacity="0" result="BackgroundImageFix"/>
<feColorMatrix in="SourceAlpha" type="matrix" values="0 0 0 0 0 0 0 0 0 0 0 0 0 0 0 0 0 0 127 0"/>
<feOffset dy="4"/>
<feGaussianBlur stdDeviation="5"/>
<feColorMatrix type="matrix" values="0 0 0 0 0 0 0 0 0 0 0 0 0 0 0 0 0 0 0.25 0"/>
<feBlend mode="normal" in2="BackgroundImageFix" result="effect1_dropShadow"/>
<feBlend mode="normal" in="SourceGraphic" in2="effect1_dropShadow" result="shape"/>
</filter>
</defs>
</svg>
