<svg width="305" height="314" viewBox="0 0 305 314" fill="none" xmlns="http://www.w3.org/2000/svg">
<path d="M145.364 5.94C146.948 5.94 148.16 6.468 149 7.524C149.852 8.58 150.278 10.116 150.278 12.132C150.278 14.196 149.84 15.72 148.964 16.704C148.1 17.688 146.858 18.18 145.238 18.18C144.146 18.18 143.234 17.97 142.502 17.55C141.782 17.13 141.242 16.476 140.882 15.588L143.654 14.49C143.762 14.934 143.936 15.27 144.176 15.498C144.428 15.726 144.8 15.84 145.292 15.84C146.756 15.84 147.488 14.718 147.488 12.474V12.186H147.434C147.278 12.69 146.936 13.08 146.408 13.356C145.88 13.62 145.274 13.752 144.59 13.752C143.882 13.752 143.234 13.596 142.646 13.284C142.058 12.972 141.59 12.528 141.242 11.952C140.906 11.376 140.738 10.716 140.738 9.972C140.738 8.712 141.14 7.728 141.944 7.02C142.76 6.3 143.9 5.94 145.364 5.94ZM145.274 8.37C144.734 8.37 144.314 8.508 144.014 8.784C143.726 9.06 143.582 9.45 143.582 9.954C143.582 10.458 143.726 10.848 144.014 11.124C144.314 11.4 144.734 11.538 145.274 11.538C145.802 11.538 146.216 11.4 146.516 11.124C146.816 10.836 146.966 10.446 146.966 9.954C146.966 9.462 146.816 9.078 146.516 8.802C146.216 8.514 145.802 8.37 145.274 8.37ZM158.004 6.12V18H155.016V9.162C154.092 10.002 153.156 10.506 152.208 10.674L151.92 8.118C152.532 8.046 153.21 7.806 153.954 7.398C154.71 6.978 155.238 6.552 155.538 6.12H158.004ZM163.592 5.94C164.6 5.94 165.41 6.252 166.022 6.876C166.634 7.488 166.94 8.304 166.94 9.324C166.94 10.344 166.634 11.166 166.022 11.79C165.41 12.402 164.6 12.708 163.592 12.708C162.584 12.708 161.774 12.402 161.162 11.79C160.55 11.166 160.244 10.344 160.244 9.324C160.244 8.304 160.55 7.488 161.162 6.876C161.774 6.252 162.584 5.94 163.592 5.94ZM171.116 6.102H173.456L165.194 18H162.854L171.116 6.102ZM163.592 7.992C163.256 7.992 162.992 8.112 162.8 8.352C162.62 8.58 162.53 8.904 162.53 9.324C162.53 9.744 162.62 10.074 162.8 10.314C162.992 10.542 163.256 10.656 163.592 10.656C163.94 10.656 164.204 10.542 164.384 10.314C164.576 10.074 164.672 9.744 164.672 9.324C164.672 8.904 164.576 8.58 164.384 8.352C164.204 8.112 163.94 7.992 163.592 7.992ZM172.682 11.412C173.69 11.412 174.5 11.724 175.112 12.348C175.724 12.96 176.03 13.776 176.03 14.796C176.03 15.816 175.724 16.638 175.112 17.262C174.5 17.874 173.69 18.18 172.682 18.18C171.674 18.18 170.864 17.874 170.252 17.262C169.64 16.638 169.334 15.816 169.334 14.796C169.334 13.776 169.64 12.96 170.252 12.348C170.864 11.724 171.674 11.412 172.682 11.412ZM172.682 13.464C172.334 13.464 172.064 13.584 171.872 13.824C171.692 14.052 171.602 14.376 171.602 14.796C171.602 15.216 171.692 15.546 171.872 15.786C172.064 16.014 172.334 16.128 172.682 16.128C173.03 16.128 173.294 16.014 173.474 15.786C173.666 15.546 173.762 15.216 173.762 14.796C173.762 14.376 173.666 14.052 173.474 13.824C173.294 13.584 173.03 13.464 172.682 13.464ZM187.921 8.82C189.325 8.82 190.423 9.234 191.215 10.062C192.007 10.89 192.403 12.036 192.403 13.5C192.403 14.964 192.007 16.11 191.215 16.938C190.423 17.766 189.325 18.18 187.921 18.18C186.517 18.18 185.419 17.766 184.627 16.938C183.835 16.11 183.439 14.964 183.439 13.5C183.439 12.036 183.835 10.89 184.627 10.062C185.419 9.234 186.517 8.82 187.921 8.82ZM187.921 10.332C187.105 10.332 186.475 10.608 186.031 11.16C185.599 11.7 185.383 12.48 185.383 13.5C185.383 14.52 185.599 15.306 186.031 15.858C186.475 16.398 187.105 16.668 187.921 16.668C188.737 16.668 189.367 16.392 189.811 15.84C190.255 15.288 190.477 14.508 190.477 13.5C190.477 12.492 190.255 11.712 189.811 11.16C189.367 10.608 188.737 10.332 187.921 10.332ZM197.67 9H200.586V10.512H197.724V18H195.798V10.512H194.106V9H195.798V7.704C195.798 6.792 196.074 6.084 196.626 5.58C197.178 5.076 197.952 4.824 198.948 4.824C199.308 4.824 199.638 4.866 199.938 4.95C200.238 5.022 200.472 5.124 200.64 5.256L200.28 6.66C200.004 6.48 199.662 6.39 199.254 6.39C198.198 6.39 197.67 6.876 197.67 7.848V9ZM216.451 9V18H214.741L214.669 16.542C214.057 17.634 212.989 18.18 211.465 18.18C210.493 18.18 209.707 17.916 209.107 17.388C208.519 16.848 208.225 16.026 208.225 14.922V9H210.151V14.418C210.151 15.21 210.307 15.774 210.619 16.11C210.931 16.434 211.393 16.596 212.005 16.596C212.737 16.596 213.337 16.368 213.805 15.912C214.285 15.444 214.525 14.76 214.525 13.86V9H216.451ZM223.06 18.18C222.148 18.18 221.338 18.024 220.63 17.712C219.934 17.4 219.406 16.926 219.046 16.29L220.342 15.174C220.57 15.69 220.924 16.068 221.404 16.308C221.884 16.548 222.46 16.668 223.132 16.668C223.744 16.668 224.218 16.572 224.554 16.38C224.89 16.176 225.058 15.912 225.058 15.588C225.058 15.3 224.902 15.072 224.59 14.904C224.278 14.724 223.738 14.556 222.97 14.4C221.638 14.148 220.702 13.812 220.162 13.392C219.622 12.972 219.352 12.378 219.352 11.61C219.352 11.118 219.502 10.662 219.802 10.242C220.102 9.81 220.534 9.468 221.098 9.216C221.674 8.952 222.352 8.82 223.132 8.82C224.128 8.82 224.926 8.988 225.526 9.324C226.126 9.648 226.588 10.158 226.912 10.854L225.544 11.862C225.328 11.334 225.022 10.95 224.626 10.71C224.242 10.458 223.75 10.332 223.15 10.332C222.61 10.332 222.16 10.446 221.8 10.674C221.452 10.89 221.278 11.142 221.278 11.43C221.278 11.754 221.434 12.012 221.746 12.204C222.07 12.396 222.652 12.57 223.492 12.726C224.764 12.954 225.664 13.278 226.192 13.698C226.72 14.118 226.984 14.706 226.984 15.462C226.984 16.266 226.636 16.92 225.94 17.424C225.244 17.928 224.284 18.18 223.06 18.18ZM237.717 13.23C237.717 13.578 237.693 13.908 237.645 14.22H231.057C231.165 15.012 231.447 15.618 231.903 16.038C232.359 16.446 232.947 16.65 233.667 16.65C234.255 16.65 234.741 16.548 235.125 16.344C235.521 16.128 235.791 15.822 235.935 15.426L237.537 16.092C236.865 17.484 235.575 18.18 233.667 18.18C232.251 18.18 231.141 17.766 230.337 16.938C229.545 16.11 229.149 14.964 229.149 13.5C229.149 12.024 229.533 10.878 230.301 10.062C231.069 9.234 232.149 8.82 233.541 8.82C234.861 8.82 235.887 9.222 236.619 10.026C237.351 10.83 237.717 11.898 237.717 13.23ZM233.541 10.35C232.845 10.35 232.281 10.554 231.849 10.962C231.429 11.37 231.165 11.964 231.057 12.744H235.917C235.821 11.988 235.563 11.4 235.143 10.98C234.735 10.56 234.201 10.35 233.541 10.35ZM245.134 8.82C245.554 8.82 245.884 8.88 246.124 9L245.818 10.764C245.542 10.608 245.164 10.53 244.684 10.53C244.3 10.53 243.934 10.632 243.586 10.836C243.25 11.04 242.968 11.346 242.74 11.754C242.524 12.162 242.416 12.654 242.416 13.23V18H240.49V9H242.128L242.29 10.62C242.794 9.42 243.742 8.82 245.134 8.82ZM251.263 18.18C250.351 18.18 249.541 18.024 248.833 17.712C248.137 17.4 247.609 16.926 247.249 16.29L248.545 15.174C248.773 15.69 249.127 16.068 249.607 16.308C250.087 16.548 250.663 16.668 251.335 16.668C251.947 16.668 252.421 16.572 252.757 16.38C253.093 16.176 253.261 15.912 253.261 15.588C253.261 15.3 253.105 15.072 252.793 14.904C252.481 14.724 251.941 14.556 251.173 14.4C249.841 14.148 248.905 13.812 248.365 13.392C247.825 12.972 247.555 12.378 247.555 11.61C247.555 11.118 247.705 10.662 248.005 10.242C248.305 9.81 248.737 9.468 249.301 9.216C249.877 8.952 250.555 8.82 251.335 8.82C252.331 8.82 253.129 8.988 253.729 9.324C254.329 9.648 254.791 10.158 255.115 10.854L253.747 11.862C253.531 11.334 253.225 10.95 252.829 10.71C252.445 10.458 251.953 10.332 251.353 10.332C250.813 10.332 250.363 10.446 250.003 10.674C249.655 10.89 249.481 11.142 249.481 11.43C249.481 11.754 249.637 12.012 249.949 12.204C250.273 12.396 250.855 12.57 251.695 12.726C252.967 12.954 253.867 13.278 254.395 13.698C254.923 14.118 255.187 14.706 255.187 15.462C255.187 16.266 254.839 16.92 254.143 17.424C253.447 17.928 252.487 18.18 251.263 18.18ZM155.174 30L152.168 39H150.062L147.794 32.196L145.634 39H143.528L140.522 30H142.61L144.644 37.2L146.894 30H148.802L151.034 37.2L153.086 30H155.174ZM161.23 29.82C162.634 29.82 163.732 30.234 164.524 31.062C165.316 31.89 165.712 33.036 165.712 34.5C165.712 35.964 165.316 37.11 164.524 37.938C163.732 38.766 162.634 39.18 161.23 39.18C159.826 39.18 158.728 38.766 157.936 37.938C157.144 37.11 156.748 35.964 156.748 34.5C156.748 33.036 157.144 31.89 157.936 31.062C158.728 30.234 159.826 29.82 161.23 29.82ZM161.23 31.332C160.414 31.332 159.784 31.608 159.34 32.16C158.908 32.7 158.692 33.48 158.692 34.5C158.692 35.52 158.908 36.306 159.34 36.858C159.784 37.398 160.414 37.668 161.23 37.668C162.046 37.668 162.676 37.392 163.12 36.84C163.564 36.288 163.786 35.508 163.786 34.5C163.786 33.492 163.564 32.712 163.12 32.16C162.676 31.608 162.046 31.332 161.23 31.332ZM176.7 30V39H174.99L174.918 37.542C174.306 38.634 173.238 39.18 171.714 39.18C170.742 39.18 169.956 38.916 169.356 38.388C168.768 37.848 168.474 37.026 168.474 35.922V30H170.4V35.418C170.4 36.21 170.556 36.774 170.868 37.11C171.18 37.434 171.642 37.596 172.254 37.596C172.986 37.596 173.586 37.368 174.054 36.912C174.534 36.444 174.774 35.76 174.774 34.86V30H176.7ZM181.923 36.372C181.923 36.816 181.989 37.128 182.121 37.308C182.253 37.476 182.499 37.56 182.859 37.56C183.087 37.56 183.279 37.548 183.435 37.524C183.603 37.488 183.807 37.422 184.047 37.326L183.831 38.874C183.423 39.078 182.925 39.18 182.337 39.18C181.533 39.18 180.939 38.976 180.555 38.568C180.183 38.16 179.997 37.518 179.997 36.642V25.95H181.923V36.372ZM194.352 25.95V39H192.66L192.552 37.398C192.288 37.938 191.886 38.37 191.346 38.694C190.818 39.018 190.212 39.18 189.528 39.18C188.292 39.18 187.314 38.772 186.594 37.956C185.886 37.128 185.532 35.982 185.532 34.518C185.532 33.054 185.886 31.908 186.594 31.08C187.314 30.24 188.292 29.82 189.528 29.82C190.188 29.82 190.77 29.97 191.274 30.27C191.778 30.558 192.162 30.954 192.426 31.458V25.95H194.352ZM189.96 37.632C190.716 37.632 191.316 37.362 191.76 36.822C192.204 36.282 192.426 35.544 192.426 34.608V34.392C192.426 33.456 192.204 32.724 191.76 32.196C191.316 31.656 190.716 31.386 189.96 31.386C189.18 31.386 188.568 31.662 188.124 32.214C187.692 32.754 187.476 33.516 187.476 34.5C187.476 35.484 187.692 36.252 188.124 36.804C188.568 37.356 189.18 37.632 189.96 37.632ZM205.784 36.372C205.784 36.816 205.85 37.128 205.982 37.308C206.114 37.476 206.36 37.56 206.72 37.56C206.948 37.56 207.14 37.548 207.296 37.524C207.464 37.488 207.668 37.422 207.908 37.326L207.692 38.874C207.284 39.078 206.786 39.18 206.198 39.18C205.394 39.18 204.8 38.976 204.416 38.568C204.044 38.16 203.858 37.518 203.858 36.642V25.95H205.784V36.372ZM210.851 28.488C210.443 28.488 210.125 28.386 209.897 28.182C209.669 27.966 209.555 27.666 209.555 27.282C209.555 26.898 209.669 26.604 209.897 26.4C210.125 26.196 210.443 26.094 210.851 26.094C211.259 26.094 211.571 26.196 211.787 26.4C212.015 26.604 212.129 26.898 212.129 27.282C212.129 27.666 212.015 27.966 211.787 28.182C211.571 28.386 211.259 28.488 210.851 28.488ZM211.805 39H209.879V30H211.805V39ZM218.887 34.77L217.105 36.606V39H215.179V25.95H217.105V34.41L221.407 30H223.675L220.237 33.528L223.891 39H221.659L218.887 34.77ZM233.692 34.23C233.692 34.578 233.668 34.908 233.62 35.22H227.032C227.14 36.012 227.422 36.618 227.878 37.038C228.334 37.446 228.922 37.65 229.642 37.65C230.23 37.65 230.716 37.548 231.1 37.344C231.496 37.128 231.766 36.822 231.91 36.426L233.512 37.092C232.84 38.484 231.55 39.18 229.642 39.18C228.226 39.18 227.116 38.766 226.312 37.938C225.52 37.11 225.124 35.964 225.124 34.5C225.124 33.024 225.508 31.878 226.276 31.062C227.044 30.234 228.124 29.82 229.516 29.82C230.836 29.82 231.862 30.222 232.594 31.026C233.326 31.83 233.692 32.898 233.692 34.23ZM229.516 31.35C228.82 31.35 228.256 31.554 227.824 31.962C227.404 32.37 227.14 32.964 227.032 33.744H231.892C231.796 32.988 231.538 32.4 231.118 31.98C230.71 31.56 230.176 31.35 229.516 31.35ZM248.229 38.406C247.941 38.646 247.587 38.838 247.167 38.982C246.759 39.114 246.315 39.18 245.835 39.18C245.007 39.18 244.341 38.976 243.837 38.568C243.345 38.148 243.093 37.5 243.081 36.624V31.512H241.371V30H243.081V27.894L245.007 27.354V30H248.157V31.512H245.007V36.3C245.007 36.732 245.121 37.056 245.349 37.272C245.589 37.476 245.913 37.578 246.321 37.578C246.873 37.578 247.359 37.386 247.779 37.002L248.229 38.406ZM254.346 29.82C255.75 29.82 256.848 30.234 257.64 31.062C258.432 31.89 258.828 33.036 258.828 34.5C258.828 35.964 258.432 37.11 257.64 37.938C256.848 38.766 255.75 39.18 254.346 39.18C252.942 39.18 251.844 38.766 251.052 37.938C250.26 37.11 249.864 35.964 249.864 34.5C249.864 33.036 250.26 31.89 251.052 31.062C251.844 30.234 252.942 29.82 254.346 29.82ZM254.346 31.332C253.53 31.332 252.9 31.608 252.456 32.16C252.024 32.7 251.808 33.48 251.808 34.5C251.808 35.52 252.024 36.306 252.456 36.858C252.9 37.398 253.53 37.668 254.346 37.668C255.162 37.668 255.792 37.392 256.236 36.84C256.68 36.288 256.902 35.508 256.902 34.5C256.902 33.492 256.68 32.712 256.236 32.16C255.792 31.608 255.162 31.332 254.346 31.332ZM149.828 46.95V60H148.136L148.028 58.398C147.764 58.938 147.362 59.37 146.822 59.694C146.294 60.018 145.688 60.18 145.004 60.18C143.768 60.18 142.79 59.772 142.07 58.956C141.362 58.128 141.008 56.982 141.008 55.518C141.008 54.054 141.362 52.908 142.07 52.08C142.79 51.24 143.768 50.82 145.004 50.82C145.664 50.82 146.246 50.97 146.75 51.27C147.254 51.558 147.638 51.954 147.902 52.458V46.95H149.828ZM145.436 58.632C146.192 58.632 146.792 58.362 147.236 57.822C147.68 57.282 147.902 56.544 147.902 55.608V55.392C147.902 54.456 147.68 53.724 147.236 53.196C146.792 52.656 146.192 52.386 145.436 52.386C144.656 52.386 144.044 52.662 143.6 53.214C143.168 53.754 142.952 54.516 142.952 55.5C142.952 56.484 143.168 57.252 143.6 57.804C144.044 58.356 144.656 58.632 145.436 58.632ZM157.134 50.82C158.538 50.82 159.636 51.234 160.428 52.062C161.22 52.89 161.616 54.036 161.616 55.5C161.616 56.964 161.22 58.11 160.428 58.938C159.636 59.766 158.538 60.18 157.134 60.18C155.73 60.18 154.632 59.766 153.84 58.938C153.048 58.11 152.652 56.964 152.652 55.5C152.652 54.036 153.048 52.89 153.84 52.062C154.632 51.234 155.73 50.82 157.134 50.82ZM157.134 52.332C156.318 52.332 155.688 52.608 155.244 53.16C154.812 53.7 154.596 54.48 154.596 55.5C154.596 56.52 154.812 57.306 155.244 57.858C155.688 58.398 156.318 58.668 157.134 58.668C157.95 58.668 158.58 58.392 159.024 57.84C159.468 57.288 159.69 56.508 159.69 55.5C159.69 54.492 159.468 53.712 159.024 53.16C158.58 52.608 157.95 52.332 157.134 52.332ZM177.867 51L174.861 60H172.755L170.487 53.196L168.327 60H166.221L163.215 51H165.303L167.337 58.2L169.587 51H171.495L173.727 58.2L175.779 51H177.867ZM185.068 50.82C186.064 50.82 186.874 51.108 187.498 51.684C188.134 52.26 188.452 53.088 188.452 54.168V60H186.526V54.78C186.526 53.196 185.884 52.404 184.6 52.404C183.928 52.404 183.352 52.638 182.872 53.106C182.392 53.562 182.152 54.27 182.152 55.23V60H180.226V51H181.936L182.026 52.494C182.326 51.93 182.74 51.51 183.268 51.234C183.796 50.958 184.396 50.82 185.068 50.82ZM193.603 57.372C193.603 57.816 193.669 58.128 193.801 58.308C193.933 58.476 194.179 58.56 194.539 58.56C194.767 58.56 194.959 58.548 195.115 58.524C195.283 58.488 195.487 58.422 195.727 58.326L195.511 59.874C195.103 60.078 194.605 60.18 194.017 60.18C193.213 60.18 192.619 59.976 192.235 59.568C191.863 59.16 191.677 58.518 191.677 57.642V46.95H193.603V57.372ZM201.658 50.82C203.062 50.82 204.16 51.234 204.952 52.062C205.744 52.89 206.14 54.036 206.14 55.5C206.14 56.964 205.744 58.11 204.952 58.938C204.16 59.766 203.062 60.18 201.658 60.18C200.254 60.18 199.156 59.766 198.364 58.938C197.572 58.11 197.176 56.964 197.176 55.5C197.176 54.036 197.572 52.89 198.364 52.062C199.156 51.234 200.254 50.82 201.658 50.82ZM201.658 52.332C200.842 52.332 200.212 52.608 199.768 53.16C199.336 53.7 199.12 54.48 199.12 55.5C199.12 56.52 199.336 57.306 199.768 57.858C200.212 58.398 200.842 58.668 201.658 58.668C202.474 58.668 203.104 58.392 203.548 57.84C203.992 57.288 204.214 56.508 204.214 55.5C204.214 54.492 203.992 53.712 203.548 53.16C203.104 52.608 202.474 52.332 201.658 52.332ZM216.733 58.74C216.997 58.74 217.219 58.716 217.399 58.668L217.273 59.964C216.949 60.108 216.577 60.18 216.157 60.18C215.641 60.18 215.227 60.078 214.915 59.874C214.615 59.67 214.417 59.328 214.321 58.848C214.045 59.268 213.637 59.598 213.097 59.838C212.557 60.066 211.951 60.18 211.279 60.18C210.403 60.18 209.695 59.976 209.155 59.568C208.615 59.16 208.345 58.578 208.345 57.822C208.345 57.114 208.639 56.52 209.227 56.04C209.815 55.548 210.691 55.2 211.855 54.996L214.141 54.6V54.114C214.141 53.562 213.979 53.13 213.655 52.818C213.331 52.494 212.881 52.332 212.305 52.332C211.117 52.332 210.343 52.872 209.983 53.952L208.489 53.16C208.705 52.44 209.143 51.87 209.803 51.45C210.475 51.03 211.297 50.82 212.269 50.82C213.433 50.82 214.357 51.09 215.041 51.63C215.725 52.17 216.067 52.962 216.067 54.006V58.074C216.067 58.302 216.115 58.47 216.211 58.578C216.319 58.686 216.493 58.74 216.733 58.74ZM211.693 58.722C212.341 58.722 212.911 58.566 213.403 58.254C213.895 57.942 214.141 57.528 214.141 57.012V55.932L212.179 56.328C211.555 56.448 211.093 56.616 210.793 56.832C210.493 57.048 210.343 57.336 210.343 57.696C210.343 58.032 210.457 58.29 210.685 58.47C210.925 58.638 211.261 58.722 211.693 58.722ZM227.899 46.95V60H226.207L226.099 58.398C225.835 58.938 225.433 59.37 224.893 59.694C224.365 60.018 223.759 60.18 223.075 60.18C221.839 60.18 220.861 59.772 220.141 58.956C219.433 58.128 219.079 56.982 219.079 55.518C219.079 54.054 219.433 52.908 220.141 52.08C220.861 51.24 221.839 50.82 223.075 50.82C223.735 50.82 224.317 50.97 224.821 51.27C225.325 51.558 225.709 51.954 225.973 52.458V46.95H227.899ZM223.507 58.632C224.263 58.632 224.863 58.362 225.307 57.822C225.751 57.282 225.973 56.544 225.973 55.608V55.392C225.973 54.456 225.751 53.724 225.307 53.196C224.863 52.656 224.263 52.386 223.507 52.386C222.727 52.386 222.115 52.662 221.671 53.214C221.239 53.754 221.023 54.516 221.023 55.5C221.023 56.484 221.239 57.252 221.671 57.804C222.115 58.356 222.727 58.632 223.507 58.632ZM245.235 58.74C245.499 58.74 245.721 58.716 245.901 58.668L245.775 59.964C245.451 60.108 245.079 60.18 244.659 60.18C244.143 60.18 243.729 60.078 243.417 59.874C243.117 59.67 242.919 59.328 242.823 58.848C242.547 59.268 242.139 59.598 241.599 59.838C241.059 60.066 240.453 60.18 239.781 60.18C238.905 60.18 238.197 59.976 237.657 59.568C237.117 59.16 236.847 58.578 236.847 57.822C236.847 57.114 237.141 56.52 237.729 56.04C238.317 55.548 239.193 55.2 240.357 54.996L242.643 54.6V54.114C242.643 53.562 242.481 53.13 242.157 52.818C241.833 52.494 241.383 52.332 240.807 52.332C239.619 52.332 238.845 52.872 238.485 53.952L236.991 53.16C237.207 52.44 237.645 51.87 238.305 51.45C238.977 51.03 239.799 50.82 240.771 50.82C241.935 50.82 242.859 51.09 243.543 51.63C244.227 52.17 244.569 52.962 244.569 54.006V58.074C244.569 58.302 244.617 58.47 244.713 58.578C244.821 58.686 244.995 58.74 245.235 58.74ZM240.195 58.722C240.843 58.722 241.413 58.566 241.905 58.254C242.397 57.942 242.643 57.528 242.643 57.012V55.932L240.681 56.328C240.057 56.448 239.595 56.616 239.295 56.832C238.995 57.048 238.845 57.336 238.845 57.696C238.845 58.032 238.959 58.29 239.187 58.47C239.427 58.638 239.763 58.722 240.195 58.722ZM252.926 50.82C253.922 50.82 254.732 51.108 255.356 51.684C255.992 52.26 256.31 53.088 256.31 54.168V60H254.384V54.78C254.384 53.196 253.742 52.404 252.458 52.404C251.786 52.404 251.21 52.638 250.73 53.106C250.25 53.562 250.01 54.27 250.01 55.23V60H248.084V51H249.794L249.884 52.494C250.184 51.93 250.598 51.51 251.126 51.234C251.654 50.958 252.254 50.82 252.926 50.82ZM267.923 46.95V60H266.231L266.123 58.398C265.859 58.938 265.457 59.37 264.917 59.694C264.389 60.018 263.783 60.18 263.099 60.18C261.863 60.18 260.885 59.772 260.165 58.956C259.457 58.128 259.103 56.982 259.103 55.518C259.103 54.054 259.457 52.908 260.165 52.08C260.885 51.24 261.863 50.82 263.099 50.82C263.759 50.82 264.341 50.97 264.845 51.27C265.349 51.558 265.733 51.954 265.997 52.458V46.95H267.923ZM263.531 58.632C264.287 58.632 264.887 58.362 265.331 57.822C265.775 57.282 265.997 56.544 265.997 55.608V55.392C265.997 54.456 265.775 53.724 265.331 53.196C264.887 52.656 264.287 52.386 263.531 52.386C262.751 52.386 262.139 52.662 261.695 53.214C261.263 53.754 261.047 54.516 261.047 55.5C261.047 56.484 261.263 57.252 261.695 57.804C262.139 58.356 262.751 58.632 263.531 58.632ZM145.454 71.82C146.858 71.82 147.956 72.234 148.748 73.062C149.54 73.89 149.936 75.036 149.936 76.5C149.936 77.964 149.54 79.11 148.748 79.938C147.956 80.766 146.858 81.18 145.454 81.18C144.05 81.18 142.952 80.766 142.16 79.938C141.368 79.11 140.972 77.964 140.972 76.5C140.972 75.036 141.368 73.89 142.16 73.062C142.952 72.234 144.05 71.82 145.454 71.82ZM145.454 73.332C144.638 73.332 144.008 73.608 143.564 74.16C143.132 74.7 142.916 75.48 142.916 76.5C142.916 77.52 143.132 78.306 143.564 78.858C144.008 79.398 144.638 79.668 145.454 79.668C146.27 79.668 146.9 79.392 147.344 78.84C147.788 78.288 148.01 77.508 148.01 76.5C148.01 75.492 147.788 74.712 147.344 74.16C146.9 73.608 146.27 73.332 145.454 73.332ZM157.414 71.82C157.834 71.82 158.164 71.88 158.404 72L158.098 73.764C157.822 73.608 157.444 73.53 156.964 73.53C156.58 73.53 156.214 73.632 155.866 73.836C155.53 74.04 155.248 74.346 155.02 74.754C154.804 75.162 154.696 75.654 154.696 76.23V81H152.77V72H154.408L154.57 73.62C155.074 72.42 156.022 71.82 157.414 71.82ZM165.434 79.596C166.346 79.596 167.054 79.8 167.558 80.208C168.062 80.616 168.314 81.18 168.314 81.9C168.314 82.512 168.11 83.04 167.702 83.484C167.306 83.928 166.754 84.27 166.046 84.51C165.35 84.75 164.564 84.87 163.688 84.87C162.26 84.87 161.186 84.66 160.466 84.24C159.758 83.82 159.404 83.262 159.404 82.566C159.404 82.158 159.542 81.798 159.818 81.486C160.106 81.186 160.502 80.97 161.006 80.838C160.622 80.658 160.316 80.43 160.088 80.154C159.86 79.866 159.746 79.524 159.746 79.128C159.746 78.252 160.214 77.652 161.15 77.328C160.694 77.064 160.346 76.722 160.106 76.302C159.878 75.882 159.764 75.402 159.764 74.862C159.764 74.262 159.926 73.734 160.25 73.278C160.574 72.81 161.03 72.45 161.618 72.198C162.218 71.946 162.902 71.82 163.67 71.82C164.33 71.82 164.936 71.916 165.488 72.108C165.656 71.448 165.956 70.95 166.388 70.614C166.832 70.266 167.414 70.098 168.134 70.11L168.458 71.604C167.882 71.592 167.414 71.664 167.054 71.82C166.706 71.976 166.466 72.21 166.334 72.522C166.73 72.798 167.036 73.134 167.252 73.53C167.468 73.926 167.576 74.37 167.576 74.862C167.576 75.786 167.216 76.524 166.496 77.076C165.788 77.628 164.846 77.904 163.67 77.904C163.118 77.904 162.62 77.85 162.176 77.742C161.876 77.814 161.654 77.934 161.51 78.102C161.378 78.258 161.312 78.468 161.312 78.732C161.312 79.008 161.408 79.224 161.6 79.38C161.804 79.524 162.08 79.596 162.428 79.596H165.434ZM163.67 73.17C163.118 73.17 162.656 73.332 162.284 73.656C161.912 73.968 161.726 74.37 161.726 74.862C161.726 75.366 161.912 75.78 162.284 76.104C162.656 76.416 163.118 76.572 163.67 76.572C164.234 76.572 164.696 76.416 165.056 76.104C165.428 75.78 165.614 75.366 165.614 74.862C165.614 74.358 165.428 73.95 165.056 73.638C164.696 73.326 164.234 73.17 163.67 73.17ZM163.868 83.43C164.744 83.43 165.428 83.304 165.92 83.052C166.412 82.8 166.658 82.488 166.658 82.116C166.658 81.816 166.538 81.588 166.298 81.432C166.058 81.276 165.656 81.198 165.092 81.198H162.662C162.122 81.198 161.714 81.282 161.438 81.45C161.174 81.618 161.042 81.852 161.042 82.152C161.042 82.56 161.276 82.872 161.744 83.088C162.224 83.316 162.932 83.43 163.868 83.43ZM178.299 79.74C178.563 79.74 178.785 79.716 178.965 79.668L178.839 80.964C178.515 81.108 178.143 81.18 177.723 81.18C177.207 81.18 176.793 81.078 176.481 80.874C176.181 80.67 175.983 80.328 175.887 79.848C175.611 80.268 175.203 80.598 174.663 80.838C174.123 81.066 173.517 81.18 172.845 81.18C171.969 81.18 171.261 80.976 170.721 80.568C170.181 80.16 169.911 79.578 169.911 78.822C169.911 78.114 170.205 77.52 170.793 77.04C171.381 76.548 172.257 76.2 173.421 75.996L175.707 75.6V75.114C175.707 74.562 175.545 74.13 175.221 73.818C174.897 73.494 174.447 73.332 173.871 73.332C172.683 73.332 171.909 73.872 171.549 74.952L170.055 74.16C170.271 73.44 170.709 72.87 171.369 72.45C172.041 72.03 172.863 71.82 173.835 71.82C174.999 71.82 175.923 72.09 176.607 72.63C177.291 73.17 177.633 73.962 177.633 75.006V79.074C177.633 79.302 177.681 79.47 177.777 79.578C177.885 79.686 178.059 79.74 178.299 79.74ZM173.259 79.722C173.907 79.722 174.477 79.566 174.969 79.254C175.461 78.942 175.707 78.528 175.707 78.012V76.932L173.745 77.328C173.121 77.448 172.659 77.616 172.359 77.832C172.059 78.048 171.909 78.336 171.909 78.696C171.909 79.032 172.023 79.29 172.251 79.47C172.491 79.638 172.827 79.722 173.259 79.722ZM185.991 71.82C186.987 71.82 187.797 72.108 188.421 72.684C189.057 73.26 189.375 74.088 189.375 75.168V81H187.449V75.78C187.449 74.196 186.807 73.404 185.523 73.404C184.851 73.404 184.275 73.638 183.795 74.106C183.315 74.562 183.075 75.27 183.075 76.23V81H181.149V72H182.859L182.949 73.494C183.249 72.93 183.663 72.51 184.191 72.234C184.719 71.958 185.319 71.82 185.991 71.82ZM193.625 70.488C193.217 70.488 192.899 70.386 192.671 70.182C192.443 69.966 192.329 69.666 192.329 69.282C192.329 68.898 192.443 68.604 192.671 68.4C192.899 68.196 193.217 68.094 193.625 68.094C194.033 68.094 194.345 68.196 194.561 68.4C194.789 68.604 194.903 68.898 194.903 69.282C194.903 69.666 194.789 69.966 194.561 70.182C194.345 70.386 194.033 70.488 193.625 70.488ZM194.579 81H192.653V72H194.579V81ZM197.377 79.668L201.751 74.592L202.831 73.476L201.283 73.512H197.413V72H204.955V73.332L200.599 78.408L199.519 79.524L201.229 79.488H205.117V81H197.377V79.668ZM215.746 76.23C215.746 76.578 215.722 76.908 215.674 77.22H209.086C209.194 78.012 209.476 78.618 209.932 79.038C210.388 79.446 210.976 79.65 211.696 79.65C212.284 79.65 212.77 79.548 213.154 79.344C213.55 79.128 213.82 78.822 213.964 78.426L215.566 79.092C214.894 80.484 213.604 81.18 211.696 81.18C210.28 81.18 209.17 80.766 208.366 79.938C207.574 79.11 207.178 77.964 207.178 76.5C207.178 75.024 207.562 73.878 208.33 73.062C209.098 72.234 210.178 71.82 211.57 71.82C212.89 71.82 213.916 72.222 214.648 73.026C215.38 73.83 215.746 74.898 215.746 76.23ZM211.57 73.35C210.874 73.35 210.31 73.554 209.878 73.962C209.458 74.37 209.194 74.964 209.086 75.744H213.946C213.85 74.988 213.592 74.4 213.172 73.98C212.764 73.56 212.23 73.35 211.57 73.35ZM227.007 72H229.923V73.512H227.061V81H225.135V73.512H223.443V72H225.135V70.704C225.135 69.792 225.411 69.084 225.963 68.58C226.515 68.076 227.289 67.824 228.285 67.824C228.645 67.824 228.975 67.866 229.275 67.95C229.575 68.022 229.809 68.124 229.977 68.256L229.617 69.66C229.341 69.48 228.999 69.39 228.591 69.39C227.535 69.39 227.007 69.876 227.007 70.848V72ZM235.784 71.82C237.188 71.82 238.286 72.234 239.078 73.062C239.87 73.89 240.266 75.036 240.266 76.5C240.266 77.964 239.87 79.11 239.078 79.938C238.286 80.766 237.188 81.18 235.784 81.18C234.38 81.18 233.282 80.766 232.49 79.938C231.698 79.11 231.302 77.964 231.302 76.5C231.302 75.036 231.698 73.89 232.49 73.062C233.282 72.234 234.38 71.82 235.784 71.82ZM235.784 73.332C234.968 73.332 234.338 73.608 233.894 74.16C233.462 74.7 233.246 75.48 233.246 76.5C233.246 77.52 233.462 78.306 233.894 78.858C234.338 79.398 234.968 79.668 235.784 79.668C236.6 79.668 237.23 79.392 237.674 78.84C238.118 78.288 238.34 77.508 238.34 76.5C238.34 75.492 238.118 74.712 237.674 74.16C237.23 73.608 236.6 73.332 235.784 73.332ZM247.06 71.82C248.464 71.82 249.562 72.234 250.354 73.062C251.146 73.89 251.542 75.036 251.542 76.5C251.542 77.964 251.146 79.11 250.354 79.938C249.562 80.766 248.464 81.18 247.06 81.18C245.656 81.18 244.558 80.766 243.766 79.938C242.974 79.11 242.578 77.964 242.578 76.5C242.578 75.036 242.974 73.89 243.766 73.062C244.558 72.234 245.656 71.82 247.06 71.82ZM247.06 73.332C246.244 73.332 245.614 73.608 245.17 74.16C244.738 74.7 244.522 75.48 244.522 76.5C244.522 77.52 244.738 78.306 245.17 78.858C245.614 79.398 246.244 79.668 247.06 79.668C247.876 79.668 248.506 79.392 248.95 78.84C249.394 78.288 249.616 77.508 249.616 76.5C249.616 75.492 249.394 74.712 248.95 74.16C248.506 73.608 247.876 73.332 247.06 73.332ZM262.71 67.95V81H261.019L260.91 79.398C260.647 79.938 260.245 80.37 259.704 80.694C259.176 81.018 258.57 81.18 257.887 81.18C256.65 81.18 255.672 80.772 254.952 79.956C254.244 79.128 253.89 77.982 253.89 76.518C253.89 75.054 254.244 73.908 254.952 73.08C255.672 72.24 256.65 71.82 257.887 71.82C258.546 71.82 259.128 71.97 259.633 72.27C260.137 72.558 260.521 72.954 260.784 73.458V67.95H262.71ZM258.318 79.632C259.074 79.632 259.674 79.362 260.118 78.822C260.562 78.282 260.784 77.544 260.784 76.608V76.392C260.784 75.456 260.562 74.724 260.118 74.196C259.674 73.656 259.074 73.386 258.318 73.386C257.539 73.386 256.926 73.662 256.482 74.214C256.05 74.754 255.834 75.516 255.834 76.5C255.834 77.484 256.05 78.252 256.482 78.804C256.926 79.356 257.539 79.632 258.318 79.632ZM145.454 92.82C147.422 92.82 148.724 93.66 149.36 95.34L147.56 96.06C147.248 94.92 146.546 94.35 145.454 94.35C144.65 94.35 144.026 94.626 143.582 95.178C143.138 95.73 142.916 96.51 142.916 97.518C142.916 98.526 143.138 99.3 143.582 99.84C144.026 100.38 144.65 100.65 145.454 100.65C146.066 100.65 146.558 100.5 146.93 100.2C147.302 99.9 147.548 99.468 147.668 98.904L149.432 99.498C149.168 100.338 148.7 100.998 148.028 101.478C147.356 101.946 146.51 102.18 145.49 102.18C144.074 102.18 142.964 101.766 142.16 100.938C141.368 100.11 140.972 98.964 140.972 97.5C140.972 96.036 141.368 94.89 142.16 94.062C142.952 93.234 144.05 92.82 145.454 92.82ZM156.009 92.82C157.413 92.82 158.511 93.234 159.303 94.062C160.095 94.89 160.491 96.036 160.491 97.5C160.491 98.964 160.095 100.11 159.303 100.938C158.511 101.766 157.413 102.18 156.009 102.18C154.605 102.18 153.507 101.766 152.715 100.938C151.923 100.11 151.527 98.964 151.527 97.5C151.527 96.036 151.923 94.89 152.715 94.062C153.507 93.234 154.605 92.82 156.009 92.82ZM156.009 94.332C155.193 94.332 154.563 94.608 154.119 95.16C153.687 95.7 153.471 96.48 153.471 97.5C153.471 98.52 153.687 99.306 154.119 99.858C154.563 100.398 155.193 100.668 156.009 100.668C156.825 100.668 157.455 100.392 157.899 99.84C158.343 99.288 158.565 98.508 158.565 97.5C158.565 96.492 158.343 95.712 157.899 95.16C157.455 94.608 156.825 94.332 156.009 94.332ZM168.167 92.82C169.163 92.82 169.973 93.108 170.597 93.684C171.233 94.26 171.551 95.088 171.551 96.168V102H169.625V96.78C169.625 95.196 168.983 94.404 167.699 94.404C167.027 94.404 166.451 94.638 165.971 95.106C165.491 95.562 165.251 96.27 165.251 97.23V102H163.325V93H165.035L165.125 94.494C165.425 93.93 165.839 93.51 166.367 93.234C166.895 92.958 167.495 92.82 168.167 92.82ZM180.556 101.406C180.268 101.646 179.914 101.838 179.494 101.982C179.086 102.114 178.642 102.18 178.162 102.18C177.334 102.18 176.668 101.976 176.164 101.568C175.672 101.148 175.42 100.5 175.408 99.624V94.512H173.698V93H175.408V90.894L177.334 90.354V93H180.484V94.512H177.334V99.3C177.334 99.732 177.448 100.056 177.676 100.272C177.916 100.476 178.24 100.578 178.648 100.578C179.2 100.578 179.686 100.386 180.106 100.002L180.556 101.406ZM190.759 97.23C190.759 97.578 190.735 97.908 190.687 98.22H184.099C184.207 99.012 184.489 99.618 184.945 100.038C185.401 100.446 185.989 100.65 186.709 100.65C187.297 100.65 187.783 100.548 188.167 100.344C188.563 100.128 188.833 99.822 188.977 99.426L190.579 100.092C189.907 101.484 188.617 102.18 186.709 102.18C185.293 102.18 184.183 101.766 183.379 100.938C182.587 100.11 182.191 98.964 182.191 97.5C182.191 96.024 182.575 94.878 183.343 94.062C184.111 93.234 185.191 92.82 186.583 92.82C187.903 92.82 188.929 93.222 189.661 94.026C190.393 94.83 190.759 95.898 190.759 97.23ZM186.583 94.35C185.887 94.35 185.323 94.554 184.891 94.962C184.471 95.37 184.207 95.964 184.099 96.744H188.959C188.863 95.988 188.605 95.4 188.185 94.98C187.777 94.56 187.243 94.35 186.583 94.35ZM198.374 92.82C199.37 92.82 200.18 93.108 200.804 93.684C201.44 94.26 201.758 95.088 201.758 96.168V102H199.832V96.78C199.832 95.196 199.19 94.404 197.906 94.404C197.234 94.404 196.658 94.638 196.178 95.106C195.698 95.562 195.458 96.27 195.458 97.23V102H193.532V93H195.242L195.332 94.494C195.632 93.93 196.046 93.51 196.574 93.234C197.102 92.958 197.702 92.82 198.374 92.82ZM210.763 101.406C210.475 101.646 210.121 101.838 209.701 101.982C209.293 102.114 208.849 102.18 208.369 102.18C207.541 102.18 206.875 101.976 206.371 101.568C205.879 101.148 205.627 100.5 205.615 99.624V94.512H203.905V93H205.615V90.894L207.541 90.354V93H210.691V94.512H207.541V99.3C207.541 99.732 207.655 100.056 207.883 100.272C208.123 100.476 208.447 100.578 208.855 100.578C209.407 100.578 209.893 100.386 210.313 100.002L210.763 101.406ZM223.094 92.82C224.498 92.82 225.596 93.234 226.388 94.062C227.18 94.89 227.576 96.036 227.576 97.5C227.576 98.964 227.18 100.11 226.388 100.938C225.596 101.766 224.498 102.18 223.094 102.18C221.69 102.18 220.592 101.766 219.8 100.938C219.008 100.11 218.612 98.964 218.612 97.5C218.612 96.036 219.008 94.89 219.8 94.062C220.592 93.234 221.69 92.82 223.094 92.82ZM223.094 94.332C222.278 94.332 221.648 94.608 221.204 95.16C220.772 95.7 220.556 96.48 220.556 97.5C220.556 98.52 220.772 99.306 221.204 99.858C221.648 100.398 222.278 100.668 223.094 100.668C223.91 100.668 224.54 100.392 224.984 99.84C225.428 99.288 225.65 98.508 225.65 97.5C225.65 96.492 225.428 95.712 224.984 95.16C224.54 94.608 223.91 94.332 223.094 94.332ZM235.252 92.82C236.248 92.82 237.058 93.108 237.682 93.684C238.318 94.26 238.636 95.088 238.636 96.168V102H236.71V96.78C236.71 95.196 236.068 94.404 234.784 94.404C234.112 94.404 233.536 94.638 233.056 95.106C232.576 95.562 232.336 96.27 232.336 97.23V102H230.41V93H232.12L232.21 94.494C232.51 93.93 232.924 93.51 233.452 93.234C233.98 92.958 234.58 92.82 235.252 92.82ZM243.786 99.372C243.786 99.816 243.852 100.128 243.984 100.308C244.116 100.476 244.362 100.56 244.722 100.56C244.95 100.56 245.142 100.548 245.298 100.524C245.466 100.488 245.67 100.422 245.91 100.326L245.694 101.874C245.286 102.078 244.788 102.18 244.2 102.18C243.396 102.18 242.802 101.976 242.418 101.568C242.046 101.16 241.86 100.518 241.86 99.642V88.95H243.786V99.372ZM248.854 91.488C248.446 91.488 248.128 91.386 247.9 91.182C247.672 90.966 247.558 90.666 247.558 90.282C247.558 89.898 247.672 89.604 247.9 89.4C248.128 89.196 248.446 89.094 248.854 89.094C249.262 89.094 249.574 89.196 249.79 89.4C250.018 89.604 250.132 89.898 250.132 90.282C250.132 90.666 250.018 90.966 249.79 91.182C249.574 91.386 249.262 91.488 248.854 91.488ZM249.808 102H247.882V93H249.808V102ZM258.023 92.82C259.019 92.82 259.829 93.108 260.453 93.684C261.089 94.26 261.407 95.088 261.407 96.168V102H259.481V96.78C259.481 95.196 258.839 94.404 257.555 94.404C256.883 94.404 256.307 94.638 255.827 95.106C255.347 95.562 255.107 96.27 255.107 97.23V102H253.181V93H254.891L254.981 94.494C255.281 93.93 255.695 93.51 256.223 93.234C256.751 92.958 257.351 92.82 258.023 92.82ZM272.732 97.23C272.732 97.578 272.708 97.908 272.66 98.22H266.072C266.18 99.012 266.462 99.618 266.918 100.038C267.374 100.446 267.962 100.65 268.682 100.65C269.27 100.65 269.756 100.548 270.14 100.344C270.536 100.128 270.806 99.822 270.95 99.426L272.552 100.092C271.88 101.484 270.59 102.18 268.682 102.18C267.266 102.18 266.156 101.766 265.352 100.938C264.56 100.11 264.164 98.964 264.164 97.5C264.164 96.024 264.548 94.878 265.316 94.062C266.084 93.234 267.164 92.82 268.556 92.82C269.876 92.82 270.902 93.222 271.634 94.026C272.366 94.83 272.732 95.898 272.732 97.23ZM268.556 94.35C267.86 94.35 267.296 94.554 266.864 94.962C266.444 95.37 266.18 95.964 266.072 96.744H270.932C270.836 95.988 270.578 95.4 270.158 94.98C269.75 94.56 269.216 94.35 268.556 94.35Z" fill="#22181C"/>
<g filter="url(#filter0_d)">
<path d="M95.3554 20.6447C103.869 29.1581 109.024 40.4575 109.875 52.4671C110.726 64.4768 107.214 76.3901 99.9861 86.0186C92.7577 95.647 82.2979 102.344 70.528 104.879C58.7582 107.414 46.4689 105.617 35.9176 99.8183C25.3664 94.0193 17.2619 84.6079 13.0931 73.313C8.92418 62.018 8.97088 49.5981 13.2246 38.3348C17.4783 27.0715 25.6533 17.7213 36.2478 12.0019C46.8423 6.28248 59.1448 4.57798 70.8953 7.20151L60 56L95.3554 20.6447Z" fill="#256EFF"/>
</g>
<path d="M5.634 175.976C7.014 175.976 8.1 176.276 8.892 176.876C9.696 177.464 10.098 178.274 10.098 179.306C10.098 179.918 9.93 180.452 9.594 180.908C9.27 181.352 8.808 181.688 8.208 181.916V181.934C8.94 182.174 9.498 182.54 9.882 183.032C10.278 183.524 10.476 184.13 10.476 184.85C10.476 185.882 10.044 186.698 9.18 187.298C8.328 187.886 7.146 188.18 5.634 188.18C4.146 188.18 2.97 187.886 2.106 187.298C1.242 186.698 0.81 185.882 0.81 184.85C0.81 184.13 1.002 183.524 1.386 183.032C1.782 182.54 2.346 182.174 3.078 181.934V181.916C2.478 181.688 2.01 181.352 1.674 180.908C1.35 180.452 1.188 179.918 1.188 179.306C1.188 178.274 1.584 177.464 2.376 176.876C3.18 176.276 4.266 175.976 5.634 175.976ZM5.634 178.226C5.142 178.226 4.758 178.346 4.482 178.586C4.206 178.826 4.068 179.162 4.068 179.594C4.068 180.014 4.206 180.35 4.482 180.602C4.77 180.842 5.154 180.962 5.634 180.962C6.126 180.962 6.51 180.842 6.786 180.602C7.074 180.35 7.218 180.014 7.218 179.594C7.218 179.162 7.074 178.826 6.786 178.586C6.51 178.346 6.126 178.226 5.634 178.226ZM5.634 185.93C6.21 185.93 6.66 185.798 6.984 185.534C7.308 185.27 7.47 184.91 7.47 184.454C7.47 183.986 7.308 183.626 6.984 183.374C6.66 183.11 6.21 182.978 5.634 182.978C5.07 182.978 4.626 183.11 4.302 183.374C3.978 183.626 3.816 183.986 3.816 184.454C3.816 184.91 3.978 185.27 4.302 185.534C4.626 185.798 5.07 185.93 5.634 185.93ZM21.5599 176.12V178.316C20.1439 179.684 19.1419 181.154 18.5539 182.726C17.9659 184.298 17.6719 186.056 17.6719 188H14.6119C14.6119 186.188 14.9239 184.508 15.5479 182.96C16.1839 181.4 17.1799 179.93 18.5359 178.55H11.7859V176.12H21.5599ZM26.3346 175.94C27.3426 175.94 28.1526 176.252 28.7646 176.876C29.3766 177.488 29.6826 178.304 29.6826 179.324C29.6826 180.344 29.3766 181.166 28.7646 181.79C28.1526 182.402 27.3426 182.708 26.3346 182.708C25.3266 182.708 24.5166 182.402 23.9046 181.79C23.2926 181.166 22.9866 180.344 22.9866 179.324C22.9866 178.304 23.2926 177.488 23.9046 176.876C24.5166 176.252 25.3266 175.94 26.3346 175.94ZM33.8586 176.102H36.1986L27.9366 188H25.5966L33.8586 176.102ZM26.3346 177.992C25.9986 177.992 25.7346 178.112 25.5426 178.352C25.3626 178.58 25.2726 178.904 25.2726 179.324C25.2726 179.744 25.3626 180.074 25.5426 180.314C25.7346 180.542 25.9986 180.656 26.3346 180.656C26.6826 180.656 26.9466 180.542 27.1266 180.314C27.3186 180.074 27.4146 179.744 27.4146 179.324C27.4146 178.904 27.3186 178.58 27.1266 178.352C26.9466 178.112 26.6826 177.992 26.3346 177.992ZM35.4246 181.412C36.4326 181.412 37.2426 181.724 37.8546 182.348C38.4666 182.96 38.7726 183.776 38.7726 184.796C38.7726 185.816 38.4666 186.638 37.8546 187.262C37.2426 187.874 36.4326 188.18 35.4246 188.18C34.4166 188.18 33.6066 187.874 32.9946 187.262C32.3826 186.638 32.0766 185.816 32.0766 184.796C32.0766 183.776 32.3826 182.96 32.9946 182.348C33.6066 181.724 34.4166 181.412 35.4246 181.412ZM35.4246 183.464C35.0766 183.464 34.8066 183.584 34.6146 183.824C34.4346 184.052 34.3446 184.376 34.3446 184.796C34.3446 185.216 34.4346 185.546 34.6146 185.786C34.8066 186.014 35.0766 186.128 35.4246 186.128C35.7726 186.128 36.0366 186.014 36.2166 185.786C36.4086 185.546 36.5046 185.216 36.5046 184.796C36.5046 184.376 36.4086 184.052 36.2166 183.824C36.0366 183.584 35.7726 183.464 35.4246 183.464ZM50.6635 178.82C52.0675 178.82 53.1655 179.234 53.9575 180.062C54.7495 180.89 55.1455 182.036 55.1455 183.5C55.1455 184.964 54.7495 186.11 53.9575 186.938C53.1655 187.766 52.0675 188.18 50.6635 188.18C49.2595 188.18 48.1615 187.766 47.3695 186.938C46.5775 186.11 46.1815 184.964 46.1815 183.5C46.1815 182.036 46.5775 180.89 47.3695 180.062C48.1615 179.234 49.2595 178.82 50.6635 178.82ZM50.6635 180.332C49.8475 180.332 49.2175 180.608 48.7735 181.16C48.3415 181.7 48.1255 182.48 48.1255 183.5C48.1255 184.52 48.3415 185.306 48.7735 185.858C49.2175 186.398 49.8475 186.668 50.6635 186.668C51.4795 186.668 52.1095 186.392 52.5535 185.84C52.9975 185.288 53.2195 184.508 53.2195 183.5C53.2195 182.492 52.9975 181.712 52.5535 181.16C52.1095 180.608 51.4795 180.332 50.6635 180.332ZM60.4125 179H63.3285V180.512H60.4665V188H58.5405V180.512H56.8485V179H58.5405V177.704C58.5405 176.792 58.8165 176.084 59.3685 175.58C59.9205 175.076 60.6945 174.824 61.6905 174.824C62.0505 174.824 62.3805 174.866 62.6805 174.95C62.9805 175.022 63.2145 175.124 63.3825 175.256L63.0225 176.66C62.7465 176.48 62.4045 176.39 61.9965 176.39C60.9405 176.39 60.4125 176.876 60.4125 177.848V179ZM79.1934 179V188H77.4834L77.4114 186.542C76.7994 187.634 75.7314 188.18 74.2074 188.18C73.2354 188.18 72.4494 187.916 71.8494 187.388C71.2614 186.848 70.9674 186.026 70.9674 184.922V179H72.8934V184.418C72.8934 185.21 73.0494 185.774 73.3614 186.11C73.6734 186.434 74.1354 186.596 74.7474 186.596C75.4794 186.596 76.0794 186.368 76.5474 185.912C77.0274 185.444 77.2674 184.76 77.2674 183.86V179H79.1934ZM85.8019 188.18C84.8899 188.18 84.0799 188.024 83.3719 187.712C82.6759 187.4 82.1479 186.926 81.7879 186.29L83.0839 185.174C83.3119 185.69 83.6659 186.068 84.1459 186.308C84.6259 186.548 85.2019 186.668 85.8739 186.668C86.4859 186.668 86.9599 186.572 87.2959 186.38C87.6319 186.176 87.7999 185.912 87.7999 185.588C87.7999 185.3 87.6439 185.072 87.3319 184.904C87.0199 184.724 86.4799 184.556 85.7119 184.4C84.3799 184.148 83.4439 183.812 82.9039 183.392C82.3639 182.972 82.0939 182.378 82.0939 181.61C82.0939 181.118 82.2439 180.662 82.5439 180.242C82.8439 179.81 83.2759 179.468 83.8399 179.216C84.4159 178.952 85.0939 178.82 85.8739 178.82C86.8699 178.82 87.6679 178.988 88.2679 179.324C88.8679 179.648 89.3299 180.158 89.6539 180.854L88.2859 181.862C88.0699 181.334 87.7639 180.95 87.3679 180.71C86.9839 180.458 86.4919 180.332 85.8919 180.332C85.3519 180.332 84.9019 180.446 84.5419 180.674C84.1939 180.89 84.0199 181.142 84.0199 181.43C84.0199 181.754 84.1759 182.012 84.4879 182.204C84.8119 182.396 85.3939 182.57 86.2339 182.726C87.5059 182.954 88.4059 183.278 88.9339 183.698C89.4619 184.118 89.7259 184.706 89.7259 185.462C89.7259 186.266 89.3779 186.92 88.6819 187.424C87.9859 187.928 87.0259 188.18 85.8019 188.18ZM100.46 183.23C100.46 183.578 100.436 183.908 100.388 184.22H93.7997C93.9077 185.012 94.1897 185.618 94.6457 186.038C95.1017 186.446 95.6897 186.65 96.4097 186.65C96.9977 186.65 97.4837 186.548 97.8677 186.344C98.2637 186.128 98.5337 185.822 98.6777 185.426L100.28 186.092C99.6077 187.484 98.3177 188.18 96.4097 188.18C94.9937 188.18 93.8837 187.766 93.0797 186.938C92.2877 186.11 91.8917 184.964 91.8917 183.5C91.8917 182.024 92.2757 180.878 93.0437 180.062C93.8117 179.234 94.8917 178.82 96.2837 178.82C97.6037 178.82 98.6297 179.222 99.3617 180.026C100.094 180.83 100.46 181.898 100.46 183.23ZM96.2837 180.35C95.5877 180.35 95.0237 180.554 94.5917 180.962C94.1717 181.37 93.9077 181.964 93.7997 182.744H98.6597C98.5637 181.988 98.3057 181.4 97.8857 180.98C97.4777 180.56 96.9437 180.35 96.2837 180.35ZM107.877 178.82C108.297 178.82 108.627 178.88 108.867 179L108.561 180.764C108.285 180.608 107.907 180.53 107.427 180.53C107.043 180.53 106.677 180.632 106.329 180.836C105.993 181.04 105.711 181.346 105.483 181.754C105.267 182.162 105.159 182.654 105.159 183.23V188H103.233V179H104.871L105.033 180.62C105.537 179.42 106.485 178.82 107.877 178.82ZM114.005 188.18C113.093 188.18 112.283 188.024 111.575 187.712C110.879 187.4 110.351 186.926 109.991 186.29L111.287 185.174C111.515 185.69 111.869 186.068 112.349 186.308C112.829 186.548 113.405 186.668 114.077 186.668C114.689 186.668 115.163 186.572 115.499 186.38C115.835 186.176 116.003 185.912 116.003 185.588C116.003 185.3 115.847 185.072 115.535 184.904C115.223 184.724 114.683 184.556 113.915 184.4C112.583 184.148 111.647 183.812 111.107 183.392C110.567 182.972 110.297 182.378 110.297 181.61C110.297 181.118 110.447 180.662 110.747 180.242C111.047 179.81 111.479 179.468 112.043 179.216C112.619 178.952 113.297 178.82 114.077 178.82C115.073 178.82 115.871 178.988 116.471 179.324C117.071 179.648 117.533 180.158 117.857 180.854L116.489 181.862C116.273 181.334 115.967 180.95 115.571 180.71C115.187 180.458 114.695 180.332 114.095 180.332C113.555 180.332 113.105 180.446 112.745 180.674C112.397 180.89 112.223 181.142 112.223 181.43C112.223 181.754 112.379 182.012 112.691 182.204C113.015 182.396 113.597 182.57 114.437 182.726C115.709 182.954 116.609 183.278 117.137 183.698C117.665 184.118 117.929 184.706 117.929 185.462C117.929 186.266 117.581 186.92 116.885 187.424C116.189 187.928 115.229 188.18 114.005 188.18ZM129.123 179H132.039V180.512H129.177V188H127.251V180.512H125.559V179H127.251V177.704C127.251 176.792 127.527 176.084 128.079 175.58C128.631 175.076 129.405 174.824 130.401 174.824C130.761 174.824 131.091 174.866 131.391 174.95C131.691 175.022 131.925 175.124 132.093 175.256L131.733 176.66C131.457 176.48 131.115 176.39 130.707 176.39C129.651 176.39 129.123 176.876 129.123 177.848V179ZM134.739 177.488C134.331 177.488 134.013 177.386 133.785 177.182C133.557 176.966 133.443 176.666 133.443 176.282C133.443 175.898 133.557 175.604 133.785 175.4C134.013 175.196 134.331 175.094 134.739 175.094C135.147 175.094 135.459 175.196 135.675 175.4C135.903 175.604 136.017 175.898 136.017 176.282C136.017 176.666 135.903 176.966 135.675 177.182C135.459 177.386 135.147 177.488 134.739 177.488ZM135.693 188H133.767V179H135.693V188ZM143.88 178.82C144.876 178.82 145.686 179.108 146.31 179.684C146.946 180.26 147.264 181.088 147.264 182.168V188H145.338V182.78C145.338 181.196 144.696 180.404 143.412 180.404C142.74 180.404 142.164 180.638 141.684 181.106C141.204 181.562 140.964 182.27 140.964 183.23V188H139.038V179H140.748L140.838 180.494C141.138 179.93 141.552 179.51 142.08 179.234C142.608 178.958 143.208 178.82 143.88 178.82ZM158.876 174.95V188H157.184L157.076 186.398C156.812 186.938 156.41 187.37 155.87 187.694C155.342 188.018 154.736 188.18 154.052 188.18C152.816 188.18 151.838 187.772 151.118 186.956C150.41 186.128 150.056 184.982 150.056 183.518C150.056 182.054 150.41 180.908 151.118 180.08C151.838 179.24 152.816 178.82 154.052 178.82C154.712 178.82 155.294 178.97 155.798 179.27C156.302 179.558 156.686 179.954 156.95 180.458V174.95H158.876ZM154.484 186.632C155.24 186.632 155.84 186.362 156.284 185.822C156.728 185.282 156.95 184.544 156.95 183.608V183.392C156.95 182.456 156.728 181.724 156.284 181.196C155.84 180.656 155.24 180.386 154.484 180.386C153.704 180.386 153.092 180.662 152.648 181.214C152.216 181.754 152 182.516 152 183.5C152 184.484 152.216 185.252 152.648 185.804C153.092 186.356 153.704 186.632 154.484 186.632ZM7.326 208.406C7.038 208.646 6.684 208.838 6.264 208.982C5.856 209.114 5.412 209.18 4.932 209.18C4.104 209.18 3.438 208.976 2.934 208.568C2.442 208.148 2.19 207.5 2.178 206.624V201.512H0.468V200H2.178V197.894L4.104 197.354V200H7.254V201.512H4.104V206.3C4.104 206.732 4.218 207.056 4.446 207.272C4.686 207.476 5.01 207.578 5.418 207.578C5.97 207.578 6.456 207.386 6.876 207.002L7.326 208.406ZM14.3952 199.82C15.3912 199.82 16.2012 200.108 16.8252 200.684C17.4612 201.26 17.7792 202.088 17.7792 203.168V209H15.8532V203.78C15.8532 202.196 15.2112 201.404 13.9272 201.404C13.2552 201.404 12.6792 201.638 12.1992 202.106C11.7192 202.574 11.4792 203.288 11.4792 204.248V209H9.55322V195.95H11.4792V201.44C11.7792 200.888 12.1752 200.48 12.6672 200.216C13.1712 199.952 13.7472 199.82 14.3952 199.82ZM29.1037 204.23C29.1037 204.578 29.0797 204.908 29.0317 205.22H22.4437C22.5517 206.012 22.8337 206.618 23.2897 207.038C23.7457 207.446 24.3337 207.65 25.0537 207.65C25.6417 207.65 26.1277 207.548 26.5117 207.344C26.9077 207.128 27.1777 206.822 27.3217 206.426L28.9238 207.092C28.2517 208.484 26.9617 209.18 25.0537 209.18C23.6377 209.18 22.5277 208.766 21.7237 207.938C20.9317 207.11 20.5357 205.964 20.5357 204.5C20.5357 203.024 20.9197 201.878 21.6877 201.062C22.4557 200.234 23.5357 199.82 24.9277 199.82C26.2477 199.82 27.2737 200.222 28.0057 201.026C28.7377 201.83 29.1037 202.898 29.1037 204.23ZM24.9277 201.35C24.2317 201.35 23.6677 201.554 23.2357 201.962C22.8157 202.37 22.5517 202.964 22.4437 203.744H27.3037C27.2077 202.988 26.9497 202.4 26.5297 201.98C26.1217 201.56 25.5877 201.35 24.9277 201.35ZM48.9442 199.82C49.5442 199.82 50.0962 199.946 50.6002 200.198C51.1042 200.438 51.5062 200.81 51.8062 201.314C52.1062 201.818 52.2562 202.436 52.2562 203.168V209H50.3302V203.474C50.3302 202.766 50.1622 202.244 49.8262 201.908C49.4902 201.572 49.0402 201.404 48.4762 201.404C47.8162 201.404 47.2582 201.644 46.8022 202.124C46.3582 202.604 46.1362 203.264 46.1362 204.104V209H44.2102V203.474C44.2102 202.766 44.0422 202.244 43.7062 201.908C43.3702 201.572 42.9202 201.404 42.3562 201.404C41.9722 201.404 41.6002 201.506 41.2402 201.71C40.8802 201.902 40.5862 202.208 40.3582 202.628C40.1302 203.048 40.0162 203.576 40.0162 204.212V209H38.0902V200H39.8002L39.8902 201.494C40.1902 200.942 40.5982 200.528 41.1142 200.252C41.6302 199.964 42.1942 199.82 42.8062 199.82C43.4782 199.82 44.0842 199.976 44.6242 200.288C45.1762 200.588 45.5842 201.032 45.8482 201.62C46.1242 201.032 46.5442 200.588 47.1082 200.288C47.6842 199.976 48.2962 199.82 48.9442 199.82ZM63.3122 207.74C63.5762 207.74 63.7982 207.716 63.9782 207.668L63.8522 208.964C63.5282 209.108 63.1562 209.18 62.7362 209.18C62.2202 209.18 61.8062 209.078 61.4942 208.874C61.1942 208.67 60.9962 208.328 60.9002 207.848C60.6242 208.268 60.2162 208.598 59.6762 208.838C59.1362 209.066 58.5302 209.18 57.8582 209.18C56.9822 209.18 56.2742 208.976 55.7342 208.568C55.1942 208.16 54.9242 207.578 54.9242 206.822C54.9242 206.114 55.2182 205.52 55.8062 205.04C56.3942 204.548 57.2702 204.2 58.4342 203.996L60.7202 203.6V203.114C60.7202 202.562 60.5582 202.13 60.2342 201.818C59.9102 201.494 59.4602 201.332 58.8842 201.332C57.6962 201.332 56.9222 201.872 56.5622 202.952L55.0682 202.16C55.2842 201.44 55.7222 200.87 56.3822 200.45C57.0542 200.03 57.8762 199.82 58.8482 199.82C60.0122 199.82 60.9362 200.09 61.6202 200.63C62.3042 201.17 62.6462 201.962 62.6462 203.006V207.074C62.6462 207.302 62.6942 207.47 62.7902 207.578C62.8982 207.686 63.0722 207.74 63.3122 207.74ZM58.2722 207.722C58.9202 207.722 59.4902 207.566 59.9822 207.254C60.4742 206.942 60.7202 206.528 60.7202 206.012V204.932L58.7582 205.328C58.1342 205.448 57.6722 205.616 57.3722 205.832C57.0722 206.048 56.9222 206.336 56.9222 206.696C56.9222 207.032 57.0362 207.29 57.2642 207.47C57.5042 207.638 57.8402 207.722 58.2722 207.722ZM67.1338 196.094C67.5178 196.094 67.8238 196.202 68.0518 196.418C68.2918 196.634 68.4118 196.922 68.4118 197.282C68.4118 197.642 68.2918 197.936 68.0518 198.164C67.8238 198.38 67.5178 198.488 67.1338 198.488C66.7378 198.488 66.4198 198.38 66.1798 198.164C65.9518 197.936 65.8378 197.642 65.8378 197.282C65.8378 196.922 65.9518 196.634 66.1798 196.418C66.4198 196.202 66.7378 196.094 67.1338 196.094ZM68.0878 209.792C68.0878 210.86 67.8058 211.64 67.2418 212.132C66.6898 212.624 65.9878 212.87 65.1358 212.87C64.3558 212.87 63.6958 212.672 63.1558 212.276L63.4978 210.728C63.9058 211.064 64.3678 211.232 64.8838 211.232C65.2918 211.232 65.6038 211.106 65.8198 210.854C66.0478 210.602 66.1618 210.188 66.1618 209.612V200H68.0878V209.792ZM75.4037 199.82C76.8077 199.82 77.9057 200.234 78.6977 201.062C79.4897 201.89 79.8857 203.036 79.8857 204.5C79.8857 205.964 79.4897 207.11 78.6977 207.938C77.9057 208.766 76.8077 209.18 75.4037 209.18C73.9997 209.18 72.9017 208.766 72.1097 207.938C71.3177 207.11 70.9217 205.964 70.9217 204.5C70.9217 203.036 71.3177 201.89 72.1097 201.062C72.9017 200.234 73.9997 199.82 75.4037 199.82ZM75.4037 201.332C74.5877 201.332 73.9577 201.608 73.5137 202.16C73.0817 202.7 72.8657 203.48 72.8657 204.5C72.8657 205.52 73.0817 206.306 73.5137 206.858C73.9577 207.398 74.5877 207.668 75.4037 207.668C76.2197 207.668 76.8497 207.392 77.2937 206.84C77.7377 206.288 77.9597 205.508 77.9597 204.5C77.9597 203.492 77.7377 202.712 77.2937 202.16C76.8497 201.608 76.2197 201.332 75.4037 201.332ZM87.3637 199.82C87.7837 199.82 88.1137 199.88 88.3537 200L88.0477 201.764C87.7717 201.608 87.3937 201.53 86.9137 201.53C86.5297 201.53 86.1637 201.632 85.8157 201.836C85.4797 202.04 85.1977 202.346 84.9697 202.754C84.7537 203.162 84.6457 203.654 84.6457 204.23V209H82.7197V200H84.3577L84.5197 201.62C85.0237 200.42 85.9717 199.82 87.3637 199.82ZM91.5048 198.488C91.0968 198.488 90.7788 198.386 90.5508 198.182C90.3228 197.966 90.2088 197.666 90.2088 197.282C90.2088 196.898 90.3228 196.604 90.5508 196.4C90.7788 196.196 91.0968 196.094 91.5048 196.094C91.9128 196.094 92.2248 196.196 92.4408 196.4C92.6688 196.604 92.7828 196.898 92.7828 197.282C92.7828 197.666 92.6688 197.966 92.4408 198.182C92.2248 198.386 91.9128 198.488 91.5048 198.488ZM92.4588 209H90.5328V200H92.4588V209ZM100.476 199.82C100.896 199.82 101.226 199.88 101.466 200L101.16 201.764C100.884 201.608 100.506 201.53 100.026 201.53C99.6423 201.53 99.2763 201.632 98.9283 201.836C98.5923 202.04 98.3103 202.346 98.0823 202.754C97.8663 203.162 97.7583 203.654 97.7583 204.23V209H95.8323V200H97.4703L97.6323 201.62C98.1363 200.42 99.0843 199.82 100.476 199.82ZM109.02 208.406C108.732 208.646 108.378 208.838 107.958 208.982C107.55 209.114 107.106 209.18 106.626 209.18C105.798 209.18 105.132 208.976 104.628 208.568C104.136 208.148 103.884 207.5 103.872 206.624V201.512H102.162V200H103.872V197.894L105.798 197.354V200H108.948V201.512H105.798V206.3C105.798 206.732 105.912 207.056 106.14 207.272C106.38 207.476 106.704 207.578 107.112 207.578C107.664 207.578 108.15 207.386 108.57 207.002L109.02 208.406ZM115.335 210.062C114.939 211.094 114.489 211.82 113.985 212.24C113.481 212.66 112.821 212.87 112.005 212.87C111.537 212.87 111.129 212.81 110.781 212.69C110.445 212.582 110.145 212.402 109.881 212.15L110.439 210.674C110.799 211.106 111.291 211.322 111.915 211.322C112.275 211.322 112.575 211.226 112.815 211.034C113.067 210.854 113.289 210.518 113.481 210.026L113.877 209.054L112.941 206.822L110.133 200H112.293L114.273 205.652L114.795 207.344L115.407 205.49L117.279 200H119.277L115.335 210.062ZM131.098 199.82C132.502 199.82 133.6 200.234 134.392 201.062C135.184 201.89 135.58 203.036 135.58 204.5C135.58 205.964 135.184 207.11 134.392 207.938C133.6 208.766 132.502 209.18 131.098 209.18C129.694 209.18 128.596 208.766 127.804 207.938C127.012 207.11 126.616 205.964 126.616 204.5C126.616 203.036 127.012 201.89 127.804 201.062C128.596 200.234 129.694 199.82 131.098 199.82ZM131.098 201.332C130.282 201.332 129.652 201.608 129.208 202.16C128.776 202.7 128.56 203.48 128.56 204.5C128.56 205.52 128.776 206.306 129.208 206.858C129.652 207.398 130.282 207.668 131.098 207.668C131.914 207.668 132.544 207.392 132.988 206.84C133.432 206.288 133.654 205.508 133.654 204.5C133.654 203.492 133.432 202.712 132.988 202.16C132.544 201.608 131.914 201.332 131.098 201.332ZM140.846 200H143.762V201.512H140.9V209H138.974V201.512H137.282V200H138.974V198.704C138.974 197.792 139.25 197.084 139.802 196.58C140.354 196.076 141.128 195.824 142.124 195.824C142.484 195.824 142.814 195.866 143.114 195.95C143.414 196.022 143.648 196.124 143.816 196.256L143.456 197.66C143.18 197.48 142.838 197.39 142.43 197.39C141.374 197.39 140.846 197.876 140.846 198.848V200ZM7.326 229.406C7.038 229.646 6.684 229.838 6.264 229.982C5.856 230.114 5.412 230.18 4.932 230.18C4.104 230.18 3.438 229.976 2.934 229.568C2.442 229.148 2.19 228.5 2.178 227.624V222.512H0.468V221H2.178V218.894L4.104 218.354V221H7.254V222.512H4.104V227.3C4.104 227.732 4.218 228.056 4.446 228.272C4.686 228.476 5.01 228.578 5.418 228.578C5.97 228.578 6.456 228.386 6.876 228.002L7.326 229.406ZM14.3952 220.82C15.3912 220.82 16.2012 221.108 16.8252 221.684C17.4612 222.26 17.7792 223.088 17.7792 224.168V230H15.8532V224.78C15.8532 223.196 15.2112 222.404 13.9272 222.404C13.2552 222.404 12.6792 222.638 12.1992 223.106C11.7192 223.574 11.4792 224.288 11.4792 225.248V230H9.55322V216.95H11.4792V222.44C11.7792 221.888 12.1752 221.48 12.6672 221.216C13.1712 220.952 13.7472 220.82 14.3952 220.82ZM29.1037 225.23C29.1037 225.578 29.0797 225.908 29.0317 226.22H22.4437C22.5517 227.012 22.8337 227.618 23.2897 228.038C23.7457 228.446 24.3337 228.65 25.0537 228.65C25.6417 228.65 26.1277 228.548 26.5117 228.344C26.9077 228.128 27.1777 227.822 27.3217 227.426L28.9238 228.092C28.2517 229.484 26.9617 230.18 25.0537 230.18C23.6377 230.18 22.5277 229.766 21.7237 228.938C20.9317 228.11 20.5357 226.964 20.5357 225.5C20.5357 224.024 20.9197 222.878 21.6877 222.062C22.4557 221.234 23.5357 220.82 24.9277 220.82C26.2477 220.82 27.2737 221.222 28.0057 222.026C28.7377 222.83 29.1037 223.898 29.1037 225.23ZM24.9277 222.35C24.2317 222.35 23.6677 222.554 23.2357 222.962C22.8157 223.37 22.5517 223.964 22.4437 224.744H27.3037C27.2077 223.988 26.9497 223.4 26.5297 222.98C26.1217 222.56 25.5877 222.35 24.9277 222.35ZM32.8487 219.488C32.4407 219.488 32.1227 219.386 31.8947 219.182C31.6667 218.966 31.5527 218.666 31.5527 218.282C31.5527 217.898 31.6667 217.604 31.8947 217.4C32.1227 217.196 32.4407 217.094 32.8487 217.094C33.2567 217.094 33.5687 217.196 33.7847 217.4C34.0127 217.604 34.1267 217.898 34.1267 218.282C34.1267 218.666 34.0127 218.966 33.7847 219.182C33.5687 219.386 33.2567 219.488 32.8487 219.488ZM33.8027 230H31.8767V221H33.8027V230ZM41.8202 220.82C42.2402 220.82 42.5702 220.88 42.8102 221L42.5042 222.764C42.2282 222.608 41.8502 222.53 41.3702 222.53C40.9862 222.53 40.6202 222.632 40.2722 222.836C39.9362 223.04 39.6542 223.346 39.4262 223.754C39.2102 224.162 39.1022 224.654 39.1022 225.23V230H37.1762V221H38.8142L38.9762 222.62C39.4802 221.42 40.4282 220.82 41.8202 220.82ZM53.0909 221H56.0069V222.512H53.1449V230H51.2189V222.512H49.5269V221H51.2189V219.704C51.2189 218.792 51.4949 218.084 52.0469 217.58C52.5989 217.076 53.3729 216.824 54.3689 216.824C54.7289 216.824 55.0589 216.866 55.3589 216.95C55.6589 217.022 55.8929 217.124 56.0609 217.256L55.7009 218.66C55.4249 218.48 55.0829 218.39 54.6749 218.39C53.6189 218.39 53.0909 218.876 53.0909 219.848V221ZM61.8685 220.82C63.2725 220.82 64.3705 221.234 65.1625 222.062C65.9545 222.89 66.3505 224.036 66.3505 225.5C66.3505 226.964 65.9545 228.11 65.1625 228.938C64.3705 229.766 63.2725 230.18 61.8685 230.18C60.4645 230.18 59.3665 229.766 58.5745 228.938C57.7825 228.11 57.3865 226.964 57.3865 225.5C57.3865 224.036 57.7825 222.89 58.5745 222.062C59.3665 221.234 60.4645 220.82 61.8685 220.82ZM61.8685 222.332C61.0525 222.332 60.4225 222.608 59.9785 223.16C59.5465 223.7 59.3305 224.48 59.3305 225.5C59.3305 226.52 59.5465 227.306 59.9785 227.858C60.4225 228.398 61.0525 228.668 61.8685 228.668C62.6845 228.668 63.3145 228.392 63.7585 227.84C64.2025 227.288 64.4245 226.508 64.4245 225.5C64.4245 224.492 64.2025 223.712 63.7585 223.16C63.3145 222.608 62.6845 222.332 61.8685 222.332ZM73.1445 220.82C74.5485 220.82 75.6465 221.234 76.4385 222.062C77.2305 222.89 77.6265 224.036 77.6265 225.5C77.6265 226.964 77.2305 228.11 76.4385 228.938C75.6465 229.766 74.5485 230.18 73.1445 230.18C71.7405 230.18 70.6425 229.766 69.8505 228.938C69.0585 228.11 68.6625 226.964 68.6625 225.5C68.6625 224.036 69.0585 222.89 69.8505 222.062C70.6425 221.234 71.7405 220.82 73.1445 220.82ZM73.1445 222.332C72.3285 222.332 71.6985 222.608 71.2545 223.16C70.8225 223.7 70.6065 224.48 70.6065 225.5C70.6065 226.52 70.8225 227.306 71.2545 227.858C71.6985 228.398 72.3285 228.668 73.1445 228.668C73.9605 228.668 74.5905 228.392 75.0345 227.84C75.4785 227.288 75.7005 226.508 75.7005 225.5C75.7005 224.492 75.4785 223.712 75.0345 223.16C74.5905 222.608 73.9605 222.332 73.1445 222.332ZM88.7946 216.95V230H87.1026L86.9946 228.398C86.7306 228.938 86.3286 229.37 85.7886 229.694C85.2606 230.018 84.6546 230.18 83.9706 230.18C82.7346 230.18 81.7566 229.772 81.0366 228.956C80.3286 228.128 79.9746 226.982 79.9746 225.518C79.9746 224.054 80.3286 222.908 81.0366 222.08C81.7566 221.24 82.7346 220.82 83.9706 220.82C84.6306 220.82 85.2126 220.97 85.7166 221.27C86.2206 221.558 86.6046 221.954 86.8686 222.458V216.95H88.7946ZM84.4026 228.632C85.1586 228.632 85.7586 228.362 86.2026 227.822C86.6466 227.282 86.8686 226.544 86.8686 225.608V225.392C86.8686 224.456 86.6466 223.724 86.2026 223.196C85.7586 222.656 85.1586 222.386 84.4026 222.386C83.6226 222.386 83.0106 222.662 82.5666 223.214C82.1346 223.754 81.9186 224.516 81.9186 225.5C81.9186 226.484 82.1346 227.252 82.5666 227.804C83.0106 228.356 83.6226 228.632 84.4026 228.632ZM102.314 220.82C104.282 220.82 105.584 221.66 106.22 223.34L104.42 224.06C104.108 222.92 103.406 222.35 102.314 222.35C101.51 222.35 100.886 222.626 100.442 223.178C99.9984 223.73 99.7764 224.51 99.7764 225.518C99.7764 226.526 99.9984 227.3 100.442 227.84C100.886 228.38 101.51 228.65 102.314 228.65C102.926 228.65 103.418 228.5 103.79 228.2C104.162 227.9 104.408 227.468 104.528 226.904L106.292 227.498C106.028 228.338 105.56 228.998 104.888 229.478C104.216 229.946 103.37 230.18 102.35 230.18C100.934 230.18 99.8244 229.766 99.0204 228.938C98.2284 228.11 97.8324 226.964 97.8324 225.5C97.8324 224.036 98.2284 222.89 99.0204 222.062C99.8124 221.234 100.91 220.82 102.314 220.82ZM112.87 220.82C114.274 220.82 115.372 221.234 116.164 222.062C116.956 222.89 117.352 224.036 117.352 225.5C117.352 226.964 116.956 228.11 116.164 228.938C115.372 229.766 114.274 230.18 112.87 230.18C111.466 230.18 110.368 229.766 109.576 228.938C108.784 228.11 108.388 226.964 108.388 225.5C108.388 224.036 108.784 222.89 109.576 222.062C110.368 221.234 111.466 220.82 112.87 220.82ZM112.87 222.332C112.054 222.332 111.424 222.608 110.98 223.16C110.548 223.7 110.332 224.48 110.332 225.5C110.332 226.52 110.548 227.306 110.98 227.858C111.424 228.398 112.054 228.668 112.87 228.668C113.686 228.668 114.316 228.392 114.76 227.84C115.204 227.288 115.426 226.508 115.426 225.5C115.426 224.492 115.204 223.712 114.76 223.16C114.316 222.608 113.686 222.332 112.87 222.332ZM125.028 220.82C126.024 220.82 126.834 221.108 127.458 221.684C128.094 222.26 128.412 223.088 128.412 224.168V230H126.486V224.78C126.486 223.196 125.844 222.404 124.56 222.404C123.888 222.404 123.312 222.638 122.832 223.106C122.352 223.562 122.112 224.27 122.112 225.23V230H120.186V221H121.896L121.986 222.494C122.286 221.93 122.7 221.51 123.228 221.234C123.756 220.958 124.356 220.82 125.028 220.82ZM137.417 229.406C137.129 229.646 136.775 229.838 136.355 229.982C135.947 230.114 135.503 230.18 135.023 230.18C134.195 230.18 133.529 229.976 133.025 229.568C132.533 229.148 132.281 228.5 132.269 227.624V222.512H130.559V221H132.269V218.894L134.195 218.354V221H137.345V222.512H134.195V227.3C134.195 227.732 134.309 228.056 134.537 228.272C134.777 228.476 135.101 228.578 135.509 228.578C136.061 228.578 136.547 228.386 136.967 228.002L137.417 229.406ZM147.62 225.23C147.62 225.578 147.596 225.908 147.548 226.22H140.96C141.068 227.012 141.35 227.618 141.806 228.038C142.262 228.446 142.85 228.65 143.57 228.65C144.158 228.65 144.644 228.548 145.028 228.344C145.424 228.128 145.694 227.822 145.838 227.426L147.44 228.092C146.768 229.484 145.478 230.18 143.57 230.18C142.154 230.18 141.044 229.766 140.24 228.938C139.448 228.11 139.052 226.964 139.052 225.5C139.052 224.024 139.436 222.878 140.204 222.062C140.972 221.234 142.052 220.82 143.444 220.82C144.764 220.82 145.79 221.222 146.522 222.026C147.254 222.83 147.62 223.898 147.62 225.23ZM143.444 222.35C142.748 222.35 142.184 222.554 141.752 222.962C141.332 223.37 141.068 223.964 140.96 224.744H145.82C145.724 223.988 145.466 223.4 145.046 222.98C144.638 222.56 144.104 222.35 143.444 222.35ZM155.235 220.82C156.231 220.82 157.041 221.108 157.665 221.684C158.301 222.26 158.619 223.088 158.619 224.168V230H156.693V224.78C156.693 223.196 156.051 222.404 154.767 222.404C154.095 222.404 153.519 222.638 153.039 223.106C152.559 223.562 152.319 224.27 152.319 225.23V230H150.393V221H152.103L152.193 222.494C152.493 221.93 152.907 221.51 153.435 221.234C153.963 220.958 154.563 220.82 155.235 220.82ZM167.624 229.406C167.336 229.646 166.982 229.838 166.562 229.982C166.154 230.114 165.71 230.18 165.23 230.18C164.402 230.18 163.736 229.976 163.232 229.568C162.74 229.148 162.488 228.5 162.476 227.624V222.512H160.766V221H162.476V218.894L164.402 218.354V221H167.552V222.512H164.402V227.3C164.402 227.732 164.516 228.056 164.744 228.272C164.984 228.476 165.308 228.578 165.716 228.578C166.268 228.578 166.754 228.386 167.174 228.002L167.624 229.406ZM5.454 241.82C6.858 241.82 7.956 242.234 8.748 243.062C9.54 243.89 9.936 245.036 9.936 246.5C9.936 247.964 9.54 249.11 8.748 249.938C7.956 250.766 6.858 251.18 5.454 251.18C4.05 251.18 2.952 250.766 2.16 249.938C1.368 249.11 0.972 247.964 0.972 246.5C0.972 245.036 1.368 243.89 2.16 243.062C2.952 242.234 4.05 241.82 5.454 241.82ZM5.454 243.332C4.638 243.332 4.008 243.608 3.564 244.16C3.132 244.7 2.916 245.48 2.916 246.5C2.916 247.52 3.132 248.306 3.564 248.858C4.008 249.398 4.638 249.668 5.454 249.668C6.27 249.668 6.9 249.392 7.344 248.84C7.788 248.288 8.01 247.508 8.01 246.5C8.01 245.492 7.788 244.712 7.344 244.16C6.9 243.608 6.27 243.332 5.454 243.332ZM17.612 241.82C18.608 241.82 19.418 242.108 20.042 242.684C20.678 243.26 20.996 244.088 20.996 245.168V251H19.07V245.78C19.07 244.196 18.428 243.404 17.144 243.404C16.472 243.404 15.896 243.638 15.416 244.106C14.936 244.562 14.696 245.27 14.696 246.23V251H12.77V242H14.48L14.57 243.494C14.87 242.93 15.284 242.51 15.812 242.234C16.34 241.958 16.94 241.82 17.612 241.82ZM26.1465 248.372C26.1465 248.816 26.2125 249.128 26.3445 249.308C26.4765 249.476 26.7225 249.56 27.0825 249.56C27.3105 249.56 27.5025 249.548 27.6585 249.524C27.8265 249.488 28.0305 249.422 28.2705 249.326L28.0545 250.874C27.6465 251.078 27.1485 251.18 26.5605 251.18C25.7565 251.18 25.1625 250.976 24.7785 250.568C24.4065 250.16 24.2205 249.518 24.2205 248.642V237.95H26.1465V248.372ZM31.214 240.488C30.806 240.488 30.488 240.386 30.26 240.182C30.032 239.966 29.918 239.666 29.918 239.282C29.918 238.898 30.032 238.604 30.26 238.4C30.488 238.196 30.806 238.094 31.214 238.094C31.622 238.094 31.934 238.196 32.15 238.4C32.378 238.604 32.492 238.898 32.492 239.282C32.492 239.666 32.378 239.966 32.15 240.182C31.934 240.386 31.622 240.488 31.214 240.488ZM32.168 251H30.242V242H32.168V251ZM40.3834 241.82C41.3794 241.82 42.1894 242.108 42.8134 242.684C43.4494 243.26 43.7674 244.088 43.7674 245.168V251H41.8414V245.78C41.8414 244.196 41.1994 243.404 39.9154 243.404C39.2434 243.404 38.6674 243.638 38.1874 244.106C37.7074 244.562 37.4674 245.27 37.4674 246.23V251H35.5414V242H37.2514L37.3414 243.494C37.6414 242.93 38.0554 242.51 38.5834 242.234C39.1114 241.958 39.7114 241.82 40.3834 241.82ZM55.092 246.23C55.092 246.578 55.068 246.908 55.02 247.22H48.432C48.54 248.012 48.822 248.618 49.278 249.038C49.734 249.446 50.322 249.65 51.042 249.65C51.63 249.65 52.116 249.548 52.5 249.344C52.896 249.128 53.166 248.822 53.31 248.426L54.912 249.092C54.24 250.484 52.95 251.18 51.042 251.18C49.626 251.18 48.516 250.766 47.712 249.938C46.92 249.11 46.524 247.964 46.524 246.5C46.524 245.024 46.908 243.878 47.676 243.062C48.444 242.234 49.524 241.82 50.916 241.82C52.236 241.82 53.262 242.222 53.994 243.026C54.726 243.83 55.092 244.898 55.092 246.23ZM50.916 243.35C50.22 243.35 49.656 243.554 49.224 243.962C48.804 244.37 48.54 244.964 48.432 245.744H53.292C53.196 244.988 52.938 244.4 52.518 243.98C52.11 243.56 51.576 243.35 50.916 243.35ZM58.8189 248.57C59.2989 248.57 59.6709 248.75 59.9349 249.11C60.2109 249.458 60.3489 249.914 60.3489 250.478C60.3489 251.162 60.1689 251.786 59.8089 252.35C59.4489 252.926 58.9209 253.376 58.2249 253.7L57.2889 252.908C57.7809 252.74 58.1949 252.488 58.5309 252.152C58.8669 251.828 59.0889 251.462 59.1969 251.054L59.1069 251.018C59.0109 251.114 58.8429 251.162 58.6029 251.162C58.3029 251.162 58.0329 251.054 57.7929 250.838C57.5649 250.61 57.4509 250.298 57.4509 249.902C57.4509 249.518 57.5829 249.2 57.8469 248.948C58.1109 248.696 58.4349 248.57 58.8189 248.57ZM74.2023 241.82C75.4383 241.82 76.4103 242.24 77.1183 243.08C77.8263 243.908 78.1803 245.054 78.1803 246.518C78.1803 247.982 77.8263 249.128 77.1183 249.956C76.4103 250.772 75.4383 251.18 74.2023 251.18C73.4943 251.18 72.8703 251.012 72.3303 250.676C71.8023 250.34 71.4063 249.89 71.1423 249.326L71.0523 251H69.3603V237.95H71.2863V243.44C71.5623 242.936 71.9523 242.54 72.4563 242.252C72.9723 241.964 73.5543 241.82 74.2023 241.82ZM73.7703 249.632C74.5503 249.632 75.1563 249.356 75.5883 248.804C76.0323 248.252 76.2543 247.484 76.2543 246.5C76.2543 245.516 76.0323 244.754 75.5883 244.214C75.1563 243.662 74.5503 243.386 73.7703 243.386C73.0383 243.386 72.4503 243.632 72.0063 244.124C71.5743 244.616 71.3343 245.294 71.2863 246.158V246.842C71.3343 247.718 71.5743 248.402 72.0063 248.894C72.4503 249.386 73.0383 249.632 73.7703 249.632ZM89.1946 242V251H87.4846L87.4126 249.542C86.8006 250.634 85.7326 251.18 84.2086 251.18C83.2366 251.18 82.4506 250.916 81.8506 250.388C81.2626 249.848 80.9686 249.026 80.9686 247.922V242H82.8946V247.418C82.8946 248.21 83.0506 248.774 83.3626 249.11C83.6746 249.434 84.1366 249.596 84.7486 249.596C85.4806 249.596 86.0806 249.368 86.5486 248.912C87.0286 248.444 87.2686 247.76 87.2686 246.86V242H89.1946ZM98.3772 250.406C98.0892 250.646 97.7352 250.838 97.3152 250.982C96.9072 251.114 96.4632 251.18 95.9832 251.18C95.1552 251.18 94.4892 250.976 93.9852 250.568C93.4932 250.148 93.2412 249.5 93.2292 248.624V243.512H91.5192V242H93.2292V239.894L95.1552 239.354V242H98.3052V243.512H95.1552V248.3C95.1552 248.732 95.2692 249.056 95.4972 249.272C95.7372 249.476 96.0612 249.578 96.4692 249.578C97.0212 249.578 97.5072 249.386 97.9272 249.002L98.3772 250.406ZM111.59 241.82C112.586 241.82 113.396 242.108 114.02 242.684C114.656 243.26 114.974 244.088 114.974 245.168V251H113.048V245.78C113.048 244.196 112.406 243.404 111.122 243.404C110.45 243.404 109.874 243.638 109.394 244.106C108.914 244.574 108.674 245.288 108.674 246.248V251H106.748V237.95H108.674V243.44C108.974 242.888 109.37 242.48 109.862 242.216C110.366 241.952 110.942 241.82 111.59 241.82ZM126.028 249.74C126.292 249.74 126.514 249.716 126.694 249.668L126.568 250.964C126.244 251.108 125.872 251.18 125.452 251.18C124.936 251.18 124.522 251.078 124.21 250.874C123.91 250.67 123.712 250.328 123.616 249.848C123.34 250.268 122.932 250.598 122.392 250.838C121.852 251.066 121.246 251.18 120.574 251.18C119.698 251.18 118.99 250.976 118.45 250.568C117.91 250.16 117.64 249.578 117.64 248.822C117.64 248.114 117.934 247.52 118.522 247.04C119.11 246.548 119.986 246.2 121.15 245.996L123.436 245.6V245.114C123.436 244.562 123.274 244.13 122.95 243.818C122.626 243.494 122.176 243.332 121.6 243.332C120.412 243.332 119.638 243.872 119.278 244.952L117.784 244.16C118 243.44 118.438 242.87 119.098 242.45C119.77 242.03 120.592 241.82 121.564 241.82C122.728 241.82 123.652 242.09 124.336 242.63C125.02 243.17 125.362 243.962 125.362 245.006V249.074C125.362 249.302 125.41 249.47 125.506 249.578C125.614 249.686 125.788 249.74 126.028 249.74ZM120.988 249.722C121.636 249.722 122.206 249.566 122.698 249.254C123.19 248.942 123.436 248.528 123.436 248.012V246.932L121.474 247.328C120.85 247.448 120.388 247.616 120.088 247.832C119.788 248.048 119.638 248.336 119.638 248.696C119.638 249.032 119.752 249.29 119.98 249.47C120.22 249.638 120.556 249.722 120.988 249.722ZM136.499 242L132.917 251H130.811L127.211 242H129.335L131.873 249.434L134.483 242H136.499ZM146.495 246.23C146.495 246.578 146.471 246.908 146.423 247.22H139.835C139.943 248.012 140.225 248.618 140.681 249.038C141.137 249.446 141.725 249.65 142.445 249.65C143.033 249.65 143.519 249.548 143.903 249.344C144.299 249.128 144.569 248.822 144.713 248.426L146.315 249.092C145.643 250.484 144.353 251.18 142.445 251.18C141.029 251.18 139.919 250.766 139.115 249.938C138.323 249.11 137.927 247.964 137.927 246.5C137.927 245.024 138.311 243.878 139.079 243.062C139.847 242.234 140.927 241.82 142.319 241.82C143.639 241.82 144.665 242.222 145.397 243.026C146.129 243.83 146.495 244.898 146.495 246.23ZM142.319 243.35C141.623 243.35 141.059 243.554 140.627 243.962C140.207 244.37 139.943 244.964 139.835 245.744H144.695C144.599 244.988 144.341 244.4 143.921 243.98C143.513 243.56 142.979 243.35 142.319 243.35ZM6.336 262.82C7.332 262.82 8.142 263.108 8.766 263.684C9.402 264.26 9.72 265.088 9.72 266.168V272H7.794V266.78C7.794 265.196 7.152 264.404 5.868 264.404C5.196 264.404 4.62 264.638 4.14 265.106C3.66 265.562 3.42 266.27 3.42 267.23V272H1.494V263H3.204L3.294 264.494C3.594 263.93 4.008 263.51 4.536 263.234C5.064 262.958 5.664 262.82 6.336 262.82ZM16.9585 262.82C18.3625 262.82 19.4605 263.234 20.2525 264.062C21.0445 264.89 21.4405 266.036 21.4405 267.5C21.4405 268.964 21.0445 270.11 20.2525 270.938C19.4605 271.766 18.3625 272.18 16.9585 272.18C15.5545 272.18 14.4565 271.766 13.6645 270.938C12.8725 270.11 12.4765 268.964 12.4765 267.5C12.4765 266.036 12.8725 264.89 13.6645 264.062C14.4565 263.234 15.5545 262.82 16.9585 262.82ZM16.9585 264.332C16.1425 264.332 15.5125 264.608 15.0685 265.16C14.6365 265.7 14.4205 266.48 14.4205 267.5C14.4205 268.52 14.6365 269.306 15.0685 269.858C15.5125 270.398 16.1425 270.668 16.9585 270.668C17.7745 270.668 18.4045 270.392 18.8485 269.84C19.2925 269.288 19.5145 268.508 19.5145 267.5C19.5145 266.492 19.2925 265.712 18.8485 265.16C18.4045 264.608 17.7745 264.332 16.9585 264.332ZM33.7461 272.18C32.8341 272.18 32.0241 272.024 31.3161 271.712C30.6201 271.4 30.0921 270.926 29.7321 270.29L31.0281 269.174C31.2561 269.69 31.6101 270.068 32.0901 270.308C32.5701 270.548 33.1461 270.668 33.8181 270.668C34.4301 270.668 34.9041 270.572 35.2401 270.38C35.5761 270.176 35.7441 269.912 35.7441 269.588C35.7441 269.3 35.5881 269.072 35.2761 268.904C34.9641 268.724 34.4241 268.556 33.6561 268.4C32.3241 268.148 31.3881 267.812 30.8481 267.392C30.3081 266.972 30.0381 266.378 30.0381 265.61C30.0381 265.118 30.1881 264.662 30.4881 264.242C30.7881 263.81 31.2201 263.468 31.7841 263.216C32.3601 262.952 33.0381 262.82 33.8181 262.82C34.8141 262.82 35.6121 262.988 36.2121 263.324C36.8121 263.648 37.2741 264.158 37.5981 264.854L36.2301 265.862C36.0141 265.334 35.7081 264.95 35.3121 264.71C34.9281 264.458 34.4361 264.332 33.8361 264.332C33.2961 264.332 32.8461 264.446 32.4861 264.674C32.1381 264.89 31.9641 265.142 31.9641 265.43C31.9641 265.754 32.1201 266.012 32.4321 266.204C32.7561 266.396 33.3381 266.57 34.1781 266.726C35.4501 266.954 36.3501 267.278 36.8781 267.698C37.4061 268.118 37.6701 268.706 37.6701 269.462C37.6701 270.266 37.3221 270.92 36.6261 271.424C35.9301 271.928 34.9701 272.18 33.7461 272.18ZM41.3474 261.488C40.9394 261.488 40.6214 261.386 40.3934 261.182C40.1654 260.966 40.0514 260.666 40.0514 260.282C40.0514 259.898 40.1654 259.604 40.3934 259.4C40.6214 259.196 40.9394 259.094 41.3474 259.094C41.7554 259.094 42.0674 259.196 42.2834 259.4C42.5114 259.604 42.6254 259.898 42.6254 260.282C42.6254 260.666 42.5114 260.966 42.2834 261.182C42.0674 261.386 41.7554 261.488 41.3474 261.488ZM42.3014 272H40.3754V263H42.3014V272ZM50.5169 262.82C51.5129 262.82 52.3229 263.108 52.9469 263.684C53.5829 264.26 53.9009 265.088 53.9009 266.168V272H51.9749V266.78C51.9749 265.196 51.3329 264.404 50.0489 264.404C49.3769 264.404 48.8009 264.638 48.3209 265.106C47.8409 265.562 47.6009 266.27 47.6009 267.23V272H45.6749V263H47.3849L47.4749 264.494C47.7749 263.93 48.1889 263.51 48.7169 263.234C49.2449 262.958 49.8449 262.82 50.5169 262.82ZM62.4174 270.596C63.3294 270.596 64.0374 270.8 64.5414 271.208C65.0454 271.616 65.2974 272.18 65.2974 272.9C65.2974 273.512 65.0934 274.04 64.6854 274.484C64.2894 274.928 63.7374 275.27 63.0294 275.51C62.3334 275.75 61.5474 275.87 60.6714 275.87C59.2434 275.87 58.1694 275.66 57.4494 275.24C56.7414 274.82 56.3874 274.262 56.3874 273.566C56.3874 273.158 56.5254 272.798 56.8014 272.486C57.0894 272.186 57.4854 271.97 57.9894 271.838C57.6054 271.658 57.2994 271.43 57.0714 271.154C56.8434 270.866 56.7294 270.524 56.7294 270.128C56.7294 269.252 57.1974 268.652 58.1334 268.328C57.6774 268.064 57.3294 267.722 57.0894 267.302C56.8614 266.882 56.7474 266.402 56.7474 265.862C56.7474 265.262 56.9094 264.734 57.2334 264.278C57.5574 263.81 58.0134 263.45 58.6014 263.198C59.2014 262.946 59.8854 262.82 60.6534 262.82C61.3134 262.82 61.9194 262.916 62.4714 263.108C62.6394 262.448 62.9394 261.95 63.3714 261.614C63.8154 261.266 64.3974 261.098 65.1174 261.11L65.4414 262.604C64.8654 262.592 64.3974 262.664 64.0374 262.82C63.6894 262.976 63.4494 263.21 63.3174 263.522C63.7134 263.798 64.0194 264.134 64.2354 264.53C64.4514 264.926 64.5594 265.37 64.5594 265.862C64.5594 266.786 64.1994 267.524 63.4794 268.076C62.7714 268.628 61.8294 268.904 60.6534 268.904C60.1014 268.904 59.6034 268.85 59.1594 268.742C58.8594 268.814 58.6374 268.934 58.4934 269.102C58.3614 269.258 58.2954 269.468 58.2954 269.732C58.2954 270.008 58.3914 270.224 58.5834 270.38C58.7874 270.524 59.0634 270.596 59.4114 270.596H62.4174ZM60.6534 264.17C60.1014 264.17 59.6394 264.332 59.2674 264.656C58.8954 264.968 58.7094 265.37 58.7094 265.862C58.7094 266.366 58.8954 266.78 59.2674 267.104C59.6394 267.416 60.1014 267.572 60.6534 267.572C61.2174 267.572 61.6794 267.416 62.0394 267.104C62.4114 266.78 62.5974 266.366 62.5974 265.862C62.5974 265.358 62.4114 264.95 62.0394 264.638C61.6794 264.326 61.2174 264.17 60.6534 264.17ZM60.8514 274.43C61.7274 274.43 62.4114 274.304 62.9034 274.052C63.3954 273.8 63.6414 273.488 63.6414 273.116C63.6414 272.816 63.5214 272.588 63.2814 272.432C63.0414 272.276 62.6394 272.198 62.0754 272.198H59.6454C59.1054 272.198 58.6974 272.282 58.4214 272.45C58.1574 272.618 58.0254 272.852 58.0254 273.152C58.0254 273.56 58.2594 273.872 58.7274 274.088C59.2074 274.316 59.9154 274.43 60.8514 274.43ZM69.3782 269.372C69.3782 269.816 69.4442 270.128 69.5762 270.308C69.7082 270.476 69.9542 270.56 70.3142 270.56C70.5422 270.56 70.7342 270.548 70.8902 270.524C71.0582 270.488 71.2622 270.422 71.5022 270.326L71.2862 271.874C70.8782 272.078 70.3802 272.18 69.7922 272.18C68.9882 272.18 68.3942 271.976 68.0102 271.568C67.6382 271.16 67.4522 270.518 67.4522 269.642V258.95H69.3782V269.372ZM81.5196 267.23C81.5196 267.578 81.4956 267.908 81.4476 268.22H74.8596C74.9676 269.012 75.2496 269.618 75.7056 270.038C76.1616 270.446 76.7496 270.65 77.4696 270.65C78.0576 270.65 78.5436 270.548 78.9276 270.344C79.3236 270.128 79.5936 269.822 79.7376 269.426L81.3396 270.092C80.6676 271.484 79.3776 272.18 77.4696 272.18C76.0536 272.18 74.9436 271.766 74.1396 270.938C73.3476 270.11 72.9516 268.964 72.9516 267.5C72.9516 266.024 73.3356 264.878 74.1036 264.062C74.8716 263.234 75.9516 262.82 77.3436 262.82C78.6636 262.82 79.6896 263.222 80.4216 264.026C81.1536 264.83 81.5196 265.898 81.5196 267.23ZM77.3436 264.35C76.6476 264.35 76.0836 264.554 75.6516 264.962C75.2316 265.37 74.9676 265.964 74.8596 266.744H79.7196C79.6236 265.988 79.3656 265.4 78.9456 264.98C78.5376 264.56 78.0036 264.35 77.3436 264.35ZM103.782 263L100.776 272H98.6698L96.4018 265.196L94.2418 272H92.1358L89.1298 263H91.2178L93.2518 270.2L95.5018 263H97.4098L99.6418 270.2L101.694 263H103.782ZM113.742 270.74C114.006 270.74 114.228 270.716 114.408 270.668L114.282 271.964C113.958 272.108 113.586 272.18 113.166 272.18C112.65 272.18 112.236 272.078 111.924 271.874C111.624 271.67 111.426 271.328 111.33 270.848C111.054 271.268 110.646 271.598 110.106 271.838C109.566 272.066 108.96 272.18 108.288 272.18C107.412 272.18 106.704 271.976 106.164 271.568C105.624 271.16 105.354 270.578 105.354 269.822C105.354 269.114 105.648 268.52 106.236 268.04C106.824 267.548 107.7 267.2 108.864 266.996L111.15 266.6V266.114C111.15 265.562 110.988 265.13 110.664 264.818C110.34 264.494 109.89 264.332 109.314 264.332C108.126 264.332 107.352 264.872 106.992 265.952L105.498 265.16C105.714 264.44 106.152 263.87 106.812 263.45C107.484 263.03 108.306 262.82 109.278 262.82C110.442 262.82 111.366 263.09 112.05 263.63C112.734 264.17 113.076 264.962 113.076 266.006V270.074C113.076 270.302 113.124 270.47 113.22 270.578C113.328 270.686 113.502 270.74 113.742 270.74ZM108.702 270.722C109.35 270.722 109.92 270.566 110.412 270.254C110.904 269.942 111.15 269.528 111.15 269.012V267.932L109.188 268.328C108.564 268.448 108.102 268.616 107.802 268.832C107.502 269.048 107.352 269.336 107.352 269.696C107.352 270.032 107.466 270.29 107.694 270.47C107.934 270.638 108.27 270.722 108.702 270.722ZM120.204 273.062C119.808 274.094 119.358 274.82 118.854 275.24C118.35 275.66 117.69 275.87 116.874 275.87C116.406 275.87 115.998 275.81 115.65 275.69C115.314 275.582 115.014 275.402 114.75 275.15L115.308 273.674C115.668 274.106 116.16 274.322 116.784 274.322C117.144 274.322 117.444 274.226 117.684 274.034C117.936 273.854 118.158 273.518 118.35 273.026L118.746 272.054L117.81 269.822L115.002 263H117.162L119.142 268.652L119.664 270.344L120.276 268.49L122.148 263H124.146L120.204 273.062ZM137.557 271.406C137.269 271.646 136.915 271.838 136.495 271.982C136.087 272.114 135.643 272.18 135.163 272.18C134.335 272.18 133.669 271.976 133.165 271.568C132.673 271.148 132.421 270.5 132.409 269.624V264.512H130.699V263H132.409V260.894L134.335 260.354V263H137.485V264.512H134.335V269.3C134.335 269.732 134.449 270.056 134.677 270.272C134.917 270.476 135.241 270.578 135.649 270.578C136.201 270.578 136.687 270.386 137.107 270.002L137.557 271.406ZM143.674 262.82C145.078 262.82 146.176 263.234 146.968 264.062C147.76 264.89 148.156 266.036 148.156 267.5C148.156 268.964 147.76 270.11 146.968 270.938C146.176 271.766 145.078 272.18 143.674 272.18C142.27 272.18 141.172 271.766 140.38 270.938C139.588 270.11 139.192 268.964 139.192 267.5C139.192 266.036 139.588 264.89 140.38 264.062C141.172 263.234 142.27 262.82 143.674 262.82ZM143.674 264.332C142.858 264.332 142.228 264.608 141.784 265.16C141.352 265.7 141.136 266.48 141.136 267.5C141.136 268.52 141.352 269.306 141.784 269.858C142.228 270.398 142.858 270.668 143.674 270.668C144.49 270.668 145.12 270.392 145.564 269.84C146.008 269.288 146.23 268.508 146.23 267.5C146.23 266.492 146.008 265.712 145.564 265.16C145.12 264.608 144.49 264.332 143.674 264.332ZM5.454 283.82C6.858 283.82 7.956 284.234 8.748 285.062C9.54 285.89 9.936 287.036 9.936 288.5C9.936 289.964 9.54 291.11 8.748 291.938C7.956 292.766 6.858 293.18 5.454 293.18C4.05 293.18 2.952 292.766 2.16 291.938C1.368 291.11 0.972 289.964 0.972 288.5C0.972 287.036 1.368 285.89 2.16 285.062C2.952 284.234 4.05 283.82 5.454 283.82ZM5.454 285.332C4.638 285.332 4.008 285.608 3.564 286.16C3.132 286.7 2.916 287.48 2.916 288.5C2.916 289.52 3.132 290.306 3.564 290.858C4.008 291.398 4.638 291.668 5.454 291.668C6.27 291.668 6.9 291.392 7.344 290.84C7.788 290.288 8.01 289.508 8.01 288.5C8.01 287.492 7.788 286.712 7.344 286.16C6.9 285.608 6.27 285.332 5.454 285.332ZM17.414 283.82C17.834 283.82 18.164 283.88 18.404 284L18.098 285.764C17.822 285.608 17.444 285.53 16.964 285.53C16.58 285.53 16.214 285.632 15.866 285.836C15.53 286.04 15.248 286.346 15.02 286.754C14.804 287.162 14.696 287.654 14.696 288.23V293H12.77V284H14.408L14.57 285.62C15.074 284.42 16.022 283.82 17.414 283.82ZM25.4344 291.596C26.3464 291.596 27.0544 291.8 27.5584 292.208C28.0624 292.616 28.3144 293.18 28.3144 293.9C28.3144 294.512 28.1104 295.04 27.7024 295.484C27.3064 295.928 26.7544 296.27 26.0464 296.51C25.3504 296.75 24.5644 296.87 23.6884 296.87C22.2604 296.87 21.1864 296.66 20.4664 296.24C19.7584 295.82 19.4044 295.262 19.4044 294.566C19.4044 294.158 19.5424 293.798 19.8184 293.486C20.1064 293.186 20.5024 292.97 21.0064 292.838C20.6224 292.658 20.3164 292.43 20.0884 292.154C19.8604 291.866 19.7464 291.524 19.7464 291.128C19.7464 290.252 20.2144 289.652 21.1504 289.328C20.6944 289.064 20.3464 288.722 20.1064 288.302C19.8784 287.882 19.7644 287.402 19.7644 286.862C19.7644 286.262 19.9264 285.734 20.2504 285.278C20.5744 284.81 21.0304 284.45 21.6184 284.198C22.2184 283.946 22.9024 283.82 23.6704 283.82C24.3304 283.82 24.9364 283.916 25.4884 284.108C25.6564 283.448 25.9564 282.95 26.3884 282.614C26.8324 282.266 27.4144 282.098 28.1344 282.11L28.4584 283.604C27.8824 283.592 27.4144 283.664 27.0544 283.82C26.7064 283.976 26.4664 284.21 26.3344 284.522C26.7304 284.798 27.0364 285.134 27.2524 285.53C27.4684 285.926 27.5764 286.37 27.5764 286.862C27.5764 287.786 27.2164 288.524 26.4964 289.076C25.7884 289.628 24.8464 289.904 23.6704 289.904C23.1184 289.904 22.6204 289.85 22.1764 289.742C21.8764 289.814 21.6544 289.934 21.5104 290.102C21.3784 290.258 21.3124 290.468 21.3124 290.732C21.3124 291.008 21.4084 291.224 21.6004 291.38C21.8044 291.524 22.0804 291.596 22.4284 291.596H25.4344ZM23.6704 285.17C23.1184 285.17 22.6564 285.332 22.2844 285.656C21.9124 285.968 21.7264 286.37 21.7264 286.862C21.7264 287.366 21.9124 287.78 22.2844 288.104C22.6564 288.416 23.1184 288.572 23.6704 288.572C24.2344 288.572 24.6964 288.416 25.0564 288.104C25.4284 287.78 25.6144 287.366 25.6144 286.862C25.6144 286.358 25.4284 285.95 25.0564 285.638C24.6964 285.326 24.2344 285.17 23.6704 285.17ZM23.8684 295.43C24.7444 295.43 25.4284 295.304 25.9204 295.052C26.4124 294.8 26.6584 294.488 26.6584 294.116C26.6584 293.816 26.5384 293.588 26.2984 293.432C26.0584 293.276 25.6564 293.198 25.0924 293.198H22.6624C22.1224 293.198 21.7144 293.282 21.4384 293.45C21.1744 293.618 21.0424 293.852 21.0424 294.152C21.0424 294.56 21.2764 294.872 21.7444 295.088C22.2244 295.316 22.9324 295.43 23.8684 295.43ZM38.2992 291.74C38.5632 291.74 38.7852 291.716 38.9652 291.668L38.8392 292.964C38.5152 293.108 38.1432 293.18 37.7232 293.18C37.2072 293.18 36.7932 293.078 36.4812 292.874C36.1812 292.67 35.9832 292.328 35.8872 291.848C35.6112 292.268 35.2032 292.598 34.6632 292.838C34.1232 293.066 33.5172 293.18 32.8452 293.18C31.9692 293.18 31.2612 292.976 30.7212 292.568C30.1812 292.16 29.9112 291.578 29.9112 290.822C29.9112 290.114 30.2052 289.52 30.7932 289.04C31.3812 288.548 32.2572 288.2 33.4212 287.996L35.7072 287.6V287.114C35.7072 286.562 35.5452 286.13 35.2212 285.818C34.8972 285.494 34.4472 285.332 33.8712 285.332C32.6832 285.332 31.9092 285.872 31.5492 286.952L30.0552 286.16C30.2712 285.44 30.7092 284.87 31.3692 284.45C32.0412 284.03 32.8632 283.82 33.8352 283.82C34.9992 283.82 35.9232 284.09 36.6072 284.63C37.2912 285.17 37.6332 285.962 37.6332 287.006V291.074C37.6332 291.302 37.6812 291.47 37.7772 291.578C37.8852 291.686 38.0592 291.74 38.2992 291.74ZM33.2592 291.722C33.9072 291.722 34.4772 291.566 34.9692 291.254C35.4612 290.942 35.7072 290.528 35.7072 290.012V288.932L33.7452 289.328C33.1212 289.448 32.6592 289.616 32.3592 289.832C32.0592 290.048 31.9092 290.336 31.9092 290.696C31.9092 291.032 32.0232 291.29 32.2512 291.47C32.4912 291.638 32.8272 291.722 33.2592 291.722ZM45.9908 283.82C46.9868 283.82 47.7968 284.108 48.4208 284.684C49.0568 285.26 49.3748 286.088 49.3748 287.168V293H47.4488V287.78C47.4488 286.196 46.8068 285.404 45.5228 285.404C44.8508 285.404 44.2748 285.638 43.7948 286.106C43.3148 286.562 43.0748 287.27 43.0748 288.23V293H41.1488V284H42.8588L42.9488 285.494C43.2488 284.93 43.6628 284.51 44.1908 284.234C44.7188 283.958 45.3188 283.82 45.9908 283.82ZM53.6254 282.488C53.2174 282.488 52.8994 282.386 52.6714 282.182C52.4434 281.966 52.3294 281.666 52.3294 281.282C52.3294 280.898 52.4434 280.604 52.6714 280.4C52.8994 280.196 53.2174 280.094 53.6254 280.094C54.0334 280.094 54.3454 280.196 54.5614 280.4C54.7894 280.604 54.9034 280.898 54.9034 281.282C54.9034 281.666 54.7894 281.966 54.5614 282.182C54.3454 282.386 54.0334 282.488 53.6254 282.488ZM54.5794 293H52.6534V284H54.5794V293ZM57.3768 291.668L61.7508 286.592L62.8308 285.476L61.2828 285.512H57.4128V284H64.9548V285.332L60.5988 290.408L59.5188 291.524L61.2288 291.488H65.1168V293H57.3768V291.668ZM75.7455 288.23C75.7455 288.578 75.7215 288.908 75.6735 289.22H69.0855C69.1935 290.012 69.4755 290.618 69.9315 291.038C70.3875 291.446 70.9755 291.65 71.6955 291.65C72.2835 291.65 72.7695 291.548 73.1535 291.344C73.5495 291.128 73.8195 290.822 73.9635 290.426L75.5655 291.092C74.8935 292.484 73.6035 293.18 71.6955 293.18C70.2795 293.18 69.1695 292.766 68.3655 291.938C67.5735 291.11 67.1775 289.964 67.1775 288.5C67.1775 287.024 67.5615 285.878 68.3295 285.062C69.0975 284.234 70.1775 283.82 71.5695 283.82C72.8895 283.82 73.9155 284.222 74.6475 285.026C75.3795 285.83 75.7455 286.898 75.7455 288.23ZM71.5695 285.35C70.8735 285.35 70.3095 285.554 69.8775 285.962C69.4575 286.37 69.1935 286.964 69.0855 287.744H73.9455C73.8495 286.988 73.5915 286.4 73.1715 285.98C72.7635 285.56 72.2295 285.35 71.5695 285.35ZM88.692 283.82C90.096 283.82 91.194 284.234 91.986 285.062C92.778 285.89 93.174 287.036 93.174 288.5C93.174 289.964 92.778 291.11 91.986 291.938C91.194 292.766 90.096 293.18 88.692 293.18C87.288 293.18 86.19 292.766 85.398 291.938C84.606 291.11 84.21 289.964 84.21 288.5C84.21 287.036 84.606 285.89 85.398 285.062C86.19 284.234 87.288 283.82 88.692 283.82ZM88.692 285.332C87.876 285.332 87.246 285.608 86.802 286.16C86.37 286.7 86.154 287.48 86.154 288.5C86.154 289.52 86.37 290.306 86.802 290.858C87.246 291.398 87.876 291.668 88.692 291.668C89.508 291.668 90.138 291.392 90.582 290.84C91.026 290.288 91.248 289.508 91.248 288.5C91.248 287.492 91.026 286.712 90.582 286.16C90.138 285.608 89.508 285.332 88.692 285.332ZM100.652 283.82C101.072 283.82 101.402 283.88 101.642 284L101.336 285.764C101.06 285.608 100.682 285.53 100.202 285.53C99.8181 285.53 99.4521 285.632 99.1041 285.836C98.7681 286.04 98.4861 286.346 98.2581 286.754C98.0421 287.162 97.9341 287.654 97.9341 288.23V293H96.0081V284H97.6461L97.8081 285.62C98.3121 284.42 99.2601 283.82 100.652 283.82ZM112.906 293.18C111.994 293.18 111.184 293.024 110.476 292.712C109.78 292.4 109.252 291.926 108.892 291.29L110.188 290.174C110.416 290.69 110.77 291.068 111.25 291.308C111.73 291.548 112.306 291.668 112.978 291.668C113.59 291.668 114.064 291.572 114.4 291.38C114.736 291.176 114.904 290.912 114.904 290.588C114.904 290.3 114.748 290.072 114.436 289.904C114.124 289.724 113.584 289.556 112.816 289.4C111.484 289.148 110.548 288.812 110.008 288.392C109.468 287.972 109.198 287.378 109.198 286.61C109.198 286.118 109.348 285.662 109.648 285.242C109.948 284.81 110.38 284.468 110.944 284.216C111.52 283.952 112.198 283.82 112.978 283.82C113.974 283.82 114.772 283.988 115.372 284.324C115.972 284.648 116.434 285.158 116.758 285.854L115.39 286.862C115.174 286.334 114.868 285.95 114.472 285.71C114.088 285.458 113.596 285.332 112.996 285.332C112.456 285.332 112.006 285.446 111.646 285.674C111.298 285.89 111.124 286.142 111.124 286.43C111.124 286.754 111.28 287.012 111.592 287.204C111.916 287.396 112.498 287.57 113.338 287.726C114.61 287.954 115.51 288.278 116.038 288.698C116.566 289.118 116.83 289.706 116.83 290.462C116.83 291.266 116.482 291.92 115.786 292.424C115.09 292.928 114.13 293.18 112.906 293.18ZM127.311 291.74C127.575 291.74 127.797 291.716 127.977 291.668L127.851 292.964C127.527 293.108 127.155 293.18 126.735 293.18C126.219 293.18 125.805 293.078 125.493 292.874C125.193 292.67 124.995 292.328 124.899 291.848C124.623 292.268 124.215 292.598 123.675 292.838C123.135 293.066 122.529 293.18 121.857 293.18C120.981 293.18 120.273 292.976 119.733 292.568C119.193 292.16 118.923 291.578 118.923 290.822C118.923 290.114 119.217 289.52 119.805 289.04C120.393 288.548 121.269 288.2 122.433 287.996L124.719 287.6V287.114C124.719 286.562 124.557 286.13 124.233 285.818C123.909 285.494 123.459 285.332 122.883 285.332C121.695 285.332 120.921 285.872 120.561 286.952L119.067 286.16C119.283 285.44 119.721 284.87 120.381 284.45C121.053 284.03 121.875 283.82 122.847 283.82C124.011 283.82 124.935 284.09 125.619 284.63C126.303 285.17 126.645 285.962 126.645 287.006V291.074C126.645 291.302 126.693 291.47 126.789 291.578C126.897 291.686 127.071 291.74 127.311 291.74ZM122.271 291.722C122.919 291.722 123.489 291.566 123.981 291.254C124.473 290.942 124.719 290.528 124.719 290.012V288.932L122.757 289.328C122.133 289.448 121.671 289.616 121.371 289.832C121.071 290.048 120.921 290.336 120.921 290.696C120.921 291.032 121.035 291.29 121.263 291.47C121.503 291.638 121.839 291.722 122.271 291.722ZM137.783 284L134.201 293H132.095L128.495 284H130.619L133.157 291.434L135.767 284H137.783ZM147.778 288.23C147.778 288.578 147.754 288.908 147.706 289.22H141.118C141.226 290.012 141.508 290.618 141.964 291.038C142.42 291.446 143.008 291.65 143.728 291.65C144.316 291.65 144.802 291.548 145.186 291.344C145.582 291.128 145.852 290.822 145.996 290.426L147.598 291.092C146.926 292.484 145.636 293.18 143.728 293.18C142.312 293.18 141.202 292.766 140.398 291.938C139.606 291.11 139.21 289.964 139.21 288.5C139.21 287.024 139.594 285.878 140.362 285.062C141.13 284.234 142.21 283.82 143.602 283.82C144.922 283.82 145.948 284.222 146.68 285.026C147.412 285.83 147.778 286.898 147.778 288.23ZM143.602 285.35C142.906 285.35 142.342 285.554 141.91 285.962C141.49 286.37 141.226 286.964 141.118 287.744H145.978C145.882 286.988 145.624 286.4 145.204 285.98C144.796 285.56 144.262 285.35 143.602 285.35ZM157.736 282.488C157.328 282.488 157.01 282.386 156.782 282.182C156.554 281.966 156.44 281.666 156.44 281.282C156.44 280.898 156.554 280.604 156.782 280.4C157.01 280.196 157.328 280.094 157.736 280.094C158.144 280.094 158.456 280.196 158.672 280.4C158.9 280.604 159.014 280.898 159.014 281.282C159.014 281.666 158.9 281.966 158.672 282.182C158.456 282.386 158.144 282.488 157.736 282.488ZM158.69 293H156.764V284H158.69V293ZM167.896 292.406C167.608 292.646 167.254 292.838 166.834 292.982C166.426 293.114 165.982 293.18 165.502 293.18C164.674 293.18 164.008 292.976 163.504 292.568C163.012 292.148 162.76 291.5 162.748 290.624V285.512H161.038V284H162.748V281.894L164.674 281.354V284H167.824V285.512H164.674V290.3C164.674 290.732 164.788 291.056 165.016 291.272C165.256 291.476 165.58 291.578 165.988 291.578C166.54 291.578 167.026 291.386 167.446 291.002L167.896 292.406ZM171.06 290.57C171.468 290.57 171.792 290.69 172.032 290.93C172.284 291.158 172.41 291.47 172.41 291.866C172.41 292.262 172.284 292.58 172.032 292.82C171.792 293.06 171.468 293.18 171.06 293.18C170.652 293.18 170.322 293.06 170.07 292.82C169.818 292.58 169.692 292.262 169.692 291.866C169.692 291.47 169.812 291.158 170.052 290.93C170.304 290.69 170.64 290.57 171.06 290.57Z" fill="#22181C"/>
<g filter="url(#filter1_d)">
<path d="M295 230C295 241.568 290.989 252.778 283.651 261.72C276.312 270.662 266.1 276.782 254.755 279.039C243.409 281.296 231.632 279.549 221.43 274.096C211.228 268.643 203.233 259.821 198.806 249.134C194.379 238.447 193.795 226.556 197.153 215.486C200.511 204.416 207.603 194.853 217.221 188.427C226.84 182 238.389 179.107 249.901 180.241C261.413 181.375 272.175 186.465 280.355 194.644L245 230H295Z" fill="#256EFF"/>
</g>
<defs>
<filter id="filter0_d" x="0" y="-9.15527e-05" width="120" height="120" filterUnits="userSpaceOnUse" color-interpolation-filters="sRGB">
<feFlood flood-opacity="0" result="BackgroundImageFix"/>
<feColorMatrix in="SourceAlpha" type="matrix" values="0 0 0 0 0 0 0 0 0 0 0 0 0 0 0 0 0 0 127 0"/>
<feOffset dy="4"/>
<feGaussianBlur stdDeviation="5"/>
<feColorMatrix type="matrix" values="0 0 0 0 0 0 0 0 0 0 0 0 0 0 0 0 0 0 0.25 0"/>
<feBlend mode="normal" in2="BackgroundImageFix" result="effect1_dropShadow"/>
<feBlend mode="normal" in="SourceGraphic" in2="effect1_dropShadow" result="shape"/>
</filter>
<filter id="filter1_d" x="185" y="174" width="120" height="120" filterUnits="userSpaceOnUse" color-interpolation-filters="sRGB">
<feFlood flood-opacity="0" result="BackgroundImageFix"/>
<feColorMatrix in="SourceAlpha" type="matrix" values="0 0 0 0 0 0 0 0 0 0 0 0 0 0 0 0 0 0 127 0"/>
<feOffset dy="4"/>
<feGaussianBlur stdDeviation="5"/>
<feColorMatrix type="matrix" values="0 0 0 0 0 0 0 0 0 0 0 0 0 0 0 0 0 0 0.25 0"/>
<feBlend mode="normal" in2="BackgroundImageFix" result="effect1_dropShadow"/>
<feBlend mode="normal" in="SourceGraphic" in2="effect1_dropShadow" result="shape"/>
</filter>
</defs>
</svg>
