<svg width="273" height="164" viewBox="0 0 273 164" fill="none" xmlns="http://www.w3.org/2000/svg">
<line x1="19" y1="133.5" x2="99" y2="133.5" stroke="#08090A" stroke-opacity="0.5"/>
<line x1="19" y1="38.5" x2="99" y2="38.5" stroke="#08090A" stroke-opacity="0.5"/>
<path d="M53.9049 26.436H45.2249L43.5729 31H40.8289L48.1369 11.624H51.0209L58.3009 31H55.5569L53.9049 26.436ZM53.1769 24.448L49.5649 14.48L45.9529 24.448H53.1769ZM67.1799 15.432C68.6733 15.432 69.9333 15.8053 70.9599 16.552C72.0053 17.2987 72.7333 18.2973 73.1439 19.548V15.628H75.6919V31H73.1439V27.08C72.7333 28.3307 72.0053 29.3293 70.9599 30.076C69.9333 30.8227 68.6733 31.196 67.1799 31.196C65.8173 31.196 64.6039 30.8787 63.5399 30.244C62.4759 29.6093 61.6359 28.704 61.0199 27.528C60.4226 26.3333 60.1239 24.9333 60.1239 23.328C60.1239 21.7227 60.4226 20.3227 61.0199 19.128C61.6359 17.9333 62.4759 17.0187 63.5399 16.384C64.6039 15.7493 65.8173 15.432 67.1799 15.432ZM67.9079 17.7C66.3399 17.7 65.0799 18.204 64.1279 19.212C63.1946 20.2013 62.7279 21.5733 62.7279 23.328C62.7279 25.0827 63.1946 26.464 64.1279 27.472C65.0799 28.4613 66.3399 28.956 67.9079 28.956C68.9159 28.956 69.8119 28.7227 70.5959 28.256C71.3986 27.7893 72.0239 27.136 72.4719 26.296C72.9199 25.4373 73.1439 24.448 73.1439 23.328C73.1439 22.208 72.9199 21.2187 72.4719 20.36C72.0239 19.5013 71.3986 18.848 70.5959 18.4C69.8119 17.9333 68.9159 17.7 67.9079 17.7Z" fill="#08090A"/>
<path d="M55.9354 127L54.4794 122.156H47.1714L45.7154 127H43.0274L49.2154 107.708H52.5754L58.7354 127H55.9354ZM47.8154 120H53.8354L50.8394 109.92L47.8154 120ZM71.5102 123.556C71.5102 124.153 71.6128 124.601 71.8182 124.9C72.0235 125.18 72.3315 125.395 72.7422 125.544L72.1542 127.336C71.3888 127.243 70.7728 127.028 70.3062 126.692C69.8395 126.356 69.4942 125.833 69.2702 125.124C68.2808 126.599 66.8155 127.336 64.8742 127.336C63.4182 127.336 62.2702 126.925 61.4302 126.104C60.5902 125.283 60.1702 124.209 60.1702 122.884C60.1702 121.316 60.7302 120.112 61.8502 119.272C62.9888 118.432 64.5942 118.012 66.6662 118.012H68.9342V116.92C68.9342 115.875 68.6822 115.128 68.1782 114.68C67.6742 114.232 66.8995 114.008 65.8542 114.008C64.7715 114.008 63.4462 114.269 61.8782 114.792L61.2342 112.916C63.0635 112.244 64.7622 111.908 66.3302 111.908C68.0662 111.908 69.3635 112.337 70.2222 113.196C71.0808 114.036 71.5102 115.24 71.5102 116.808V123.556ZM65.4622 125.404C66.9368 125.404 68.0942 124.639 68.9342 123.108V119.72H67.0022C64.2768 119.72 62.9142 120.728 62.9142 122.744C62.9142 123.621 63.1288 124.284 63.5582 124.732C63.9875 125.18 64.6222 125.404 65.4622 125.404Z" fill="#08090A"/>
<path d="M31.0786 45.67C32.5426 45.67 33.6646 45.976 34.4446 46.588C35.2366 47.188 35.6326 48.112 35.6326 49.36C35.6326 50.68 35.2186 51.652 34.3906 52.276C33.5746 52.888 32.4526 53.194 31.0246 53.194H29.2606V58H28.1806V45.67H31.0786ZM31.0246 52.312C32.1406 52.312 32.9986 52.09 33.5986 51.646C34.1986 51.202 34.4986 50.446 34.4986 49.378C34.4986 48.37 34.2046 47.65 33.6166 47.218C33.0406 46.774 32.1886 46.552 31.0606 46.552H29.2606V52.312H31.0246ZM41.0513 48.388C42.2993 48.388 43.2713 48.82 43.9673 49.684C44.6753 50.536 45.0293 51.73 45.0293 53.266C45.0293 54.79 44.6693 55.996 43.9493 56.884C43.2413 57.76 42.2693 58.198 41.0333 58.198C39.7853 58.198 38.8073 57.766 38.0993 56.902C37.4033 56.026 37.0553 54.826 37.0553 53.302C37.0553 52.306 37.2173 51.436 37.5413 50.692C37.8653 49.948 38.3273 49.378 38.9273 48.982C39.5273 48.586 40.2353 48.388 41.0513 48.388ZM41.0513 49.27C40.1393 49.27 39.4313 49.612 38.9273 50.296C38.4233 50.98 38.1713 51.982 38.1713 53.302C38.1713 54.61 38.4173 55.606 38.9093 56.29C39.4133 56.974 40.1213 57.316 41.0333 57.316C41.9453 57.316 42.6533 56.974 43.1573 56.29C43.6733 55.606 43.9313 54.598 43.9313 53.266C43.9313 51.958 43.6793 50.968 43.1753 50.296C42.6833 49.612 41.9753 49.27 41.0513 49.27ZM51.9825 48.388C53.1225 48.388 53.9745 48.814 54.5385 49.666C55.1145 50.506 55.4025 51.7 55.4025 53.248C55.4025 54.76 55.0905 55.966 54.4665 56.866C53.8545 57.754 52.9725 58.198 51.8205 58.198C51.2565 58.198 50.7465 58.084 50.2905 57.856C49.8345 57.616 49.4505 57.298 49.1385 56.902V61.546L48.0945 61.69V48.586H48.9945L49.0845 49.954C49.4325 49.462 49.8525 49.078 50.3445 48.802C50.8485 48.526 51.3945 48.388 51.9825 48.388ZM51.6225 57.316C52.4865 57.316 53.1465 56.974 53.6025 56.29C54.0585 55.606 54.2865 54.592 54.2865 53.248C54.2865 50.584 53.4525 49.252 51.7845 49.252C51.2205 49.252 50.7285 49.396 50.3085 49.684C49.9005 49.972 49.5105 50.368 49.1385 50.872V55.876C49.7625 56.836 50.5905 57.316 51.6225 57.316ZM62.4415 48.388C63.5815 48.388 64.4335 48.814 64.9975 49.666C65.5735 50.506 65.8615 51.7 65.8615 53.248C65.8615 54.76 65.5495 55.966 64.9255 56.866C64.3135 57.754 63.4315 58.198 62.2795 58.198C61.7155 58.198 61.2055 58.084 60.7495 57.856C60.2935 57.616 59.9095 57.298 59.5975 56.902V61.546L58.5535 61.69V48.586H59.4535L59.5435 49.954C59.8915 49.462 60.3115 49.078 60.8035 48.802C61.3075 48.526 61.8535 48.388 62.4415 48.388ZM62.0815 57.316C62.9455 57.316 63.6055 56.974 64.0615 56.29C64.5175 55.606 64.7455 54.592 64.7455 53.248C64.7455 50.584 63.9115 49.252 62.2435 49.252C61.6795 49.252 61.1875 49.396 60.7675 49.684C60.3595 49.972 59.9695 50.368 59.5975 50.872V55.876C60.2215 56.836 61.0495 57.316 62.0815 57.316ZM70.0565 48.586V58H69.0125V48.586H70.0565ZM69.5165 44.446C69.7565 44.446 69.9485 44.518 70.0925 44.662C70.2365 44.806 70.3085 44.986 70.3085 45.202C70.3085 45.418 70.2365 45.598 70.0925 45.742C69.9485 45.886 69.7565 45.958 69.5165 45.958C69.2885 45.958 69.1025 45.886 68.9585 45.742C68.8145 45.598 68.7425 45.418 68.7425 45.202C68.7425 44.986 68.8145 44.806 68.9585 44.662C69.1025 44.518 69.2885 44.446 69.5165 44.446ZM78.0221 48.388C78.8741 48.388 79.5221 48.64 79.9661 49.144C80.4221 49.648 80.6501 50.356 80.6501 51.268V58H79.6061V51.412C79.6061 50.656 79.4561 50.104 79.1561 49.756C78.8561 49.408 78.4121 49.234 77.8241 49.234C77.2241 49.234 76.6901 49.402 76.2221 49.738C75.7661 50.062 75.3281 50.542 74.9081 51.178V58H73.8641V48.586H74.7641L74.8721 50.188C75.2561 49.624 75.7121 49.186 76.2401 48.874C76.7681 48.55 77.3621 48.388 78.0221 48.388ZM86.6798 48.388C87.2678 48.388 87.8018 48.478 88.2818 48.658C88.7618 48.826 89.2298 49.084 89.6858 49.432L89.1998 50.116C88.7678 49.816 88.3598 49.6 87.9758 49.468C87.5918 49.324 87.1718 49.252 86.7158 49.252C86.0918 49.252 85.5878 49.396 85.2038 49.684C84.8198 49.972 84.6278 50.356 84.6278 50.836C84.6278 51.292 84.7898 51.646 85.1138 51.898C85.4498 52.15 86.0498 52.39 86.9138 52.618C87.9818 52.894 88.7498 53.242 89.2178 53.662C89.6978 54.082 89.9378 54.682 89.9378 55.462C89.9378 56.302 89.6138 56.968 88.9658 57.46C88.3178 57.952 87.5078 58.198 86.5358 58.198C85.8158 58.198 85.1858 58.096 84.6458 57.892C84.1058 57.676 83.6138 57.376 83.1698 56.992L83.7458 56.326C84.1658 56.662 84.5918 56.914 85.0238 57.082C85.4678 57.238 85.9658 57.316 86.5178 57.316C87.2138 57.316 87.7718 57.16 88.1918 56.848C88.6238 56.524 88.8398 56.08 88.8398 55.516C88.8398 55.132 88.7678 54.82 88.6238 54.58C88.4798 54.34 88.2338 54.136 87.8858 53.968C87.5378 53.788 87.0278 53.608 86.3558 53.428C85.3598 53.164 84.6398 52.834 84.1958 52.438C83.7638 52.042 83.5478 51.514 83.5478 50.854C83.5478 50.386 83.6858 49.966 83.9618 49.594C84.2378 49.21 84.6098 48.916 85.0778 48.712C85.5578 48.496 86.0918 48.388 86.6798 48.388Z" fill="#08090A"/>
<path d="M24.5683 153V140.67H30.7243L30.5983 141.57H25.6483V146.376H29.9143V147.276H25.6483V153H24.5683ZM33.5555 143.586V153H32.5115V143.586H33.5555ZM33.0155 139.446C33.2555 139.446 33.4475 139.518 33.5915 139.662C33.7355 139.806 33.8075 139.986 33.8075 140.202C33.8075 140.418 33.7355 140.598 33.5915 140.742C33.4475 140.886 33.2555 140.958 33.0155 140.958C32.7875 140.958 32.6015 140.886 32.4575 140.742C32.3135 140.598 32.2415 140.418 32.2415 140.202C32.2415 139.986 32.3135 139.806 32.4575 139.662C32.6015 139.518 32.7875 139.446 33.0155 139.446ZM41.0171 143.388C41.3891 143.388 41.7011 143.424 41.9531 143.496L41.7551 144.486C41.4911 144.414 41.2151 144.378 40.9271 144.378C40.2911 144.378 39.7751 144.612 39.3791 145.08C38.9951 145.536 38.6711 146.256 38.4071 147.24V153H37.3631V143.586H38.2631L38.3531 145.692C38.6051 144.912 38.9471 144.336 39.3791 143.964C39.8231 143.58 40.3691 143.388 41.0171 143.388ZM49.2951 150.912C49.2951 151.404 49.3551 151.758 49.4751 151.974C49.6071 152.19 49.8111 152.352 50.0871 152.46L49.8531 153.198C49.4211 153.114 49.0851 152.952 48.8451 152.712C48.6171 152.472 48.4671 152.106 48.3951 151.614C47.7471 152.67 46.7691 153.198 45.4611 153.198C44.5611 153.198 43.8471 152.946 43.3191 152.442C42.8031 151.926 42.5451 151.242 42.5451 150.39C42.5451 149.418 42.8871 148.668 43.5711 148.14C44.2671 147.612 45.2271 147.348 46.4511 147.348H48.2511V146.43C48.2511 145.674 48.0831 145.128 47.7471 144.792C47.4111 144.444 46.8531 144.27 46.0731 144.27C45.3531 144.27 44.5011 144.45 43.5171 144.81L43.2471 144.018C44.3031 143.598 45.2931 143.388 46.2171 143.388C48.2691 143.388 49.2951 144.384 49.2951 146.376V150.912ZM45.6411 152.352C46.7691 152.352 47.6391 151.8 48.2511 150.696V148.104H46.6131C45.6531 148.104 44.9211 148.29 44.4171 148.662C43.9131 149.034 43.6611 149.592 43.6611 150.336C43.6611 150.984 43.8351 151.482 44.1831 151.83C44.5311 152.178 45.0171 152.352 45.6411 152.352ZM61.0208 140.472C61.7768 140.472 62.4248 140.586 62.9648 140.814C63.5168 141.03 64.0508 141.372 64.5668 141.84L63.9368 142.524C63.4688 142.128 63.0128 141.84 62.5688 141.66C62.1248 141.48 61.6208 141.39 61.0568 141.39C60.2888 141.39 59.6708 141.582 59.2028 141.966C58.7348 142.338 58.5008 142.842 58.5008 143.478C58.5008 143.91 58.5848 144.27 58.7528 144.558C58.9328 144.834 59.2268 145.086 59.6348 145.314C60.0428 145.53 60.6248 145.752 61.3808 145.98C62.1968 146.232 62.8568 146.502 63.3608 146.79C63.8648 147.078 64.2548 147.45 64.5308 147.906C64.8068 148.362 64.9448 148.938 64.9448 149.634C64.9448 150.33 64.7768 150.948 64.4408 151.488C64.1048 152.028 63.6248 152.448 63.0008 152.748C62.3888 153.048 61.6748 153.198 60.8588 153.198C59.3228 153.198 58.0088 152.682 56.9168 151.65L57.5288 150.966C58.0328 151.398 58.5428 151.728 59.0588 151.956C59.5748 152.172 60.1688 152.28 60.8408 152.28C61.7288 152.28 62.4488 152.046 63.0008 151.578C63.5648 151.11 63.8468 150.474 63.8468 149.67C63.8468 149.166 63.7508 148.752 63.5588 148.428C63.3788 148.104 63.0788 147.828 62.6588 147.6C62.2508 147.36 61.6688 147.12 60.9128 146.88C59.6528 146.496 58.7528 146.052 58.2128 145.548C57.6728 145.044 57.4028 144.36 57.4028 143.496C57.4028 142.92 57.5528 142.404 57.8528 141.948C58.1648 141.48 58.5908 141.12 59.1308 140.868C59.6828 140.604 60.3128 140.472 61.0208 140.472ZM73.676 150.912C73.676 151.404 73.736 151.758 73.856 151.974C73.988 152.19 74.192 152.352 74.468 152.46L74.234 153.198C73.802 153.114 73.466 152.952 73.226 152.712C72.998 152.472 72.848 152.106 72.776 151.614C72.128 152.67 71.15 153.198 69.842 153.198C68.942 153.198 68.228 152.946 67.7 152.442C67.184 151.926 66.926 151.242 66.926 150.39C66.926 149.418 67.268 148.668 67.952 148.14C68.648 147.612 69.608 147.348 70.832 147.348H72.632V146.43C72.632 145.674 72.464 145.128 72.128 144.792C71.792 144.444 71.234 144.27 70.454 144.27C69.734 144.27 68.882 144.45 67.898 144.81L67.628 144.018C68.684 143.598 69.674 143.388 70.598 143.388C72.65 143.388 73.676 144.384 73.676 146.376V150.912ZM70.022 152.352C71.15 152.352 72.02 151.8 72.632 150.696V148.104H70.994C70.034 148.104 69.302 148.29 68.798 148.662C68.294 149.034 68.042 149.592 68.042 150.336C68.042 150.984 68.216 151.482 68.564 151.83C68.912 152.178 69.398 152.352 70.022 152.352ZM81.6344 143.388C82.4864 143.388 83.1344 143.64 83.5784 144.144C84.0344 144.648 84.2624 145.356 84.2624 146.268V153H83.2184V146.412C83.2184 145.656 83.0684 145.104 82.7684 144.756C82.4684 144.408 82.0244 144.234 81.4364 144.234C80.8364 144.234 80.3024 144.402 79.8344 144.738C79.3784 145.062 78.9404 145.542 78.5204 146.178V153H77.4764V143.586H78.3764L78.4844 145.188C78.8684 144.624 79.3244 144.186 79.8524 143.874C80.3804 143.55 80.9744 143.388 81.6344 143.388ZM90.2921 143.388C90.8801 143.388 91.4141 143.478 91.8941 143.658C92.3741 143.826 92.8421 144.084 93.2981 144.432L92.8121 145.116C92.3801 144.816 91.9721 144.6 91.5881 144.468C91.2041 144.324 90.7841 144.252 90.3281 144.252C89.7041 144.252 89.2001 144.396 88.8161 144.684C88.4321 144.972 88.2401 145.356 88.2401 145.836C88.2401 146.292 88.4021 146.646 88.7261 146.898C89.0621 147.15 89.6621 147.39 90.5261 147.618C91.5941 147.894 92.3621 148.242 92.8301 148.662C93.3101 149.082 93.5501 149.682 93.5501 150.462C93.5501 151.302 93.2261 151.968 92.5781 152.46C91.9301 152.952 91.1201 153.198 90.1481 153.198C89.4281 153.198 88.7981 153.096 88.2581 152.892C87.7181 152.676 87.2261 152.376 86.7821 151.992L87.3581 151.326C87.7781 151.662 88.2041 151.914 88.6361 152.082C89.0801 152.238 89.5781 152.316 90.1301 152.316C90.8261 152.316 91.3841 152.16 91.8041 151.848C92.2361 151.524 92.4521 151.08 92.4521 150.516C92.4521 150.132 92.3801 149.82 92.2361 149.58C92.0921 149.34 91.8461 149.136 91.4981 148.968C91.1501 148.788 90.6401 148.608 89.9681 148.428C88.9721 148.164 88.2521 147.834 87.8081 147.438C87.3761 147.042 87.1601 146.514 87.1601 145.854C87.1601 145.386 87.2981 144.966 87.5741 144.594C87.8501 144.21 88.2221 143.916 88.6901 143.712C89.1701 143.496 89.7041 143.388 90.2921 143.388Z" fill="#08090A"/>
<path d="M187.743 8.632C188.255 8.752 188.659 9 188.955 9.376C189.259 9.752 189.411 10.188 189.411 10.684C189.411 11.412 189.167 11.98 188.679 12.388C188.199 12.796 187.507 13 186.603 13H182.655V4.516H186.507C187.371 4.516 188.039 4.704 188.511 5.08C188.983 5.456 189.219 5.992 189.219 6.688C189.219 7.2 189.083 7.628 188.811 7.972C188.539 8.308 188.183 8.528 187.743 8.632ZM184.707 7.984H186.051C186.763 7.984 187.119 7.68 187.119 7.072C187.119 6.464 186.755 6.16 186.027 6.16H184.707V7.984ZM186.171 11.332C186.931 11.332 187.311 11.02 187.311 10.396C187.311 10.092 187.211 9.856 187.011 9.688C186.811 9.512 186.527 9.424 186.159 9.424H184.707V11.332H186.171ZM193.627 6.22C194.291 6.22 194.883 6.36 195.403 6.64C195.931 6.912 196.343 7.308 196.639 7.828C196.943 8.348 197.095 8.956 197.095 9.652C197.095 10.348 196.943 10.956 196.639 11.476C196.343 11.996 195.931 12.396 195.403 12.676C194.883 12.948 194.291 13.084 193.627 13.084C192.963 13.084 192.367 12.948 191.839 12.676C191.311 12.396 190.895 11.996 190.591 11.476C190.295 10.956 190.147 10.348 190.147 9.652C190.147 8.956 190.295 8.348 190.591 7.828C190.895 7.308 191.311 6.912 191.839 6.64C192.367 6.36 192.963 6.22 193.627 6.22ZM193.627 7.996C193.235 7.996 192.903 8.14 192.631 8.428C192.367 8.708 192.235 9.116 192.235 9.652C192.235 10.188 192.367 10.596 192.631 10.876C192.903 11.156 193.235 11.296 193.627 11.296C194.019 11.296 194.347 11.156 194.611 10.876C194.875 10.596 195.007 10.188 195.007 9.652C195.007 9.116 194.875 8.708 194.611 8.428C194.347 8.14 194.019 7.996 193.627 7.996ZM200.211 4.12V13H198.159V4.12H200.211ZM204.172 6.22C204.684 6.22 205.124 6.336 205.492 6.568C205.86 6.8 206.128 7.116 206.296 7.516V4.12H208.348V13H206.296V11.788C206.128 12.188 205.86 12.504 205.492 12.736C205.124 12.968 204.684 13.084 204.172 13.084C203.62 13.084 203.124 12.948 202.684 12.676C202.252 12.396 201.908 11.996 201.652 11.476C201.404 10.956 201.28 10.348 201.28 9.652C201.28 8.948 201.404 8.34 201.652 7.828C201.908 7.308 202.252 6.912 202.684 6.64C203.124 6.36 203.62 6.22 204.172 6.22ZM204.832 8.02C204.392 8.02 204.036 8.164 203.764 8.452C203.5 8.74 203.368 9.14 203.368 9.652C203.368 10.164 203.5 10.564 203.764 10.852C204.036 11.14 204.392 11.284 204.832 11.284C205.264 11.284 205.616 11.136 205.888 10.84C206.168 10.544 206.308 10.148 206.308 9.652C206.308 9.148 206.168 8.752 205.888 8.464C205.616 8.168 205.264 8.02 204.832 8.02Z" fill="black"/>
<path d="M170.553 105.62C171.049 105.708 171.449 105.888 171.753 106.16C172.057 106.424 172.209 106.824 172.209 107.36C172.209 108.16 171.917 108.8 171.333 109.28C170.749 109.76 169.789 110 168.453 110H165.969L167.133 101.708H169.497C170.401 101.708 171.109 101.86 171.621 102.164C172.133 102.468 172.389 102.94 172.389 103.58C172.389 104.132 172.213 104.58 171.861 104.924C171.517 105.268 171.081 105.5 170.553 105.62ZM168.525 102.872L168.213 105.116H169.161C169.665 105.116 170.061 104.992 170.349 104.744C170.637 104.496 170.781 104.152 170.781 103.712C170.781 103.4 170.669 103.184 170.445 103.064C170.229 102.936 169.921 102.872 169.521 102.872H168.525ZM168.561 108.812C169.313 108.812 169.837 108.676 170.133 108.404C170.437 108.132 170.589 107.752 170.589 107.264C170.589 106.568 170.117 106.22 169.173 106.22H168.057L167.697 108.812H168.561ZM175.743 110.18C174.927 110.18 174.295 109.944 173.847 109.472C173.407 109 173.187 108.344 173.187 107.504C173.187 106.88 173.299 106.26 173.523 105.644C173.755 105.028 174.127 104.512 174.639 104.096C175.151 103.68 175.807 103.472 176.607 103.472C177.423 103.472 178.051 103.712 178.491 104.192C178.939 104.664 179.163 105.312 179.163 106.136C179.163 106.76 179.051 107.38 178.827 107.996C178.603 108.612 178.235 109.132 177.723 109.556C177.211 109.972 176.551 110.18 175.743 110.18ZM175.827 109.016C176.267 109.016 176.619 108.852 176.883 108.524C177.147 108.188 177.331 107.788 177.435 107.324C177.539 106.86 177.591 106.408 177.591 105.968C177.591 105.08 177.235 104.636 176.523 104.636C176.083 104.636 175.731 104.8 175.467 105.128C175.203 105.448 175.015 105.836 174.903 106.292C174.799 106.748 174.747 107.192 174.747 107.624C174.747 108.552 175.107 109.016 175.827 109.016ZM181.757 108.5L181.745 108.632C181.745 108.744 181.769 108.824 181.817 108.872C181.865 108.92 181.937 108.944 182.033 108.944C182.113 108.944 182.233 108.92 182.393 108.872L182.621 109.952C182.293 110.104 181.941 110.18 181.565 110.18C181.141 110.18 180.813 110.068 180.581 109.844C180.349 109.612 180.233 109.276 180.233 108.836C180.233 108.668 180.241 108.536 180.257 108.44L181.289 101.108L182.825 100.94L181.757 108.5ZM189.955 101.12L188.707 110H187.375L187.387 109.028C186.883 109.796 186.247 110.18 185.479 110.18C184.831 110.18 184.335 109.956 183.991 109.508C183.647 109.052 183.475 108.428 183.475 107.636C183.475 107.012 183.579 106.38 183.787 105.74C184.003 105.1 184.335 104.564 184.783 104.132C185.239 103.692 185.807 103.472 186.487 103.472C187.111 103.472 187.619 103.704 188.011 104.168L188.467 100.964L189.955 101.12ZM186.799 104.624C186.383 104.624 186.043 104.788 185.779 105.116C185.523 105.444 185.339 105.844 185.227 106.316C185.115 106.78 185.059 107.236 185.059 107.684C185.059 108.572 185.347 109.016 185.923 109.016C186.227 109.016 186.503 108.904 186.751 108.68C186.999 108.456 187.255 108.136 187.519 107.72L187.867 105.224C187.723 105.024 187.563 104.876 187.387 104.78C187.219 104.676 187.023 104.624 186.799 104.624ZM196.221 101.708L195.057 110H193.485L194.649 101.708H196.221ZM198.825 108.092C198.809 108.252 198.801 108.352 198.801 108.392C198.801 108.584 198.841 108.724 198.921 108.812C199.001 108.892 199.129 108.932 199.305 108.932C199.529 108.932 199.801 108.856 200.121 108.704L200.553 109.724C200.065 110.028 199.533 110.18 198.957 110.18C198.421 110.18 198.005 110.04 197.709 109.76C197.421 109.472 197.277 109.068 197.277 108.548C197.277 108.404 197.289 108.248 197.313 108.08L197.781 104.756H196.797L196.953 103.652H197.997L198.393 102.212L199.665 102.068L199.449 103.652H200.913L200.589 104.756H199.293L198.825 108.092ZM204.605 103.472C205.437 103.472 206.245 103.676 207.029 104.084L206.417 108.344C206.401 108.488 206.393 108.58 206.393 108.62C206.393 108.756 206.417 108.864 206.465 108.944C206.521 109.024 206.617 109.092 206.753 109.148L206.321 110.156C205.577 110.076 205.141 109.724 205.013 109.1C204.485 109.82 203.853 110.18 203.117 110.18C202.469 110.18 201.965 109.956 201.605 109.508C201.253 109.06 201.077 108.456 201.077 107.696C201.077 107.04 201.197 106.388 201.437 105.74C201.685 105.092 202.073 104.552 202.601 104.12C203.129 103.688 203.797 103.472 204.605 103.472ZM204.581 104.6C204.141 104.6 203.777 104.76 203.489 105.08C203.201 105.392 202.989 105.788 202.853 106.268C202.725 106.74 202.661 107.216 202.661 107.696C202.661 108.576 202.953 109.016 203.537 109.016C203.809 109.016 204.057 108.932 204.281 108.764C204.505 108.588 204.737 108.336 204.977 108.008L205.433 104.768C205.177 104.656 204.893 104.6 204.581 104.6ZM209.612 108.5L209.6 108.632C209.6 108.744 209.624 108.824 209.672 108.872C209.72 108.92 209.792 108.944 209.888 108.944C209.968 108.944 210.088 108.92 210.248 108.872L210.476 109.952C210.148 110.104 209.796 110.18 209.42 110.18C208.996 110.18 208.668 110.068 208.436 109.844C208.204 109.612 208.088 109.276 208.088 108.836C208.088 108.668 208.096 108.536 208.112 108.44L209.144 101.108L210.68 100.94L209.612 108.5ZM213.813 103.652L212.925 110H211.413L212.301 103.652H213.813ZM213.297 102.296C213.041 102.296 212.833 102.22 212.673 102.068C212.513 101.908 212.433 101.708 212.433 101.468C212.433 101.172 212.533 100.928 212.733 100.736C212.933 100.536 213.181 100.436 213.477 100.436C213.733 100.436 213.941 100.516 214.101 100.676C214.261 100.828 214.341 101.028 214.341 101.276C214.341 101.564 214.241 101.808 214.041 102.008C213.841 102.2 213.593 102.296 213.297 102.296ZM218.149 103.472C218.933 103.472 219.581 103.724 220.093 104.228L219.325 105.14C219.141 104.972 218.957 104.856 218.773 104.792C218.589 104.72 218.385 104.684 218.161 104.684C217.513 104.684 217.045 104.984 216.757 105.584C216.477 106.176 216.337 106.844 216.337 107.588C216.337 108.06 216.433 108.404 216.625 108.62C216.817 108.828 217.097 108.932 217.465 108.932C217.697 108.932 217.913 108.896 218.113 108.824C218.321 108.744 218.557 108.624 218.821 108.464L219.397 109.484C218.733 109.948 218.033 110.18 217.297 110.18C216.489 110.18 215.861 109.944 215.413 109.472C214.965 108.992 214.741 108.336 214.741 107.504C214.741 106.896 214.861 106.284 215.101 105.668C215.341 105.044 215.717 104.524 216.229 104.108C216.741 103.684 217.381 103.472 218.149 103.472ZM223.138 103.472C224.002 103.472 224.742 103.74 225.358 104.276L224.662 105.128C224.182 104.784 223.674 104.612 223.138 104.612C222.81 104.612 222.554 104.672 222.37 104.792C222.194 104.912 222.106 105.076 222.106 105.284C222.106 105.476 222.19 105.628 222.358 105.74C222.526 105.844 222.858 105.976 223.354 106.136C223.938 106.32 224.37 106.564 224.65 106.868C224.93 107.164 225.07 107.556 225.07 108.044C225.07 108.468 224.954 108.844 224.722 109.172C224.498 109.492 224.178 109.74 223.762 109.916C223.346 110.092 222.862 110.18 222.31 110.18C221.782 110.18 221.302 110.088 220.87 109.904C220.446 109.72 220.094 109.484 219.814 109.196L220.606 108.368C221.118 108.808 221.698 109.028 222.346 109.028C222.746 109.028 223.042 108.948 223.234 108.788C223.434 108.62 223.534 108.428 223.534 108.212C223.534 108.044 223.494 107.908 223.414 107.804C223.342 107.692 223.218 107.596 223.042 107.516C222.866 107.428 222.598 107.324 222.238 107.204C221.654 107.02 221.23 106.788 220.966 106.508C220.71 106.22 220.582 105.852 220.582 105.404C220.582 105.068 220.678 104.752 220.87 104.456C221.07 104.16 221.362 103.924 221.746 103.748C222.13 103.564 222.594 103.472 223.138 103.472Z" fill="black"/>
<path d="M188.024 124.608C188.592 124.712 189.048 124.916 189.392 125.22C189.744 125.524 189.92 125.988 189.92 126.612C189.92 127.476 189.616 128.092 189.008 128.46C188.4 128.82 187.548 129 186.452 129H183.956V120.708H186.128C188.416 120.708 189.56 121.412 189.56 122.82C189.56 123.308 189.412 123.708 189.116 124.02C188.82 124.324 188.456 124.52 188.024 124.608ZM185.54 121.872V124.116H186.512C186.952 124.116 187.3 124.02 187.556 123.828C187.812 123.628 187.94 123.336 187.94 122.952C187.94 122.552 187.804 122.272 187.532 122.112C187.268 121.952 186.852 121.872 186.284 121.872H185.54ZM186.464 127.812C187.048 127.812 187.492 127.724 187.796 127.548C188.108 127.372 188.264 127.04 188.264 126.552C188.264 126.08 188.116 125.74 187.82 125.532C187.532 125.324 187.136 125.22 186.632 125.22H185.54V127.812H186.464ZM193.86 122.472C194.796 122.472 195.524 122.772 196.044 123.372C196.572 123.964 196.836 124.78 196.836 125.82C196.836 126.484 196.716 127.072 196.476 127.584C196.236 128.088 195.892 128.48 195.444 128.76C194.996 129.04 194.464 129.18 193.848 129.18C192.912 129.18 192.18 128.884 191.652 128.292C191.124 127.692 190.86 126.868 190.86 125.82C190.86 125.156 190.98 124.572 191.22 124.068C191.46 123.564 191.804 123.172 192.252 122.892C192.708 122.612 193.244 122.472 193.86 122.472ZM193.86 123.636C192.94 123.636 192.48 124.364 192.48 125.82C192.48 126.572 192.592 127.128 192.816 127.488C193.048 127.84 193.392 128.016 193.848 128.016C194.304 128.016 194.644 127.836 194.868 127.476C195.1 127.116 195.216 126.564 195.216 125.82C195.216 125.076 195.1 124.528 194.868 124.176C194.644 123.816 194.308 123.636 193.86 123.636ZM199.776 129.18C199.288 129.18 198.904 129.04 198.624 128.76C198.352 128.472 198.216 128.068 198.216 127.548V120.108L199.752 119.94V127.5C199.752 127.796 199.872 127.944 200.112 127.944C200.232 127.944 200.352 127.924 200.472 127.884L200.796 128.964C200.476 129.108 200.136 129.18 199.776 129.18ZM207.096 120.108V129H205.74L205.632 128.196C205.432 128.5 205.176 128.74 204.864 128.916C204.56 129.092 204.212 129.18 203.82 129.18C203.044 129.18 202.448 128.88 202.032 128.28C201.616 127.68 201.408 126.864 201.408 125.832C201.408 125.184 201.512 124.608 201.72 124.104C201.928 123.592 202.224 123.192 202.608 122.904C203 122.616 203.452 122.472 203.964 122.472C204.572 122.472 205.104 122.7 205.56 123.156V119.94L207.096 120.108ZM204.252 128.016C204.524 128.016 204.764 127.952 204.972 127.824C205.18 127.688 205.376 127.48 205.56 127.2V124.296C205.376 124.072 205.188 123.904 204.996 123.792C204.812 123.68 204.596 123.624 204.348 123.624C203.94 123.624 203.616 123.808 203.376 124.176C203.144 124.536 203.028 125.084 203.028 125.82C203.028 126.604 203.132 127.168 203.34 127.512C203.548 127.848 203.852 128.016 204.252 128.016Z" fill="black"/>
<path d="M178.952 142.496H177.668V146H176.528V137.732H178.7C179.732 137.732 180.512 137.928 181.04 138.32C181.576 138.712 181.844 139.296 181.844 140.072C181.844 140.648 181.696 141.116 181.4 141.476C181.104 141.836 180.656 142.108 180.056 142.292L182.288 146H180.932L178.952 142.496ZM178.82 141.62C179.42 141.62 179.872 141.5 180.176 141.26C180.48 141.012 180.632 140.616 180.632 140.072C180.632 139.56 180.476 139.192 180.164 138.968C179.86 138.736 179.368 138.62 178.688 138.62H177.668V141.62H178.82ZM188.334 142.652C188.334 142.836 188.326 143.024 188.31 143.216H184.278C184.326 143.912 184.502 144.424 184.806 144.752C185.11 145.08 185.502 145.244 185.982 145.244C186.286 145.244 186.566 145.2 186.822 145.112C187.078 145.024 187.346 144.884 187.626 144.692L188.106 145.352C187.434 145.88 186.698 146.144 185.898 146.144C185.018 146.144 184.33 145.856 183.834 145.28C183.346 144.704 183.102 143.912 183.102 142.904C183.102 142.248 183.206 141.668 183.414 141.164C183.63 140.652 183.934 140.252 184.326 139.964C184.726 139.676 185.194 139.532 185.73 139.532C186.57 139.532 187.214 139.808 187.662 140.36C188.11 140.912 188.334 141.676 188.334 142.652ZM187.242 142.328C187.242 141.704 187.118 141.228 186.87 140.9C186.622 140.572 186.25 140.408 185.754 140.408C184.85 140.408 184.358 141.072 184.278 142.4H187.242V142.328ZM195.197 139.964C194.957 140.044 194.693 140.096 194.405 140.12C194.117 140.144 193.765 140.156 193.349 140.156C194.093 140.492 194.465 141.024 194.465 141.752C194.465 142.384 194.249 142.9 193.817 143.3C193.385 143.7 192.797 143.9 192.053 143.9C191.765 143.9 191.497 143.86 191.249 143.78C191.153 143.844 191.077 143.932 191.021 144.044C190.965 144.148 190.937 144.256 190.937 144.368C190.937 144.712 191.213 144.884 191.765 144.884H192.773C193.197 144.884 193.573 144.96 193.901 145.112C194.229 145.264 194.481 145.472 194.657 145.736C194.841 146 194.933 146.3 194.933 146.636C194.933 147.252 194.681 147.724 194.177 148.052C193.673 148.388 192.937 148.556 191.969 148.556C191.289 148.556 190.749 148.484 190.349 148.34C189.957 148.204 189.677 147.996 189.509 147.716C189.341 147.436 189.257 147.076 189.257 146.636H190.253C190.253 146.892 190.301 147.092 190.397 147.236C190.493 147.388 190.665 147.5 190.913 147.572C191.161 147.652 191.513 147.692 191.969 147.692C192.633 147.692 193.105 147.608 193.385 147.44C193.673 147.28 193.817 147.036 193.817 146.708C193.817 146.412 193.705 146.188 193.481 146.036C193.257 145.884 192.945 145.808 192.545 145.808H191.549C191.013 145.808 190.605 145.696 190.325 145.472C190.053 145.24 189.917 144.952 189.917 144.608C189.917 144.4 189.977 144.2 190.097 144.008C190.217 143.816 190.389 143.644 190.613 143.492C190.245 143.3 189.973 143.064 189.797 142.784C189.629 142.496 189.545 142.148 189.545 141.74C189.545 141.316 189.649 140.936 189.857 140.6C190.073 140.264 190.365 140.004 190.733 139.82C191.109 139.628 191.525 139.532 191.981 139.532C192.477 139.54 192.893 139.524 193.229 139.484C193.565 139.436 193.841 139.376 194.057 139.304C194.281 139.224 194.553 139.112 194.873 138.968L195.197 139.964ZM191.981 140.324C191.565 140.324 191.241 140.456 191.009 140.72C190.785 140.976 190.673 141.316 190.673 141.74C190.673 142.172 190.789 142.52 191.021 142.784C191.253 143.04 191.581 143.168 192.005 143.168C192.437 143.168 192.765 143.044 192.989 142.796C193.221 142.54 193.337 142.184 193.337 141.728C193.337 140.792 192.885 140.324 191.981 140.324ZM200.918 146H199.97L199.886 145.016C199.646 145.408 199.37 145.696 199.058 145.88C198.746 146.056 198.366 146.144 197.918 146.144C197.366 146.144 196.934 145.976 196.622 145.64C196.31 145.304 196.154 144.828 196.154 144.212V139.676H197.258V144.092C197.258 144.524 197.334 144.832 197.486 145.016C197.638 145.192 197.886 145.28 198.23 145.28C198.846 145.28 199.374 144.916 199.814 144.188V139.676H200.918V146ZM204.459 146.144C204.051 146.144 203.727 146.024 203.487 145.784C203.255 145.536 203.139 145.192 203.139 144.752V137.132L204.243 137V144.728C204.243 144.904 204.271 145.032 204.327 145.112C204.391 145.192 204.495 145.232 204.639 145.232C204.791 145.232 204.927 145.208 205.047 145.16L205.335 145.928C205.071 146.072 204.779 146.144 204.459 146.144ZM210.916 144.524C210.916 144.78 210.96 144.972 211.048 145.1C211.136 145.22 211.268 145.312 211.444 145.376L211.192 146.144C210.864 146.104 210.6 146.012 210.4 145.868C210.2 145.724 210.052 145.5 209.956 145.196C209.532 145.828 208.904 146.144 208.072 146.144C207.448 146.144 206.956 145.968 206.596 145.616C206.236 145.264 206.056 144.804 206.056 144.236C206.056 143.564 206.296 143.048 206.776 142.688C207.264 142.328 207.952 142.148 208.84 142.148H209.812V141.68C209.812 141.232 209.704 140.912 209.488 140.72C209.272 140.528 208.94 140.432 208.492 140.432C208.028 140.432 207.46 140.544 206.788 140.768L206.512 139.964C207.296 139.676 208.024 139.532 208.696 139.532C209.44 139.532 209.996 139.716 210.364 140.084C210.732 140.444 210.916 140.96 210.916 141.632V144.524ZM208.324 145.316C208.956 145.316 209.452 144.988 209.812 144.332V142.88H208.984C207.816 142.88 207.232 143.312 207.232 144.176C207.232 144.552 207.324 144.836 207.508 145.028C207.692 145.22 207.964 145.316 208.324 145.316ZM215.931 139.532C216.155 139.532 216.363 139.556 216.555 139.604L216.351 140.684C216.159 140.636 215.975 140.612 215.799 140.612C215.407 140.612 215.091 140.756 214.851 141.044C214.611 141.332 214.423 141.78 214.287 142.388V146H213.183V139.676H214.131L214.239 140.96C214.407 140.488 214.635 140.132 214.923 139.892C215.211 139.652 215.547 139.532 215.931 139.532Z" fill="black"/>
<path d="M180.514 23.66V32H179.134V25.748L176.722 32H175.522L173.098 25.748V32H171.73V23.66H173.386L176.146 30.32L178.858 23.66H180.514ZM188.304 28.376C188.304 28.6 188.288 28.796 188.256 28.964H183.168C183.192 29.644 183.38 30.148 183.732 30.476C184.084 30.804 184.52 30.968 185.04 30.968C185.496 30.968 185.88 30.852 186.192 30.62C186.512 30.388 186.708 30.08 186.78 29.696H188.244C188.156 30.16 187.972 30.572 187.692 30.932C187.412 31.292 187.048 31.576 186.6 31.784C186.152 31.984 185.652 32.084 185.1 32.084C184.46 32.084 183.892 31.948 183.396 31.676C182.908 31.404 182.524 31.012 182.244 30.5C181.964 29.988 181.824 29.384 181.824 28.688C181.824 28 181.964 27.4 182.244 26.888C182.524 26.376 182.908 25.984 183.396 25.712C183.892 25.44 184.46 25.304 185.1 25.304C185.748 25.304 186.312 25.44 186.792 25.712C187.28 25.976 187.652 26.344 187.908 26.816C188.172 27.28 188.304 27.8 188.304 28.376ZM186.924 28.34C186.94 27.908 186.864 27.548 186.696 27.26C186.536 26.964 186.312 26.748 186.024 26.612C185.744 26.468 185.436 26.396 185.1 26.396C184.564 26.396 184.116 26.56 183.756 26.888C183.396 27.216 183.2 27.7 183.168 28.34H186.924ZM192.277 25.304C192.877 25.304 193.389 25.452 193.813 25.748C194.237 26.044 194.533 26.436 194.701 26.924V23.12H196.081V32H194.701V30.464C194.533 30.952 194.237 31.344 193.813 31.64C193.389 31.936 192.877 32.084 192.277 32.084C191.701 32.084 191.185 31.948 190.729 31.676C190.281 31.404 189.929 31.012 189.673 30.5C189.417 29.988 189.289 29.384 189.289 28.688C189.289 28 189.417 27.4 189.673 26.888C189.929 26.376 190.281 25.984 190.729 25.712C191.185 25.44 191.701 25.304 192.277 25.304ZM192.697 26.504C192.089 26.504 191.601 26.7 191.233 27.092C190.873 27.476 190.693 28.008 190.693 28.688C190.693 29.368 190.873 29.904 191.233 30.296C191.601 30.68 192.089 30.872 192.697 30.872C193.081 30.872 193.425 30.784 193.729 30.608C194.033 30.424 194.273 30.168 194.449 29.84C194.625 29.512 194.713 29.128 194.713 28.688C194.713 28.256 194.625 27.876 194.449 27.548C194.273 27.212 194.033 26.956 193.729 26.78C193.425 26.596 193.081 26.504 192.697 26.504ZM197.531 23.468C197.531 23.236 197.611 23.044 197.771 22.892C197.931 22.74 198.143 22.664 198.407 22.664C198.671 22.664 198.883 22.74 199.043 22.892C199.211 23.044 199.295 23.236 199.295 23.468C199.295 23.7 199.211 23.888 199.043 24.032C198.883 24.176 198.671 24.248 198.407 24.248C198.143 24.248 197.931 24.176 197.771 24.032C197.611 23.888 197.531 23.7 197.531 23.468ZM199.091 25.388V32H197.723V25.388H199.091ZM206.842 25.388V32H205.462V30.56C205.294 31.048 205.002 31.428 204.586 31.7C204.17 31.964 203.686 32.096 203.134 32.096C202.366 32.096 201.75 31.848 201.286 31.352C200.822 30.856 200.59 30.148 200.59 29.228V25.388H201.958V29.084C201.958 29.684 202.11 30.148 202.414 30.476C202.718 30.796 203.134 30.956 203.662 30.956C204.206 30.956 204.642 30.78 204.97 30.428C205.298 30.076 205.462 29.564 205.462 28.892V25.388H206.842ZM216.748 25.28C217.532 25.28 218.156 25.528 218.62 26.024C219.092 26.52 219.328 27.228 219.328 28.148V32H217.96V28.292C217.96 27.716 217.816 27.272 217.528 26.96C217.24 26.64 216.844 26.48 216.34 26.48C215.804 26.48 215.376 26.652 215.056 26.996C214.744 27.332 214.588 27.828 214.588 28.484V32H213.22V28.292C213.22 27.716 213.076 27.272 212.788 26.96C212.5 26.64 212.104 26.48 211.6 26.48C211.064 26.48 210.636 26.652 210.316 26.996C210.004 27.332 209.848 27.828 209.848 28.484V32H208.48V25.388H209.848V26.768C210.016 26.288 210.296 25.92 210.688 25.664C211.08 25.408 211.54 25.28 212.068 25.28C212.62 25.28 213.096 25.416 213.496 25.688C213.904 25.96 214.2 26.352 214.384 26.864C214.576 26.368 214.884 25.98 215.308 25.7C215.732 25.42 216.212 25.28 216.748 25.28Z" fill="black"/>
<path d="M178.007 49L175.799 45.544H174.611V49H173.519V40.54H176.303C177.263 40.54 177.983 40.772 178.463 41.236C178.943 41.692 179.183 42.3 179.183 43.06C179.183 43.748 178.991 44.304 178.607 44.728C178.223 45.144 177.667 45.404 176.939 45.508L179.243 49H178.007ZM174.611 44.752H176.207C177.447 44.752 178.067 44.208 178.067 43.12C178.067 42.032 177.447 41.488 176.207 41.488H174.611V44.752ZM186.575 45.34C186.575 45.572 186.559 45.772 186.527 45.94H181.259C181.283 46.692 181.495 47.256 181.895 47.632C182.303 48.008 182.799 48.196 183.383 48.196C183.911 48.196 184.351 48.064 184.703 47.8C185.063 47.528 185.283 47.168 185.363 46.72H186.527C186.447 47.176 186.267 47.584 185.987 47.944C185.715 48.304 185.359 48.584 184.919 48.784C184.479 48.984 183.983 49.084 183.431 49.084C182.799 49.084 182.239 48.948 181.751 48.676C181.263 48.404 180.879 48.016 180.599 47.512C180.327 47 180.191 46.4 180.191 45.712C180.191 45.024 180.327 44.424 180.599 43.912C180.879 43.4 181.263 43.008 181.751 42.736C182.239 42.464 182.799 42.328 183.431 42.328C184.071 42.328 184.627 42.464 185.099 42.736C185.579 43.008 185.943 43.372 186.191 43.828C186.447 44.284 186.575 44.788 186.575 45.34ZM185.471 45.412C185.495 44.924 185.415 44.516 185.231 44.188C185.047 43.86 184.795 43.616 184.475 43.456C184.155 43.296 183.807 43.216 183.431 43.216C182.831 43.216 182.327 43.404 181.919 43.78C181.511 44.148 181.291 44.692 181.259 45.412H185.471ZM190.703 42.328C191.343 42.328 191.883 42.488 192.323 42.808C192.771 43.128 193.083 43.556 193.259 44.092V42.412H194.351V49.108C194.351 49.716 194.223 50.256 193.967 50.728C193.711 51.2 193.351 51.568 192.887 51.832C192.423 52.096 191.883 52.228 191.267 52.228C190.379 52.228 189.655 52.012 189.095 51.58C188.535 51.156 188.179 50.58 188.027 49.852H189.107C189.235 50.292 189.475 50.636 189.827 50.884C190.187 51.14 190.647 51.268 191.207 51.268C191.799 51.268 192.287 51.076 192.671 50.692C193.063 50.316 193.259 49.788 193.259 49.108V47.32C193.083 47.856 192.771 48.284 192.323 48.604C191.883 48.924 191.343 49.084 190.703 49.084C190.119 49.084 189.599 48.948 189.143 48.676C188.687 48.404 188.327 48.016 188.063 47.512C187.807 47 187.679 46.4 187.679 45.712C187.679 45.024 187.807 44.424 188.063 43.912C188.327 43.4 188.687 43.008 189.143 42.736C189.599 42.464 190.119 42.328 190.703 42.328ZM191.015 43.3C190.343 43.3 189.803 43.516 189.395 43.948C188.995 44.372 188.795 44.96 188.795 45.712C188.795 46.464 188.995 47.056 189.395 47.488C189.803 47.912 190.343 48.124 191.015 48.124C191.447 48.124 191.831 48.024 192.167 47.824C192.511 47.624 192.779 47.344 192.971 46.984C193.163 46.616 193.259 46.192 193.259 45.712C193.259 45.232 193.163 44.808 192.971 44.44C192.779 44.072 192.511 43.792 192.167 43.6C191.831 43.4 191.447 43.3 191.015 43.3ZM201.945 42.412V49H200.853V47.452C200.685 47.988 200.385 48.4 199.953 48.688C199.529 48.968 199.033 49.108 198.465 49.108C197.705 49.108 197.089 48.864 196.617 48.376C196.145 47.88 195.909 47.172 195.909 46.252V42.412H197.001V46.144C197.001 46.8 197.169 47.308 197.505 47.668C197.841 48.02 198.297 48.196 198.873 48.196C199.473 48.196 199.953 48.004 200.313 47.62C200.673 47.228 200.853 46.66 200.853 45.916V42.412H201.945ZM204.786 40.12V49H203.694V40.12H204.786ZM209.242 42.328C209.882 42.328 210.422 42.488 210.862 42.808C211.31 43.128 211.622 43.556 211.798 44.092V42.412H212.89V49H211.798V47.32C211.622 47.856 211.31 48.284 210.862 48.604C210.422 48.924 209.882 49.084 209.242 49.084C208.658 49.084 208.138 48.948 207.682 48.676C207.226 48.404 206.866 48.016 206.602 47.512C206.346 47 206.218 46.4 206.218 45.712C206.218 45.024 206.346 44.424 206.602 43.912C206.866 43.4 207.226 43.008 207.682 42.736C208.138 42.464 208.658 42.328 209.242 42.328ZM209.554 43.3C208.882 43.3 208.342 43.516 207.934 43.948C207.534 44.372 207.334 44.96 207.334 45.712C207.334 46.464 207.534 47.056 207.934 47.488C208.342 47.912 208.882 48.124 209.554 48.124C209.986 48.124 210.37 48.024 210.706 47.824C211.05 47.624 211.318 47.344 211.51 46.984C211.702 46.616 211.798 46.192 211.798 45.712C211.798 45.232 211.702 44.808 211.51 44.44C211.318 44.072 211.05 43.792 210.706 43.6C210.37 43.4 209.986 43.3 209.554 43.3ZM215.72 43.744C215.936 43.288 216.252 42.936 216.668 42.688C217.084 42.432 217.58 42.304 218.156 42.304V43.492H217.82C217.204 43.492 216.7 43.652 216.308 43.972C215.916 44.284 215.72 44.804 215.72 45.532V49H214.628V42.412H215.72V43.744Z" fill="black"/>
<path d="M183.512 68.784H186.752V69H183.272V60.552H183.512V68.784ZM187.814 60.54C187.814 60.444 187.842 60.368 187.898 60.312C187.962 60.248 188.038 60.216 188.126 60.216C188.214 60.216 188.286 60.248 188.342 60.312C188.406 60.368 188.438 60.444 188.438 60.54C188.438 60.636 188.406 60.716 188.342 60.78C188.286 60.836 188.214 60.864 188.126 60.864C188.038 60.864 187.962 60.836 187.898 60.78C187.842 60.716 187.814 60.636 187.814 60.54ZM188.246 62.52V69H188.006V62.52H188.246ZM193.147 62.436C193.891 62.436 194.519 62.636 195.031 63.036C195.551 63.436 195.899 63.96 196.075 64.608V62.52H196.303V69.24C196.303 69.84 196.171 70.36 195.907 70.8C195.643 71.248 195.291 71.588 194.851 71.82C194.419 72.052 193.947 72.168 193.435 72.168C192.651 72.168 191.999 71.976 191.479 71.592C190.967 71.216 190.615 70.704 190.423 70.056H190.663C190.847 70.64 191.171 71.1 191.635 71.436C192.107 71.78 192.707 71.952 193.435 71.952C193.931 71.952 194.379 71.84 194.779 71.616C195.179 71.392 195.495 71.076 195.727 70.668C195.959 70.26 196.075 69.784 196.075 69.24V66.912C195.899 67.56 195.551 68.084 195.031 68.484C194.519 68.884 193.891 69.084 193.147 69.084C192.531 69.084 191.983 68.952 191.503 68.688C191.023 68.416 190.651 68.032 190.387 67.536C190.123 67.032 189.991 66.44 189.991 65.76C189.991 65.08 190.123 64.492 190.387 63.996C190.651 63.492 191.023 63.108 191.503 62.844C191.983 62.572 192.531 62.436 193.147 62.436ZM193.147 62.652C192.555 62.652 192.039 62.776 191.599 63.024C191.167 63.272 190.831 63.632 190.591 64.104C190.351 64.568 190.231 65.12 190.231 65.76C190.231 66.4 190.351 66.956 190.591 67.428C190.831 67.892 191.167 68.248 191.599 68.496C192.039 68.744 192.555 68.868 193.147 68.868C193.707 68.868 194.207 68.74 194.647 68.484C195.095 68.22 195.443 67.856 195.691 67.392C195.947 66.92 196.075 66.376 196.075 65.76C196.075 65.144 195.947 64.604 195.691 64.14C195.443 63.668 195.095 63.304 194.647 63.048C194.207 62.784 193.707 62.652 193.147 62.652ZM201.126 62.376C201.886 62.376 202.51 62.612 202.998 63.084C203.486 63.556 203.73 64.268 203.73 65.22V69H203.502V65.196C203.502 64.348 203.29 63.704 202.866 63.264C202.442 62.816 201.862 62.592 201.126 62.592C200.358 62.592 199.742 62.844 199.278 63.348C198.814 63.844 198.582 64.58 198.582 65.556V69H198.342V60.12H198.582V64.344C198.734 63.688 199.042 63.196 199.506 62.868C199.978 62.54 200.518 62.376 201.126 62.376ZM206.229 62.76V67.296C206.229 67.688 206.273 67.988 206.361 68.196C206.449 68.404 206.589 68.552 206.781 68.64C206.973 68.72 207.241 68.76 207.585 68.76H208.269V69H207.561C207.001 69 206.597 68.872 206.349 68.616C206.109 68.36 205.989 67.92 205.989 67.296V62.76H204.933V62.52H205.989V60.864H206.229V62.52H208.269V62.76H206.229Z" fill="black"/>
</svg>
